<?xml version="1.0" standalone="no"?>
<!DOCTYPE svg PUBLIC "-//W3C//DTD SVG 1.1//EN" "http://www.w3.org/Graphics/SVG/1.1/DTD/svg11.dtd" >
<svg xmlns="http://www.w3.org/2000/svg">
<metadata>Generated by IcoMoon</metadata>
<defs>
<font id="icomoon" horiz-adv-x="1024">
<font-face units-per-em="1024" ascent="960" descent="-64" />
<missing-glyph horiz-adv-x="1024" />
<glyph unicode="&#x20;" horiz-adv-x="512" d="" />
<glyph unicode="&#xe900;" glyph-name="activity" d="M102.4 411.648h185.344l100.352 301.056 247.808-741.376 148.48 440.32h137.216v70.656h-184.32l-101.376-300.032-247.808 742.4-147.456-442.368h-138.24v-70.656z" />
<glyph unicode="&#xe901;" glyph-name="apple" d="M384 28.16c20.48 0 50.176 9.216 69.632 17.408 26.624 10.24 53.248 16.384 76.8 16.384 21.504 0 46.080-6.144 74.752-16.384 26.624-11.264 49.152-17.408 68.608-17.408 26.624 0 51.2 12.288 74.752 33.792 14.336 11.264 33.792 35.84 57.344 69.632 17.408 23.552 32.768 51.2 46.080 80.896l14.336 38.912c-65.536 27.648-114.688 90.112-114.688 171.008-2.048 69.632 29.696 123.904 93.184 161.792-36.864 51.2-89.088 78.848-158.72 83.968-27.648 2.048-59.392-4.096-96.256-17.408-39.936-14.336-64.512-21.504-71.68-21.504-8.192 0-30.72 6.144-62.464 19.456-34.816 11.264-60.416 17.408-80.896 17.408-36.864-1.024-70.656-9.216-102.4-28.672-32.768-18.432-57.344-44.032-76.8-77.824-24.576-39.936-37.888-89.088-37.888-145.408 0-48.128 9.216-99.328 28.672-152.576 16.384-48.128 37.888-90.112 63.488-126.976 25.6-35.84 45.056-59.392 61.44-72.704 23.552-22.528 48.128-33.792 72.704-33.792zM513.024 684.544c0-5.12 0-10.24 1.024-15.36 89.088-8.192 175.104 89.088 175.104 182.272v16.384c-21.504-1.024-45.056-7.168-68.608-19.456-65.536-32.768-107.52-98.304-107.52-163.84z" />
<glyph unicode="&#xe902;" glyph-name="arrow-bottom" d="M512 48.128l282.624 283.648-40.96 41.984-141.312-142.336c-22.528-22.528-46.080-46.080-68.608-70.656v687.104h-63.488v-687.104c-22.528 24.576-46.080 48.128-68.608 70.656l-141.312 142.336-40.96-41.984 282.624-283.648z" />
<glyph unicode="&#xe903;" glyph-name="arrow-down" d="M467.456 92.16h400.384v400.384l-58.368 1.024v-200.704c0-32.768 1.024-66.56 1.024-99.328l-609.28 610.304-45.056-45.056 610.304-609.28c-32.768 1.024-66.56 1.024-98.304 1.024h-200.704v-58.368z" />
<glyph unicode="&#xe904;" glyph-name="arrow-from-bottom" d="M480.256 721.92v-481.28h63.488v482.304c21.504-23.552 45.056-47.104 66.56-69.632l95.232-94.208 40.96 40.96-234.496 234.496-234.496-234.496 41.984-40.96 94.208 94.208c22.528 21.504 45.056 45.056 66.56 68.608zM153.6 61.44h716.8v66.56h-716.8v-66.56z" />
<glyph unicode="&#xe905;" glyph-name="arrow-left" d="M395.776 165.376l41.984 40.96-142.336 141.312c-22.528 22.528-46.080 46.080-70.656 68.608h687.104v63.488h-687.104c24.576 22.528 48.128 46.080 70.656 68.608l142.336 141.312-41.984 40.96-283.648-282.624 283.648-282.624z" />
<glyph unicode="&#xe906;" glyph-name="arrow-right" d="M628.224 165.376l283.648 282.624-283.648 282.624-41.984-40.96 142.336-141.312c22.528-22.528 47.104-46.080 70.656-68.608h-687.104v-63.488h687.104c-23.552-22.528-48.128-46.080-70.656-68.608l-142.336-141.312 41.984-40.96z" />
<glyph unicode="&#xe907;" glyph-name="arrow-to-bottom" d="M512 230.4l234.496 234.496-40.96 40.96-95.232-94.208c-21.504-22.528-45.056-46.080-66.56-69.632v482.304h-63.488v-481.28c-21.504 23.552-44.032 47.104-66.56 68.608l-94.208 94.208-41.984-40.96 234.496-234.496zM153.6 71.68h716.8v66.56h-716.8v-66.56z" />
<glyph unicode="&#xe908;" glyph-name="arrow-top" d="M480.256 735.232v-687.104h63.488v687.104c22.528-23.552 46.080-48.128 68.608-70.656l141.312-142.336 40.96 41.984-282.624 283.648-282.624-283.648 40.96-41.984 141.312 142.336c22.528 22.528 46.080 47.104 68.608 70.656z" />
<glyph unicode="&#xe909;" glyph-name="arrow-up" d="M201.216 92.16l609.28 610.304c0-32.768-1.024-66.56-1.024-98.304v-200.704h58.368v400.384h-400.384v-58.368h200.704c31.744 0 65.536 1.024 98.304 1.024l-610.304-609.28 45.056-45.056z" />
<glyph unicode="&#xe90a;" glyph-name="bandwith" d="M831.488 89.6h70.656v716.8h-70.656v-716.8zM121.856 89.6h70.656v181.248h-70.656v-181.248zM299.008 89.6h70.656v315.392h-70.656v-315.392zM477.184 89.6h69.632v449.536h-69.632v-449.536zM654.336 89.6h70.656v583.68h-70.656v-583.68z" />
<glyph unicode="&#xe90b;" glyph-name="bar-chart" d="M707.584 69.12h214.016v757.76h-214.016v-757.76zM102.4 69.12h214.016v576.512h-214.016v-576.512zM161.792 128.512v458.752h96.256v-458.752h-96.256zM404.48 69.12h215.040v429.056h-215.040v-429.056zM463.872 128.512v311.296h97.28v-311.296h-97.28zM766.976 128.512v640h96.256v-640h-96.256z" />
<glyph unicode="&#xe90c;" glyph-name="battery-half" d="M89.6 203.264h761.856v92.16h82.944v305.152h-82.944v92.16h-761.856v-489.472zM156.16 266.752v363.52h628.736v-92.16h82.944v-179.2h-82.944v-92.16h-628.736zM232.96 343.552h273.408v209.92h-273.408v-209.92z" />
<glyph unicode="&#xe90d;" glyph-name="bed" d="M96.256 158.72h63.488v133.12h705.536l-1.024-133.12h63.488v295.936c0 86.016-65.536 151.552-151.552 151.552l-270.336-1.024v-246.784h-346.112v378.88h-63.488v-578.56zM205.824 530.432c0-70.656 57.344-126.976 126.976-126.976s126.976 56.32 126.976 126.976c0 69.632-57.344 125.952-126.976 125.952s-126.976-56.32-126.976-125.952zM261.12 530.432c0 38.912 31.744 71.68 71.68 71.68s71.68-32.768 71.68-71.68c0-39.936-31.744-71.68-71.68-71.68s-71.68 31.744-71.68 71.68zM568.32 358.4v184.32l226.304 1.024c46.080 0 70.656-24.576 70.656-70.656v-114.688h-296.96z" />
<glyph unicode="&#xe90e;" glyph-name="blockchain" d="M137.216 132.608l201.728-117.76 173.056 100.352 173.056-100.352 201.728 117.76v231.424l-143.36 83.968 143.36 83.968v231.424l-201.728 117.76-173.056-100.352-173.056 100.352-201.728-117.76v-231.424l143.36-83.968-143.36-83.968v-231.424zM194.56 165.376v138.24l120.832-68.608v-139.264l-120.832 69.632zM194.56 564.736v138.24l120.832-68.608v-139.264l-120.832 69.632zM218.112 344.576l125.952 72.704 120.832-69.632-125.952-72.704-120.832 69.632zM218.112 743.936l120.832 69.632 120.832-69.632-120.832-69.632-120.832 69.632zM362.496 95.744v139.264l125.952 71.68v-137.216l-125.952-73.728zM362.496 488.96v145.408l125.952 71.68v-144.384l-125.952-72.704zM386.048 448l125.952 73.728 125.952-73.728-125.952-73.728-125.952 73.728zM535.552 169.472v137.216l125.952-71.68v-139.264l-125.952 73.728zM535.552 561.664v144.384l125.952-71.68v-145.408l-125.952 72.704zM559.104 347.648l120.832 69.632 125.952-72.704-120.832-69.632-125.952 72.704zM564.224 743.936l120.832 69.632 120.832-69.632-120.832-69.632-120.832 69.632zM708.608 95.744v139.264l120.832 68.608v-138.24l-120.832-69.632zM708.608 495.104v139.264l120.832 68.608v-138.24l-120.832-69.632z" />
<glyph unicode="&#xe90f;" glyph-name="bluetooth" d="M512 7.68c231.424 0 336.896 136.192 338.944 440.32-2.048 304.128-107.52 440.32-338.944 440.32s-336.896-136.192-338.944-440.32c2.048-304.128 107.52-440.32 338.944-440.32zM321.536 287.232l159.744 160.768-159.744 160.768 43.008 43.008 126.976-131.072v307.2l222.208-229.376-150.528-150.528 150.528-150.528-222.208-229.376v307.2l-126.976-131.072-43.008 43.008zM551.936 219.648l74.752 77.824-74.752 77.824v-155.648zM551.936 520.704l74.752 77.824-74.752 77.824v-155.648z" />
<glyph unicode="&#xe910;" glyph-name="bracketleft" d="M153.6 1277.44v-471.040h104.448v366.592h612.352v104.448h-716.8zM153.6-381.44h716.8v104.448h-612.352v366.592h-104.448v-471.040z" />
<glyph unicode="&#xe911;" glyph-name="bracketright" d="M870.4 806.4v471.040h-716.8v-104.448h612.352v-366.592h104.448zM153.6-381.44h716.8v471.040h-104.448v-366.592h-612.352v-104.448z" />
<glyph unicode="&#xe912;" glyph-name="brackets" d="M834.56 524.8h66.56v312.32h-312.32v-66.56h245.76v-245.76zM122.88 59.904h312.32v66.56h-245.76v245.76h-66.56v-312.32zM122.88 524.8h66.56v245.76h245.76v66.56h-312.32v-312.32zM588.8 58.88h312.32v312.32h-66.56v-245.76h-245.76v-66.56z" />
<glyph unicode="&#xe913;" glyph-name="bring-front" d="M537.6 53.76h368.64v368.64h-122.88v-62.464h60.416v-243.712h-243.712v60.416h-62.464v-122.88zM117.76 473.6h122.88v62.464h-60.416v243.712h248.832v-60.416h62.464v122.88h-373.76v-368.64zM327.68 263.68h368.64v368.64h-368.64v-368.64zM390.144 326.144v243.712h243.712v-243.712h-243.712z" />
<glyph unicode="&#xe914;" glyph-name="buy-crypto" d="M112.64 448h63.488v220.16h665.6c-21.504-19.456-41.984-38.912-62.464-58.368l-53.248-54.272 40.96-41.984 185.344 186.368-185.344 185.344-40.96-41.984 53.248-53.248c19.456-19.456 39.936-38.912 60.416-58.368h-727.040v-283.648zM71.68 196.096l185.344-185.344 40.96 41.984-53.248 54.272c-19.456 18.432-39.936 38.912-60.416 57.344h727.040v283.648h-63.488v-220.16h-664.576c20.48 19.456 41.984 38.912 61.44 58.368l53.248 55.296-40.96 40.96-185.344-186.368z" />
<glyph unicode="&#xe915;" glyph-name="buy-crypto-alt" d="M512 53.76c221.184 0 394.24 179.2 394.24 394.24 0 220.16-174.080 394.24-394.24 394.24s-394.24-174.080-394.24-394.24 174.080-394.24 394.24-394.24zM184.32 448c0 184.32 144.384 327.68 327.68 327.68 184.32 0 327.68-143.36 327.68-327.68 0-178.176-143.36-327.68-327.68-327.68-183.296 0-327.68 144.384-327.68 327.68zM353.28 387.584c-1.024-78.848 54.272-135.168 135.168-144.384v-50.176h48.128v50.176c77.824 9.216 133.12 59.392 133.12 125.952 0 61.44-44.032 96.256-113.664 106.496l-66.56 9.216c-44.032 5.12-62.464 19.456-62.464 54.272 0 44.032 30.72 60.416 86.016 60.416 61.44 0 83.968-21.504 83.968-77.824h63.488c0 68.608-52.224 122.88-123.904 132.096v51.2h-48.128v-50.176c-71.68-9.216-122.88-57.344-122.88-119.808 0-59.392 37.888-94.208 102.4-103.424l66.56-8.192c50.176-7.168 69.632-21.504 69.632-59.392 0-47.104-28.672-64.512-91.136-64.512-71.68 0-97.28 23.552-97.28 88.064h-62.464z" />
<glyph unicode="&#xe916;" glyph-name="chart-network" d="M841.216 91.648c57.344 0 104.448 47.104 104.448 104.448s-47.104 104.448-104.448 104.448c-27.648 0-53.248-10.24-71.68-28.672l-102.4 61.44c5.12 14.336 8.192 30.72 8.192 47.104 0 78.848-63.488 143.36-142.336 143.36-12.288 0-24.576-2.048-35.84-5.12l-49.152 103.424c22.528 18.432 35.84 47.104 35.84 77.824 0 57.344-47.104 104.448-104.448 104.448s-104.448-47.104-104.448-104.448 47.104-104.448 104.448-104.448c7.168 0 13.312 1.024 19.456 2.048l49.152-103.424c-34.816-25.6-56.32-66.56-56.32-113.664 0-78.848 62.464-141.312 141.312-141.312 41.984 0 79.872 17.408 105.472 46.080l102.4-60.416c-3.072-9.216-4.096-18.432-4.096-28.672 0-57.344 47.104-104.448 104.448-104.448zM78.336 380.416c0-44.032 36.864-80.896 80.896-80.896 45.056 0 81.92 36.864 81.92 80.896 0 46.080-36.864 81.92-81.92 81.92-44.032 0-80.896-35.84-80.896-81.92zM275.968 356.864h77.824v47.104h-77.824v-47.104zM330.24 699.904c0 27.648 22.528 50.176 49.152 50.176 27.648 0 50.176-22.528 50.176-50.176 0-26.624-22.528-49.152-50.176-49.152-26.624 0-49.152 22.528-49.152 49.152zM450.048 380.416c0 47.104 36.864 83.968 82.944 83.968s83.968-36.864 83.968-83.968c0-46.080-37.888-82.944-83.968-82.944s-82.944 36.864-82.944 82.944zM670.208 511.488l28.672-37.888 77.824 57.344-27.648 37.888-78.848-57.344zM782.848 624.128c0-45.056 36.864-81.92 80.896-81.92 46.080 0 81.92 36.864 81.92 81.92s-35.84 81.92-81.92 81.92c-44.032 0-80.896-36.864-80.896-81.92zM792.064 196.096c0 27.648 22.528 50.176 49.152 50.176 27.648 0 50.176-22.528 50.176-50.176 0-26.624-22.528-49.152-50.176-49.152-26.624 0-49.152 22.528-49.152 49.152z" />
<glyph unicode="&#xe917;" glyph-name="check-alone" d="M77.824 411.648l280.576-281.6 587.776 586.752-49.152 49.152-538.624-535.552-231.424 230.4-49.152-49.152z" />
<glyph unicode="&#xe918;" glyph-name="chevron-bottom" d="M177.152 662.528l-47.104-47.104 381.952-381.952 381.952 381.952-47.104 47.104-334.848-334.848-334.848 334.848z" />
<glyph unicode="&#xe919;" glyph-name="chevron-left" d="M726.528 113.152l-334.848 334.848 334.848 334.848-47.104 47.104-381.952-381.952 381.952-381.952 47.104 47.104z" />
<glyph unicode="&#xe91a;" glyph-name="chevron-right" d="M297.472 113.152l47.104-47.104 381.952 381.952-381.952 381.952-47.104-47.104 334.848-334.848-334.848-334.848z" />
<glyph unicode="&#xe91b;" glyph-name="chevron-top" d="M177.152 233.472l334.848 334.848 334.848-334.848 47.104 47.104-381.952 381.952-381.952-381.952 47.104-47.104z" />
<glyph unicode="&#xe91c;" glyph-name="christmas" d="M475.136 38.4h73.728v131.072h358.4l-173.056 241.664h91.136l-313.344 446.464-313.344-446.464h92.16l-174.080-241.664h358.4v-131.072zM239.616 231.936l174.080 242.688h-93.184l191.488 272.384 191.488-272.384h-93.184l174.080-242.688h-544.768z" />
<glyph unicode="&#xe91d;" glyph-name="circled-alert" d="M483.328 380.416h56.32l8.192 143.36v147.456h-71.68v-147.456l7.168-143.36zM117.76 448c0-220.16 174.080-394.24 394.24-394.24 221.184 0 394.24 179.2 394.24 394.24 0 220.16-174.080 394.24-394.24 394.24s-394.24-174.080-394.24-394.24zM184.32 448c0 184.32 144.384 327.68 327.68 327.68 184.32 0 327.68-143.36 327.68-327.68 0-178.176-143.36-327.68-327.68-327.68-183.296 0-327.68 144.384-327.68 327.68zM467.968 227.84h89.088v89.088h-89.088v-89.088z" />
<glyph unicode="&#xe91e;" glyph-name="circled-bottom" d="M512 222.72l185.344 185.344-41.984 40.96-52.224-51.2c-19.456-20.48-39.936-40.96-59.392-62.464v327.68h-63.488v-328.704c-20.48 21.504-39.936 43.008-60.416 63.488l-52.224 51.2-41.984-40.96 186.368-185.344zM117.76 448c0-220.16 174.080-394.24 394.24-394.24 221.184 0 394.24 179.2 394.24 394.24 0 220.16-174.080 394.24-394.24 394.24s-394.24-174.080-394.24-394.24zM184.32 448c0 184.32 144.384 327.68 327.68 327.68 184.32 0 327.68-143.36 327.68-327.68 0-178.176-143.36-327.68-327.68-327.68-183.296 0-327.68 144.384-327.68 327.68z" />
<glyph unicode="&#xe91f;" glyph-name="circled-check" d="M512 53.76c221.184 0 394.24 179.2 394.24 394.24 0 220.16-174.080 394.24-394.24 394.24s-394.24-174.080-394.24-394.24 174.080-394.24 394.24-394.24zM184.32 448c0 184.32 144.384 327.68 327.68 327.68 184.32 0 327.68-143.36 327.68-327.68 0-178.176-143.36-327.68-327.68-327.68-183.296 0-327.68 144.384-327.68 327.68zM336.896 442.88l140.288-141.312 239.616 240.64-47.104 46.080-192.512-191.488-94.208 93.184-46.080-47.104z" />
<glyph unicode="&#xe920;" glyph-name="circled-check-solid" d="M512 53.76c221.184 0 394.24 179.2 394.24 394.24 0 220.16-174.080 394.24-394.24 394.24s-394.24-174.080-394.24-394.24 174.080-394.24 394.24-394.24zM297.984 466.432l47.104 46.080 132.096-131.072 231.424 230.4 46.080-47.104-277.504-278.528-179.2 180.224z" />
<glyph unicode="&#xe921;" glyph-name="circled-cross" d="M379.904 268.8l132.096 132.096 132.096-132.096 47.104 47.104-132.096 132.096 132.096 132.096-47.104 47.104-132.096-132.096-132.096 132.096-47.104-47.104 132.096-132.096-132.096-132.096 47.104-47.104zM117.76 448c0-220.16 174.080-394.24 394.24-394.24 221.184 0 394.24 179.2 394.24 394.24 0 220.16-174.080 394.24-394.24 394.24s-394.24-174.080-394.24-394.24zM184.32 448c0 184.32 144.384 327.68 327.68 327.68 184.32 0 327.68-143.36 327.68-327.68 0-178.176-143.36-327.68-327.68-327.68-183.296 0-327.68 144.384-327.68 327.68z" />
<glyph unicode="&#xe922;" glyph-name="circled-cross-solid" d="M512 53.76c221.184 0 394.24 179.2 394.24 394.24 0 220.16-174.080 394.24-394.24 394.24s-394.24-174.080-394.24-394.24 174.080-394.24 394.24-394.24zM312.32 295.424l152.576 152.576-152.576 152.576 47.104 47.104 152.576-152.576 152.576 152.576 47.104-47.104-152.576-152.576 152.576-152.576-47.104-47.104-152.576 152.576-152.576-152.576-47.104 47.104z" />
<glyph unicode="&#xe923;" glyph-name="circled-left" d="M472.064 262.656l40.96 41.984-51.2 52.224c-20.48 19.456-40.96 39.936-62.464 59.392h327.68v63.488h-328.704c21.504 20.48 43.008 39.936 63.488 60.416l51.2 53.248-40.96 40.96-185.344-186.368 185.344-185.344zM117.76 448c0-220.16 174.080-394.24 394.24-394.24 221.184 0 394.24 179.2 394.24 394.24 0 220.16-174.080 394.24-394.24 394.24s-394.24-174.080-394.24-394.24zM184.32 448c0 184.32 144.384 327.68 327.68 327.68 184.32 0 327.68-143.36 327.68-327.68 0-178.176-143.36-327.68-327.68-327.68-183.296 0-327.68 144.384-327.68 327.68z" />
<glyph unicode="&#xe924;" glyph-name="circled-north-east" d="M385.024 275.968l232.448 232.448c-1.024-29.696-2.048-58.368-2.048-87.040v-74.752h58.368v263.168h-262.144v-58.368h73.728c27.648 0 57.344 0 86.016 1.024l-231.424-231.424 45.056-45.056zM117.76 448c0-220.16 174.080-394.24 394.24-394.24 221.184 0 394.24 179.2 394.24 394.24 0 220.16-174.080 394.24-394.24 394.24s-394.24-174.080-394.24-394.24zM184.32 448c0 184.32 144.384 327.68 327.68 327.68 184.32 0 327.68-143.36 327.68-327.68 0-178.176-143.36-327.68-327.68-327.68-183.296 0-327.68 144.384-327.68 327.68z" />
<glyph unicode="&#xe925;" glyph-name="circled-north-west" d="M407.552 507.392l231.424-231.424 45.056 45.056-232.448 232.448c29.696-1.024 58.368-2.048 88.064-2.048h73.728v58.368h-263.168v-262.144h59.392v73.728c0 27.648 0 57.344-2.048 86.016zM117.76 448c0-220.16 174.080-394.24 394.24-394.24 221.184 0 394.24 179.2 394.24 394.24 0 220.16-174.080 394.24-394.24 394.24s-394.24-174.080-394.24-394.24zM184.32 448c0 184.32 144.384 327.68 327.68 327.68 184.32 0 327.68-143.36 327.68-327.68 0-178.176-143.36-327.68-327.68-327.68-183.296 0-327.68 144.384-327.68 327.68z" />
<glyph unicode="&#xe926;" glyph-name="circled-plus" d="M477.184 239.104h69.632v176.128h174.080v66.56h-174.080v175.104h-69.632v-175.104h-174.080v-66.56h174.080v-176.128zM117.76 448c0-220.16 174.080-394.24 394.24-394.24 221.184 0 394.24 179.2 394.24 394.24 0 220.16-174.080 394.24-394.24 394.24s-394.24-174.080-394.24-394.24zM184.32 448c0 184.32 144.384 327.68 327.68 327.68 184.32 0 327.68-143.36 327.68-327.68 0-178.176-143.36-327.68-327.68-327.68-183.296 0-327.68 144.384-327.68 327.68z" />
<glyph unicode="&#xe927;" glyph-name="circled-plus-solid" d="M512 53.76c221.184 0 394.24 179.2 394.24 394.24 0 220.16-174.080 394.24-394.24 394.24s-394.24-174.080-394.24-394.24 174.080-394.24 394.24-394.24zM282.624 415.232v66.56h194.56v195.584h70.656l-1.024-195.584h194.56v-66.56h-194.56l1.024-196.608h-70.656v196.608h-194.56z" />
<glyph unicode="&#xe928;" glyph-name="circled-right" d="M551.936 261.632l185.344 186.368-185.344 185.344-40.96-41.984 52.224-52.224c19.456-19.456 39.936-39.936 61.44-59.392h-327.68v-63.488h329.728c-22.528-20.48-43.008-39.936-63.488-60.416l-52.224-52.224 40.96-41.984zM117.76 448c0-220.16 174.080-394.24 394.24-394.24 221.184 0 394.24 179.2 394.24 394.24 0 220.16-174.080 394.24-394.24 394.24s-394.24-174.080-394.24-394.24zM184.32 448c0 184.32 144.384 327.68 327.68 327.68 184.32 0 327.68-143.36 327.68-327.68 0-178.176-143.36-327.68-327.68-327.68-183.296 0-327.68 144.384-327.68 327.68z" />
<glyph unicode="&#xe929;" glyph-name="circled-south-east" d="M410.624 286.208h263.168v262.144h-58.368v-73.728c0-27.648 0-57.344 1.024-86.016l-231.424 231.424-45.056-45.056 232.448-232.448c-29.696 1.024-58.368 3.072-87.040 3.072l-74.752-1.024v-58.368zM117.76 448c0-220.16 174.080-394.24 394.24-394.24 221.184 0 394.24 179.2 394.24 394.24 0 220.16-174.080 394.24-394.24 394.24s-394.24-174.080-394.24-394.24zM184.32 448c0 184.32 144.384 327.68 327.68 327.68 184.32 0 327.68-143.36 327.68-327.68 0-178.176-143.36-327.68-327.68-327.68-183.296 0-327.68 144.384-327.68 327.68z" />
<glyph unicode="&#xe92a;" glyph-name="circled-south-west" d="M350.208 286.208h262.144v59.392h-73.728c-27.648 0-57.344 0-86.016-2.048l231.424 231.424-45.056 45.056-232.448-232.448c1.024 29.696 3.072 58.368 3.072 88.064l-1.024 73.728h-58.368v-263.168zM117.76 448c0-220.16 174.080-394.24 394.24-394.24 221.184 0 394.24 179.2 394.24 394.24 0 220.16-174.080 394.24-394.24 394.24s-394.24-174.080-394.24-394.24zM184.32 448c0 184.32 144.384 327.68 327.68 327.68 184.32 0 327.68-143.36 327.68-327.68 0-178.176-143.36-327.68-327.68-327.68-183.296 0-327.68 144.384-327.68 327.68z" />
<glyph unicode="&#xe92b;" glyph-name="circled-up" d="M480.256 560.64v-327.68h63.488v329.728c20.48-22.528 39.936-43.008 60.416-63.488l53.248-52.224 40.96 40.96-186.368 185.344-185.344-185.344 41.984-40.96 52.224 52.224c19.456 19.456 39.936 39.936 59.392 61.44zM117.76 448c0-220.16 174.080-394.24 394.24-394.24 221.184 0 394.24 179.2 394.24 394.24 0 220.16-174.080 394.24-394.24 394.24s-394.24-174.080-394.24-394.24zM184.32 448c0 184.32 144.384 327.68 327.68 327.68 184.32 0 327.68-143.36 327.68-327.68 0-178.176-143.36-327.68-327.68-327.68-183.296 0-327.68 144.384-327.68 327.68z" />
<glyph unicode="&#xe92c;" glyph-name="claim-rewards" d="M222.208 184.32h579.584v58.368h-77.824c84.992 61.44 136.192 159.744 136.192 269.312 0 191.488-156.672 348.16-348.16 348.16s-348.16-156.672-348.16-348.16c0-109.568 51.2-206.848 136.192-269.312h-77.824v-58.368zM81.92 35.84h860.16v291.84h-66.56v-229.376h-727.040v229.376h-66.56v-291.84zM230.4 512c0 155.648 125.952 281.6 281.6 281.6s281.6-125.952 281.6-281.6c0-131.072-92.16-241.664-214.016-269.312h-134.144c-122.88 27.648-215.040 138.24-215.040 269.312zM384 466.944c-1.024-62.464 43.008-107.52 106.496-116.736v-39.936h43.008v39.936c62.464 7.168 106.496 48.128 106.496 100.352 0 50.176-34.816 79.872-92.16 87.040l-54.272 7.168c-33.792 4.096-47.104 15.36-47.104 41.984 0 32.768 23.552 46.080 66.56 46.080 48.128 0 65.536-15.36 64.512-60.416h55.296c0 55.296-40.96 98.304-99.328 107.52v39.936h-43.008v-40.96c-56.32-7.168-96.256-46.080-96.256-96.256 0-48.128 30.72-76.8 83.968-82.944l52.224-6.144c37.888-4.096 53.248-16.384 53.248-46.080 0-35.84-21.504-50.176-70.656-50.176-56.32 0-74.752 17.408-75.776 69.632h-53.248z" />
<glyph unicode="&#xe92d;" glyph-name="clipboard-list-check" d="M161.28 38.4h701.44v745.472h-187.392v73.728h-327.68v-73.728h-186.368v-745.472zM227.84 101.888v619.52h119.808v-9.216h327.68v9.216h120.832v-619.52h-568.32zM287.232 549.376l89.088-90.112 133.12 132.096-39.936 38.912-92.16-93.184-50.176 51.2-39.936-38.912zM330.24 233.984h92.16v92.16h-92.16v-92.16zM509.44 246.272h204.8v66.56h-204.8v-66.56zM555.52 480.768h158.72v66.56h-158.72v-66.56z" />
<glyph unicode="&#xe92e;" glyph-name="clock" d="M488.448 424.448l147.456-147.456 47.104 47.104-137.216 137.216v222.208h-66.56v-235.52c0-9.216 3.072-17.408 9.216-23.552zM117.76 448c0-220.16 174.080-394.24 394.24-394.24 221.184 0 394.24 179.2 394.24 394.24 0 220.16-174.080 394.24-394.24 394.24s-394.24-174.080-394.24-394.24zM184.32 448c0 184.32 144.384 327.68 327.68 327.68 184.32 0 327.68-143.36 327.68-327.68 0-178.176-143.36-327.68-327.68-327.68-183.296 0-327.68 144.384-327.68 327.68z" />
<glyph unicode="&#xe92f;" glyph-name="close" d="M861.184 150.016l-297.984 297.984 297.984 297.984-53.248 49.152-295.936-295.936-295.936 295.936-53.248-49.152 297.984-297.984-297.984-297.984 53.248-49.152 295.936 295.936 295.936-295.936 53.248 49.152z" />
<glyph unicode="&#xe930;" glyph-name="cloud-download" d="M767.488 282.624v-63.488c104.448 13.312 180.224 97.28 180.224 200.704 0 100.352-72.704 179.2-166.912 196.608-17.408 119.808-124.928 206.848-246.784 206.848-90.112 0-173.056-47.104-216.064-123.904-128-2.048-241.664-104.448-241.664-240.64 0-106.496 69.632-197.632 172.032-230.4v68.608c-62.464 26.624-105.472 88.064-105.472 161.792 0 115.712 109.568 199.68 219.136 172.032 21.504 79.872 92.16 130.048 172.032 130.048 106.496 0 197.632-89.088 181.248-204.8 88.064 12.288 165.888-47.104 165.888-136.192 0-68.608-47.104-124.928-113.664-137.216zM325.12 258.048l186.368-185.344 185.344 185.344-41.984 40.96-53.248-53.248c-19.456-19.456-38.912-39.936-58.368-60.416v286.72h-63.488v-287.744c-19.456 20.48-38.912 41.984-58.368 61.44l-54.272 53.248-41.984-40.96z" />
<glyph unicode="&#xe931;" glyph-name="coffee" d="M378.88 276.48h125.952c68.608 0 128 25.6 169.984 80.896 5.12 7.168 10.24 13.312 14.336 20.48h35.84c120.832 0 210.944 79.872 210.944 191.488 0 113.664-90.112 193.536-210.944 193.536h-562.176v-235.52c0-77.824 14.336-129.024 47.104-169.984 43.008-55.296 100.352-80.896 168.96-80.896zM88.064 199.68c3.072-36.864 35.84-66.56 74.752-66.56h604.16c39.936 0 71.68 29.696 74.752 66.56h-753.664zM233.472 485.376v215.040h416.768v-215.040c0-97.28-38.912-142.336-138.24-142.336h-139.264c-98.304 0-139.264 44.032-139.264 142.336zM712.704 440.32c6.144 24.576 8.192 53.248 8.192 87.040v173.056c104.448 0 144.384-30.72 144.384-112.64v-35.84c0-78.848-37.888-111.616-136.192-111.616h-16.384z" />
<glyph unicode="&#xe932;" glyph-name="coin" d="M448.512 12.8h130.048c166.912 0 289.792 200.704 289.792 435.2s-122.88 435.2-289.792 435.2h-130.048c-171.008 0-292.864-202.752-292.864-435.2s121.856-435.2 292.864-435.2zM222.208 448c0 203.776 101.376 368.64 226.304 368.64 122.88 0 225.28-164.864 225.28-368.64 0-202.752-102.4-368.64-225.28-368.64-124.928 0-226.304 165.888-226.304 368.64zM588.8 79.36c84.992 73.728 140.288 212.992 140.288 368.64s-55.296 294.912-140.288 368.64c116.736-9.216 212.992-169.984 212.992-368.64 0-197.632-96.256-359.424-212.992-368.64z" />
<glyph unicode="&#xe933;" glyph-name="coins" d="M411.136 49.152c164.864 0 293.888 54.272 293.888 145.408v67.584c116.736 15.36 202.752 64.512 202.752 139.264v301.056c0 91.136-124.928 144.384-294.912 144.384-162.816 0-294.912-52.224-294.912-144.384v-68.608c-117.76-16.384-201.728-64.512-201.728-137.216v-302.080c0-91.136 125.952-145.408 294.912-145.408zM174.592 194.56v58.368c51.2-34.816 136.192-53.248 236.544-53.248 98.304 0 184.32 19.456 235.52 54.272v-59.392c0-48.128-88.064-86.016-235.52-86.016-151.552 0-236.544 36.864-236.544 86.016zM174.592 344.064v61.44c51.2-34.816 136.192-53.248 236.544-53.248 98.304 0 184.32 19.456 235.52 54.272v-62.464c0-48.128-88.064-86.016-235.52-86.016-151.552 0-236.544 37.888-236.544 86.016zM174.592 496.64c0 47.104 88.064 84.992 236.544 84.992 151.552 0 235.52-36.864 235.52-84.992s-88.064-86.016-235.52-86.016c-151.552 0-236.544 37.888-236.544 86.016zM377.344 702.464c0 48.128 88.064 84.992 235.52 84.992 152.576 0 235.52-35.84 235.52-84.992 0-48.128-103.424-94.208-266.24-84.992-38.912 12.288-84.992 19.456-135.168 21.504-46.080 15.36-69.632 37.888-69.632 63.488zM675.328 561.152c72.704 6.144 134.144 23.552 173.056 51.2v-62.464c0-36.864-50.176-66.56-143.36-78.848v25.6c0 24.576-10.24 46.080-29.696 64.512zM705.024 321.536v90.112c59.392 8.192 109.568 24.576 143.36 48.128v-58.368c0-36.864-50.176-67.584-143.36-79.872z" />
<glyph unicode="&#xe934;" glyph-name="comments" d="M112.64 753.664v-532.48l183.296 141.312h454.656v391.168c0 41.984-35.84 76.8-76.8 76.8h-484.352c-41.984 0-76.8-34.816-76.8-76.8zM179.2 353.28v399.36c0 8.192 7.168 15.36 15.36 15.36h473.088c9.216 0 16.384-7.168 16.384-15.36v-327.68h-411.648l-93.184-71.68zM332.8 282.624c0-41.984 34.816-76.8 76.8-76.8h318.464l183.296-140.288v521.216c0 44.032-36.864 80.896-80.896 80.896v-66.56c8.192 0 14.336-10.24 14.336-29.696v-374.784l-93.184 71.68h-322.56c-23.552 0-29.696 7.168-29.696 14.336h-66.56z" />
<glyph unicode="&#xe935;" glyph-name="comments-dollar" d="M112.64 773.12v-570.368l183.296 140.288h454.656v430.080c0 41.984-35.84 76.8-76.8 76.8h-484.352c-41.984 0-76.8-34.816-76.8-76.8zM179.2 334.848v437.248c0 8.192 7.168 15.36 15.36 15.36h473.088c9.216 0 16.384-7.168 16.384-15.36v-366.592h-410.624l-94.208-70.656zM330.752 563.2c0-47.104 34.816-82.944 84.992-89.088v-30.72h31.744v30.72c48.128 6.144 83.968 36.864 83.968 76.8 0 37.888-27.648 61.44-72.704 67.584l-40.96 5.12c-24.576 3.072-35.84 11.264-35.84 29.696 0 22.528 17.408 32.768 50.176 32.768 35.84 0 49.152-11.264 48.128-43.008h45.056c0 41.984-32.768 75.776-77.824 81.92v30.72h-31.744v-30.72c-45.056-6.144-76.8-35.84-76.8-74.752 0-36.864 22.528-59.392 64.512-64.512l41.984-5.12c28.672-3.072 38.912-11.264 38.912-31.744 0-24.576-15.36-35.84-53.248-35.84-40.96 0-55.296 13.312-56.32 51.2l-44.032-1.024zM332.8 264.192c0-41.984 34.816-76.8 76.8-76.8h318.464l183.296-141.312v552.96c0 43.008-36.864 80.896-80.896 80.896v-66.56c8.192 0 14.336-10.24 14.336-29.696v-405.504l-94.208 71.68h-321.536c-23.552 0-29.696 6.144-29.696 14.336h-66.56z" />
<glyph unicode="&#xe936;" glyph-name="computer" d="M223.232 89.6h578.56c-7.168 32.768-36.864 59.392-74.752 59.392h-92.16l-23.552 114.688h223.232c41.984 0 76.8 34.816 76.8 76.8v389.12c0 41.984-34.816 76.8-76.8 76.8h-645.12c-41.984 0-76.8-34.816-76.8-76.8v-389.12c0-41.984 34.816-76.8 76.8-76.8h223.232l-23.552-114.688h-92.16c-35.84 0-66.56-26.624-73.728-59.392zM179.2 342.528v386.048c0 9.216 6.144 15.36 15.36 15.36h634.88c9.216 0 15.36-6.144 15.36-15.36v-386.048c0-9.216-6.144-16.384-15.36-16.384h-634.88c-9.216 0-15.36 7.168-15.36 16.384zM445.44 148.992l24.576 114.688h83.968l24.576-114.688h-133.12z" />
<glyph unicode="&#xe937;" glyph-name="copy" d="M742.4 299.52h163.84v542.72l-542.72-1.024v-162.816h66.56v100.352l409.6 1.024v-417.792h-97.28v-62.464zM117.76 53.76h542.72v542.72h-542.72v-542.72zM184.32 116.224v417.792h409.6v-417.792h-409.6z" />
<glyph unicode="&#xe938;" glyph-name="crown" d="M117.76 259.584h788.48v498.688l-230.4-174.080-163.84 205.824-163.84-205.824-230.4 174.080v-498.688zM117.76 105.984h788.48v62.464h-788.48v-62.464zM183.296 322.048v307.2l176.128-134.144 152.576 191.488 152.576-191.488 177.152 134.144v-307.2h-658.432z" />
<glyph unicode="&#xe939;" glyph-name="cube" d="M511.488 10.752l379.904 221.184v432.128l-379.904 221.184-378.88-221.184v-432.128l378.88-221.184zM199.168 267.776v323.584l280.576-161.792v-326.656l-280.576 164.864zM228.864 646.656l282.624 163.84 282.624-163.84-282.624-162.816-282.624 162.816zM543.232 102.912v326.656l281.6 161.792v-323.584l-281.6-164.864z" />
<glyph unicode="&#xe93a;" glyph-name="dashboard" d="M122.88 95.232h778.24v65.536h-711.68v610.304h-66.56v-675.84zM294.912 252.928h69.632v240.64h-69.632v-240.64zM470.016 252.928h70.656v446.464h-70.656v-446.464zM646.144 252.928h69.632v344.064h-69.632v-344.064zM821.248 252.928h70.656v547.84h-70.656v-547.84z" />
<glyph unicode="&#xe93b;" glyph-name="delegate" d="M145.408 429.056v-358.4h66.56v358.4c0 103.424 74.752 179.2 178.176 179.2h377.856c-21.504-19.456-41.984-38.912-62.464-58.368l-53.248-54.272 40.96-41.984 185.344 186.368-185.344 185.344-40.96-41.984 53.248-53.248c19.456-19.456 39.936-38.912 60.416-58.368h-375.808c-135.168 0-244.736-110.592-244.736-242.688z" />
<glyph unicode="&#xe93c;" glyph-name="devices" d="M235.52 48.64h285.696v62.464h-280.576c-9.216 0-15.36 7.168-15.36 16.384v642.048c0 9.216 6.144 15.36 15.36 15.36h424.96c9.216 0 15.36-6.144 15.36-15.36v-90.112h66.56v91.136c0 41.984-34.816 76.8-76.8 76.8h-435.2c-41.984 0-76.8-34.816-76.8-76.8v-645.12c0-41.984 34.816-76.8 76.8-76.8zM604.16 48.64h261.12v547.84h-261.12v-547.84zM666.624 111.104v422.912h136.192v-422.912h-136.192z" />
<glyph unicode="&#xe93d;" glyph-name="devices-alt" d="M195.072 110.080h313.344v59.392h-91.136l24.576 114.688h66.56v62.464h-342.016c-9.216 0-15.36 7.168-15.36 16.384v386.048c0 9.216 6.144 15.36 15.36 15.36h634.88c9.216 0 15.36-6.144 15.36-15.36v-50.176h66.56v51.2c0 41.984-34.816 76.8-76.8 76.8h-645.12c-41.984 0-76.8-34.816-76.8-76.8v-389.12c0-41.984 34.816-76.8 76.8-76.8h223.232l-23.552-114.688h-92.16c-35.84 0-66.56-26.624-73.728-59.392zM576 145.92c0-41.984 34.816-76.8 76.8-76.8h209.92c41.984 0 76.8 34.816 76.8 76.8v404.48c0 41.984-34.816 76.8-76.8 76.8h-209.92c-41.984 0-76.8-34.816-76.8-76.8v-404.48zM638.464 143.872v408.576c0 9.216 7.168 16.384 16.384 16.384h206.848c9.216 0 15.36-7.168 15.36-16.384v-408.576c0-9.216-6.144-15.36-15.36-15.36h-206.848c-9.216 0-16.384 6.144-16.384 15.36zM724.48 196.096c0-18.432 14.336-33.792 33.792-33.792 18.432 0 32.768 15.36 32.768 33.792s-14.336 32.768-32.768 32.768c-19.456 0-33.792-14.336-33.792-32.768z" />
<glyph unicode="&#xe93e;" glyph-name="dollar" d="M248.32 341.504c3.072-141.312 94.208-235.52 233.472-249.856l-1.024-83.968h70.656l1.024 83.968c125.952 11.264 223.232 91.136 223.232 210.944 0 109.568-77.824 167.936-196.608 183.296l-104.448 14.336c-81.92 12.288-121.856 41.984-121.856 105.472v11.264c0 75.776 52.224 115.712 149.504 115.712h22.528c107.52 0 153.6-50.176 154.624-156.672h83.968c-2.048 125.952-86.016 215.040-210.944 228.352v83.968h-70.656v-83.968c-115.712-12.288-208.896-86.016-208.896-197.632 0-102.4 69.632-161.792 183.296-178.176l100.352-12.288c93.184-13.312 137.216-44.032 137.216-114.688v-14.336c0-82.944-57.344-123.904-164.864-123.904h-18.432c-128 0-177.152 59.392-178.176 178.176h-83.968z" />
<glyph unicode="&#xe93f;" glyph-name="download" d="M81.92 33.28h860.16v337.92h-204.8l-66.56-66.56h204.8v-208.896h-727.040v208.896h204.8l-66.56 66.56h-204.8v-337.92zM216.064 164.352h68.608v69.632h-68.608v-69.632zM325.632 454.144l186.368-185.344 185.344 185.344-41.984 40.96-53.248-53.248c-19.456-19.456-38.912-39.936-58.368-60.416v481.28h-63.488v-482.304c-19.456 20.48-38.912 41.984-58.368 61.44l-54.272 53.248-41.984-40.96z" />
<glyph unicode="&#xe940;" glyph-name="dropdown" d="M512 305.152l238.592 238.592-47.104 47.104-191.488-191.488-191.488 191.488-47.104-47.104 238.592-238.592z" />
<glyph unicode="&#xe941;" glyph-name="dumbbell" d="M509.133 31.437l96.256 96.256c39.936 55.296 1.024 158.72-101.376 270.336l53.248 52.224c111.616-103.424 212.992-141.312 274.432-96.256l96.256 96.256c49.152 65.536-1.024 176.128-119.808 293.888-117.76 118.784-228.352 168.96-293.888 119.808l-96.256-96.256c-45.056-61.44-7.168-162.816 96.256-274.432l-52.224-53.248c-111.616 102.4-215.040 141.312-270.336 101.376l-96.256-96.256c-47.104-64.512-1.024-176.128 118.784-294.912 118.784-119.808 230.4-165.888 294.912-118.784zM142.541 405.197l39.936 40.96c5.12-55.296 54.272-126.976 128-199.68 72.704-73.728 144.384-122.88 199.68-128l-40.96-40.96c-33.792-19.456-120.832 24.576-211.968 115.712s-134.144 178.176-114.688 211.968zM232.653 495.309c30.72 19.456 106.496-18.432 189.44-94.208l-51.2-51.2c-4.096-4.096 1.024-17.408 14.336-28.672 11.264-13.312 24.576-18.432 28.672-14.336l51.2 51.2c75.776-82.944 113.664-158.72 94.208-189.44-25.6-25.6-120.832 24.576-210.944 115.712-91.136 90.112-141.312 185.344-115.712 210.944zM464.077 727.757l39.936 39.936c5.12-55.296 54.272-126.976 128-199.68 72.704-73.728 144.384-122.88 199.68-128l-39.936-39.936c-33.792-19.456-122.88 23.552-212.992 114.688-91.136 90.112-134.144 179.2-114.688 212.992zM554.189 817.869c33.792 20.48 119.808-25.6 211.968-115.712 90.112-92.16 136.192-178.176 115.712-211.968-26.624-26.624-121.856 24.576-212.992 114.688-90.112 91.136-141.312 186.368-114.688 212.992zM687.309 672.461c-4.096-4.096 2.048-18.432 16.384-32.768s28.672-20.48 32.768-16.384l27.648 25.6c4.096 4.096-3.072 19.456-17.408 33.792-15.36 14.336-29.696 21.504-33.792 17.408l-25.6-27.648z" />
<glyph unicode="&#xe942;" glyph-name="eightcircledfina" d="M451.584 247.296h2.048c83.968 0 146.432 49.152 146.432 114.688 0 40.96-24.576 74.752-64.512 88.064v9.216c31.744 12.288 52.224 43.008 52.224 78.848 0 61.44-59.392 108.544-135.168 108.544h-1.024c-74.752 0-134.144-47.104-134.144-108.544 0-35.84 21.504-67.584 53.248-79.872v-8.192c-39.936-13.312-64.512-46.080-64.512-88.064 0-65.536 62.464-114.688 145.408-114.688zM177.152 53.76h275.456c221.184 0 394.24 180.224 394.24 394.24 0 220.16-174.080 394.24-394.24 394.24h-275.456v-66.56h275.456c184.32 0 327.68-143.36 327.68-327.68 0-178.176-143.36-327.68-327.68-327.68h-275.456v-66.56zM375.808 354.816v18.432c0 32.768 23.552 49.152 73.728 49.152h8.192c51.2 0 73.728-16.384 73.728-49.152v-18.432c0-32.768-23.552-48.128-73.728-48.128h-8.192c-50.176 0-73.728 15.36-73.728 48.128zM381.952 522.752v19.456c0 29.696 20.48 45.056 66.56 45.056h7.168c46.080 0 67.584-15.36 67.584-45.056v-19.456c0-29.696-21.504-44.032-67.584-44.032h-7.168c-46.080 0-66.56 14.336-66.56 44.032z" />
<glyph unicode="&#xe943;" glyph-name="eightcircledinit" d="M570.368 247.296h2.048c83.968 0 146.432 49.152 146.432 114.688 0 40.96-24.576 74.752-64.512 87.040v10.24c31.744 12.288 52.224 43.008 52.224 78.848 0 61.44-59.392 108.544-135.168 108.544h-1.024c-74.752 0-134.144-47.104-134.144-108.544 0-36.864 20.48-67.584 53.248-79.872v-9.216c-39.936-11.264-64.512-46.080-64.512-87.040 0-65.536 62.464-114.688 145.408-114.688zM177.152 448c0-220.16 174.080-394.24 394.24-394.24h275.456v66.56h-275.456c-183.296 0-327.68 144.384-327.68 327.68 0 179.2 144.384 327.68 327.68 327.68h275.456v66.56h-275.456c-221.184 0-394.24-179.2-394.24-394.24zM494.592 354.816v18.432c0 32.768 23.552 49.152 73.728 49.152h8.192c51.2 0 73.728-16.384 73.728-49.152v-18.432c0-32.768-23.552-48.128-73.728-48.128h-8.192c-50.176 0-73.728 15.36-73.728 48.128zM500.736 522.752v19.456c0 29.696 20.48 45.056 66.56 45.056h7.168c46.080 0 67.584-15.36 67.584-45.056v-19.456c0-29.696-21.504-44.032-67.584-44.032h-7.168c-46.080 0-66.56 14.336-66.56 44.032z" />
<glyph unicode="&#xe944;" glyph-name="eightcircledmedi" d="M510.976 247.296h2.048c83.968 0 146.432 49.152 146.432 114.688 0 40.96-24.576 74.752-64.512 88.064v9.216c31.744 12.288 52.224 43.008 52.224 78.848 0 61.44-59.392 108.544-135.168 108.544h-1.024c-74.752 0-134.144-47.104-134.144-108.544 0-35.84 21.504-67.584 53.248-79.872v-8.192c-39.936-13.312-64.512-46.080-64.512-88.064 0-65.536 62.464-114.688 145.408-114.688zM245.76 53.76h532.48v66.56h-532.48v-66.56zM245.76 775.68h532.48v66.56h-532.48v-66.56zM435.2 354.816v18.432c0 32.768 23.552 49.152 73.728 49.152h8.192c51.2 0 73.728-16.384 73.728-49.152v-18.432c0-32.768-23.552-48.128-73.728-48.128h-8.192c-50.176 0-73.728 15.36-73.728 48.128zM441.344 522.752v19.456c0 29.696 20.48 45.056 66.56 45.056h7.168c46.080 0 67.584-15.36 67.584-45.056v-19.456c0-29.696-21.504-44.032-67.584-44.032h-7.168c-46.080 0-66.56 14.336-66.56 44.032z" />
<glyph unicode="&#xe945;" glyph-name="eightcircled" d="M512 53.76c221.184 0 394.24 179.2 394.24 394.24 0 220.16-174.080 394.24-394.24 394.24s-394.24-174.080-394.24-394.24 174.080-394.24 394.24-394.24zM184.32 448c0 184.32 144.384 327.68 327.68 327.68 184.32 0 327.68-143.36 327.68-327.68 0-178.176-143.36-327.68-327.68-327.68-183.296 0-327.68 144.384-327.68 327.68zM365.568 361.984c0-65.536 62.464-114.688 145.408-114.688h2.048c83.968 0 146.432 49.152 146.432 114.688 0 40.96-24.576 74.752-64.512 87.040v10.24c31.744 12.288 52.224 43.008 52.224 78.848 0 61.44-59.392 108.544-135.168 108.544h-1.024c-74.752 0-134.144-47.104-134.144-108.544 0-36.864 20.48-67.584 53.248-79.872v-9.216c-39.936-11.264-64.512-46.080-64.512-87.040zM435.2 354.816v18.432c0 32.768 23.552 49.152 73.728 49.152h8.192c51.2 0 73.728-16.384 73.728-49.152v-18.432c0-32.768-23.552-48.128-73.728-48.128h-8.192c-50.176 0-73.728 15.36-73.728 48.128zM441.344 522.752v19.456c0 29.696 20.48 45.056 66.56 45.056h7.168c46.080 0 67.584-15.36 67.584-45.056v-19.456c0-29.696-21.504-44.032-67.584-44.032h-7.168c-46.080 0-66.56 14.336-66.56 44.032z" />
<glyph unicode="&#xe946;" glyph-name="entities" d="M71.68 48.64h256v256h-98.304v113.664h252.928v-113.664h-98.304v-256h256v256h-98.304v113.664h252.928v-113.664h-98.304v-256h256v256h-98.304v173.056h-312.32v113.664h98.304v256h-256v-256h98.304v-113.664h-312.32v-173.056h-98.304v-256zM131.072 104.96v143.36h138.24v-143.36h-138.24zM443.392 104.96v143.36h138.24v-143.36h-138.24zM443.392 647.68v143.36h138.24v-143.36h-138.24zM755.712 104.96v143.36h138.24v-143.36h-138.24z" />
<glyph unicode="&#xe947;" glyph-name="export" d="M117.76 81.92h788.48v302.080h-66.56v-235.52h-655.36v235.52h-66.56v-302.080zM326.656 628.736l41.984-40.96 54.272 53.248c18.432 19.456 38.912 39.936 57.344 60.416v-440.32h63.488v442.368c19.456-21.504 38.912-41.984 58.368-62.464l55.296-53.248 40.96 40.96-186.368 185.344-185.344-185.344z" />
<glyph unicode="&#xe948;" glyph-name="external-link" d="M117.76 53.76l706.56 1.024v393.216h-66.56v-326.656l-573.44-1.024v573.44h327.68v66.56h-394.24v-706.56zM454.656 435.712l45.056-45.056 350.208 350.208c-1.024-29.696-2.048-58.368-2.048-88.064v-73.728h58.368v263.168h-262.144v-58.368h73.728c27.648 0 57.344 0 86.016 1.024l-349.184-349.184z" />
<glyph unicode="&#xe949;" glyph-name="eye" d="M512 127.488c165.888 0 345.088 137.216 430.080 320.512-84.992 183.296-264.192 320.512-430.080 320.512s-345.088-137.216-430.080-320.512c84.992-183.296 264.192-320.512 430.080-320.512zM155.648 448c80.896 155.648 221.184 258.048 356.352 258.048s275.456-102.4 356.352-258.048c-80.896-155.648-221.184-257.024-356.352-257.024s-275.456 101.376-356.352 257.024zM363.52 448c0-81.92 66.56-148.48 148.48-148.48s148.48 66.56 148.48 148.48-66.56 148.48-148.48 148.48-148.48-66.56-148.48-148.48zM422.912 448c0 49.152 39.936 90.112 89.088 90.112s90.112-40.96 90.112-90.112-40.96-89.088-90.112-89.088-89.088 39.936-89.088 89.088z" />
<glyph unicode="&#xe94a;" glyph-name="eye-none" d="M888.832 26.112l45.056 45.056-798.72 798.72-45.056-45.056 160.768-160.768c-70.656-56.32-130.048-131.072-168.96-216.064 84.992-183.296 264.192-320.512 430.080-320.512 69.632 0 141.312 25.6 208.896 66.56l167.936-167.936zM151.552 448c35.84 67.584 84.992 125.952 143.36 172.032l92.16-92.16c-14.336-23.552-23.552-51.2-23.552-79.872 0-81.92 66.56-148.48 148.48-148.48 28.672 0 56.32 9.216 79.872 23.552l82.944-82.944c-54.272-32.768-107.52-49.152-162.816-49.152-137.216 0-278.528 102.4-360.448 257.024zM387.072 743.936l48.128-49.152c25.6 7.168 51.2 11.264 76.8 11.264 135.168 0 275.456-102.4 357.376-258.048-22.528-40.96-47.104-77.824-76.8-110.592l45.056-45.056c41.984 45.056 77.824 98.304 104.448 155.648-84.992 183.296-264.192 320.512-430.080 320.512-41.984 0-83.968-9.216-124.928-24.576zM422.912 448c0 13.312 2.048 25.6 7.168 36.864l118.784-118.784c-11.264-5.12-23.552-7.168-36.864-7.168-49.152 0-89.088 39.936-89.088 89.088z" />
<glyph unicode="&#xe94b;" glyph-name="facebook" d="M449.536 51.2v278.528h-102.4v115.712h102.4v89.088c0 96.256 59.392 154.624 151.552 154.624 28.672 0 57.344-3.072 88.064-8.192v-98.304h-50.176c-43.008 0-63.488-19.456-63.488-61.44v-75.776h111.616l-19.456-115.712h-92.16v-278.528c191.488 29.696 335.872 196.608 335.872 394.24 0 222.208-178.176 399.36-399.36 399.36-222.208 0-399.36-177.152-399.36-399.36 0-197.632 146.432-364.544 336.896-394.24z" />
<glyph unicode="&#xe94c;" glyph-name="fees" d="M315.392 417.28h256v62.464h-256v-62.464zM155.648 448c0-232.448 121.856-435.2 292.864-435.2h130.048c166.912 0 289.792 200.704 289.792 435.2s-122.88 435.2-289.792 435.2h-130.048c-171.008 0-292.864-202.752-292.864-435.2zM222.208 448c0 203.776 101.376 368.64 226.304 368.64 122.88 0 225.28-164.864 225.28-368.64 0-202.752-102.4-368.64-225.28-368.64-124.928 0-226.304 165.888-226.304 368.64zM588.8 79.36c84.992 73.728 140.288 212.992 140.288 368.64s-55.296 294.912-140.288 368.64c116.736-9.216 212.992-169.984 212.992-368.64 0-197.632-96.256-359.424-212.992-368.64z" />
<glyph unicode="&#xe94d;" glyph-name="filters" d="M258.048 48.64v181.248h95.232v66.56h-261.12v-66.56h95.232v-181.248h70.656zM187.392 378.368h70.656v468.992h-70.656v-468.992zM381.952 601.6h261.12v66.56h-96.256v179.2h-69.632v-179.2h-95.232v-66.56zM477.184 48.64h69.632v471.040h-69.632v-471.040zM670.72 229.888h95.232v-181.248h70.656v181.248h95.232v66.56h-261.12v-66.56zM765.952 378.368h70.656v468.992h-70.656v-468.992z" />
<glyph unicode="&#xe94e;" glyph-name="fivecircledfina" d="M452.608 247.296c82.944 0 139.264 55.296 139.264 131.072 0 74.752-53.248 131.072-124.928 131.072-30.72 0-56.32-11.264-72.704-28.672h-9.216l12.288 98.304h173.056v57.344h-225.28l-19.456-220.16h59.392c10.24 24.576 27.648 36.864 65.536 36.864h4.096c49.152 0 70.656-19.456 70.656-62.464v-22.528c0-43.008-20.48-62.464-70.656-62.464h-4.096c-52.224 0-72.704 20.48-73.728 67.584h-65.536c0-71.68 58.368-125.952 141.312-125.952zM177.152 53.76h275.456c221.184 0 394.24 180.224 394.24 394.24 0 220.16-174.080 394.24-394.24 394.24h-275.456v-66.56h275.456c184.32 0 327.68-143.36 327.68-327.68 0-178.176-143.36-327.68-327.68-327.68h-275.456v-66.56z" />
<glyph unicode="&#xe94f;" glyph-name="fivecircledinit" d="M571.392 247.296c82.944 0 139.264 55.296 139.264 131.072 0 74.752-53.248 131.072-124.928 131.072-30.72 0-56.32-11.264-72.704-28.672h-9.216l12.288 98.304h173.056v57.344h-225.28l-19.456-220.16h59.392c10.24 24.576 27.648 36.864 65.536 36.864h4.096c49.152 0 70.656-19.456 70.656-62.464v-22.528c0-43.008-20.48-62.464-70.656-62.464h-4.096c-52.224 0-72.704 20.48-73.728 67.584h-65.536c0-71.68 58.368-125.952 141.312-125.952zM177.152 448c0-220.16 174.080-394.24 394.24-394.24h275.456v66.56h-275.456c-183.296 0-327.68 144.384-327.68 327.68 0 179.2 144.384 327.68 327.68 327.68h275.456v66.56h-275.456c-221.184 0-394.24-179.2-394.24-394.24z" />
<glyph unicode="&#xe950;" glyph-name="fivecircledmedi" d="M512 247.296c82.944 0 139.264 55.296 139.264 131.072 0 74.752-53.248 131.072-124.928 131.072-30.72 0-56.32-11.264-72.704-28.672h-9.216l12.288 98.304h173.056v57.344h-225.28l-19.456-220.16h59.392c10.24 24.576 27.648 36.864 65.536 36.864h4.096c49.152 0 70.656-19.456 70.656-62.464v-22.528c0-43.008-20.48-62.464-70.656-62.464h-4.096c-52.224 0-72.704 20.48-73.728 67.584h-65.536c0-71.68 58.368-125.952 141.312-125.952zM245.76 53.76h532.48v66.56h-532.48v-66.56zM245.76 775.68h532.48v66.56h-532.48v-66.56z" />
<glyph unicode="&#xe951;" glyph-name="fivecircled" d="M512 53.76c221.184 0 394.24 179.2 394.24 394.24 0 220.16-174.080 394.24-394.24 394.24s-394.24-174.080-394.24-394.24 174.080-394.24 394.24-394.24zM184.32 448c0 184.32 144.384 327.68 327.68 327.68 184.32 0 327.68-143.36 327.68-327.68 0-178.176-143.36-327.68-327.68-327.68-183.296 0-327.68 144.384-327.68 327.68zM370.688 373.248c0-71.68 58.368-125.952 141.312-125.952s139.264 55.296 139.264 131.072c0 74.752-53.248 131.072-124.928 131.072-30.72 0-56.32-11.264-72.704-28.672h-9.216l12.288 98.304h173.056v57.344h-225.28l-19.456-220.16h59.392c10.24 24.576 27.648 36.864 65.536 36.864h4.096c49.152 0 70.656-19.456 70.656-62.464v-22.528c0-43.008-20.48-62.464-70.656-62.464h-4.096c-52.224 0-72.704 20.48-73.728 67.584h-65.536z" />
<glyph unicode="&#xe952;" glyph-name="folder" d="M117.76 94.72h788.48v627.712h-394.24l-50.176 50.176c-20.48 20.48-40.96 28.672-70.656 28.672h-273.408v-706.56zM184.32 157.184v354.304h655.36v-354.304h-655.36zM184.32 574.976v163.84h206.848c11.264 0 14.336-1.024 23.552-10.24l68.608-68.608h356.352v-84.992h-655.36z" />
<glyph unicode="&#xe953;" glyph-name="fourcircledfina" d="M460.8 438.784v-46.080h-115.712l112.64 171.008h5.12c-1.024-37.888-2.048-82.944-2.048-124.928zM177.152 53.76h275.456c221.184 0 394.24 180.224 394.24 394.24 0 220.16-174.080 394.24-394.24 394.24h-275.456v-66.56h275.456c184.32 0 327.68-143.36 327.68-327.68 0-178.176-143.36-327.68-327.68-327.68h-275.456v-66.56zM282.624 338.432h178.176v-80.896h63.488v80.896h59.392v54.272h-59.392v243.712h-76.8l-164.864-248.832v-49.152z" />
<glyph unicode="&#xe954;" glyph-name="fourcircledinit" d="M579.584 438.784v-46.080h-115.712l112.64 171.008h5.12c-1.024-37.888-2.048-82.944-2.048-124.928zM177.152 448c0-220.16 174.080-394.24 394.24-394.24h275.456v66.56h-275.456c-183.296 0-327.68 144.384-327.68 327.68 0 179.2 144.384 327.68 327.68 327.68h275.456v66.56h-275.456c-221.184 0-394.24-179.2-394.24-394.24zM401.408 338.432h178.176v-80.896h63.488v80.896h59.392v54.272h-59.392v243.712h-76.8l-164.864-248.832v-49.152z" />
<glyph unicode="&#xe955;" glyph-name="fourcircledmedi" d="M520.192 438.784v-46.080h-115.712l112.64 171.008h5.12c-1.024-37.888-2.048-82.944-2.048-124.928zM245.76 53.76h532.48v66.56h-532.48v-66.56zM245.76 775.68h532.48v66.56h-532.48v-66.56zM342.016 338.432h178.176v-80.896h63.488v80.896h59.392v54.272h-59.392v243.712h-76.8l-164.864-248.832v-49.152z" />
<glyph unicode="&#xe956;" glyph-name="fourcircled" d="M512 53.76c221.184 0 394.24 179.2 394.24 394.24 0 220.16-174.080 394.24-394.24 394.24s-394.24-174.080-394.24-394.24 174.080-394.24 394.24-394.24zM184.32 448c0 184.32 144.384 327.68 327.68 327.68 184.32 0 327.68-143.36 327.68-327.68 0-178.176-143.36-327.68-327.68-327.68-183.296 0-327.68 144.384-327.68 327.68zM342.016 338.432h178.176v-80.896h63.488v80.896h59.392v54.272h-59.392v243.712h-76.8l-164.864-248.832v-49.152zM404.48 392.704l112.64 171.008h5.12c-1.024-37.888-2.048-82.944-2.048-124.928v-46.080h-115.712z" />
<glyph unicode="&#xe957;" glyph-name="freeze" d="M482.304 48.64h59.392l-2.048 130.048 73.728-74.752 38.912 38.912-110.592 110.592-2.048 129.024 220.16-221.184 38.912 38.912-221.184 220.16 129.024-2.048 110.592-110.592 38.912 38.912-74.752 73.728 130.048-2.048v59.392l-130.048-2.048 74.752 73.728-38.912 38.912-110.592-110.592-129.024-2.048 221.184 220.16-38.912 38.912-220.16-221.184 2.048 129.024 110.592 110.592-38.912 38.912-73.728-74.752 2.048 130.048h-59.392l2.048-130.048-73.728 74.752-38.912-38.912 110.592-110.592 2.048-129.024-220.16 221.184-38.912-38.912 221.184-220.16-129.024 2.048-110.592 110.592-38.912-38.912 74.752-73.728-130.048 2.048v-59.392l130.048 2.048-74.752-73.728 38.912-38.912 110.592 110.592 129.024 2.048-221.184-220.16 38.912-38.912 220.16 221.184-2.048-129.024-110.592-110.592 38.912-38.912 73.728 74.752-2.048-130.048z" />
<glyph unicode="&#xe958;" glyph-name="fullnode" d="M512 50.688c182.272 0 328.704 57.344 328.704 156.672v483.328c0 98.304-140.288 154.624-328.704 154.624-182.272 0-328.704-56.32-328.704-154.624v-483.328c0-99.328 142.336-156.672 328.704-156.672zM249.856 207.36v68.608c54.272-37.888 149.504-60.416 262.144-60.416 111.616 0 206.848 22.528 262.144 60.416v-68.608c0-50.176-97.28-89.088-262.144-89.088-167.936 0-262.144 38.912-262.144 89.088zM249.856 368.128v68.608c54.272-38.912 149.504-60.416 262.144-60.416 111.616 0 206.848 21.504 262.144 60.416v-68.608c0-52.224-99.328-93.184-262.144-93.184-165.888 0-262.144 40.96-262.144 93.184zM249.856 528.896v68.608c54.272-38.912 149.504-60.416 262.144-60.416 110.592 0 206.848 21.504 262.144 60.416v-68.608c0-52.224-99.328-94.208-262.144-94.208-165.888 0-262.144 41.984-262.144 94.208zM249.856 690.688c0 49.152 97.28 88.064 262.144 88.064 169.984 0 262.144-38.912 262.144-88.064 0-54.272-99.328-94.208-262.144-94.208-165.888 0-262.144 39.936-262.144 94.208z" />
<glyph unicode="&#xe959;" glyph-name="fullnode-error" d="M462.336 75.264c10.24 0 19.456 1.024 28.672 1.024l71.68 71.68c-29.696-3.072-63.488-5.12-100.352-5.12-167.936 0-262.144 38.912-262.144 89.088v68.608c54.272-37.888 149.504-60.416 262.144-60.416 22.528 0 44.032 1.024 65.536 3.072l-28.672 28.672 28.672 29.696c-20.48-1.024-43.008-2.048-65.536-2.048-165.888 0-262.144 40.96-262.144 93.184v68.608c54.272-38.912 149.504-60.416 262.144-60.416 111.616 0 206.848 21.504 262.144 60.416v-87.040l30.72-30.72 35.84 35.84v335.872c0 99.328-141.312 154.624-328.704 154.624-182.272 0-328.704-55.296-328.704-154.624v-483.328c0-99.328 143.36-156.672 328.704-156.672zM200.192 553.472v68.608c54.272-38.912 149.504-60.416 262.144-60.416 110.592 0 206.848 22.528 262.144 61.44v-69.632c0-52.224-99.328-94.208-262.144-94.208-165.888 0-262.144 41.984-262.144 94.208zM200.192 715.264c0 49.152 97.28 88.064 262.144 88.064 169.984 0 262.144-38.912 262.144-88.064 0-54.272-99.328-94.208-262.144-94.208-165.888 0-262.144 39.936-262.144 94.208zM602.624 71.168l44.032-45.056 100.352 100.352 99.328-100.352 44.032 45.056-99.328 99.328 99.328 99.328-44.032 45.056-99.328-99.328-100.352 99.328-44.032-45.056 99.328-99.328-99.328-99.328z" />
<glyph unicode="&#xe95a;" glyph-name="fullnode-sync" d="M457.216 78.336c12.288 0 22.528 1.024 34.816 1.024l-66.56 66.56-36.864 3.072c-122.88 8.192-193.536 43.008-193.536 86.016v68.608c54.272-38.912 149.504-60.416 262.144-60.416 14.336 0 27.648 1.024 40.96 1.024l60.416 59.392 45.056-43.008c95.232 19.456 162.816 60.416 178.176 115.712l4.096 4.096v337.92c0 98.304-140.288 154.624-328.704 154.624-182.272 0-328.704-56.32-328.704-154.624v-483.328c0-99.328 143.36-160.768 328.704-156.672zM195.072 395.776v68.608c54.272-38.912 149.504-60.416 262.144-60.416 111.616 0 206.848 21.504 262.144 60.416v-68.608c0-71.68-166.912-93.184-262.144-93.184-165.888 0-262.144 40.96-262.144 93.184zM195.072 556.544v68.608c54.272-38.912 149.504-60.416 262.144-60.416 110.592 0 206.848 21.504 262.144 60.416v-68.608c0-52.224-99.328-94.208-262.144-94.208-165.888 0-262.144 41.984-262.144 94.208zM195.072 718.336c0 49.152 97.28 88.064 262.144 88.064 169.984 0 262.144-38.912 262.144-88.064 0-54.272-99.328-94.208-262.144-94.208-165.888 0-262.144 39.936-262.144 94.208zM515.584 164.352l140.288-141.312 239.616 240.64-47.104 46.080-192.512-191.488-94.208 93.184-46.080-47.104z" />
<glyph unicode="&#xe95b;" glyph-name="gift-card" d="M199.68 73.216h624.64c47.104 0 81.92 34.816 81.92 81.92v378.88c0 47.104-34.816 81.92-81.92 81.92h-40.96c18.432 21.504 26.624 49.152 26.624 74.752 0 70.656-57.344 132.096-131.072 132.096-23.552 0-48.128-6.144-67.584-18.432-33.792-20.48-60.416-57.344-81.92-99.328l-17.408-33.792-17.408 33.792c-21.504 41.984-48.128 78.848-81.92 99.328-19.456 12.288-44.032 18.432-67.584 18.432-73.728 0-131.072-61.44-131.072-132.096 0-25.6 8.192-53.248 26.624-74.752h-40.96c-47.104 0-81.92-34.816-81.92-81.92v-378.88c0-47.104 34.816-81.92 81.92-81.92zM184.32 153.088v222.208h655.36v-222.208c0-10.24-6.144-17.408-16.384-17.408h-621.568c-11.264 0-17.408 7.168-17.408 17.408zM184.32 457.216v78.848c0 11.264 6.144 17.408 17.408 17.408h621.568c10.24 0 16.384-6.144 16.384-17.408v-78.848h-655.36zM250.88 214.528h153.6v81.92h-153.6v-81.92zM273.408 690.688c0 38.912 30.72 73.728 71.68 73.728 47.104 0 74.752-43.008 97.28-86.016l34.816-66.56h-75.776c-33.792 0-69.632 1.024-95.232 17.408-23.552 13.312-32.768 38.912-32.768 61.44zM546.816 611.84l34.816 66.56c22.528 43.008 50.176 86.016 97.28 86.016 40.96 0 71.68-34.816 71.68-73.728 0-22.528-9.216-48.128-32.768-61.44-24.576-16.384-61.44-17.408-95.232-17.408h-75.776z" />
<glyph unicode="&#xe95c;" glyph-name="github" d="M387.072 60.621c16.384-5.12 26.624 5.12 26.624 18.432 0 1.024-1.024 14.336-1.024 40.96-1.024 24.576-1.024 44.032-1.024 57.344-13.312-4.096-29.696-5.12-40.96-5.12-34.816 0-79.872 10.24-93.184 53.248-16.384 26.624-30.72 51.2-45.056 59.392-22.528 16.384-20.48 25.6 3.072 25.6l9.216-2.048c14.336-3.072 38.912-17.408 52.224-39.936 13.312-26.624 35.84-44.032 70.656-44.032 13.312 0 29.696 3.072 46.080 8.192 3.072 25.6 13.312 43.008 25.6 55.296-44.032 4.096-63.488 7.168-101.376 23.552-18.432 7.168-30.72 16.384-40.96 28.672-19.456 23.552-37.888 66.56-37.888 128 0 33.792 12.288 65.536 37.888 93.184-13.312 31.744-11.264 68.608 4.096 109.568 28.672 8.192 78.848-22.528 110.592-45.056 32.768 10.24 66.56 15.36 101.376 15.36s69.632-5.12 102.4-15.36l19.456 15.36c25.6 19.456 70.656 34.816 91.136 29.696 15.36-40.96 16.384-77.824 2.048-109.568 31.744-32.768 43.008-53.248 43.008-93.184 0-77.824-22.528-135.168-81.92-156.672-37.888-16.384-55.296-17.408-102.4-23.552 18.432-14.336 26.624-37.888 26.624-73.728 0-21.504 0-49.152 0-82.944v-52.224c0-13.312 10.24-23.552 27.648-18.432 161.792 53.248 270.336 205.824 270.336 382.976 0 225.28-182.272 393.216-399.36 393.216-215.040 0-399.36-168.96-399.36-393.216 0-177.152 111.616-329.728 274.432-382.976zM251.904 294.093c-1.024-2.048 0-4.096 5.12-6.144 2.048-2.048 4.096-1.024 6.144 2.048 1.024 1.024 0 3.072-4.096 6.144-2.048 1.024-5.12 0-7.168-2.048zM268.288 281.805c-1.024-2.048-1.024-4.096 2.048-8.192 4.096-2.048 7.168-3.072 8.192-1.024 2.048 2.048 2.048 5.12-1.024 8.192-3.072 2.048-7.168 3.072-9.216 1.024zM285.696 261.325c-5.12-1.024 2.048-18.432 9.216-13.312 2.048 3.072 2.048 6.144 0 10.24-3.072 5.12-7.168 6.144-9.216 3.072zM304.128 237.773c-3.072-3.072-3.072-6.144 3.072-10.24 3.072-5.12 7.168-5.12 10.24-2.048 2.048 3.072 0 6.144-3.072 11.264-4.096 4.096-7.168 5.12-10.24 1.024zM336.896 210.125c5.12-2.048 8.192-1.024 9.216 3.072s-1.024 7.168-6.144 8.192c-10.24 3.072-15.36-9.216-3.072-11.264zM362.496 211.149c0-5.12 4.096-7.168 9.216-6.144 6.144 0 9.216 3.072 9.216 6.144 0 4.096-4.096 6.144-10.24 5.12-5.12 0-8.192-2.048-8.192-5.12zM400.384 221.389c-10.24-2.048-8.192-15.36 2.048-12.288s8.192 12.288-2.048 12.288z" />
<glyph unicode="&#xe95d;" glyph-name="globe" d="M512 53.76c223.232 0 394.24 180.224 394.24 394.24 0 220.16-172.032 394.24-394.24 394.24s-394.24-174.080-394.24-394.24 172.032-394.24 394.24-394.24zM180.224 448c0 35.84 5.12 70.656 15.36 102.4h135.168c-4.096-32.768-6.144-67.584-6.144-102.4s2.048-69.632 6.144-102.4h-135.168c-10.24 31.744-15.36 66.56-15.36 102.4zM217.088 291.328h123.904c15.36-66.56 41.984-123.904 84.992-166.912-92.16 23.552-166.912 84.992-208.896 166.912zM218.112 605.696c41.984 82.944 116.736 143.36 208.896 167.936-43.008-43.008-70.656-101.376-86.016-167.936h-122.88zM387.072 448c0 35.84 2.048 69.632 7.168 102.4h235.52c5.12-32.768 7.168-66.56 7.168-102.4s-2.048-69.632-7.168-102.4h-235.52c-5.12 32.768-7.168 66.56-7.168 102.4zM404.48 291.328h215.040c-20.48-84.992-58.368-151.552-107.52-178.176-49.152 26.624-87.040 93.184-107.52 178.176zM404.48 605.696c20.48 84.992 58.368 151.552 107.52 178.176 49.152-26.624 87.040-93.184 107.52-178.176h-215.040zM596.992 773.632c92.16-24.576 166.912-84.992 208.896-167.936h-121.856c-16.384 66.56-44.032 124.928-87.040 167.936zM599.040 124.416c41.984 43.008 69.632 101.376 84.992 166.912h121.856c-43.008-80.896-116.736-142.336-206.848-166.912zM694.272 345.6c4.096 32.768 6.144 67.584 6.144 102.4s-2.048 69.632-6.144 102.4h134.144c10.24-31.744 15.36-66.56 15.36-102.4s-5.12-69.632-15.36-102.4h-134.144z" />
<glyph unicode="&#xe95e;" glyph-name="google-play" d="M187.392 51.712l398.336 396.288-398.336 396.288c-22.528-12.288-33.792-29.696-33.792-54.272v-685.056c0-24.576 11.264-41.984 33.792-53.248zM279.552 70.144l430.080 248.832-92.16 94.208-337.92-343.040zM279.552 824.832l337.92-343.040 92.16 92.16-430.080 250.88zM653.312 448l100.352-100.352 91.136 52.224c16.384 9.216 25.6 28.672 25.6 47.104s-9.216 37.888-25.6 46.080l-91.136 53.248-100.352-98.304z" />
<glyph unicode="&#xe95f;" glyph-name="graph-grow" d="M120.832 327.168l210.944 211.968h328.704l187.392 186.368c-1.024-30.72-1.024-61.44-1.024-91.136v-70.656h57.344v263.168h-262.144v-58.368h69.632c29.696 0 60.416 0 90.112 1.024l-167.936-167.936h-326.656l-186.368-185.344v-89.088zM119.808 69.12h70.656v124.928h-70.656v-124.928zM297.984 69.12h70.656v205.824h-70.656v-205.824zM477.184 69.12h69.632v337.92h-69.632v-337.92zM655.36 69.12h70.656v245.76h-70.656v-245.76zM832.512 69.12h70.656v378.88h-70.656v-378.88z" />
<glyph unicode="&#xe960;" glyph-name="graph-grow-alt" d="M97.28 96.768h798.72v65.536h-732.16v610.304h-66.56v-675.84zM233.472 308.736l206.848 204.8 122.88-122.88 307.2 307.2c-2.048-30.72-2.048-61.44-2.048-91.136v-70.656h58.368l-1.024 263.168h-262.144v-58.368h70.656c29.696 0 60.416 0 90.112 1.024l-261.12-261.12-122.88 122.88-206.848-205.824v-89.088z" />
<glyph unicode="&#xe961;" glyph-name="group" d="M248.832 196.608v-73.728h526.336v73.728c0 137.216-93.184 205.824-195.584 205.824h-135.168c-116.736 0-195.584-81.92-195.584-205.824zM71.68 122.88h66.56v58.368c0 43.008 16.384 68.608 49.152 76.8 5.12 24.576 11.264 46.080 21.504 65.536-75.776-5.12-137.216-62.464-137.216-165.888v-34.816zM74.752 517.12c0-69.632 55.296-124.928 124.928-124.928s125.952 55.296 125.952 124.928-56.32 125.952-125.952 125.952-124.928-56.32-124.928-125.952zM129.024 517.12c0 38.912 31.744 70.656 70.656 70.656s70.656-31.744 70.656-70.656-31.744-70.656-70.656-70.656-70.656 31.744-70.656 70.656zM317.44 180.224v51.2c0 71.68 37.888 108.544 113.664 108.544h161.792c75.776 0 113.664-36.864 113.664-108.544v-51.2h-389.12zM349.184 615.424c0-89.088 73.728-158.72 162.816-158.72s162.816 69.632 162.816 158.72-73.728 157.696-162.816 157.696-162.816-68.608-162.816-157.696zM412.672 615.424c0 55.296 44.032 99.328 99.328 99.328s100.352-44.032 100.352-99.328c0-56.32-45.056-99.328-100.352-99.328s-99.328 43.008-99.328 99.328zM699.392 517.12c0-69.632 55.296-124.928 124.928-124.928s125.952 55.296 125.952 124.928-56.32 125.952-125.952 125.952-124.928-56.32-124.928-125.952zM753.664 517.12c0 38.912 31.744 70.656 70.656 70.656s70.656-31.744 70.656-70.656-31.744-70.656-70.656-70.656-70.656 31.744-70.656 70.656zM815.104 323.584c10.24-19.456 16.384-40.96 21.504-65.536 32.768-8.192 49.152-33.792 49.152-76.8v-58.368h66.56v34.816c0 103.424-60.416 160.768-137.216 165.888z" />
<glyph unicode="&#xe962;" glyph-name="hand-holding-coin" d="M340.992 79.258c46.080-26.624 104.448-30.72 174.080 2.048l373.76 172.032c33.792 15.36 56.32 50.176 56.32 88.064 0 54.272-45.056 94.208-95.232 94.208-10.24 0-19.456-2.048-36.864-9.216l-3.072 7.168c-22.528 43.008-73.728 59.392-118.784 39.936l-78.848-35.84c14.336-13.312 25.6-29.696 33.792-49.152l69.632 30.72c16.384 8.192 35.84 1.024 44.032-16.384l4.096-10.24-169.984-76.8c5.12 40.96-17.408 81.92-54.272 99.328l-163.84 75.776c-109.568 51.2-212.992 31.744-296.96-66.56v-266.24h62.464v241.664c61.44 61.44 129.024 70.656 207.872 34.816l162.816-75.776c13.312-6.144 21.504-19.456 21.504-34.816 0-26.624-28.672-45.056-52.224-33.792l-136.192 62.464-20.48-46.080 146.432-68.608c24.576-11.264 53.248-9.216 95.232 9.216l270.336 121.856c21.504 10.24 45.056-5.12 45.056-27.648 0-12.288-7.168-25.6-18.432-30.72l-374.784-173.056c-45.056-20.48-82.944-22.528-116.736-3.072l-110.592 61.44-30.72-55.296 110.592-61.44zM371.712 695.706c0-78.848 63.488-142.336 142.336-142.336s142.336 63.488 142.336 142.336-63.488 142.336-142.336 142.336-142.336-63.488-142.336-142.336zM431.104 695.706c0 46.080 36.864 82.944 82.944 82.944s82.944-36.864 82.944-82.944-36.864-82.944-82.944-82.944-82.944 36.864-82.944 82.944z" />
<glyph unicode="&#xe963;" glyph-name="handshake" d="M580.608 614.4l-104.448-104.448c-9.216-8.192-18.432-13.312-29.696-13.312-26.624 0-41.984 20.48-41.984 40.96 0 11.264 5.12 23.552 11.264 29.696l106.496 105.472c15.36 13.312 34.816 21.504 54.272 21.504h81.92c20.48 0 38.912-8.192 54.272-21.504l61.44-60.416c14.336-15.36 33.792-22.528 53.248-22.528h124.928v62.464h-116.736c-7.168 0-13.312 2.048-17.408 7.168l-58.368 56.32c-26.624 26.624-64.512 41.984-101.376 41.984h-292.864c-36.864 0-74.752-15.36-101.376-41.984l-58.368-56.32c-4.096-5.12-9.216-7.168-17.408-7.168h-116.736v-62.464h124.928c19.456 0 38.912 7.168 54.272 22.528l61.44 60.416c14.336 13.312 33.792 21.504 53.248 21.504h101.376l-89.088-88.064c-17.408-17.408-27.648-43.008-27.648-67.584 0-53.248 41.984-97.28 96.256-97.28 24.576 0 48.128 9.216 66.56 27.648l22.528 22.528 176.128-176.128-94.208-92.16c-14.336-13.312-33.792-22.528-53.248-22.528h-168.96c-19.456 0-38.912 9.216-52.224 22.528l-111.616 109.568c-15.36 13.312-33.792 21.504-54.272 21.504h-105.472v-62.464h98.304c6.144 0 12.288-2.048 17.408-7.168l108.544-106.496c24.576-23.552 62.464-39.936 99.328-39.936h168.96c36.864 0 74.752 16.384 99.328 40.96l114.688 112.64h174.080v62.464h-201.728l-176.128 176.128 45.056 45.056-38.912 38.912z" />
<glyph unicode="&#xe964;" glyph-name="help" d="M474.112 385.536h39.936c106.496 0 158.72 71.68 158.72 150.528 0 79.872-54.272 155.648-154.624 155.648-90.112 0-154.624-69.632-154.624-145.408v-6.144h66.56v14.336c0 52.224 24.576 74.752 82.944 74.752h9.216c59.392 0 83.968-22.528 83.968-75.776v-40.96c0-49.152-22.528-68.608-77.824-68.608h-54.272v-58.368zM117.76 448c0-220.16 174.080-394.24 394.24-394.24 221.184 0 394.24 179.2 394.24 394.24 0 220.16-174.080 394.24-394.24 394.24s-394.24-174.080-394.24-394.24zM184.32 448c0 184.32 144.384 327.68 327.68 327.68 184.32 0 327.68-143.36 327.68-327.68 0-178.176-143.36-327.68-327.68-327.68-183.296 0-327.68 144.384-327.68 327.68zM467.968 227.84h89.088v89.088h-89.088v-89.088z" />
<glyph unicode="&#xe965;" glyph-name="history" d="M512 51.2c216.064 0 394.24 178.176 394.24 394.24s-178.176 394.24-394.24 394.24c-122.88 0-230.4-57.344-302.080-150.528 1.024 25.6 2.048 52.224 2.048 77.824v77.824h-58.368v-262.144h234.496v59.392h-53.248c-27.648 0-57.344-1.024-86.016-3.072 59.392 80.896 153.6 134.144 263.168 134.144 180.224 0 327.68-148.48 327.68-327.68s-147.456-327.68-327.68-327.68c-179.2 0-327.68 148.48-327.68 327.68h-66.56c0-216.064 178.176-394.24 394.24-394.24zM480.256 445.44c0-9.216 3.072-17.408 9.216-23.552l147.456-147.456 47.104 47.104-137.216 137.216v222.208h-66.56v-235.52z" />
<glyph unicode="&#xe966;" glyph-name="house" d="M184.32 48.64h280.576v292.864h94.208v-292.864h280.576v414.72l67.584-61.44 45.056 46.080-440.32 399.36-440.32-399.36 45.056-46.080 67.584 61.44v-414.72zM248.832 111.104v410.624l263.168 238.592 263.168-238.592v-410.624h-156.672v289.792h-212.992v-289.792h-156.672z" />
<glyph unicode="&#xe967;" glyph-name="import" d="M117.76 92.16h788.48v302.080h-66.56v-235.52h-655.36v235.52h-66.56v-302.080zM325.632 436.224l186.368-185.344 185.344 185.344-41.984 40.96-53.248-53.248c-19.456-19.456-38.912-39.936-58.368-60.416v440.32h-63.488v-441.344c-19.456 20.48-38.912 41.984-58.368 61.44l-54.272 53.248-41.984-40.96z" />
<glyph unicode="&#xe968;" glyph-name="info" d="M395.264 232.96h240.64v55.296h-83.968v235.52h-146.432v-55.296h82.944v-180.224h-93.184v-55.296zM117.76 448c0-220.16 174.080-394.24 394.24-394.24 221.184 0 394.24 179.2 394.24 394.24 0 220.16-174.080 394.24-394.24 394.24s-394.24-174.080-394.24-394.24zM184.32 448c0 184.32 144.384 327.68 327.68 327.68 184.32 0 327.68-143.36 327.68-327.68 0-178.176-143.36-327.68-327.68-327.68-183.296 0-327.68 144.384-327.68 327.68zM474.112 592.384h89.088v89.088h-89.088v-89.088z" />
<glyph unicode="&#xe969;" glyph-name="instagram" d="M424.96 48.64h174.080c238.592 0 312.32 75.776 312.32 312.32v174.080c0 236.544-73.728 312.32-312.32 312.32h-174.080c-238.592 0-312.32-75.776-312.32-312.32v-174.080c0-236.544 73.728-312.32 312.32-312.32zM183.296 360.96v174.080c0 196.608 44.032 241.664 241.664 241.664h174.080c197.632 0 241.664-45.056 241.664-241.664v-174.080c0-196.608-44.032-241.664-241.664-241.664h-174.080c-197.632 0-241.664 45.056-241.664 241.664zM307.2 448c0-113.664 91.136-204.8 204.8-204.8s204.8 91.136 204.8 204.8-91.136 204.8-204.8 204.8-204.8-91.136-204.8-204.8zM378.88 448c0 73.728 59.392 133.12 133.12 133.12s133.12-59.392 133.12-133.12-59.392-133.12-133.12-133.12-133.12 59.392-133.12 133.12zM677.888 660.992c0-25.6 21.504-47.104 47.104-47.104s47.104 21.504 47.104 47.104-21.504 47.104-47.104 47.104-47.104-21.504-47.104-47.104z" />
<glyph unicode="&#xe96a;" glyph-name="key" d="M337.92 48.64l49.152 49.152-98.304 98.304 55.296 55.296 98.304-97.28 49.152 49.152-97.28 98.304 175.104 176.128c32.768-21.504 71.68-33.792 113.664-33.792 115.712 0 205.824 91.136 205.824 201.728s-90.112 201.728-205.824 201.728-205.824-91.136-205.824-201.728c0-45.056 15.36-87.040 40.96-119.808l-382.976-384 49.152-49.152 54.272 53.248 99.328-97.28zM547.84 645.632c0 75.776 60.416 135.168 135.168 135.168 75.776 0 135.168-59.392 135.168-135.168 0-74.752-59.392-135.168-135.168-135.168-74.752 0-135.168 60.416-135.168 135.168z" />
<glyph unicode="&#xe96b;" glyph-name="layers" d="M512 436.736l430.080 203.776-430.080 201.728-430.080-201.728 430.080-203.776zM81.92 256.512l430.080-202.752 430.080 202.752-74.752 35.84-355.328-166.912-355.328 166.912-74.752-35.84zM81.92 448l430.080-203.776 430.080 203.776-74.752 35.84-355.328-166.912-355.328 166.912-74.752-35.84zM232.448 640.512l279.552 131.072 279.552-131.072-279.552-133.12-279.552 133.12z" />
<glyph unicode="&#xe96c;" glyph-name="ledger-blue" d="M222.72 12.8h542.72c47.104 0 81.92 34.816 81.92 81.92v506.88h35.84v143.36h-35.84v56.32c0 47.104-34.816 81.92-81.92 81.92h-542.72c-47.104 0-81.92-34.816-81.92-81.92v-706.56c0-47.104 34.816-81.92 81.92-81.92zM203.264 92.672v710.656c0 11.264 7.168 17.408 17.408 17.408h546.816c11.264 0 17.408-6.144 17.408-17.408v-710.656c0-11.264-6.144-17.408-17.408-17.408h-546.816c-10.24 0-17.408 6.144-17.408 17.408zM273.92 145.92h440.32v604.16h-440.32v-604.16zM329.216 201.216v493.568h329.728v-493.568h-329.728z" />
<glyph unicode="&#xe96d;" glyph-name="lend" d="M120.832 381.44v-62.464c291.84 37.888 537.6 190.464 727.040 409.6-1.024-30.72-1.024-61.44-1.024-91.136v-73.728h57.344v263.168h-262.144v-58.368h69.632c28.672 0 59.392 0 88.064 1.024-179.2-207.872-405.504-350.208-678.912-388.096zM119.808 69.12h70.656v124.928h-70.656v-124.928zM297.984 69.12h70.656v182.272h-70.656v-182.272zM477.184 69.12h69.632v242.688h-69.632v-242.688zM655.36 69.12h70.656v301.056h-70.656v-301.056zM832.512 69.12h70.656v358.4h-70.656v-358.4z" />
<glyph unicode="&#xe96e;" glyph-name="life-ring" d="M512 340.48c-59.392 0-107.52 48.128-107.52 107.52s48.128 107.52 107.52 107.52 107.52-48.128 107.52-107.52-48.128-107.52-107.52-107.52zM117.76 448c0-220.16 174.080-394.24 394.24-394.24 221.184 0 394.24 179.2 394.24 394.24 0 220.16-174.080 394.24-394.24 394.24s-394.24-174.080-394.24-394.24zM184.32 448c0 79.872 26.624 151.552 72.704 207.872l116.736-116.736c-17.408-25.6-27.648-57.344-27.648-91.136s10.24-65.536 27.648-91.136l-116.736-116.736c-46.080 56.32-72.704 128-72.704 207.872zM304.128 702.976c56.32 46.080 128 72.704 207.872 72.704s151.552-26.624 207.872-72.704l-116.736-116.736c-25.6 17.408-57.344 27.648-91.136 27.648s-65.536-10.24-91.136-27.648l-116.736 116.736zM304.128 193.024l116.736 116.736c25.6-17.408 57.344-27.648 91.136-27.648s65.536 10.24 91.136 27.648l115.712-115.712c-55.296-46.080-128-73.728-206.848-73.728-79.872 0-151.552 26.624-207.872 72.704zM650.24 356.864c17.408 25.6 27.648 57.344 27.648 91.136s-10.24 65.536-27.648 91.136l116.736 116.736c46.080-56.32 72.704-128 72.704-207.872 0-77.824-27.648-150.528-73.728-206.848l-115.712 115.712z" />
<glyph unicode="&#xe96f;" glyph-name="lightbulb" d="M365.568 205.312v-172.032h292.864v172.032c0 41.984 9.216 59.392 53.248 109.568l24.576 27.648c58.368 64.512 87.040 133.12 87.040 214.016 0 181.248-146.432 306.176-311.296 306.176s-311.296-124.928-311.296-306.176c0-80.896 28.672-149.504 87.040-214.016l24.576-27.648c44.032-50.176 53.248-67.584 53.248-109.568zM267.264 556.544c0 145.408 114.688 243.712 244.736 243.712s244.736-98.304 244.736-243.712c0-65.536-23.552-119.808-70.656-173.056l-23.552-26.624c-47.104-53.248-67.584-88.064-70.656-142.336h-48.128v212.992h-63.488v-212.992h-48.128c-3.072 54.272-23.552 89.088-70.656 142.336l-23.552 26.624c-47.104 53.248-70.656 107.52-70.656 173.056zM432.128 95.744v60.416h159.744v-60.416h-159.744z" />
<glyph unicode="&#xe970;" glyph-name="link" d="M430.080 365.056c80.896-77.824 207.872-78.848 286.72 1.024l141.312 141.312c79.872 78.848 79.872 208.896 0 286.72-77.824 79.872-206.848 78.848-285.696 0l-105.472-103.424 49.152-50.176 105.472 104.448c66.56 65.536 121.856 65.536 187.392 0s66.56-121.856 0-187.392l-142.336-142.336c-65.536-66.56-123.904-67.584-190.464-3.072l-30.72 29.696-45.056-48.128 29.696-28.672zM165.888 101.888c77.824-79.872 206.848-78.848 285.696 0l105.472 103.424-48.128 50.176-106.496-104.448c-65.536-65.536-121.856-65.536-187.392 0-65.536 66.56-65.536 121.856 0 187.392l142.336 142.336c66.56 66.56 123.904 67.584 190.464 3.072l30.72-29.696 45.056 48.128-29.696 28.672c-80.896 77.824-207.872 78.848-286.72-1.024l-141.312-141.312c-79.872-78.848-79.872-208.896 0-286.72z" />
<glyph unicode="&#xe971;" glyph-name="linkedin" d="M168.96 48.64h686.080c31.744 0 56.32 25.6 56.32 56.32v686.080c0 30.72-24.576 56.32-56.32 56.32h-686.080c-30.72 0-56.32-25.6-56.32-56.32v-686.080c0-30.72 25.6-56.32 56.32-56.32zM226.304 665.088c0 37.888 30.72 68.608 68.608 68.608s68.608-30.72 68.608-68.608-30.72-68.608-68.608-68.608-68.608 30.72-68.608 68.608zM235.52 162.304v381.952h119.808v-381.952h-119.808zM429.056 162.304v381.952h113.664v-51.2h1.024c18.432 33.792 59.392 60.416 113.664 60.416 102.4 0 140.288-67.584 140.288-182.272v-208.896h-117.76v186.368c0 51.2-3.072 101.376-62.464 101.376-54.272 0-69.632-39.936-69.632-98.304v-189.44h-118.784z" />
<glyph unicode="&#xe972;" glyph-name="link-none" d="M846.848 66.048l47.104 47.104-716.8 716.8-47.104-47.104 716.8-716.8zM165.888 101.888c77.824-79.872 206.848-79.872 286.72 0l122.88 121.856-50.176 50.176-122.88-122.88c-65.536-64.512-121.856-64.512-187.392 0-64.512 65.536-64.512 121.856 0 187.392l122.88 122.88-50.176 50.176-121.856-123.904c-79.872-78.848-79.872-207.872 0-285.696zM448.512 672.256l50.176-50.176 122.88 122.88c65.536 64.512 121.856 64.512 187.392 0 64.512-65.536 64.512-121.856 0-187.392l-122.88-122.88 50.176-50.176 121.856 122.88c79.872 79.872 79.872 208.896 0 286.72-77.824 79.872-206.848 79.872-285.696 0l-123.904-121.856z" />
<glyph unicode="&#xe973;" glyph-name="linux" d="M674.304 7.68c36.864 0 71.68 22.528 93.184 51.2 25.6 32.768 110.592 48.128 110.592 90.112 0 20.48-16.384 34.816-27.648 51.2-15.36 18.432-8.192 51.2-30.72 70.656-4.096 4.096-10.24 7.168-14.336 10.24 4.096 16.384 7.168 34.816 7.168 52.224 0 152.576-151.552 220.16-151.552 330.752v32.768c0 93.184-15.36 191.488-131.072 191.488-100.352 0-137.216-56.32-137.216-150.528 0-26.624 4.096-52.224 4.096-77.824 0-128-167.936-209.92-150.528-366.592-10.24-11.264-18.432-24.576-28.672-35.84-20.48-20.48-67.584-11.264-67.584-63.488 0-14.336 6.144-28.672 6.144-44.032s-10.24-30.72-10.24-48.128c0-21.504 13.312-35.84 33.792-40.96 35.84-10.24 73.728-5.12 108.544-22.528 24.576-12.288 49.152-20.48 75.776-20.48 25.6 0 63.488 12.288 70.656 40.96 27.648 3.072 53.248 12.288 80.896 12.288 28.672 0 57.344-9.216 87.040-7.168 10.24-34.816 34.816-56.32 71.68-56.32zM167.424 102.912c0 16.384 8.192 29.696 8.192 47.104 0 15.36-5.12 29.696-5.12 45.056 0 5.12 1.024 9.216 3.072 13.312 11.264 20.48 41.984 18.432 58.368 34.816 7.168 7.168 13.312 17.408 20.48 25.6s10.24 13.312 22.528 15.36c20.48 0 30.72-8.192 43.008-25.6 13.312-18.432 22.528-39.936 32.768-59.392 8.192-15.36 19.456-29.696 29.696-43.008 13.312-19.456 39.936-46.080 39.936-70.656 0-29.696-25.6-47.104-54.272-47.104-23.552 0-46.080 7.168-68.608 17.408-23.552 12.288-51.2 16.384-77.824 19.456-13.312 2.048-41.984 3.072-50.176 15.36-2.048 4.096-2.048 8.192-2.048 12.288zM302.592 352.768c0 45.056 26.624 96.256 50.176 134.144-12.288-44.032-39.936-65.536-39.936-117.76 0-21.504 7.168-41.984 19.456-58.368 3.072 106.496 81.92 189.44 90.112 294.912 17.408-16.384 44.032-36.864 69.632-36.864 23.552 0 84.992 33.792 102.4 51.2 14.336-55.296 35.84-111.616 62.464-161.792 18.432-34.816 32.768-71.68 39.936-110.592 7.168 1.024 12.288-1.024 18.432-2.048 5.12 12.288 7.168 25.6 7.168 37.888 0 59.392-51.2 114.688-51.2 116.736 0 0-1.024 1.024 0 2.048 34.816-30.72 63.488-84.992 63.488-132.096 0-10.24 0-19.456-3.072-29.696 18.432-4.096 55.296-29.696 55.296-51.2l-1.024-5.12-7.168 1.024 1.024 4.096c0 25.6-59.392 45.056-80.896 45.056-14.336 0-22.528-13.312-24.576-25.6l-10.24-5.12h-1.024c-36.864-20.48-35.84-76.8-37.888-114.688-1.024-13.312-8.192-39.936-13.312-54.272-31.744-19.456-68.608-33.792-106.496-33.792-26.624 0-53.248 7.168-75.776 21.504-8.192 13.312-15.36 26.624-26.624 37.888 13.312 3.072 24.576 8.192 24.576 23.552 0 68.608-124.928 81.92-124.928 168.96zM412.16 714.24c0 17.408 9.216 43.008 28.672 43.008 23.552 0 33.792-31.744 33.792-50.176v-4.096c-7.168-1.024-13.312-4.096-18.432-7.168 0 8.192-3.072 29.696-16.384 29.696-8.192 0-12.288-14.336-12.288-21.504 0-8.192 2.048-18.432 8.192-25.6-2.048-1.024-8.192-6.144-11.264-8.192-10.24 12.288-12.288 28.672-12.288 44.032zM413.184 639.488c0 11.264 29.696 30.72 31.744 29.696 11.264 12.288 25.6 23.552 46.080 23.552 16.384 0 99.328-31.744 99.328-48.128 0-21.504-21.504-31.744-38.912-37.888-23.552-9.216-31.744-25.6-60.416-25.6-19.456 0-77.824 38.912-77.824 58.368zM420.352 636.416c21.504-11.264 43.008-33.792 65.536-33.792 35.84 0 76.8 36.864 90.112 36.864l-1.024 7.168c-18.432 0-52.224-35.84-90.112-35.84-18.432 0-40.96 23.552-64.512 34.816v-9.216zM506.368 704c0 25.6 10.24 62.464 41.984 62.464 27.648 0 45.056-29.696 45.056-54.272 0-14.336-4.096-28.672-12.288-39.936-7.168 1.024-14.336 6.144-21.504 8.192 4.096 7.168 5.12 16.384 5.12 24.576 0 11.264-5.12 27.648-19.456 27.648-17.408 0-19.456-23.552-19.456-36.864-7.168 4.096-13.312 7.168-19.456 8.192zM621.056 80.384c0 35.84 22.528 70.656 24.576 108.544 0 27.648 2.048 67.584 18.432 91.136 4.096 2.048 7.168 4.096 9.216 6.144 6.144-21.504 13.312-46.080 40.96-46.080 17.408 0 40.96 11.264 52.224 23.552h9.216c7.168 0 15.36 0 22.528-3.072 3.072 0 6.144-2.048 8.192-4.096 16.384-11.264 12.288-52.224 28.672-70.656 9.216-10.24 22.528-23.552 22.528-37.888 0-16.384-83.968-50.176-106.496-77.824-18.432-22.528-45.056-41.984-75.776-41.984-29.696 0-54.272 21.504-54.272 52.224z" />
<glyph unicode="&#xe974;" glyph-name="list" d="M309.76 650.752h599.040v66.56h-599.040v-66.56zM115.2 166.4h92.16v92.16h-92.16v-92.16zM115.2 401.92h92.16v92.16h-92.16v-92.16zM115.2 637.44h92.16v92.16h-92.16v-92.16zM309.76 179.712h599.040v66.56h-599.040v-66.56zM309.76 415.232h599.040v66.56h-599.040v-66.56z" />
<glyph unicode="&#xe975;" glyph-name="lock" d="M200.192 49.664h623.616v499.712h-83.968v72.704c0 123.904-104.448 224.256-228.352 224.256s-227.328-100.352-227.328-224.256v-72.704h-83.968v-499.712zM266.752 112.128v373.76h490.496v-373.76h-490.496zM350.72 549.376v72.704c0 88.064 71.68 160.768 160.768 160.768s161.792-72.704 161.792-160.768v-72.704h-322.56z" />
<glyph unicode="&#xe976;" glyph-name="lock-alt" d="M478.72 213.504h66.56v174.080h-66.56v-174.080zM200.192 49.664h623.616v499.712h-83.968v72.704c0 123.904-104.448 224.256-228.352 224.256s-227.328-100.352-227.328-224.256v-72.704h-83.968v-499.712zM266.752 112.128v373.76h490.496v-373.76h-490.496zM350.72 549.376v72.704c0 88.064 71.68 160.768 160.768 160.768s161.792-72.704 161.792-160.768v-72.704h-322.56z" />
<glyph unicode="&#xe977;" glyph-name="logs" d="M115.2 392.192h793.6v66.56h-793.6v-66.56zM115.2 156.672h588.8v66.56h-588.8v-66.56zM115.2 581.632l126.976 78.848-126.976 78.848v-157.696zM328.192 627.712h580.608v66.56h-580.608v-66.56z" />
<glyph unicode="&#xe978;" glyph-name="mail" d="M117.76 140.288h788.48v615.424h-788.48v-615.424zM184.32 202.752v349.184l327.68-262.144 327.68 262.144v-349.184h-655.36zM184.32 634.88v58.368h655.36v-58.368l-327.68-262.144-327.68 262.144z" />
<glyph unicode="&#xe979;" glyph-name="manager" d="M186.88 119.296v219.136h215.040v-219.136h-215.040zM120.32 56.832h348.16v344.064h-348.16v-344.064zM120.32 495.104h348.16v344.064h-348.16v-344.064zM186.88 557.568v219.136h215.040v-219.136h-215.040zM555.52 56.832h348.16v344.064h-348.16v-344.064zM555.52 495.104h348.16v344.064h-348.16v-344.064zM622.080 119.296v219.136h215.040v-219.136h-215.040zM622.080 557.568v219.136h215.040v-219.136h-215.040z" />
<glyph unicode="&#xe97a;" glyph-name="map-marker" d="M327.68 262.656l184.32-246.784 184.32 246.784c70.656 95.232 129.024 192.512 129.024 299.008-1.024 196.608-151.552 318.464-313.344 318.464s-312.32-121.856-313.344-318.464c0-106.496 58.368-203.776 129.024-299.008zM265.216 561.664c1.024 156.672 118.784 251.904 246.784 251.904s245.76-95.232 246.784-251.904c0-86.016-48.128-168.96-115.712-259.072l-131.072-175.104-131.072 175.104c-66.56 90.112-115.712 173.056-115.712 259.072zM363.52 565.76c0-82.944 66.56-148.48 148.48-148.48s148.48 65.536 148.48 148.48c0 81.92-66.56 148.48-148.48 148.48s-148.48-66.56-148.48-148.48zM422.912 565.76c0 49.152 39.936 89.088 89.088 89.088s90.112-39.936 90.112-89.088c0-50.176-40.96-90.112-90.112-90.112s-89.088 39.936-89.088 90.112z" />
<glyph unicode="&#xe97b;" glyph-name="medal" d="M294.4 372.224v-338.944l217.088 121.856 218.112-121.856v338.944c46.080 52.224 75.776 121.856 75.776 197.632 0 160.768-132.096 292.864-293.888 292.864s-292.864-132.096-292.864-292.864c0-75.776 28.672-145.408 75.776-197.632zM285.184 569.856c0 124.928 101.376 226.304 226.304 226.304s227.328-101.376 227.328-226.304c0-125.952-102.4-227.328-227.328-227.328s-226.304 101.376-226.304 227.328zM356.864 136.704v185.344c44.032-28.672 97.28-46.080 154.624-46.080s110.592 17.408 154.624 46.080v-185.344l-154.624 86.016-154.624-86.016z" />
<glyph unicode="&#xe97c;" glyph-name="microchip" d="M333.824 53.76h59.392v143.36h89.088v-143.36h59.392v143.36h89.088v-143.36h59.392v143.36h72.704v72.704h143.36v59.392h-143.36v89.088h143.36v59.392h-143.36v89.088h143.36v59.392h-143.36v72.704h-72.704v143.36h-59.392v-143.36h-89.088v143.36h-59.392v-143.36h-89.088v143.36h-59.392v-143.36h-72.704v-72.704h-143.36v-59.392h143.36v-89.088h-143.36v-59.392h143.36v-89.088h-143.36v-59.392h143.36v-72.704h72.704v-143.36zM323.584 259.584v376.832h376.832v-376.832h-376.832zM439.296 375.296h145.408v145.408h-145.408v-145.408z" />
<glyph unicode="&#xe97d;" glyph-name="minus" d="M870.4 482.816h-716.8v-69.632h716.8v69.632z" />
<glyph unicode="&#xe97e;" glyph-name="mobile" d="M294.4 7.68h435.2c41.984 0 76.8 34.816 76.8 76.8v727.040c0 41.984-34.816 76.8-76.8 76.8h-435.2c-41.984 0-76.8-34.816-76.8-76.8v-727.040c0-41.984 34.816-76.8 76.8-76.8zM284.16 85.504v724.992c0 9.216 6.144 15.36 15.36 15.36h423.936c9.216 0 16.384-6.144 16.384-15.36v-724.992c0-9.216-7.168-15.36-16.384-15.36h-423.936c-9.216 0-15.36 6.144-15.36 15.36zM457.216 178.688c0-28.672 23.552-54.272 54.272-54.272 29.696 0 53.248 25.6 53.248 54.272 0 29.696-23.552 53.248-53.248 53.248-30.72 0-54.272-23.552-54.272-53.248z" />
<glyph unicode="&#xe97f;" glyph-name="mug-hot" d="M341.504 69.12h125.952c68.608 0 128 25.6 169.984 80.896 5.12 6.144 10.24 13.312 14.336 20.48h35.84c120.832 0 210.944 79.872 210.944 191.488 0 113.664-90.112 193.536-210.944 193.536h-562.176v-235.52c0-77.824 14.336-129.024 47.104-169.984 43.008-55.296 100.352-80.896 168.96-80.896zM196.096 278.016v215.040h416.768v-215.040c0-97.28-38.912-142.336-138.24-142.336h-139.264c-98.304 0-139.264 44.032-139.264 142.336zM282.112 622.080h70.656c-1.024 44.032 20.48 61.44 77.824 69.632l73.728 9.216c79.872 9.216 130.048 51.2 125.952 125.952h-69.632c0-44.032-21.504-61.44-77.824-69.632l-73.728-9.216c-80.896-9.216-131.072-51.2-126.976-125.952zM675.328 232.96c6.144 24.576 8.192 53.248 8.192 87.040v173.056c104.448 0 144.384-30.72 144.384-112.64v-35.84c0-78.848-37.888-111.616-136.192-111.616h-16.384z" />
<glyph unicode="&#xe980;" glyph-name="nano" d="M753.664 7.68l198.656 198.656-683.008 681.984-197.632-198.656 681.984-681.984zM154.624 689.664l114.688 115.712 275.456-274.432c-28.672-2.048-56.32-15.36-79.872-36.864-21.504-21.504-33.792-50.176-35.84-77.824l-274.432 273.408zM504.832 339.456c-29.696 30.72-28.672 81.92 2.048 113.664 32.768 30.72 82.944 30.72 112.64 2.048l249.856-248.832-115.712-115.712-248.832 248.832zM525.312 390.656c0-23.552 19.456-44.032 44.032-44.032 23.552 0 44.032 20.48 44.032 44.032 0 24.576-20.48 44.032-44.032 44.032-24.576 0-44.032-19.456-44.032-44.032z" />
<glyph unicode="&#xe981;" glyph-name="nano-firmware-update" d="M112.64 51.2h798.72v280.576h-797.696l-1.024-280.576zM172.032 110.592v161.792h278.528c-18.432-21.504-28.672-50.176-29.696-80.896 1.024-30.72 11.264-59.392 29.696-80.896h-278.528zM325.632 589.824l186.368-185.344 185.344 185.344-41.984 40.96-53.248-52.224-58.368-61.44v327.68h-63.488v-328.704c-19.456 21.504-38.912 41.984-59.392 62.464l-53.248 52.224-41.984-40.96zM480.256 191.488c0 44.032 36.864 80.896 78.848 80.896h293.888v-161.792h-293.888c-41.984 0-78.848 36.864-78.848 80.896zM523.264 191.488c0-24.576 19.456-44.032 44.032-44.032 23.552 0 44.032 19.456 44.032 44.032s-20.48 44.032-44.032 44.032c-24.576 0-44.032-19.456-44.032-44.032z" />
<glyph unicode="&#xe982;" glyph-name="nano-folded" d="M84.48 53.248h684.032c93.184 0 171.008 77.824 171.008 172.032 0 45.056-18.432 87.040-49.152 118.784l-497.664 498.688-237.568-236.544 211.968-210.944h-282.624v-342.016zM146.944 115.712v217.088h621.568c59.392 0 107.52-48.128 107.52-107.52 0-60.416-48.128-109.568-107.52-109.568h-621.568zM244.224 606.208l148.48 148.48 358.4-360.448c-10.24 1.024-21.504 1.024-32.768 1.024h-262.144l-211.968 210.944zM702.976 225.28c0-31.744 26.624-60.416 60.416-60.416 32.768 0 58.368 28.672 58.368 60.416 0 32.768-25.6 58.368-58.368 58.368-33.792 0-60.416-25.6-60.416-58.368z" />
<glyph unicode="&#xe983;" glyph-name="nano-import" d="M112.64 564.224h798.72v280.576h-797.696l-1.024-280.576zM172.032 623.616v162.816h278.528c-18.432-21.504-28.672-50.176-29.696-81.92 1.024-30.72 11.264-59.392 29.696-80.896h-278.528zM325.632 236.544l186.368-185.344 185.344 185.344-41.984 40.96-53.248-52.224-58.368-61.44v327.68h-63.488v-328.704c-19.456 21.504-38.912 41.984-59.392 62.464l-53.248 52.224-41.984-40.96zM480.256 704.512c0 45.056 36.864 81.92 78.848 81.92h293.888v-162.816h-293.888c-41.984 0-78.848 36.864-78.848 80.896zM523.264 704.512c0-23.552 19.456-44.032 44.032-44.032 23.552 0 44.032 20.48 44.032 44.032 0 24.576-20.48 44.032-44.032 44.032-24.576 0-44.032-19.456-44.032-44.032z" />
<glyph unicode="&#xe984;" glyph-name="nano-s" d="M753.664 7.68l198.656 198.656-398.336 398.336 24.576 25.6-73.728 73.728-25.6-25.6-81.92 82.944 25.6 25.6-73.728 73.728-25.6-26.624-54.272 54.272-197.632-198.656 681.984-681.984zM154.624 689.664l114.688 115.712 275.456-274.432c-28.672-2.048-56.32-15.36-79.872-36.864-21.504-21.504-33.792-50.176-35.84-77.824l-274.432 273.408zM504.832 339.456c-29.696 30.72-28.672 81.92 2.048 113.664 32.768 30.72 82.944 30.72 112.64 2.048l249.856-248.832-115.712-115.712-248.832 248.832zM525.312 390.656c0-23.552 19.456-44.032 44.032-44.032 23.552 0 44.032 20.48 44.032 44.032 0 24.576-20.48 44.032-44.032 44.032-24.576 0-44.032-19.456-44.032-44.032z" />
<glyph unicode="&#xe985;" glyph-name="nano-s-alt" d="M634.368 113.152l-429.056 430.080 153.6 152.576 429.056-430.080c25.6-23.552 34.816-51.2 34.816-78.848 0-60.416-48.128-108.544-108.544-108.544-27.648 0-55.296 10.24-79.872 34.816zM116.224 543.232l444.416-444.416v-70.656h311.296v422.912h35.84v104.448h-35.84v116.736h35.84v104.448h-35.84v91.136h-304.128v-291.84l-209.92 208.896-241.664-241.664zM654.848 186.88c0-31.744 25.6-60.416 60.416-60.416 32.768 0 58.368 28.672 58.368 60.416 0 32.768-26.624 58.368-58.368 58.368-34.816 0-60.416-25.6-60.416-58.368z" />
<glyph unicode="&#xe986;" glyph-name="nano-s-folded" d="M84.48 53.248h684.032c93.184 0 171.008 77.824 171.008 172.032 0 45.056-18.432 87.040-49.152 118.784l-216.064 217.088 23.552 24.576-73.728 73.728-24.576-24.576-81.92 82.944 24.576 24.576-73.728 73.728-24.576-24.576-51.2 51.2-237.568-236.544 211.968-210.944h-282.624v-342.016zM146.944 115.712v217.088h621.568c59.392 0 107.52-48.128 107.52-107.52 0-60.416-48.128-109.568-107.52-109.568h-621.568zM244.224 606.208l148.48 148.48 358.4-360.448c-10.24 1.024-21.504 1.024-32.768 1.024h-262.144l-211.968 210.944zM702.976 225.28c0-31.744 26.624-60.416 60.416-60.416 32.768 0 58.368 28.672 58.368 60.416 0 32.768-25.6 58.368-58.368 58.368-33.792 0-60.416-25.6-60.416-58.368z" />
<glyph unicode="&#xe987;" glyph-name="nano-x" d="M753.664 7.68l198.656 198.656-683.008 681.984-197.632-198.656 681.984-681.984zM154.624 689.664l114.688 115.712 275.456-274.432c-28.672-2.048-56.32-15.36-79.872-36.864-21.504-21.504-33.792-50.176-35.84-77.824l-274.432 273.408zM227.328 688.64c0-23.552 19.456-43.008 43.008-43.008 24.576 0 45.056 19.456 45.056 43.008 0 24.576-20.48 45.056-45.056 45.056-23.552 0-43.008-20.48-43.008-45.056zM504.832 339.456c-29.696 30.72-28.672 81.92 2.048 113.664 32.768 30.72 82.944 30.72 112.64 2.048l249.856-248.832-115.712-115.712-248.832 248.832zM525.312 390.656c0-23.552 19.456-44.032 44.032-44.032 23.552 0 44.032 20.48 44.032 44.032 0 24.576-20.48 44.032-44.032 44.032-24.576 0-44.032-19.456-44.032-44.032z" />
<glyph unicode="&#xe988;" glyph-name="nano-x-alt" d="M578.56 28.16h311.296v839.68h-304.128v-291.84l-209.92 208.896-241.664-241.664 444.416-444.416v-70.656zM223.232 543.232l153.6 152.576 429.056-430.080c25.6-24.576 34.816-51.2 34.816-78.848 0-60.416-48.128-108.544-108.544-108.544-27.648 0-55.296 10.24-79.872 34.816l-429.056 430.080zM647.168 712.192c0 50.176 39.936 90.112 92.16 90.112 48.128 0 88.064-39.936 88.064-90.112 0-45.056-39.936-90.112-88.064-90.112-51.2 0-92.16 45.056-92.16 90.112zM672.768 186.88c0-31.744 25.6-60.416 60.416-60.416 32.768 0 58.368 28.672 58.368 60.416 0 32.768-26.624 58.368-58.368 58.368-34.816 0-60.416-25.6-60.416-58.368zM684.032 712.192c0-27.648 22.528-54.272 55.296-54.272 29.696 0 53.248 25.6 53.248 54.272-1.024 30.72-23.552 54.272-53.248 55.296-31.744 0-55.296-24.576-55.296-55.296z" />
<glyph unicode="&#xe989;" glyph-name="nano-x-folded" d="M84.48 53.248h684.032c93.184 0 171.008 77.824 171.008 172.032 0 45.056-18.432 87.040-49.152 118.784l-497.664 498.688-237.568-236.544 211.968-210.944h-282.624v-342.016zM146.944 115.712v217.088h621.568c59.392 0 107.52-48.128 107.52-107.52 0-60.416-48.128-109.568-107.52-109.568h-621.568zM244.224 606.208l148.48 148.48 358.4-360.448c-10.24 1.024-21.504 1.024-32.768 1.024h-262.144l-211.968 210.944zM336.384 603.136c0-31.744 26.624-60.416 60.416-60.416 32.768 0 58.368 28.672 58.368 60.416 0 32.768-25.6 58.368-58.368 58.368-33.792 0-60.416-25.6-60.416-58.368zM702.976 225.28c0-31.744 26.624-60.416 60.416-60.416 32.768 0 58.368 28.672 58.368 60.416 0 32.768-25.6 58.368-58.368 58.368-33.792 0-60.416-25.6-60.416-58.368z" />
<glyph unicode="&#xe98a;" glyph-name="network-wired" d="M153.6 48.64h317.44v256h-129.024v113.664h339.968v-113.664h-129.024v-256h317.44v256h-129.024v113.664h190.464v59.392h-390.144v113.664h129.024v256h-317.44v-256h129.024v-113.664h-390.144v-59.392h190.464v-113.664h-129.024v-256zM212.992 108.032v138.24h199.68v-138.24h-199.68zM412.672 650.752v138.24h199.68v-138.24h-199.68zM612.352 108.032v138.24h199.68v-138.24h-199.68z" />
<glyph unicode="&#xe98b;" glyph-name="ninecircledfina" d="M456.704 247.296c99.328 0 153.6 79.872 152.576 204.8-1.024 121.856-57.344 194.56-152.576 194.56-73.728 0-136.192-56.32-136.192-134.144 0-73.728 55.296-129.024 125.952-129.024 37.888 0 71.68 16.384 89.088 46.080h8.192c1.024-78.848-23.552-123.904-88.064-123.904-46.080 0-69.632 21.504-73.728 63.488h-65.536c5.12-73.728 63.488-121.856 140.288-121.856zM177.152 53.76h275.456c221.184 0 394.24 180.224 394.24 394.24 0 220.16-174.080 394.24-394.24 394.24h-275.456v-66.56h275.456c184.32 0 327.68-143.36 327.68-327.68 0-178.176-143.36-327.68-327.68-327.68h-275.456v-66.56zM386.048 503.296v23.552c0 39.936 22.528 60.416 68.608 60.416h8.192c47.104 0 69.632-21.504 69.632-60.416v-23.552c0-39.936-22.528-60.416-69.632-60.416h-8.192c-46.080 0-68.608 20.48-68.608 60.416z" />
<glyph unicode="&#xe98c;" glyph-name="ninecircledinit" d="M575.488 247.296c99.328 0 153.6 79.872 152.576 204.8-1.024 121.856-57.344 194.56-152.576 194.56-73.728 0-136.192-56.32-136.192-134.144 0-73.728 55.296-129.024 125.952-129.024 37.888 0 71.68 16.384 88.064 46.080h9.216c1.024-78.848-23.552-123.904-88.064-123.904-46.080 0-69.632 21.504-73.728 63.488h-65.536c5.12-73.728 63.488-121.856 140.288-121.856zM177.152 448c0-220.16 174.080-394.24 394.24-394.24h275.456v66.56h-275.456c-183.296 0-327.68 144.384-327.68 327.68 0 179.2 144.384 327.68 327.68 327.68h275.456v66.56h-275.456c-221.184 0-394.24-179.2-394.24-394.24zM504.832 503.296v23.552c0 39.936 22.528 60.416 68.608 60.416h8.192c47.104 0 69.632-21.504 69.632-60.416v-23.552c0-39.936-22.528-60.416-69.632-60.416h-8.192c-46.080 0-68.608 20.48-68.608 60.416z" />
<glyph unicode="&#xe98d;" glyph-name="ninecircledmedi" d="M516.096 247.296c99.328 0 153.6 79.872 152.576 204.8-1.024 121.856-57.344 194.56-152.576 194.56-73.728 0-136.192-56.32-136.192-134.144 0-73.728 55.296-129.024 125.952-129.024 37.888 0 71.68 16.384 89.088 46.080h8.192c1.024-78.848-23.552-123.904-88.064-123.904-46.080 0-69.632 21.504-73.728 63.488h-65.536c5.12-73.728 63.488-121.856 140.288-121.856zM245.76 53.76h532.48v66.56h-532.48v-66.56zM245.76 775.68h532.48v66.56h-532.48v-66.56zM445.44 503.296v23.552c0 39.936 22.528 60.416 68.608 60.416h8.192c47.104 0 69.632-21.504 69.632-60.416v-23.552c0-39.936-22.528-60.416-69.632-60.416h-8.192c-46.080 0-68.608 20.48-68.608 60.416z" />
<glyph unicode="&#xe98e;" glyph-name="ninecircled" d="M512 53.76c221.184 0 394.24 179.2 394.24 394.24 0 220.16-174.080 394.24-394.24 394.24s-394.24-174.080-394.24-394.24 174.080-394.24 394.24-394.24zM184.32 448c0 184.32 144.384 327.68 327.68 327.68 184.32 0 327.68-143.36 327.68-327.68 0-178.176-143.36-327.68-327.68-327.68-183.296 0-327.68 144.384-327.68 327.68zM375.808 369.152c5.12-73.728 63.488-121.856 140.288-121.856 99.328 0 153.6 79.872 152.576 204.8-1.024 121.856-57.344 194.56-152.576 194.56-73.728 0-136.192-56.32-136.192-134.144 0-73.728 55.296-129.024 125.952-129.024 37.888 0 71.68 16.384 88.064 46.080h9.216c1.024-78.848-23.552-123.904-88.064-123.904-46.080 0-69.632 21.504-73.728 63.488h-65.536zM445.44 503.296v23.552c0 39.936 22.528 60.416 68.608 60.416h8.192c47.104 0 69.632-21.504 69.632-60.416v-23.552c0-39.936-22.528-60.416-69.632-60.416h-8.192c-46.080 0-68.608 20.48-68.608 60.416z" />
<glyph unicode="&#xe98f;" glyph-name="none" d="M512 53.76c221.184 0 394.24 179.2 394.24 394.24 0 220.16-174.080 394.24-394.24 394.24s-394.24-174.080-394.24-394.24 174.080-394.24 394.24-394.24zM184.32 448c0 184.32 144.384 327.68 327.68 327.68 79.872 0 152.576-26.624 208.896-72.704l-462.848-462.848c-46.080 56.32-73.728 128-73.728 207.872zM304.128 194.048l462.848 462.848c46.080-56.32 72.704-129.024 72.704-208.896 0-178.176-143.36-327.68-327.68-327.68-79.872 0-151.552 27.648-207.872 73.728z" />
<glyph unicode="&#xe990;" glyph-name="onecircledfina" d="M455.68 399.872v-142.336h66.56v378.88h-84.992l-123.904-114.688v-78.848l126.976 116.736h17.408c0-13.312-2.048-77.824-2.048-159.744zM177.152 53.76h275.456c221.184 0 394.24 180.224 394.24 394.24 0 220.16-174.080 394.24-394.24 394.24h-275.456v-66.56h275.456c184.32 0 327.68-143.36 327.68-327.68 0-178.176-143.36-327.68-327.68-327.68h-275.456v-66.56z" />
<glyph unicode="&#xe991;" glyph-name="onecircledinit" d="M574.464 399.872v-142.336h66.56v378.88h-84.992l-123.904-114.688v-78.848l126.976 116.736h17.408c0-13.312-2.048-77.824-2.048-159.744zM177.152 448c0-220.16 174.080-394.24 394.24-394.24h275.456v66.56h-275.456c-183.296 0-327.68 144.384-327.68 327.68 0 179.2 144.384 327.68 327.68 327.68h275.456v66.56h-275.456c-221.184 0-394.24-179.2-394.24-394.24z" />
<glyph unicode="&#xe992;" glyph-name="onecircledmedi" d="M515.072 399.872v-142.336h66.56v378.88h-84.992l-123.904-114.688v-78.848l126.976 116.736h17.408c0-13.312-2.048-77.824-2.048-159.744zM245.76 53.76h532.48v66.56h-532.48v-66.56zM245.76 775.68h532.48v66.56h-532.48v-66.56z" />
<glyph unicode="&#xe993;" glyph-name="onecircled" d="M512 53.76c221.184 0 394.24 179.2 394.24 394.24 0 220.16-174.080 394.24-394.24 394.24s-394.24-174.080-394.24-394.24 174.080-394.24 394.24-394.24zM184.32 448c0 184.32 144.384 327.68 327.68 327.68 184.32 0 327.68-143.36 327.68-327.68 0-178.176-143.36-327.68-327.68-327.68-183.296 0-327.68 144.384-327.68 327.68zM372.736 442.88l126.976 116.736h17.408c0-13.312-2.048-77.824-2.048-159.744v-142.336h66.56v378.88h-84.992l-123.904-114.688v-78.848z" />
<glyph unicode="&#xe994;" glyph-name="others" d="M759.808 392.704h110.592v110.592h-110.592v-110.592zM153.6 392.704h110.592v110.592h-110.592v-110.592zM456.704 392.704h110.592v110.592h-110.592v-110.592z" />
<glyph unicode="&#xe995;" glyph-name="pen" d="M87.040 23.040l285.696 78.848 564.224 563.2-207.872 207.872-563.2-564.224-78.848-285.696zM177.152 113.152l45.056 162.816 117.76-117.76-162.816-45.056zM266.24 321.024l345.088 345.088 118.784-118.784-345.088-345.088-118.784 118.784zM655.36 710.144l73.728 73.728 118.784-118.784-73.728-73.728-118.784 118.784z" />
<glyph unicode="&#xe996;" glyph-name="phone" d="M771.072 38.4l150.528 156.672-239.616 216.064-182.272-178.176c-37.888 27.648-74.752 59.392-109.568 93.184-33.792 34.816-65.536 71.68-93.184 109.568l178.176 182.272-216.064 239.616-156.672-151.552c30.72-155.648 123.904-307.2 241.664-425.984 119.808-118.784 269.312-211.968 427.008-241.664zM175.104 684.544l80.896 77.824 128-143.36-124.928-126.976c-37.888 61.44-66.56 125.952-83.968 192.512zM556.032 195.072l126.976 124.928 143.36-128-77.824-80.896c-67.584 17.408-132.096 46.080-192.512 83.968z" />
<glyph unicode="&#xe997;" glyph-name="plane" d="M424.448 17.408l135.168 131.072-45.056 133.12 87.040 88.064 164.864-312.32 110.592 120.832-86.016 379.904 118.784 118.784c20.48 21.504 32.768 51.2 32.768 81.92 0 69.632-54.272 119.808-119.808 119.808-32.768 0-61.44-14.336-91.136-44.032l-108.544-107.52-382.976 87.040-115.712-114.688 309.248-161.792-87.040-87.040-134.144 41.984-131.072-132.096 223.232-122.88 119.808-220.16zM184.832 374.784l46.080 47.104 133.12-43.008 175.104 175.104-309.248 161.792 30.72 29.696 381.952-87.040 133.12 132.096c18.432 18.432 31.744 25.6 47.104 25.6 31.744 0 57.344-22.528 57.344-57.344 0-14.336-5.12-27.648-14.336-36.864l-143.36-143.36 86.016-381.952-27.648-30.72-162.816 308.224-176.128-175.104 46.080-133.12-48.128-46.080-89.088 163.84-165.888 91.136z" />
<glyph unicode="&#xe998;" glyph-name="plus" d="M870.4 482.816h-323.584v323.584h-69.632v-323.584h-323.584v-69.632h323.584v-323.584h69.632v323.584h323.584v69.632z" />
<glyph unicode="&#xe999;" glyph-name="portfolio" d="M112.64 110.080h798.72v65.536h-732.16v610.304h-66.56v-675.84zM248.832 311.808l216.064 214.016 122.88-122.88 318.464 318.464-45.056 45.056-273.408-273.408-122.88 122.88-216.064-215.040v-89.088z" />
<glyph unicode="&#xe99a;" glyph-name="power" d="M436.224 6.656l414.72 548.864h-276.48l12.288 333.824-413.696-548.864h275.456l-12.288-333.824zM294.912 399.872l226.304 303.104-9.216-205.824h217.088l-227.328-304.128 10.24 206.848h-217.088z" />
<glyph unicode="&#xe99b;" glyph-name="project-diagram" d="M466.944 69.12h282.624v282.624h-229.376l-124.928 224.256v80.896h233.472v-112.64h282.624v282.624h-282.624v-110.592h-233.472v110.592h-282.624v-282.624h232.448l121.856-218.112v-257.024zM172.032 603.648v164.864h164.864v-164.864h-164.864zM526.336 128.512v164.864h164.864v-164.864h-164.864zM688.128 603.648v164.864h164.864v-164.864h-164.864z" />
<glyph unicode="&#xe99c;" glyph-name="qr-code" d="M574.464 538.112h283.648v283.648h-283.648v-283.648zM112.64 401.92h798.72v63.488h-798.72v-63.488zM165.888 74.24h283.648v256h-56.32v-199.68h-171.008v199.68h-56.32v-256zM165.888 538.112h283.648v283.648h-283.648v-283.648zM222.208 594.432v171.008h171.008v-171.008h-171.008zM276.48 183.808h64.512v65.536h-64.512v-65.536zM276.48 647.68h64.512v64.512h-64.512v-64.512zM574.464 74.24h64.512v64.512h-64.512v-64.512zM574.464 265.728h129.024v64.512h-129.024v-64.512zM630.784 594.432v171.008h171.008v-171.008h-171.008zM638.976 138.752h128v126.976h-63.488v-62.464h-64.512v-64.512zM684.032 647.68h64.512v64.512h-64.512v-64.512zM773.12 74.24h84.992v129.024h-84.992v-129.024z" />
<glyph unicode="&#xe99d;" glyph-name="quit" d="M407.040 33.28h522.24v829.44h-522.24v-230.4h66.56v163.84h389.12v-696.32h-389.12v163.84h-66.56v-230.4zM94.72 448l185.344-185.344 40.96 41.984-53.248 54.272c-19.456 18.432-39.936 38.912-60.416 57.344h460.8v63.488h-461.824c20.48 19.456 41.984 38.912 61.44 58.368l53.248 55.296-40.96 40.96-185.344-186.368z" />
<glyph unicode="&#xe99e;" glyph-name="reddit" d="M512 48.64c220.16 0 399.36 179.2 399.36 399.36s-179.2 399.36-399.36 399.36-399.36-179.2-399.36-399.36 179.2-399.36 399.36-399.36zM273.408 460.288c0 29.696 23.552 53.248 53.248 53.248 14.336 0 27.648-6.144 36.864-15.36 36.864 25.6 84.992 40.96 139.264 43.008l30.72 139.264c1.024 6.144 5.12 8.192 11.264 7.168l98.304-21.504c6.144 13.312 19.456 21.504 35.84 21.504 22.528 0 39.936-17.408 39.936-39.936s-17.408-39.936-39.936-39.936-39.936 17.408-39.936 39.936l-89.088 19.456-27.648-125.952c53.248-2.048 102.4-17.408 138.24-43.008 9.216 9.216 22.528 15.36 36.864 15.36 29.696 0 53.248-23.552 53.248-53.248 0-20.48-11.264-37.888-28.672-47.104 2.048-8.192 3.072-16.384 3.072-24.576 0-83.968-94.208-152.576-212.992-152.576s-212.992 68.608-212.992 152.576c0 8.192 1.024 16.384 3.072 24.576-17.408 9.216-28.672 26.624-28.672 47.104zM384 408.064c0-22.528 17.408-39.936 39.936-39.936s39.936 17.408 39.936 39.936-17.408 39.936-39.936 39.936-39.936-17.408-39.936-39.936zM418.816 320c0-3.072 1.024-6.144 4.096-8.192 20.48-16.384 56.32-25.6 89.088-25.6 33.792 0 70.656 9.216 90.112 26.624 2.048 1.024 3.072 4.096 3.072 7.168 0 6.144-4.096 10.24-10.24 10.24-3.072 0-5.12-1.024-7.168-3.072-15.36-13.312-44.032-20.48-75.776-20.48-30.72 0-59.392 7.168-76.8 21.504-1.024 1.024-4.096 2.048-6.144 2.048-6.144 0-10.24-4.096-10.24-10.24zM560.128 408.064c0-22.528 17.408-39.936 39.936-39.936s39.936 17.408 39.936 39.936-17.408 39.936-39.936 39.936-39.936-17.408-39.936-39.936z" />
<glyph unicode="&#xe99f;" glyph-name="redelegate" d="M112.64 610.816v-162.816h63.488v162.816c0 28.672 27.648 57.344 57.344 57.344h608.256c-21.504-19.456-41.984-38.912-62.464-58.368l-53.248-54.272 40.96-41.984 185.344 186.368-185.344 185.344-40.96-41.984 53.248-53.248c19.456-19.456 39.936-38.912 60.416-58.368h-606.208c-60.416 0-120.832-62.464-120.832-120.832zM71.68 196.096l185.344-185.344 40.96 41.984-53.248 54.272c-19.456 18.432-39.936 38.912-60.416 57.344h606.208c60.416 0 120.832 63.488 120.832 120.832v162.816h-63.488v-162.816c0-28.672-27.648-57.344-57.344-57.344h-607.232c20.48 19.456 41.984 38.912 61.44 58.368l53.248 55.296-40.96 40.96-185.344-186.368z" />
<glyph unicode="&#xe9a0;" glyph-name="refresh" d="M117.76 453.12v-32.768h66.56v32.768c0 180.224 145.408 322.56 326.656 322.56 109.568 0 204.8-52.224 264.192-134.144-28.672 2.048-60.416 3.072-89.088 3.072h-76.8v-59.392h262.144v262.144h-59.392v-76.8c0-25.6 1.024-52.224 2.048-78.848-78.848 100.352-191.488 150.528-303.104 150.528-218.112 0-393.216-172.032-393.216-389.12zM153.6 48.64h59.392v76.8c0 25.6-1.024 52.224-2.048 78.848 78.848-100.352 191.488-150.528 302.080-150.528 218.112 0 393.216 173.056 393.216 389.12v32.768h-66.56v-32.768c0-180.224-144.384-322.56-326.656-322.56-108.544 0-203.776 53.248-263.168 134.144 28.672-2.048 60.416-2.048 89.088-2.048h76.8v58.368h-262.144v-262.144z" />
</font>
</defs>
</svg>
