<svg xmlns="http://www.w3.org/2000/svg" viewBox="0 0 33 32.04"><defs><style>.cls-1{fill:#fde611;}</style></defs><title>Fichier 441</title><g id="Calque_2" data-name="Calque 2"><g id="Back"><path class="cls-1" d="M22.92,0,17.45,3.5H3.08L0,13.59H10.65L9.08,18.82,2.41,28.51l4.82-3.65-.17.64L4.86,32H16.63l4.24-17.53,1.21-.91h7.81L33,3.5H20.69ZM15.17,30.07H7.47L9,25.35l9.32-7.26ZM2,12.05,4.07,5.28l9,0L4.68,10.68,8,12.09Zm12.2,1.34-5.56-2.9,10.62-6.8,0,.05L15.52,9.53l-.39.62,6.19,2.6-14,10.62ZM31,5.28,28.8,12.09l-4.15,0L18.46,9.72l2.72-4.44Z"/></g></g></svg>