<svg width="137" height="129" viewBox="0 0 137 129" fill="none" xmlns="http://www.w3.org/2000/svg">
<g clip-path="url(#clip0)">
<path fill-rule="evenodd" clip-rule="evenodd" d="M59.2668 104.236C63.0072 118.057 76.4109 128.605 83.1818 128.171C83.4211 128.155 108.861 123.412 122.788 100.138C133.628 82.0329 129.937 64.5481 115.194 64.1667C109.892 64.5562 52.1512 77.895 59.2668 104.236ZM113.823 15.4403L113.811 15.4282L113.831 15.416C102.139 5.43944 87.2655 -0.0282502 71.8957 0.000109771C62.5448 0.000109771 53.6644 2.00418 45.64 5.57417C44.1958 6.18269 42.8286 6.84801 41.5426 7.58229C40.6299 8.06911 39.7211 8.54781 38.8408 9.0752L39.0558 9.14011C36.4487 10.9149 34.1435 13.0969 32.2282 15.6026C13.6561 40.1382 75.8998 57.9679 109.178 58.0288C124.488 69.0146 128.788 27.0834 113.827 15.4403" fill="#2845AE" fill-opacity="0.2"/>
<path fill-rule="evenodd" clip-rule="evenodd" d="M49.3885 15.9393C40.8449 28.7913 12.3579 37.8461 7.67635 36.4344L7.64795 36.3776C7.83862 35.9881 8.0374 35.6068 8.23213 35.2214C11.4586 28.9905 15.6296 23.2964 20.5973 18.341C24.6106 14.3255 29.1076 10.8247 33.9848 7.91902C37.9726 5.61069 42.0578 5.46059 43.4006 5.41191C56.0863 5.65532 49.4615 15.8379 49.3926 15.9393" fill="#2845AE"/>
<mask id="mask0" mask-type="alpha" maskUnits="userSpaceOnUse" x="0" y="42" width="43" height="87">
<path d="M0.61792 42.9618H42.6222V128.11H0.61792V42.9618Z" fill="white"/>
</mask>
<g mask="url(#mask0)">
<path fill-rule="evenodd" clip-rule="evenodd" d="M42.3789 106.763C42.9874 110.804 42.3627 126.751 41.5351 128.094C40.8252 128.139 39.3444 128.232 35.0523 125.822C29.7601 122.805 24.8971 119.091 20.5938 114.78C15.6318 109.819 11.4615 104.126 8.22865 97.8991C3.20573 88.2164 0.594891 77.4641 0.618073 66.5562C0.618073 62.7915 0.922334 59.0957 1.51057 55.4973C2.20752 51.2227 3.31334 47.0249 4.81282 42.9618C9.73373 49.4973 15.4254 55.4162 20.2612 62.0166C24.8656 68.3047 31.2024 78.5562 32.4884 80.7469C40.4965 94.3413 41.7704 102.735 42.383 106.763" fill="#2845AE"/>
</g>
<path fill-rule="evenodd" clip-rule="evenodd" d="M136.999 66.5562C136.999 75.4 135.316 83.8504 132.253 91.6029C124.221 100.24 70.0702 78.9863 69.5347 78.755C62.131 75.5096 39.5832 65.6353 37.5508 50.118C34.6258 27.8014 79.9039 12.2476 99.8026 11.6594C102.188 11.6878 109.45 11.7689 113.685 15.2091C121.016 21.6034 126.891 29.4955 130.913 38.3532C134.935 47.2109 137.01 56.8282 136.999 66.5562ZM100.342 127.043C94.4354 129.798 87.9404 127.79 89.6281 122.041C92.8695 111.003 121.178 99.6801 127.429 99.0675C128.2 98.9945 128.525 99.5178 128.184 100.118C121.669 111.571 112.007 120.916 100.342 127.043Z" fill="#2845AE"/>
</g>
<defs>
<clipPath id="clip0">
<rect width="136.382" height="128.264" fill="white" transform="translate(0.61792)"/>
</clipPath>
</defs>
</svg>
