<svg xmlns="http://www.w3.org/2000/svg" viewBox="0 0 30.25 34.07"><defs><style>.cls-1{fill:#34c88a;}</style></defs><title>Callisto</title><g id="Calque_2" data-name="Calque 2"><g id="Line"><g id="Callisto"><path class="cls-1" d="M17.89,25.52a1.61,1.61,0,0,1-.44-.06,1.67,1.67,0,0,1-1-.81l-2.3-3.88a1,1,0,0,1,.19-1.25,3.47,3.47,0,0,0,.89-2.47,3.25,3.25,0,0,0-.89-2.38,1,1,0,0,1-.22-1.28l2.34-3.92a1.66,1.66,0,0,1,1-.79,1.69,1.69,0,0,1,1.3.17l10.12,5.8a2.81,2.81,0,0,1,0,4.83L18.73,25.29A1.63,1.63,0,0,1,17.89,25.52Zm.24-1.88h0Zm-.39-.08h0Zm-1.55-3.2L18,23.41l9.88-5.66a.81.81,0,0,0,0-1.37L18,10.73,16.17,13.8a5.46,5.46,0,0,1,1,3.25A5.76,5.76,0,0,1,16.19,20.36Zm1.55-9.78h0Zm.41-.11h0Z"/><rect class="cls-1" x="16.51" y="16.06" width="4.08" height="2"/><path class="cls-1" d="M19.48,20.41a1,1,0,0,1-.64-.23,1,1,0,0,1-.13-1.41l1.42-1.72-1.42-1.72a1,1,0,0,1,.13-1.4,1,1,0,0,1,1.41.13l1.95,2.36a1,1,0,0,1,0,1.27l-1.95,2.36A1,1,0,0,1,19.48,20.41Z"/><path class="cls-1" d="M1.68,16.25A1.67,1.67,0,0,1,0,14.56V2.79A2.77,2.77,0,0,1,1.4.39a2.77,2.77,0,0,1,2.77,0l10.18,5.9a1.67,1.67,0,0,1,.79,1A1.71,1.71,0,0,1,15,8.58l-2.35,4.13a1,1,0,0,1-1.35.39A2.52,2.52,0,0,0,9,13.35a3.52,3.52,0,0,0-1.68,2.11,1,1,0,0,1-1,.79H1.68Zm0-2h0ZM2.83,2a.78.78,0,0,0-.42.12A.77.77,0,0,0,2,2.8V14.25H5.58a5.73,5.73,0,0,1,2.36-2.62A4.64,4.64,0,0,1,11.28,11l1.81-3.19L3.18,2.09A.68.68,0,0,0,2.83,2ZM13.35,8h0Zm-.11-.4h0Z"/><rect class="cls-1" x="6.17" y="8.61" width="2" height="4.09" transform="translate(-4.41 5.1) rotate(-30.43)"/><path class="cls-1" d="M4.67,12.06A1,1,0,0,1,4.33,12a1,1,0,0,1-.6-1.28l1-2.88a1,1,0,0,1,1.1-.65l3,.49a1,1,0,0,1-.32,2L6.37,9.3l-.76,2.1A1,1,0,0,1,4.67,12.06Z"/><path class="cls-1" d="M2.81,34.07a2.81,2.81,0,0,1-1.42-.39A2.78,2.78,0,0,1,0,31.27V19.42A1.58,1.58,0,0,1,.46,18.3a1.8,1.8,0,0,1,1.28-.48H6.29a1,1,0,0,1,1,.79A3.56,3.56,0,0,0,9,20.67a3,3,0,0,0,2.44.35,1,1,0,0,1,1.25.41l2.27,3.88a1.85,1.85,0,0,1,.16,1.43,1.68,1.68,0,0,1-.8,1.06L4.18,33.71A2.81,2.81,0,0,1,2.81,34.07ZM2,19.82V31.27a.81.81,0,0,0,1.18.7l9.9-5.8-1.8-3.09a5,5,0,0,1-3.35-.69,5.78,5.78,0,0,1-2.35-2.57Zm11.28,6.25h0Z"/><rect class="cls-1" x="5.13" y="22.41" width="4.08" height="2" transform="translate(-16.65 17.73) rotate(-59.55)"/><path class="cls-1" d="M5.71,26.89a1,1,0,0,1-.94-.66l-1-2.88a1,1,0,1,1,1.88-.68l.76,2.1,2.2-.36a1,1,0,0,1,1.15.83,1,1,0,0,1-.83,1.15l-3,.49Z"/></g></g></g></svg>