<svg xmlns="http://www.w3.org/2000/svg" viewBox="0 0 29.97 35.56"><defs><style>.cls-1{fill:#fff;stroke:#000;stroke-miterlimit:10;stroke-width:1.3px;}</style></defs><title>EOS</title><g id="Calque_2" data-name="Calque 2"><g id="Line"><path id="EOS" class="cls-1" d="M15,34.88c-.3.1-.55-.1-.83-.23l-3.74-1.81-5-2.4-3.93-1.9L.8,28.21a.2.2,0,0,1-.13-.28c.16-.52.32-1.05.47-1.57s.34-1.16.5-1.74L2.12,23l.57-2,.41-1.43.57-2c.13-.47.26-.94.4-1.41l.48-1.67c.14-.46.27-.92.4-1.38s.34-1.2.52-1.8a.8.8,0,0,1,.21-.25L9.59,6.57l3.55-4.09c.51-.58,1-1.16,1.51-1.73a.76.76,0,0,1,.18-.09s0,0,.05,0a.77.77,0,0,1,.77.31C16.74,2.23,17.86,3.49,19,4.74l3.81,4.32c.55.61,1.1,1.22,1.63,1.84a.78.78,0,0,1,.14.27c.14.47.27.94.4,1.41s.31,1.12.47,1.67.33,1.17.49,1.76.33,1.15.49,1.72l.48,1.7c.2.69.39,1.38.58,2.07s.45,1.56.67,2.34c.13.47.26.95.4,1.42.24.84.49,1.67.74,2.5l0,.1c0,.12,0,.2-.17.28-.78.36-1.54.75-2.31,1.13L23.7,30.81l-4.88,2.42-3,1.46c-.08,0-.15.11-.22.15a.32.32,0,0,1-.16,0Zm0-7.2h2.38c.11,0,.19,0,.22-.12.1-.27.21-.53.31-.79.3-.81.61-1.62.92-2.43l.84-2.2.93-2.45.75-2a.28.28,0,0,0,0-.22c-.25-.36-.52-.72-.78-1.08l-3-4.08L15.19,9c-.16-.22-.16-.22-.32,0-.78,1.06-1.55,2.13-2.32,3.2l-2.18,3c-.58.81-1.17,1.61-1.74,2.42a.15.15,0,0,0,0,.15,4.14,4.14,0,0,0,.19.49c.22.57.45,1.13.67,1.7L10,21.45c.18.47.38.95.57,1.43l.57,1.47c.22.57.45,1.14.68,1.71s.39,1,.57,1.48c0,.11.11.14.25.14ZM14.79,1.43l-.06,0-.29.33L9.93,6.93Q8.06,9.11,6.17,11.26a.26.26,0,0,0,0,.3c.2.48.39,1,.58,1.44s.45,1.15.67,1.73.51,1.29.76,1.93c.07.16.14.32.21.51l.12-.12L10,14.89l1.84-2.54,2.7-3.72a.93.93,0,0,0,.25-.54c0-2.15,0-4.31,0-6.46Zm.52,0v.26c0,2.15,0,4.3,0,6.45a.77.77,0,0,0,.12.38c1,1.34,1.94,2.67,2.9,4l2.79,3.83c.15.22.31.43.49.67.05-.09.08-.16.11-.22.1-.28.2-.55.31-.83.19-.51.39-1,.59-1.54s.36-1,.55-1.47.46-1.17.67-1.76a.24.24,0,0,0-.05-.23c-.88-1-1.76-2-2.65-3L18.32,4.77c-1-1.09-1.92-2.18-2.89-3.28Zm2.83,26.24H28.63l.05,0-6.87-9.48,0,0ZM8.22,18.3H8.16L1.38,27.66H11.9Zm6.27,16c0-.08,0-.12,0-.15-.14-.34-.28-.67-.41-1l-.59-1.5c-.18-.48-.37-.95-.56-1.43-.25-.65-.51-1.29-.76-1.94-.05-.15-.15-.17-.32-.17H1.75v0Zm1.14-.07,0,0,12.38-6.12,0,0H18.28a1.47,1.47,0,0,0-.21,0c-.05,0-.12,0-.13.09-.13.32-.25.64-.37,1-.18.49-.37,1-.56,1.48s-.39,1-.59,1.52l-.72,1.91C15.68,34.12,15.65,34.17,15.63,34.23Zm8.58-22.35h-.07l-.12.33-.55,1.48c-.2.51-.4,1-.59,1.51-.25.67-.5,1.33-.76,2-.13.34-.15.34.08.65h0l2.17,3,1.71,2.36L28,25.86c0,.06.09.11.13.16l.06,0ZM1.72,26.25l0,0,.11-.09,1.37-1.92,2.33-3.21C6.33,20,7.11,18.9,7.89,17.84a.28.28,0,0,0,0-.3c-.14-.35-.28-.69-.41-1S7.2,15.7,7,15.29s-.39-1-.59-1.47-.39-1-.59-1.51a.39.39,0,0,0-.06-.11h0ZM15,34.18h.05c.1-.24.2-.48.29-.72.24-.65.48-1.3.73-1.95l.58-1.5c.23-.59.45-1.19.68-1.78,0-.11,0-.13-.12-.13H12.81c-.13,0-.17,0-.12.14.19.46.37.93.55,1.4.31.78.61,1.57.92,2.35l.68,1.73Z"/></g></g></svg>