<svg xmlns="http://www.w3.org/2000/svg" viewBox="0 0 29.47 35.69"><defs><style>.cls-1{fill:#2a9eee;}</style></defs><title>Nix (2)</title><g id="Calque_2" data-name="Calque 2"><g id="Line"><g id="Nix"><path class="cls-1" d="M25.05,35.69A4.4,4.4,0,0,1,21.55,34L14.74,25.1,7.92,34a4.43,4.43,0,0,1-6.19.81A4.37,4.37,0,0,1,0,31.85a4.42,4.42,0,0,1,.87-3.26L9.17,17.84.92,7.1A4.29,4.29,0,0,1,0,4.42,4.41,4.41,0,0,1,4.41,0,4.35,4.35,0,0,1,7.92,1.73l6.82,8.87,6.82-8.87a4.41,4.41,0,0,1,7.91,2.69,4.36,4.36,0,0,1-.92,2.69L20.3,17.84l8.25,10.75a4.41,4.41,0,0,1-.82,6.19A4.32,4.32,0,0,1,25.05,35.69ZM14.74,21.81l8.4,10.94a2.41,2.41,0,0,0,3.37.45A2.43,2.43,0,0,0,27,29.81h0l-9.18-12L27,5.89a2.42,2.42,0,0,0-.44-3.39,2.41,2.41,0,0,0-3.38.44L14.74,13.88,6.34,3A2.38,2.38,0,0,0,4.41,2,2.35,2.35,0,0,0,3,2.5,2.41,2.41,0,0,0,2,4.42a2.31,2.31,0,0,0,.5,1.46l9.19,12L2.5,29.8A2.45,2.45,0,0,0,2,31.59a2.42,2.42,0,0,0,4.31,1.16Z"/><rect class="cls-1" x="13.35" y="19.65" width="7.07" height="2" transform="translate(-9.77 21.49) rotate(-52.52)"/><rect class="cls-1" x="15.89" y="11.51" width="2" height="7.07" transform="translate(-5.67 13.41) rotate(-37.54)"/></g></g></g></svg>