<svg xmlns="http://www.w3.org/2000/svg" viewBox="0 0 21.91 36.13"><defs><style>.cls-1{fill:#800032;}</style></defs><title>Ether1</title><g id="Calque_2" data-name="Calque 2"><g id="Line"><g id="Ether1"><path class="cls-1" d="M11,23.61a2,2,0,0,1-.91-.21L1.23,18.66A1.48,1.48,0,0,1,.65,16.6L9.84.68A1.3,1.3,0,0,1,11,0h0a1.27,1.27,0,0,1,1.11.68l9.2,15.92a1.5,1.5,0,0,1,.14,1.15,1.48,1.48,0,0,1-.72.9L11.87,23.4A2,2,0,0,1,11,23.61Zm0-2h0l8.31-4.46L11,2.75,2.64,17.15ZM10.34,1.68Z"/><path class="cls-1" d="M13.17,36.13a.86.86,0,0,1-.28,0,1.14,1.14,0,0,1-.81-1.19l0-7.93a1.92,1.92,0,0,1,1-1.62l7.16-3.89h0a1.16,1.16,0,0,1,1.44.15,1.15,1.15,0,0,1,.08,1.44L14.2,35.49A1.2,1.2,0,0,1,13.17,36.13Zm.89-9.07v4.76l4.27-7.08Z"/><path class="cls-1" d="M8.74,36.13a1.2,1.2,0,0,1-1-.64L.21,23.05a1.15,1.15,0,0,1,.08-1.44,1.15,1.15,0,0,1,1.44-.15h0l7.16,3.89a1.94,1.94,0,0,1,1,1.62l0,7.94A1.13,1.13,0,0,1,9,36.09.86.86,0,0,1,8.74,36.13ZM3.57,24.74l4.27,7.08V27.06Z"/></g></g></g></svg>