<svg xmlns="http://www.w3.org/2000/svg" viewBox="0 0 35.59 22.7"><defs><style>.cls-1{fill:#4cbf4b;}</style></defs><title>Banano</title><g id="Calque_2" data-name="Calque 2"><g id="Line"><g id="Banano"><path class="cls-1" d="M23.1,22.7a14.65,14.65,0,0,1-13-7.65c-.73-1.45-.82-2.49-.25-3.09a3.91,3.91,0,0,1,2.92-1c2.61-.07,5.62,1.72,7.83,3a15.36,15.36,0,0,0,1.81,1c1.25-.09,3.71-2.28,6-5.35.86-1.15,4.18-2.4,5.95-1.61a2.13,2.13,0,0,1,1.16,2.53,16.1,16.1,0,0,1-5.22,9.56,10.44,10.44,0,0,1-5,2.42A16.48,16.48,0,0,1,23.1,22.7ZM11.49,13.19a9.82,9.82,0,0,0,2.9,4.16A12.89,12.89,0,0,0,25,20.58h0c.07,0,6.67-.95,8.53-10.39a.64.64,0,0,0,0-.31,1.73,1.73,0,0,0-.81-.07,5.46,5.46,0,0,0-2.75,1C28.65,12.69,25.15,17,22.38,17h0c-.61,0-1.3-.4-2.78-1.28-1.89-1.12-4.72-2.81-6.75-2.75A3.3,3.3,0,0,0,11.49,13.19Z"/><path class="cls-1" d="M2.55,14.9a3.13,3.13,0,0,1-1.33-.25A2.11,2.11,0,0,1,.06,12.12,16.06,16.06,0,0,1,5.27,2.56a10.52,10.52,0,0,1,5-2.42h0A14.77,14.77,0,0,1,25.5,7.65c.73,1.45.82,2.49.25,3.09a3.92,3.92,0,0,1-2.93,1c-2.62.07-5.62-1.72-7.82-3a15.36,15.36,0,0,0-1.81-1c-1.26.09-3.72,2.28-6,5.36A6.84,6.84,0,0,1,2.55,14.9Zm8-12.78c-.06,0-6.66.95-8.53,10.39a.69.69,0,0,0,0,.31,1.56,1.56,0,0,0,.81.07,5.41,5.41,0,0,0,2.74-1.05c1.38-1.83,4.88-6.1,7.65-6.15.61,0,1.3.38,2.81,1.27,1.85,1.1,4.64,2.75,6.65,2.75h.1a3.24,3.24,0,0,0,1.32-.2,9.73,9.73,0,0,0-2.9-4.16A12.87,12.87,0,0,0,10.55,2.12Z"/></g></g></g></svg>