<?xml version="1.0" encoding="utf-8"?><svg width="33" height="31" viewBox="0 0 33 31" fill="none" xmlns="http://www.w3.org/2000/svg">
<g clip-path="url(#clip0_3338_11253)">
<path d="M8.48317 16.8592L9.31651 10.5832L2.0769 5.55717L8.69151 7.79675L10.254 5.40092L15.9571 1.85925L28.5352 8.78636L29.1863 19.3592L23.5873 27.1457L19.1602 27.8228L21.4519 23.6301V19.5937L19.7852 16.4425L18.0925 15.3228L15.4883 18.0051V20.8437L13.4571 22.7447L10.879 23.0571L9.73317 23.7082L7.85815 23.1092L7.0769 20.2968L8.48317 18.3175V16.8592Z" fill="white"/>
<path d="M20.0457 5.50505C18.6656 5.21859 17.1552 5.29672 17.1552 5.29672C17.1552 5.29672 16.6603 7.5884 13.5874 8.18737C13.6135 8.18737 17.6499 9.56753 20.0457 5.50505Z" fill="#94A6C3"/>
<path d="M21.2956 26.2864C22.9623 24.9843 24.2123 23.1874 24.7852 21.1562C24.8113 21.0781 25.0456 20.9478 25.2019 20.8437C25.4623 20.6874 25.7227 20.5572 25.7748 20.3489C25.879 19.7499 25.931 19.1249 25.931 18.4999C25.931 18.2655 25.6966 18.0312 25.4623 17.7968C25.28 17.6405 25.0977 17.4582 25.0977 17.3281C24.8373 14.9582 23.7436 12.7447 21.9988 11.1301L21.8165 11.3124C23.5092 12.901 24.6029 15.0624 24.8373 17.3541C24.8633 17.5624 25.0716 17.7708 25.28 17.9791C25.4623 18.1354 25.6706 18.3697 25.6706 18.4739C25.6706 19.0728 25.6186 19.6718 25.5143 20.2708C25.4883 20.3749 25.254 20.4791 25.0716 20.5832C24.8113 20.7135 24.5769 20.8437 24.5248 21.052C23.8998 23.2655 22.4675 25.1927 20.5665 26.4427C20.905 25.7135 21.9727 23.3437 22.5456 22.1458L22.4415 18.2916L19.1342 15.0885L17.2592 15.3489L15.2019 18.6822C15.2019 18.6822 16.1655 19.9062 14.8112 21.3385C13.4831 22.7447 12.4415 23.0572 12.4415 23.0572L11.4779 22.5364C11.7643 22.1718 12.3373 21.6249 12.78 21.2604C13.5352 20.6354 14.2905 20.5832 14.2905 19.9062C14.3165 18.4999 12.806 18.8905 12.806 18.8905L12.2592 19.4114L12.0248 21.3385L10.8789 22.7708L10.7488 22.7447L8.87378 22.3281C8.87378 22.3281 10.0196 21.7291 10.2019 21.052C10.3842 20.401 9.83727 18.2395 9.81124 18.1093C9.83727 18.1354 10.3581 18.5781 10.5925 19.3072C11.0092 18.1614 11.556 17.0677 11.7123 16.9635C11.8685 16.8593 13.9779 15.7395 13.9779 15.7395L13.2748 17.5885L13.7956 17.302L15.0456 14.2291C15.0456 14.2291 16.2696 13.6301 17.181 13.6301C18.8216 13.6041 21.2436 11.5989 20.1498 8.00513C20.4623 8.13537 25.879 10.8437 26.8165 16.1562C27.5196 20.2447 25.2019 24.0728 21.2956 26.2864Z" fill="#94A6C3"/>
<path d="M15.0978 6.07804C15.6968 5.37492 15.4623 4.33325 15.4623 4.33325L13.7176 6.91138C13.6915 6.91138 14.3426 6.93742 15.0978 6.07804Z" fill="#1B314F"/>
<path d="M9.2384 20.1666L9.44673 19.1249C9.44673 19.1249 8.58736 20.6353 8.50927 20.8436C8.43117 21.0781 8.56133 21.4947 8.8999 21.4686C9.2384 21.4426 9.65507 20.9478 9.65507 20.5832C9.65507 20.1145 9.2384 20.1666 9.2384 20.1666Z" fill="#1B314F"/>
<path d="M24.7072 3.60406C24.7072 3.60406 26.0092 3.65613 27.3634 3.81239C24.3165 1.41656 21.4259 0.713429 19.0822 0.713429C15.853 0.713429 13.6655 2.04156 13.5353 2.11967L14.5509 0.505095C14.5509 0.505095 10.4884 0.114468 9.05606 4.41134C8.69154 3.49989 8.35297 2.17176 8.35297 2.17176C8.35297 2.17176 6.2436 4.02072 7.23318 7.09363C4.81131 6.20822 1.34777 4.98426 1.21756 4.95822C1.03527 4.93217 0.983187 5.0103 0.983187 5.0103C0.983187 5.0103 0.931103 5.08843 1.08736 5.21863C1.37381 5.45301 6.84256 9.4895 8.04048 10.2707C7.78006 11.2082 7.78006 11.6509 8.04048 12.0936C8.40503 12.6926 8.43107 13.0051 8.379 13.4478C8.32694 13.8905 7.85818 17.7186 7.75402 18.1874C7.64985 18.6562 6.5561 20.3228 6.60819 20.8176C6.66027 21.3124 7.33736 23.4217 7.93631 23.6562C8.379 23.8124 9.47281 24.1509 10.2019 24.1509C10.4623 24.1509 10.6967 24.0989 10.8009 23.9947C11.2436 23.604 11.3738 23.5259 11.6863 23.5259C11.7123 23.5259 11.7384 23.5259 11.7645 23.5259C11.8946 23.5259 12.0509 23.552 12.2332 23.552C12.6499 23.552 13.1967 23.4739 13.5873 23.1093C14.1603 22.5363 15.1499 21.7551 15.4623 21.3905C15.853 20.8957 16.0613 20.2186 15.9572 19.5416C15.879 18.9166 16.2176 18.3697 16.6082 17.8228C17.103 17.1717 18.0144 15.9999 18.0144 15.9999C19.8113 17.354 20.9311 19.4113 20.9311 21.703C20.9311 25.7655 17.3895 29.0467 13.0145 29.0467C12.3373 29.0467 11.6863 28.9686 11.0353 28.8124C13.0405 29.5155 14.7332 29.7499 16.1134 29.7499C19.0561 29.7499 20.6186 28.6822 20.6186 28.6822C20.6186 28.6822 20.0717 29.3853 19.1863 30.1926C19.2123 30.1926 19.2123 30.1926 19.2123 30.1926C24.0822 29.5155 26.4519 25.5051 26.4519 25.5051C26.4519 25.5051 26.2696 26.8072 26.0353 27.6926C32.5196 22.8228 31.4259 16.729 31.3999 16.5207C31.4519 16.5989 32.103 17.3801 32.4415 17.7967C33.4832 7.0676 24.7072 3.60406 24.7072 3.60406ZM14.7332 20.7395C14.629 20.8697 14.1863 21.2603 13.8738 21.5467C13.5613 21.8332 13.2228 22.1197 12.9623 22.3801C12.8582 22.4843 12.6499 22.5363 12.3373 22.5363C12.2332 22.5363 12.129 22.5363 12.0509 22.5363C11.9988 22.5363 11.9467 22.5363 11.8946 22.5363C11.8426 22.5363 11.8165 22.5363 11.7905 22.5363C11.7123 22.5363 11.6342 22.5363 11.5561 22.5363C11.9467 22.0155 13.0926 20.8176 13.4832 20.5572C13.9519 20.2447 14.1863 19.9322 13.8999 19.3853C13.6134 18.8384 12.8582 18.9686 12.8582 18.9686C12.8582 18.9686 13.3009 18.7863 13.6915 18.7863C13.1967 18.6562 12.5717 18.7863 12.2853 19.0728C11.9728 19.3593 12.0249 20.3749 11.8946 21.0259C11.7645 21.703 11.3217 22.0416 10.6446 22.6666C10.28 23.0051 10.0196 23.1093 9.8113 23.1093C9.3686 23.0312 8.84773 22.9009 8.48321 22.7707C8.22273 22.4322 7.83214 21.3124 7.72798 20.8436C7.8061 20.5832 8.1186 20.0363 8.27487 19.7239C8.58733 19.1249 8.76964 18.7863 8.8217 18.4739C8.92591 18.0312 9.26448 15.2967 9.39464 14.1509C9.73321 14.5936 10.2019 15.3228 10.0978 15.7916C10.853 14.7239 10.3061 13.6822 10.0457 13.2655C9.8113 12.8489 9.49884 12.0155 9.75924 11.1301C10.0196 10.2447 10.9572 7.79672 10.9572 7.79672C10.9572 7.79672 11.2696 8.34363 11.7123 8.2395C12.155 8.13529 15.7227 2.77072 15.7227 2.77072C15.7227 2.77072 16.6863 4.8801 15.6707 6.41656C14.629 7.95299 13.6134 8.2395 13.6134 8.2395C13.6134 8.2395 15.0457 8.4999 16.3738 7.53633C16.9207 8.81236 17.4415 10.1405 17.4676 10.3228C17.3894 10.5051 16.3477 13.0051 16.2436 13.1613C16.1915 13.2134 15.8269 13.3176 15.5665 13.3697C15.1238 13.4999 14.8634 13.578 14.7592 13.6562C14.5769 13.8124 13.7436 16.104 13.353 17.2239C12.8842 17.354 12.4155 17.6145 12.0769 18.1353C12.2592 18.0051 12.8322 17.927 13.2488 17.8749C13.6134 17.8489 14.7332 18.4478 15.0196 19.5676C15.0196 19.5936 15.0196 19.5936 15.0196 19.6197C15.0717 20.0363 14.9415 20.427 14.7332 20.7395ZM12.2853 21.052C12.5196 20.7134 12.4936 20.1405 12.5196 19.9582C12.5457 19.7759 12.5978 19.4374 12.8061 19.3853C13.0145 19.3332 13.5092 19.4113 13.5092 19.7759C13.5092 20.1145 13.1446 20.1926 12.8842 20.427C12.7019 20.6093 12.3373 20.9999 12.2853 21.052ZM22.6759 16.078C22.9363 14.7499 22.9623 13.604 22.8842 12.6666C23.8999 14.0207 24.5249 15.6613 24.7072 17.354C24.7332 17.5624 24.9415 17.7707 25.1499 17.979C25.3322 18.1353 25.5405 18.3436 25.5405 18.4739C25.5405 19.0728 25.4884 19.6717 25.3842 20.2707C25.3582 20.3489 25.1238 20.479 24.9415 20.5832C24.6811 20.7134 24.4467 20.8436 24.3946 21.052C23.8217 23.0572 22.5977 24.828 20.9572 26.078C23.379 23.552 24.5509 19.3853 22.6759 16.078ZM21.0353 26.3124C22.728 25.0103 24.03 23.1874 24.603 21.1301C24.629 21.052 24.8634 20.9217 25.0196 20.8176C25.28 20.6874 25.5405 20.5312 25.5926 20.3228C25.6967 19.7239 25.7488 19.0989 25.7488 18.4739C25.7488 18.2395 25.5145 18.0051 25.28 17.7707C25.1499 17.6145 24.9415 17.4322 24.9415 17.302C24.7332 15.4009 23.978 13.604 22.8061 12.1197C22.2853 8.99466 20.2019 8.03117 20.1499 8.00506C20.2019 8.08323 21.5561 10.0363 20.6186 12.328C19.655 14.6457 17.1811 14.2812 16.9728 14.3072C16.7645 14.3072 15.9572 15.3489 14.9415 17.2759C14.8113 17.2239 14.2644 17.0936 13.6394 17.1978C14.1082 15.8957 14.8113 14.0467 14.9415 13.8905C14.9936 13.8384 15.3842 13.7343 15.6446 13.6562C16.1394 13.5259 16.3738 13.4478 16.4519 13.3436C16.504 13.2655 16.7644 12.6666 17.0249 12.0416C17.2592 12.0416 17.8582 11.9895 17.9103 11.9634C17.9623 11.9113 18.4572 10.6353 18.4572 10.479C18.4572 10.3489 17.4415 7.82283 17.0509 6.85926C17.2332 6.65093 17.4155 6.39051 17.5977 6.10406C22.9363 6.67696 27.103 11.2082 27.103 16.703C27.103 20.9217 24.629 24.5936 21.0353 26.3124Z" fill="#1B314F"/>
<path d="M14.1083 12.2499C14.6031 11.677 14.3427 10.6093 13.4313 10.427C13.6656 9.88011 14.0041 8.78638 14.0041 8.78638C14.0041 8.78638 11.3479 12.953 11.1135 13.0311C10.8791 13.1093 10.6447 12.1978 10.6447 12.1978C10.15 14.0989 11.4781 14.3593 11.6344 13.7603C12.3635 13.578 13.6135 12.7968 14.1083 12.2499Z" fill="#1B314F"/>
<path d="M11.8425 13.2655L13.1967 10.9478C13.1967 10.9478 13.9779 11.3384 13.5873 11.9634C13.0925 12.6925 11.8425 13.2655 11.8425 13.2655Z" fill="#FFD923"/>
<path d="M28.5873 23.9947C28.1966 24.5156 27.754 25.0624 27.2332 25.5833C30.5925 19.125 27.3894 13.2135 27.2592 12.9791C27.4936 13.2135 27.7279 13.474 27.9363 13.7083C30.5144 16.5729 30.8269 20.8698 28.5873 23.9947Z" fill="#D82122"/>
<path d="M31.7124 15.6873C30.5406 12.5363 28.8739 9.854 25.202 7.43217C21.6604 5.08839 17.8583 5.27068 17.65 5.29672C17.6239 5.29672 17.5979 5.29672 17.5979 5.29672C17.7281 5.24465 17.8583 5.21861 17.9885 5.19256C18.7958 4.93215 19.8374 4.72381 20.8791 4.59361C23.6396 4.20298 26.426 5.14048 28.327 7.14567C28.3531 7.1717 28.3531 7.1717 28.3791 7.19773C30.5406 9.48939 31.6604 12.354 31.7124 15.6873Z" fill="#D82122"/>
<path d="M24.3688 2.79688C20.4885 2.06771 17.9885 2.43229 16.1917 3.10938C16.1396 2.90104 15.9573 2.48438 15.801 2.14583C15.2541 2.79688 14.6813 3.57812 14.3167 4.07292C13.3271 4.75 12.9104 5.40104 12.9104 5.40104C13.4833 3.44792 15.15 1.98958 17.1813 1.625C17.7541 1.52084 18.3791 1.46875 19.0563 1.46875C20.8531 1.49479 22.65 1.9375 24.3688 2.79688Z" fill="#D82122"/>
<path d="M10.0196 7.79678C6.97279 7.69265 7.98841 4.15096 8.0405 3.94263C8.0405 3.96867 8.24885 6.72908 10.0196 7.79678Z" fill="#D82122"/>
<path d="M13.0145 1.41663C10.6707 2.82287 11.1395 6.18225 11.1395 6.18225C8.89993 2.77079 12.8322 1.49475 13.0145 1.41663Z" fill="#D82122"/>
<path d="M9.16031 8.73435C9.31658 8.86459 9.47284 9.09895 9.29054 9.43744C9.18634 9.61974 9.03015 9.59371 8.7957 9.48959C8.48324 9.33332 6.60824 8.23959 4.91553 7.11975C6.84261 7.79681 8.7957 8.52602 9.10824 8.68229C9.10824 8.68229 9.13427 8.70832 9.16031 8.73435Z" fill="white"/>
</g>
<defs>
<clipPath id="clip0_3338_11253">
<rect width="32.5" height="30" fill="white" transform="translate(0.193604 0.3396)"/>
</clipPath>
</defs>
</svg>
