<svg xmlns="http://www.w3.org/2000/svg" viewBox="0 0 29.61 14.32"><defs><style>.cls-1,.cls-2{fill:#ff0d6a;}.cls-1{fill-rule:evenodd;}</style></defs><title>Fichier 361</title><g id="Calque_2" data-name="Calque 2"><g id="Back"><path class="cls-1" d="M22.37.21c-2.86,0-4.82,1.79-6.52,4l1,1.47c1.55-2.12,3.2-3.8,5.51-3.8a5.34,5.34,0,0,1,5.28,4.44h-6.6V8h8.3a5.93,5.93,0,0,0,.06-.84,7,7,0,0,0-7-6.95"/><path class="cls-2" d="M29.48,8.14H20.92v-2h6.56A5.16,5.16,0,0,0,22.37,2c-2.34,0-4,1.8-5.4,3.75l-.12.15L15.68,4.21l.06-.08c1.54-2,3.53-4.06,6.63-4.06a7.13,7.13,0,0,1,7.17,7.09,6,6,0,0,1-.05.85Zm-8.29-.28h8a5.48,5.48,0,0,0,0-.7A6.87,6.87,0,0,0,22.37.34c-2.94,0-4.86,2-6.35,3.88l.84,1.23C18.3,3.5,20,1.75,22.37,1.75A5.43,5.43,0,0,1,27.78,6.3l0,.16H21.19Z"/><path class="cls-2" d="M29.42,8.07H21V6.25h6.59A5.25,5.25,0,0,0,22.37,2c-2.37,0-4,1.82-5.46,3.77l-.06.08L15.76,4.21l0,0c1.52-2,3.5-4,6.57-4a7.07,7.07,0,0,1,7.1,7,6.15,6.15,0,0,1,0,.85Zm-8.3-.14h8.17a6.78,6.78,0,0,0,.05-.77,6.93,6.93,0,0,0-7-6.88c-3,0-4.93,2-6.43,3.94l.92,1.34C18.3,3.61,20,1.82,22.37,1.82a5.37,5.37,0,0,1,5.35,4.49v.08H21.12Z"/><path class="cls-2" d="M29.54,8.21H20.85V6.11H27.4a5.12,5.12,0,0,0-5-4c-2.31,0-3.94,1.79-5.35,3.72L16.85,6,15.59,4.21l.1-.12C17.23,2.07,19.24,0,22.37,0a7.2,7.2,0,0,1,7.24,7.16,6.29,6.29,0,0,1-.05.86Zm-8.28-.42h7.91q0-.32,0-.63A6.8,6.8,0,0,0,22.37.41c-2.9,0-4.8,1.92-6.26,3.81l.75,1.11C18.29,3.41,20,1.68,22.37,1.68a5.5,5.5,0,0,1,5.48,4.61l0,.24H21.26Z"/><path class="cls-1" d="M22.37,12.44c-2.82,0-4.69-2.45-7.06-6S10.71.21,7.24.21a7,7,0,0,0-7,7,7,7,0,0,0,7,7c2.86,0,4.82-1.78,6.51-4l-1-1.48c-1.56,2.12-3.21,3.8-5.52,3.8a5.28,5.28,0,1,1,0-10.56c2.83,0,4.59,2.32,7.06,6s4.61,6.21,8.07,6.21a7,7,0,0,0,6.56-4.44H27.07a5.36,5.36,0,0,1-4.7,2.77"/><path class="cls-2" d="M22.37,14.25c-3.38,0-5.48-2.2-8.19-6.27C11.78,4.38,10,2,7.24,2A5.19,5.19,0,0,0,2,7.16,5.19,5.19,0,0,0,7.24,12.3c2.35,0,4-1.8,5.4-3.74l.12-.16,1.16,1.72-.06.08c-1.53,2-3.52,4.05-6.62,4.05A7.13,7.13,0,0,1,.07,7.16,7.13,7.13,0,0,1,7.24.07c3.73,0,6.09,3.09,8.19,6.26,2.3,3.49,4.15,6,6.94,6A5.23,5.23,0,0,0,27,9.61l0-.07h2.14l-.07.19A7.23,7.23,0,0,1,22.37,14.25ZM7.24,1.75c2.9,0,4.72,2.4,7.17,6.08,2.65,4,4.71,6.14,8,6.14a6.93,6.93,0,0,0,6.35-4.16H27.15a5.49,5.49,0,0,1-4.78,2.76c-2.92,0-4.82-2.52-7.17-6.08-2.51-3.8-4.71-6.15-8-6.15A6.87,6.87,0,0,0,.34,7.16,6.86,6.86,0,0,0,7.24,14c2.94,0,4.86-1.94,6.34-3.86l-.83-1.23c-1.44,1.94-3.11,3.69-5.51,3.69A5.45,5.45,0,0,1,1.76,7.16,5.45,5.45,0,0,1,7.24,1.75Z"/><path class="cls-2" d="M22.37,14.18c-3.68,0-5.86-2.82-8.13-6.24-2.41-3.62-4.2-6-7-6a5.21,5.21,0,1,0,0,10.42c2.38,0,4-1.82,5.46-3.77l.06-.08,1.08,1.6,0,0c-1.53,2-3.5,4-6.57,4a7.07,7.07,0,0,1-7.1-7,7.07,7.07,0,0,1,7.1-7c3.34,0,5.59,2.38,8.13,6.23,2.32,3.51,4.18,6,7,6A5.3,5.3,0,0,0,27,9.64l0,0h2l0,.09A7.14,7.14,0,0,1,22.37,14.18ZM7.24,1.82c2.87,0,4.68,2.39,7.11,6.05,2.67,4,4.74,6.17,8,6.17a7,7,0,0,0,6.46-4.3H27.11a5.42,5.42,0,0,1-4.74,2.76c-2.89,0-4.77-2.51-7.12-6C12.74,2.64,10.52.28,7.24.28a6.92,6.92,0,0,0-7,6.88,6.92,6.92,0,0,0,7,6.88c3,0,4.93-2,6.43-3.93l-.92-1.35c-1.44,2-3.1,3.74-5.51,3.74a5.34,5.34,0,1,1,0-10.68Z"/><path class="cls-2" d="M22.37,14.32c-3.75,0-5.95-2.85-8.25-6.3S10,2.09,7.24,2.09A5.12,5.12,0,0,0,2.1,7.16a5.12,5.12,0,0,0,5.14,5.07c2.31,0,3.94-1.79,5.35-3.71l.17-.24L14,10.12l-.09.12c-1.55,2-3.55,4.08-6.68,4.08A7.21,7.21,0,0,1,0,7.16,7.21,7.21,0,0,1,7.24,0c3.4,0,5.67,2.41,8.24,6.29,2.3,3.48,4.14,5.94,6.89,5.94a5.15,5.15,0,0,0,4.52-2.66l.06-.1h2.29l-.12.28A7.29,7.29,0,0,1,22.37,14.32ZM7.24,1.68c2.94,0,4.77,2.42,7.23,6.11,2.64,4,4.68,6.12,7.9,6.12a6.91,6.91,0,0,0,6.25-4H27.19a5.56,5.56,0,0,1-4.82,2.76c-3,0-4.86-2.53-7.23-6.12C12.65,2.75,10.45.41,7.24.41A6.8,6.8,0,0,0,.41,7.16a6.8,6.8,0,0,0,6.83,6.75c2.9,0,4.79-1.91,6.26-3.8L12.75,9c-1.43,1.91-3.09,3.64-5.51,3.64A5.52,5.52,0,0,1,1.69,7.16,5.52,5.52,0,0,1,7.24,1.68Z"/></g></g></svg>