<svg xmlns="http://www.w3.org/2000/svg" viewBox="0 0 35.44 28.47"><defs><style>.cls-1{fill:#28223d;}</style></defs><title>GoChain</title><g id="Calque_2" data-name="Calque 2"><g id="Line"><g id="GoChain"><polygon class="cls-1" points="28.48 20.69 24.82 26.77 27.48 26.77 31.13 20.69 27.48 14.6 24.82 14.6 28.48 20.69 28.48 20.69"/><polygon class="cls-1" points="32.78 20.69 29.13 26.77 31.79 26.77 35.44 20.69 31.79 14.6 29.13 14.6 32.78 20.69 32.78 20.69"/><polygon class="cls-1" points="23.98 20.69 20.32 26.77 22.98 26.77 26.64 20.69 22.98 14.6 20.32 14.6 23.98 20.69 23.98 20.69"/><path class="cls-1" d="M14.24,28.47A14.24,14.24,0,1,1,14.24,0c7.28,0,12.83,4.57,13.82,11.37l.16,1.15H17.46l4.83,8.14L17.89,28l-.41.1A14.27,14.27,0,0,1,14.24,28.47ZM14.24,2a12.24,12.24,0,1,0,0,24.47,12,12,0,0,0,2.38-.24L20,20.67,14,10.54l11.91,0C24.59,5.38,20.06,2,14.24,2Z"/><path class="cls-1" d="M13.2,17.49a1.5,1.5,0,0,1-2.08-.7L7.65,8.88A1,1,0,0,1,8,7.59a.87.87,0,0,1,1.22.33l4.64,7.32a1.74,1.74,0,0,1-.66,2.25Z"/></g></g></g></svg>