<svg width="128" height="107" viewBox="0 0 128 107" fill="none" xmlns="http://www.w3.org/2000/svg">
<g clip-path="url(#clip0)">
<path fill-rule="evenodd" clip-rule="evenodd" d="M17.242 0.750612C17.6216 0.276181 18.1962 0 18.8038 0H125.681C127.358 0 128.291 1.93986 127.243 3.24939L110.443 24.2494C110.063 24.7238 109.489 25 108.881 25H2.00375C0.326743 25 -0.605604 23.0601 0.442017 21.7506L17.242 0.750612ZM0.442017 44.2494C-0.605604 42.9399 0.326742 41 2.00375 41H108.881C109.489 41 110.063 41.2762 110.443 41.7506L127.243 62.7506C128.291 64.0601 127.358 66 125.681 66H18.8038C18.1962 66 17.6216 65.7238 17.242 65.2494L0.442017 44.2494ZM18.8038 82C18.1962 82 17.6216 82.2762 17.242 82.7506L0.442017 103.751C-0.605604 105.06 0.326743 107 2.00375 107H108.881C109.489 107 110.063 106.724 110.443 106.249L127.243 85.2494C128.291 83.9399 127.358 82 125.681 82H18.8038Z" fill="black"/>
</g>
<defs>
<clipPath id="clip0">
<rect width="128" height="107" fill="white"/>
</clipPath>
</defs>
</svg>
