<svg xmlns="http://www.w3.org/2000/svg" xmlns:xlink="http://www.w3.org/1999/xlink" viewBox="0 0 37.37 34.57"><defs><style>.cls-1,.cls-2,.cls-4{fill:#0b1e2c;}.cls-1{clip-rule:evenodd;}.cls-2{fill-rule:evenodd;}.cls-3{clip-path:url(#clip-path);}</style><clipPath id="clip-path"><path class="cls-1" d="M25.13,7.13a1.28,1.28,0,1,1,1.28-1.28A1.28,1.28,0,0,1,25.13,7.13Zm0,22.87a1.28,1.28,0,1,1,1.28-1.28A1.28,1.28,0,0,1,25.13,30Zm6.63-11.44A1.28,1.28,0,1,1,33,17.28,1.28,1.28,0,0,1,31.76,18.56Zm-26.15,0a1.28,1.28,0,1,1,1.28-1.28A1.28,1.28,0,0,1,5.61,18.56Zm6.6-11.43a1.28,1.28,0,1,1,1.28-1.28A1.28,1.28,0,0,1,12.21,7.13Zm0,22.87a1.28,1.28,0,1,1,1.28-1.28A1.28,1.28,0,0,1,12.21,30ZM27.38,2.66a.82.82,0,1,1,.82-.81A.82.82,0,0,1,27.38,2.66Zm0,30.88a.82.82,0,1,1,.82-.82A.82.82,0,0,1,27.38,33.54ZM36.47,18.1a.82.82,0,1,1,.82-.82A.81.81,0,0,1,36.47,18.1ZM.89,18.1a.82.82,0,1,1,0-1.63.82.82,0,1,1,0,1.63ZM10,2.66a.82.82,0,1,1,.82-.81A.82.82,0,0,1,10,2.66Zm0,30.88a.82.82,0,1,1,.82-.82A.82.82,0,0,1,10,33.54ZM18.67,8.62a1.49,1.49,0,1,1,1.49-1.49A1.49,1.49,0,0,1,18.67,8.62Zm0,20.31a1.49,1.49,0,1,1,1.49-1.49A1.49,1.49,0,0,1,18.67,28.93Zm0-26.77a1,1,0,1,1,1-1A1,1,0,0,1,18.67,2.16Zm0,32.33a1,1,0,0,1,0-2.08,1,1,0,1,1,0,2.08Zm8.75-20.81a1.49,1.49,0,1,1,1.49-1.49A1.49,1.49,0,0,1,27.42,13.68Zm0,10.18a1.49,1.49,0,1,1,1.49-1.48A1.49,1.49,0,0,1,27.42,23.86ZM9.92,13.68a1.49,1.49,0,1,1,1.48-1.49A1.48,1.48,0,0,1,9.92,13.68Zm0,10.18a1.49,1.49,0,1,1,1.48-1.48A1.48,1.48,0,0,1,9.92,23.86Zm11.7-9.23a2.53,2.53,0,1,1,2.53-2.53A2.53,2.53,0,0,1,21.62,14.63Zm0,10.37a2.54,2.54,0,1,1,2.53-2.53A2.53,2.53,0,0,1,21.62,25Zm3-5.18a2.54,2.54,0,1,1,2.53-2.54A2.54,2.54,0,0,1,24.61,19.82Zm-11.85,0a2.54,2.54,0,1,1,2.53-2.54A2.54,2.54,0,0,1,12.76,19.82Zm3-5.19a2.53,2.53,0,1,1,2.53-2.53A2.53,2.53,0,0,1,15.72,14.63Zm0,10.37a2.54,2.54,0,1,1,2.53-2.53A2.53,2.53,0,0,1,15.72,25ZM32.54,10.23a1,1,0,1,1,1-1A1,1,0,0,1,32.54,10.23Zm0,16.14a1,1,0,1,1,1-1A1,1,0,0,1,32.54,26.37ZM4.79,10.23a1,1,0,0,1,0-2,1,1,0,1,1,0,2Zm0,16.14a1,1,0,1,1,1-1A1,1,0,0,1,4.79,26.37Z"/></clipPath></defs><title>Fichier 431@100w</title><g id="Calque_2" data-name="Calque 2"><g id="Line"><path class="cls-2" d="M25.13,7.13a1.28,1.28,0,1,1,1.28-1.28A1.28,1.28,0,0,1,25.13,7.13Zm0,22.87a1.28,1.28,0,1,1,1.28-1.28A1.28,1.28,0,0,1,25.13,30Zm6.63-11.44A1.28,1.28,0,1,1,33,17.28,1.28,1.28,0,0,1,31.76,18.56Zm-26.15,0a1.28,1.28,0,1,1,1.28-1.28A1.28,1.28,0,0,1,5.61,18.56Zm6.6-11.43a1.28,1.28,0,1,1,1.28-1.28A1.28,1.28,0,0,1,12.21,7.13Zm0,22.87a1.28,1.28,0,1,1,1.28-1.28A1.28,1.28,0,0,1,12.21,30ZM27.38,2.66a.82.82,0,1,1,.82-.81A.82.82,0,0,1,27.38,2.66Zm0,30.88a.82.82,0,1,1,.82-.82A.82.82,0,0,1,27.38,33.54ZM36.47,18.1a.82.82,0,1,1,.82-.82A.81.81,0,0,1,36.47,18.1ZM.89,18.1a.82.82,0,1,1,0-1.63.82.82,0,1,1,0,1.63ZM10,2.66a.82.82,0,1,1,.82-.81A.82.82,0,0,1,10,2.66Zm0,30.88a.82.82,0,1,1,.82-.82A.82.82,0,0,1,10,33.54ZM18.67,8.62a1.49,1.49,0,1,1,1.49-1.49A1.49,1.49,0,0,1,18.67,8.62Zm0,20.31a1.49,1.49,0,1,1,1.49-1.49A1.49,1.49,0,0,1,18.67,28.93Zm0-26.77a1,1,0,1,1,1-1A1,1,0,0,1,18.67,2.16Zm0,32.33a1,1,0,0,1,0-2.08,1,1,0,1,1,0,2.08Zm8.75-20.81a1.49,1.49,0,1,1,1.49-1.49A1.49,1.49,0,0,1,27.42,13.68Zm0,10.18a1.49,1.49,0,1,1,1.49-1.48A1.49,1.49,0,0,1,27.42,23.86ZM9.92,13.68a1.49,1.49,0,1,1,1.48-1.49A1.48,1.48,0,0,1,9.92,13.68Zm0,10.18a1.49,1.49,0,1,1,1.48-1.48A1.48,1.48,0,0,1,9.92,23.86Zm11.7-9.23a2.53,2.53,0,1,1,2.53-2.53A2.53,2.53,0,0,1,21.62,14.63Zm0,10.37a2.54,2.54,0,1,1,2.53-2.53A2.53,2.53,0,0,1,21.62,25Zm3-5.18a2.54,2.54,0,1,1,2.53-2.54A2.54,2.54,0,0,1,24.61,19.82Zm-11.85,0a2.54,2.54,0,1,1,2.53-2.54A2.54,2.54,0,0,1,12.76,19.82Zm3-5.19a2.53,2.53,0,1,1,2.53-2.53A2.53,2.53,0,0,1,15.72,14.63Zm0,10.37a2.54,2.54,0,1,1,2.53-2.53A2.53,2.53,0,0,1,15.72,25ZM32.54,10.23a1,1,0,1,1,1-1A1,1,0,0,1,32.54,10.23Zm0,16.14a1,1,0,1,1,1-1A1,1,0,0,1,32.54,26.37ZM4.79,10.23a1,1,0,0,1,0-2,1,1,0,1,1,0,2Zm0,16.14a1,1,0,1,1,1-1A1,1,0,0,1,4.79,26.37Z"/><g class="cls-3"><rect class="cls-4" width="37.37" height="34.57"/></g></g></g></svg>