<svg xmlns="http://www.w3.org/2000/svg" viewBox="0 0 32.82 25.66"><defs><style>.cls-1,.cls-2{fill:none;stroke:#1d2951;stroke-miterlimit:10;}.cls-2{stroke-linecap:round;stroke-width:2px;}</style></defs><title>Fichier 435</title><g id="Calque_2" data-name="Calque 2"><g id="Back"><path class="cls-1" d="M16.42,20.91c1.73,0,3.16-4.66,3.07-8s-1.16-8.13-2.92-8.16c-1.33,0-2.42,2.69-2.85,5.42a15.45,15.45,0,0,0-.19,2.65C13.63,16.12,14.7,20.89,16.42,20.91Z"/><path class="cls-2" d="M1,22.32v2.34H9.88V22.71q-5.21-4.17-5.21-9.88A11.69,11.69,0,0,1,16.54,1c7.61,0,11.7,6.22,11.7,11.83q0,5.62-5.27,9.88v1.95h8.85V22.32"/><path class="cls-1" d="M9.58,8.75c-.89,1.48,2.45,5.06,5.36,6.63s7.62,3.06,8.53,1.55c.68-1.14-1.12-3.44-3.28-5.18A15.07,15.07,0,0,0,18,10.27C15.12,8.72,10.46,7.26,9.58,8.75Z"/><path class="cls-1" d="M23.54,8.9c-.84-1.51-5.62-.41-8.43,1.33S8.65,15.29,9.5,16.84c.65,1.15,3.54.75,6.12-.25A14.23,14.23,0,0,0,18,15.43C20.78,13.72,24.38,10.41,23.54,8.9Z"/></g></g></svg>