<svg width="93" height="133" viewBox="0 0 93 133" fill="none" xmlns="http://www.w3.org/2000/svg">
<path d="M55.2186 54.5003C54.2468 59.5773 53.2751 64.4589 52.1091 69.7311C61.0489 71.098 69.9887 72.4648 79.5116 73.8317C78.7342 76.3702 78.1512 78.7134 77.3738 81.2518C68.434 79.885 59.6885 78.7134 50.7487 77.3465C48.9996 83.7903 47.6391 90.0388 45.6957 96.2873C43.5579 103.122 41.2258 109.761 37.9219 116.204C33.8407 124.21 27.4273 130.068 18.2931 131.826C12.8515 132.997 7.40985 132.412 2.93993 128.897C1.57952 127.92 0.0247628 125.968 0.0247628 124.406C-0.169582 122.648 0.80214 120.305 2.16255 119.133C3.13427 118.352 5.66075 118.938 7.02116 119.915C8.57592 121.086 9.74198 123.039 10.908 124.796C13.6289 128.702 17.7101 129.287 21.4026 126.163C25.8726 122.453 28.2047 117.181 29.5651 111.713C32.4803 100.388 35.0068 88.8672 37.7276 77.3465C37.9219 76.7607 37.7276 76.3702 37.7276 75.3938C29.3708 74.027 21.014 72.8554 12.4628 71.4885C12.8515 68.9501 13.0458 66.8021 13.4345 64.0684C21.9857 65.24 30.5368 66.4116 39.671 67.7785C40.8371 62.7015 42.0032 58.0151 43.1692 52.743C34.035 51.3761 25.0952 50.0092 15.7667 48.4471C16.1553 45.9086 16.3497 43.5654 16.7384 41.027C26.0669 42.3938 35.2011 43.7607 44.724 45.1276C45.5014 42.3938 46.0844 39.8554 46.8618 37.3169C49.3882 28.5299 51.9147 19.743 57.3564 12.3228C62.9923 4.70745 69.9887 -0.369476 79.706 0.0210568C84.1759 0.216323 88.2571 1.38792 91.3666 4.90271C91.9497 5.68378 92.9214 6.46484 92.9214 7.24591C92.727 9.19857 92.9214 11.737 91.7553 12.9086C90.0062 14.666 87.4797 13.6897 85.7306 12.1276C84.3702 10.7607 83.2042 9.19857 82.0381 7.63644C79.3173 3.92638 74.8474 3.14532 71.5435 6.46484C69.017 9.00331 66.6849 12.1276 65.5188 15.4471C62.215 25.6009 59.6885 35.9501 56.579 46.6897C65.7132 48.0566 74.07 49.2282 82.8155 50.595C82.0381 53.1335 81.4551 55.2814 80.6777 58.0151C72.1265 56.8435 63.7697 55.6719 55.2186 54.5003Z" fill="#0090FF"/>
</svg>
