<svg width="131" height="132" viewBox="0 0 131 132" fill="none" xmlns="http://www.w3.org/2000/svg">
<path d="M42.4909 128.1C21.2545 128.1 4 110.624 4 89.3879C4 68.1515 21.2545 50.4546 42.4909 50.4546H57.9758V42.7121C57.9758 21.2545 75.2303 4 96.4667 4H127.215V27.2273H96.4667C87.8394 27.2273 80.9818 34.3061 80.9818 42.9333V50.4546H111.73V73.6818H80.9818V89.3879C80.9818 110.624 63.7273 128.1 42.4909 128.1ZM42.4909 73.6818C33.8636 73.6818 27.0061 80.7606 27.0061 89.3879C27.0061 98.0152 33.8636 105.094 42.4909 105.094C51.1182 105.094 57.9758 98.0152 57.9758 89.3879V73.6818H42.4909Z" stroke="#00FF83" stroke-width="7" stroke-miterlimit="10"/>
<path d="M80.9817 50.4546H57.9756V73.6818H80.9817V50.4546Z" stroke="#00FF83" stroke-width="7" stroke-miterlimit="10"/>
</svg>
