<svg width="200" height="200" viewBox="0 0 200 200" fill="none" xmlns="http://www.w3.org/2000/svg">
<rect width="200" height="200" fill="white"/>
<path d="M34.6903 200L63.7168 149.912L92.7434 100L121.593 49.9118L126.372 41.9753L128.496 49.9118L137.345 82.8924L127.434 100L98.4071 149.912L69.5575 200H104.248L133.274 149.912L148.319 123.986L155.398 149.912L168.85 200H200L186.549 149.912L173.097 100L169.558 87.1252L191.15 49.9118H159.646L158.584 46.2081L147.611 5.29101L146.195 0H115.929L115.221 1.0582L86.9027 49.9118L57.8761 100L29.0265 149.912L0 200H34.6903Z" fill="black"/>
</svg>
