<svg width="134" height="142" viewBox="0 0 134 142" fill="none" xmlns="http://www.w3.org/2000/svg">
<path d="M5 51V91L39 71L5 51Z" stroke="#00B4A0" stroke-width="10"/>
<path d="M129 38V103.333L73 136L17 103.333L73 70.6667" stroke="#00B4A0" stroke-width="10"/>
<path d="M73 6L75.5001 1.66993L73 0.22642L70.4999 1.66993L73 6ZM129 38.3333H134V35.4467L131.5 34.0033L129 38.3333ZM129 103L126.5 107.33L134 103H129ZM17 38.3333L14.4999 34.0033L7.0004 38.3333L14.4999 42.6634L17 38.3333ZM70.4999 10.3301L126.5 42.6634L131.5 34.0033L75.5001 1.66993L70.4999 10.3301ZM124 38.3333V103H134V38.3333H124ZM19.5001 42.6634L75.5001 10.3301L70.4999 1.66993L14.4999 34.0033L19.5001 42.6634ZM131.5 98.6699L19.5001 34.0033L14.4999 42.6634L126.5 107.33L131.5 98.6699Z" fill="#00B4A0"/>
</svg>
