<svg width="132" height="81" viewBox="0 0 132 81" fill="none" xmlns="http://www.w3.org/2000/svg">
<g clip-path="url(#clip0)">
<path d="M124.269 4.25184C122.337 2.70572 119.824 0.5798 115.572 5.29254e-06C111.514 -0.57979 107.455 2.12592 104.556 4.05857C101.657 5.99122 96.4392 11.2094 94.3133 12.7555C92.1874 14.3016 86.5827 15.8477 77.4993 21.2592C68.4158 26.6706 33.4348 49.0893 33.4348 49.0893L42.5183 49.2826L1.73938 70.3485H5.79795L0 74.7936C0 74.7936 5.21816 76.1464 9.46999 73.4407V74.7936C9.46999 74.7936 58.1728 55.6603 67.4495 60.6852L61.6515 62.4246C62.2313 62.4246 71.3148 63.0044 71.3148 63.0044C71.3148 63.0044 71.7013 68.8023 77.1127 72.4744C82.7174 76.1464 82.7174 78.0791 82.7174 78.0791C82.7174 78.0791 79.8184 79.2387 79.8184 80.7848C79.8184 80.7848 84.0703 79.4319 88.1288 79.6252C92.1874 79.8184 95.6662 80.7848 95.6662 80.7848C95.6662 80.7848 95.2796 79.2387 91.4143 78.0791C87.549 76.9195 83.6837 72.8609 81.9444 70.5417C80.0117 68.2225 78.8521 64.164 80.3982 60.1054C81.7511 56.6266 86.3895 54.694 96.0527 49.6691C107.455 43.8712 109.968 39.4261 111.514 35.9473C113.06 32.4685 115.572 25.7042 116.732 22.612C118.471 18.5534 120.404 16.4275 122.143 15.0747C123.883 13.7218 131.42 10.8228 131.42 10.8228C131.42 10.8228 126.202 5.79796 124.269 4.25184Z" fill="black"/>
</g>
<defs>
<clipPath id="clip0">
<rect width="132" height="80.5915" fill="white"/>
</clipPath>
</defs>
</svg>
