<svg xmlns="http://www.w3.org/2000/svg" viewBox="0 0 35 28.69"><defs><style>.cls-1{fill:#8447da;}</style></defs><title>Fichier 423</title><g id="Calque_2" data-name="Calque 2"><g id="Line"><path class="cls-1" d="M32.31,0l-.07,0a.12.12,0,0,1,.1,0Z"/><path class="cls-1" d="M32.36,0l0,0Z"/><path class="cls-1" d="M30.83,21.72l.21-.37Z"/><path class="cls-1" d="M31.69,19.86l.15-.4Z"/><path class="cls-1" d="M32,18.76c0-.13.07-.24.1-.36C32.11,18.52,32.07,18.63,32,18.76Z"/><path class="cls-1" d="M13.92,22.6q.38.58.81,1.14c.33.41.67.79,1,1.16-.35-.37-.69-.75-1-1.16S14.17,23,13.92,22.6Z"/><path class="cls-1" d="M35,14.55c0,.86-.13,1.74-.26,2.64C34.82,16.29,34.91,15.41,35,14.55Z"/><path class="cls-1" d="M10.8,14.2A20.2,20.2,0,0,0,12,18.94,20.2,20.2,0,0,1,10.8,14.2Z"/><path class="cls-1" d="M34.4,18.67a15.76,15.76,0,0,1-2.17,5A15.76,15.76,0,0,0,34.4,18.67Z"/><path class="cls-1" d="M27.24,25.35l.3-.18Z"/><path class="cls-1" d="M25.18,26.13l.28-.08Z"/><path class="cls-1" d="M26.56,25.68l.3-.14Z"/><path class="cls-1" d="M25.87,25.94l.3-.11Z"/><path class="cls-1" d="M24.5,26.24l.24,0Z"/><path class="cls-1" d="M28.55,24.45l.29-.25Z"/><path class="cls-1" d="M30.32,22.52l.24-.34Z"/><path class="cls-1" d="M22.88,28.63a8.72,8.72,0,0,0,1,.06,7.38,7.38,0,0,0,.82,0,7.38,7.38,0,0,1-.82,0A8.72,8.72,0,0,1,22.88,28.63Z"/><path class="cls-1" d="M29.76,23.24a3.88,3.88,0,0,0,.26-.31A3.88,3.88,0,0,1,29.76,23.24Z"/><path class="cls-1" d="M27.9,24.93c.1-.06.2-.14.3-.21C28.1,24.79,28,24.87,27.9,24.93Z"/><path class="cls-1" d="M31.29,20.84l.18-.4Z"/><path class="cls-1" d="M23.4,26.25h-.24A9.49,9.49,0,0,1,21.81,26a9.49,9.49,0,0,0,1.35.27Z"/><path class="cls-1" d="M16.76,22.49c-.16-.22-.33-.44-.49-.68h0C16.43,22.05,16.6,22.27,16.76,22.49Z"/><path class="cls-1" d="M18.52,24.22a8.91,8.91,0,0,0,1,.7,8.91,8.91,0,0,1-1-.7h0a10.2,10.2,0,0,1-1.22-1.12,10.2,10.2,0,0,0,1.22,1.12Z"/><path class="cls-1" d="M29.45,23.6l-.28.29Z"/><path class="cls-1" d="M23.91,26.27h0Z"/><path class="cls-1" d="M12.24,25.75l0,0,0,0,0,0a8.43,8.43,0,0,1-2.21.56A5.63,5.63,0,0,1,5.73,25a10.51,10.51,0,0,1-3.44-7.23c0-.07,0-.24-.12-.17L.06,18.63a.15.15,0,0,0,0,.18,12.44,12.44,0,0,0,4.22,8,8.14,8.14,0,0,0,6,1.81,11,11,0,0,0,3.63-1.1A23,23,0,0,1,12.24,25.75Z"/><path class="cls-1" d="M26.86,25.54l.38-.19Z"/><path class="cls-1" d="M27.54,25.17c.12-.08.24-.15.36-.24C27.78,25,27.66,25.09,27.54,25.17Z"/><path class="cls-1" d="M34.93,10.8A35.45,35.45,0,0,0,32.39.06h0l0,0h0a.12.12,0,0,0-.1,0l-2,1c-.06,0,0,.1,0,.13A38.22,38.22,0,0,1,31.7,5.44c.17.62.32,1.26.45,1.91a28.23,28.23,0,0,1,.56,6.38,27.52,27.52,0,0,1-.34,3.52c-.06.4-.14.78-.23,1.15,0,.12-.07.23-.1.36s-.13.47-.2.7l-.15.4c-.07.19-.14.39-.22.58l-.18.4c-.08.17-.16.34-.25.51l-.21.37-.27.46-.24.34-.3.41a3.88,3.88,0,0,1-.26.31,3.65,3.65,0,0,1-.31.36l-.28.29-.33.31-.29.25-.35.27c-.1.07-.2.15-.3.21s-.24.16-.36.24l-.3.18-.38.19-.3.14-.39.15-.3.11-.41.11-.28.08-.44.07-.24,0a5.83,5.83,0,0,1-.59,0h-.08c-.15,0-.29,0-.43,0h-.24A9.49,9.49,0,0,1,21.81,26a8.61,8.61,0,0,1-2.32-1,8.91,8.91,0,0,1-1-.7h0a10.2,10.2,0,0,1-1.22-1.12c-.19-.2-.36-.4-.53-.61s-.33-.44-.49-.68h0a.86.86,0,0,0-.07-.1,15.44,15.44,0,0,1-1.08-1.77,17.3,17.3,0,0,1-.89-2,16.47,16.47,0,0,1-1-4.1,11,11,0,0,1,.1-3.24,6.65,6.65,0,0,1,1.53-3.21,2.27,2.27,0,0,1,1.72-.87,2.48,2.48,0,0,1,1.75.88C19.62,9,20.2,10.92,19.94,13.9a15.8,15.8,0,0,1-1.56,5.3c.14.22.28.44.43.65l.07.1.36.51a5.91,5.91,0,0,0,.76.82,18.44,18.44,0,0,0,2.33-7.08C22.6,10.89,22,8,20.1,5.86a4.83,4.83,0,0,0-3.56-1.7A4.73,4.73,0,0,0,13,5.84,9.53,9.53,0,0,0,10.84,11a13,13,0,0,0,0,3.23A20.2,20.2,0,0,0,12,18.94a20.13,20.13,0,0,0,1.88,3.66q.38.58.81,1.14c.33.41.67.79,1,1.16s.71.72,1.08,1.06a11.32,11.32,0,0,0,6.05,2.67,8.72,8.72,0,0,0,1,.06,7.38,7.38,0,0,0,.82,0,9.18,9.18,0,0,0,5.21-2.28,13.31,13.31,0,0,0,2.3-2.67,15.76,15.76,0,0,0,2.17-5c.12-.48.21-1,.29-1.48.13-.9.22-1.78.26-2.64A29.24,29.24,0,0,0,34.93,10.8Z"/><path class="cls-1" d="M28.2,24.72l.35-.27Z"/><path class="cls-1" d="M23.91,26.27a5.83,5.83,0,0,0,.59,0A5.83,5.83,0,0,1,23.91,26.27Z"/><path class="cls-1" d="M26.17,25.83l.39-.15Z"/><path class="cls-1" d="M14.23,18a17.3,17.3,0,0,0,.89,2A17.3,17.3,0,0,1,14.23,18Z"/><path class="cls-1" d="M25.46,26.05l.41-.11Z"/><path class="cls-1" d="M24.74,26.2l.44-.07Z"/><path class="cls-1" d="M32.34,0h0Z"/><path class="cls-1" d="M23.83,26.28c-.15,0-.28,0-.43,0,.14,0,.28,0,.43,0Z"/><path class="cls-1" d="M32.15,7.35c-.13-.65-.28-1.29-.45-1.91C31.87,6.06,32,6.7,32.15,7.35Z"/><path class="cls-1" d="M34.93,10.8A35.45,35.45,0,0,0,32.39.06h0A35.45,35.45,0,0,1,34.93,10.8Z"/><path class="cls-1" d="M31.84,19.46c.07-.23.14-.47.2-.7C32,19,31.91,19.23,31.84,19.46Z"/><path class="cls-1" d="M32.71,13.73a27.52,27.52,0,0,1-.34,3.52c-.06.4-.14.78-.23,1.15.09-.37.17-.75.23-1.15A27.52,27.52,0,0,0,32.71,13.73Z"/><path class="cls-1" d="M29.17,23.89l-.33.31Z"/><path class="cls-1" d="M30,22.93l.3-.41Z"/><path class="cls-1" d="M29.45,23.6a3.65,3.65,0,0,0,.31-.36A3.65,3.65,0,0,1,29.45,23.6Z"/><path class="cls-1" d="M31.47,20.44c.08-.19.15-.39.22-.58C31.62,20.05,31.55,20.25,31.47,20.44Z"/><path class="cls-1" d="M30.56,22.18l.27-.46Z"/><path class="cls-1" d="M31,21.35c.09-.17.17-.34.25-.51C31.21,21,31.13,21.18,31,21.35Z"/><polygon class="cls-1" points="16.27 21.81 16.27 21.81 16.27 21.81 16.27 21.81"/></g></g></svg>