<svg xmlns="http://www.w3.org/2000/svg" viewBox="0 0 37.34 37.34"><defs><style>.cls-1{fill:#f0b90b;}</style></defs><title>Fichier 440</title><g id="Calque_2" data-name="Calque 2"><g id="Line"><path class="cls-1" d="M18.67,2.83l3.58,3.58,6.13,6.13L24.8,16.12,18.67,10l-6.13,6.14L9,12.54l6.13-6.13,3.58-3.58M30.94,15.09l3.57,3.58-3.57,3.58-3.58-3.58,3.58-3.58m-12.27,0,3.58,3.58-3.58,3.58-3.58-3.58,3.58-3.58m-12.26,0L10,18.67,6.41,22.25,2.83,18.67l3.58-3.58M24.8,21.23l3.58,3.57-6.13,6.14-3.58,3.57-3.58-3.57L9,24.8l3.58-3.57,6.13,6.13,6.13-6.13M18.67,0,17.26,1.41,13.68,5,7.55,11.12,6.41,12.27h0l-.14.13-.14.14L5,13.68,1.41,17.26,0,18.67l1.41,1.42L5,23.66,6.13,24.8h0l1.42,1.42,6.13,6.13,3.58,3.58,1.41,1.41,1.42-1.41,3.57-3.58,6.14-6.13,1.41-1.42,1.14-1.14,3.58-3.57,1.41-1.42-1.41-1.41-3.58-3.58-1.14-1.14h0l-.14-.14-.13-.13L29.8,11.12,23.66,5,20.09,1.41,18.67,0Z"/></g></g></svg>