<svg width="101" height="132" viewBox="0 0 101 132" fill="none" xmlns="http://www.w3.org/2000/svg">
<g clip-path="url(#clip0)">
<path d="M50.0464 0C22.5099 0 0 22.2914 0 50.0464C0 55.5099 0.874172 60.9735 2.62252 66.4371C3.71523 69.9338 7.86755 71.9007 11.5828 70.808C15.0795 69.7152 17.0464 65.5629 15.9536 61.8477C14.4238 57.6954 13.7682 53.3245 13.9868 48.9536C14.4238 30.3775 29.7219 14.8609 48.298 13.9868C69.0596 12.894 86.3245 29.5033 86.3245 50.0464C86.3245 69.2781 71.245 85.0133 52.2318 86.106C52.2318 86.106 45.2384 86.543 41.7417 86.9801C39.9934 87.1987 38.6821 87.4172 37.8079 87.6358C37.3709 87.8543 36.9338 87.4172 37.1523 86.9801L38.245 81.0795L44.8013 51.1391C45.6755 47.4238 43.2715 43.7086 39.5563 42.8344C35.8411 41.9603 32.1258 44.3642 31.2517 48.0795C31.2517 48.0795 15.5166 120.854 15.5166 121.728C14.6424 125.444 17.0464 129.159 20.7616 130.033C24.4768 130.907 28.1921 128.503 29.0662 124.788C29.2848 123.914 31.2517 114.298 31.2517 114.298C32.7815 106.868 38.9007 101.404 46.1126 100.53C47.6424 100.311 53.9801 99.8742 53.9801 99.8742C79.7682 98.1258 100.093 76.4901 100.093 50.0464C100.093 22.2914 77.5828 0 50.0464 0ZM53.7616 115.391C49.1722 114.517 44.8013 117.139 43.9272 121.947C43.053 126.536 45.6755 130.907 50.4834 131.781C55.0728 132.656 59.4437 130.033 60.3179 125.225C61.1921 120.636 58.351 116.265 53.7616 115.391Z" fill="black"/>
</g>
<defs>
<clipPath id="clip0">
<rect width="100.093" height="132" fill="white"/>
</clipPath>
</defs>
</svg>
