<svg width="150" height="150" viewBox="0 0 150 150" fill="none" xmlns="http://www.w3.org/2000/svg">
<path fill-rule="evenodd" clip-rule="evenodd" d="M56.0793 33H57.2838H77.044H79.2505L80.7377 34.63L90.7757 45.6324L131.606 57.2933L148.683 62.1705L131.57 66.9191L100.072 75.6591L108.066 110.492L109.681 117.527L102.527 116.565L8.03438 103.862L1 102.916L4.25877 96.6105L15.1749 75.489L19.9908 58.7445L20.3783 57.3972L21.4098 56.4477L34.8804 44.0487L35.3823 43.5868L35.9896 43.2761L55.0069 33.5485L56.0793 33ZM58.4884 43L41.1508 51.8684L29.2137 62.8559L24.6488 78.7278L24.5122 79.2026L24.2854 79.6414L16.4012 94.8964L96.7048 105.693L89.2565 73.2374L88.1874 68.579L92.7929 67.3011L111.783 62.0318L86.6653 54.8583L85.301 54.4687L84.3447 53.4205L74.8375 43H58.4884Z" fill="#2E3E80"/>
</svg>
