<svg xmlns="http://www.w3.org/2000/svg" viewBox="0 0 41.5 38.08"><defs><style>.cls-1{fill:none;stroke:#0e00ff;stroke-miterlimit:10;stroke-width:2px;}</style></defs><title>reosc (2)</title><g id="Calque_2" data-name="Calque 2"><g id="Line"><g id="reosc"><path class="cls-1" d="M28,8.66a5.64,5.64,0,0,1-.19-1.49,6.35,6.35,0,0,1,12.7,0A6.37,6.37,0,0,1,28,8.66"/><line class="cls-1" x1="26.87" y1="7.06" x2="11.35" y2="7.06"/><path class="cls-1" d="M40.27,14.27a6.2,6.2,0,0,1-12.4-.21"/><path class="cls-1" d="M40.39,20.88A6.19,6.19,0,0,1,28,20.67"/><path class="cls-1" d="M5.32,13.12a6.08,6.08,0,0,1,6.07-6.06"/><path class="cls-1" d="M34.67,31.25a6,6,0,0,1-6.19,5.83"/><line class="cls-1" x1="34.64" y1="27.38" x2="34.67" y2="31.57"/><line class="cls-1" x1="11.94" y1="36.95" x2="28.67" y2="37.07"/><line class="cls-1" x1="5.4" y1="31.07" x2="5.39" y2="23.2"/><line class="cls-1" y1="22.06" x2="16.72" y2="22.06"/><line class="cls-1" y1="14.18" x2="16.72" y2="14.18"/><path class="cls-1" d="M12.23,37c-3.79,0-6.86-2.69-6.84-6"/><path class="cls-1" d="M16.15,14.18a4.21,4.21,0,0,1,4.51,3.87,4.21,4.21,0,0,1-4.37,4"/><line class="cls-1" x1="14.55" y1="21.91" x2="25.91" y2="37.2"/></g></g></g></svg>