<svg xmlns="http://www.w3.org/2000/svg" viewBox="0 0 24.38 33.61"><defs><style>.cls-1,.cls-3,.cls-4{fill:none;}.cls-1,.cls-2,.cls-3,.cls-4{stroke:#497a0a;stroke-miterlimit:10;stroke-width:1.8px;}.cls-2{fill:#fff;}.cls-3,.cls-4{stroke-linecap:round;}.cls-4{fill-rule:evenodd;}</style></defs><title>Rootstock</title><g id="Calque_2" data-name="Calque 2"><g id="Line"><g id="Rootstock"><path class="cls-1" d="M9.11,16.16,3.67,19.3a.65.65,0,0,0,0,1.12l5.51,2.87,5.38-2.82a.65.65,0,0,0,0-1.11l-5.45-3.2V13.23s4-2.78,4-5.38c0-3.71-3.92-6.67-3.92-6.67S5.15,5,5.51,7.8s3.6,5.43,3.6,5.43"/><path class="cls-1" d="M9.11,23.63,3.67,26.77a.65.65,0,0,0,0,1.12l5.51,2.87L14.55,28a.65.65,0,0,0,0-1.12l-5.45-3.2"/><line class="cls-1" x1="9.11" y1="17.64" x2="9.11" y2="22.06"/><line class="cls-1" x1="9.11" y1="25.15" x2="9.11" y2="29.57"/><line class="cls-1" x1="15.55" y1="21.43" x2="15.55" y2="25.84"/><line class="cls-1" x1="2.71" y1="21.43" x2="2.71" y2="25.84"/><line class="cls-1" x1="9.16" y1="8.05" x2="9.16" y2="13.31"/><circle class="cls-1" cx="2.45" cy="19.85" r="1.23"/><circle class="cls-2" cx="15.55" cy="27.2" r="1.55"/><circle class="cls-2" cx="9.11" cy="31.16" r="1.55"/><circle class="cls-1" cx="15.55" cy="19.85" r="1.23"/><circle class="cls-1" cx="9.18" cy="16.37" r="1.23"/><circle class="cls-1" cx="9.11" cy="23.47" r="1.23"/><line class="cls-3" x1="16.87" y1="19" x2="18.96" y2="17.55"/><path class="cls-4" d="M18.7,17.86s-.12-1.95,1.14-2.66,3.44,0,3.44,0-.73,2.58-1.69,3.12S18.7,17.86,18.7,17.86Z"/><circle class="cls-2" cx="2.71" cy="27.2" r="1.55"/><circle class="cls-2" cx="9.11" cy="23.47" r="1.55"/><circle class="cls-2" cx="2.45" cy="19.85" r="1.55"/><circle class="cls-2" cx="9.18" cy="16.37" r="1.55"/><circle class="cls-2" cx="15.55" cy="19.85" r="1.55"/></g></g></g></svg>