<svg xmlns="http://www.w3.org/2000/svg" viewBox="0 0 35.59 34.01"><defs><style>.cls-1{fill:none;stroke:#3cc3db;stroke-linecap:round;stroke-linejoin:round;stroke-width:1.59px;}</style></defs><title>MIX</title><g id="Calque_2" data-name="Calque 2"><g id="Line"><g id="MIX"><rect class="cls-1" x="4.85" y="21.04" width="5.93" height="5.93" transform="translate(-16.88 18.76) rotate(-59.97)"/><polygon class="cls-1" points="14.83 28.06 17.79 22.93 11.86 22.93 8.9 28.06 14.83 28.06"/><polygon class="cls-1" points="6.73 19.96 3.77 14.82 0.8 19.95 3.76 25.09 6.73 19.96"/><polygon class="cls-1" points="3.77 8.89 0.8 14.03 0.8 19.95 3.77 14.82 3.77 8.89"/><rect class="cls-1" x="24.82" y="7.03" width="5.93" height="5.93" transform="matrix(0.5, -0.87, 0.87, 0.5, 5.22, 29.05)"/><polygon class="cls-1" points="20.77 5.94 17.8 11.08 23.73 11.08 26.7 5.95 20.77 5.94"/><polygon class="cls-1" points="28.87 14.05 31.83 19.19 34.8 14.05 31.83 8.91 28.87 14.05"/><polygon class="cls-1" points="31.83 25.12 34.79 19.98 34.8 14.05 31.83 19.19 31.83 25.12"/><rect class="cls-1" x="13.75" y="1.88" width="5.93" height="5.93" transform="translate(-0.19 9) rotate(-29.98)"/><polygon class="cls-1" points="9.7 8.9 12.66 14.04 15.63 8.9 12.67 3.76 9.7 8.9"/><polygon class="cls-1" points="20.77 5.94 26.7 5.94 23.73 0.8 17.8 0.8 20.77 5.94"/><polygon class="cls-1" points="12.66 14.04 17.8 11.07 20.77 5.94 15.63 8.9 12.66 14.04"/><polygon class="cls-1" points="31.83 8.91 28.87 3.77 23.73 0.8 26.7 5.94 31.83 8.91"/><rect class="cls-1" x="15.91" y="26.19" width="5.93" height="5.93" transform="translate(-12.04 13.33) rotate(-29.98)"/><polygon class="cls-1" points="25.89 25.11 22.93 19.97 19.96 25.11 22.93 30.24 25.89 25.11"/><polygon class="cls-1" points="14.83 28.07 8.89 28.07 11.86 33.2 17.79 33.21 14.83 28.07"/><polygon class="cls-1" points="22.93 19.97 17.79 22.93 14.83 28.07 19.96 25.11 22.93 19.97"/><polygon class="cls-1" points="3.76 25.1 6.72 30.24 11.86 33.2 8.89 28.07 3.76 25.1"/><polygon class="cls-1" points="17.8 11.08 22.93 14.05 28.86 14.05 23.73 11.08 17.8 11.08"/><rect class="cls-1" x="25.9" y="19.18" width="5.93" height="5.93"/><polygon class="cls-1" points="28.86 14.04 22.93 14.04 25.9 19.18 31.83 19.18 28.86 14.04"/><polygon class="cls-1" points="25.89 25.11 22.93 30.24 28.86 30.25 31.83 25.11 25.89 25.11"/><polygon class="cls-1" points="22.93 14.04 22.93 19.97 25.89 25.11 25.9 19.18 22.93 14.04"/><polygon class="cls-1" points="17.79 33.21 23.72 33.21 28.86 30.25 22.93 30.24 17.79 33.21"/><polygon class="cls-1" points="17.79 22.93 12.66 19.96 6.73 19.96 11.86 22.93 17.79 22.93"/><rect class="cls-1" x="3.77" y="8.9" width="5.93" height="5.93"/><polygon class="cls-1" points="6.73 19.96 12.66 19.97 9.7 14.83 3.77 14.83 6.73 19.96"/><polygon class="cls-1" points="9.7 8.9 12.67 3.76 6.74 3.76 3.77 8.89 9.7 8.9"/><polygon class="cls-1" points="12.66 19.97 12.66 14.04 9.7 8.9 9.7 14.83 12.66 19.97"/><polygon class="cls-1" points="17.8 0.8 11.87 0.8 6.74 3.76 12.67 3.76 17.8 0.8"/></g></g></g></svg>