<svg width="146" height="146" viewBox="0 0 146 146" fill="none" xmlns="http://www.w3.org/2000/svg">
<path fill-rule="evenodd" clip-rule="evenodd" d="M43.4407 48.3347C40.6725 53.7331 38.9236 59.5039 38.2425 65.4874C38.0167 67.4762 39.451 69.2784 41.4415 69.5054C41.5815 69.5206 41.7207 69.5287 41.8559 69.5287C41.895 69.5287 41.9337 69.5278 41.9721 69.5266C43.7568 69.4685 45.2548 68.0849 45.4571 66.3079C46.0378 61.1983 47.5332 56.2656 49.9012 51.6469C55.1005 41.5027 63.9562 33.9847 74.8367 30.4783C85.7174 26.9718 97.2954 27.905 107.438 33.1049C109.352 34.0857 111.201 35.2143 112.935 36.4606C114.561 37.6262 116.834 37.2537 118.001 35.63C119.168 34.0041 118.796 31.7314 117.171 30.5635C115.143 29.1072 112.983 27.7888 110.751 26.6447C86.2144 14.0669 56.0188 23.7976 43.4407 48.3347Z" fill="#0E726B"/>
<mask id="mask0" mask-type="alpha" maskUnits="userSpaceOnUse" x="24" y="7" width="66" height="102">
<path d="M24.4027 7.90666H89.0925V108.013H24.4027V7.90666Z" fill="#0E726B"/>
</mask>
<g mask="url(#mask0)">
<path fill-rule="evenodd" clip-rule="evenodd" d="M35.9522 105.854C36.9223 107.214 38.4796 108.013 40.1451 108.013C40.2014 108.013 40.2578 108.012 40.3144 108.01C41.3274 107.977 42.3016 107.647 43.1323 107.055C45.4428 105.406 45.9815 102.185 44.333 99.8755C34.3353 85.8601 31.9539 67.8771 37.9627 51.7717C45.2357 32.2718 63.3719 19.093 84.1663 18.1962C87.0021 18.0741 89.2099 15.6676 89.0877 12.8318C88.9668 10.0258 86.5865 7.82553 83.7766 7.90895L83.7233 7.91104C58.7878 8.986 37.0394 24.7902 28.3169 48.1734C21.1118 67.488 23.9661 89.0511 35.9522 105.854Z" fill="#0E726B"/>
</g>
<mask id="mask1" mask-type="alpha" maskUnits="userSpaceOnUse" x="13" y="33" width="68" height="108">
<path d="M13.6086 33.1248H80.2234V140.942H13.6086V33.1248Z" fill="#0E726B"/>
</mask>
<g mask="url(#mask1)">
<path fill-rule="evenodd" clip-rule="evenodd" d="M76.9554 133.543C49.4898 130.58 27.4419 110.003 22.0918 82.3406C19.2021 67.4016 21.6458 51.8885 28.9736 38.6588C29.9571 36.8828 29.3368 34.6181 27.5909 33.6105C26.7459 33.1228 25.7639 32.997 24.8278 33.2574C23.88 33.5205 23.0929 34.1444 22.6111 35.0144C14.4324 49.7803 11.7041 67.0936 14.929 83.7642C20.9006 114.642 45.5203 137.612 76.1926 140.922C76.319 140.936 76.4474 140.942 76.5761 140.942C76.6169 140.942 76.6577 140.942 76.6985 140.94C78.5091 140.881 80.0161 139.454 80.2035 137.621C80.4127 135.588 78.9554 133.76 76.9554 133.543Z" fill="#0E726B"/>
</g>
<path fill-rule="evenodd" clip-rule="evenodd" d="M103.989 121.786C99.0477 123.195 93.9913 123.932 88.9582 123.975C75.9612 124.142 63.6417 120.046 53.3535 112.138C52.586 111.547 51.6338 111.289 50.673 111.414C49.7103 111.539 48.8543 112.033 48.2623 112.804C47.0432 114.39 47.342 116.674 48.9288 117.893C60.3006 126.635 73.8628 131.24 88.2053 131.24C88.4866 131.24 88.7699 131.239 89.0518 131.235C89.4841 131.229 89.9149 131.219 90.346 131.205H90.3463C95.6556 131.033 100.916 130.213 105.981 128.768C107.906 128.219 109.025 126.206 108.476 124.281C107.93 122.364 105.918 121.245 103.989 121.786Z" fill="#0E726B"/>
<path fill-rule="evenodd" clip-rule="evenodd" d="M121.267 108.018C120.484 106.643 118.729 106.159 117.352 106.939C109.833 111.207 99.6381 113.764 88.6447 114.139C87.0057 114.195 85.7585 115.338 85.679 116.858C85.6072 118.233 86.5248 119.469 87.8608 119.796H87.8611C88.033 119.838 88.2121 119.865 88.3971 119.875C89.0773 119.911 89.7721 119.928 90.4797 119.928C99.9134 119.928 111.57 116.826 120.187 111.934C120.854 111.556 121.334 110.94 121.538 110.2C121.742 109.461 121.645 108.686 121.267 108.018Z" fill="#0E726B"/>
</svg>
