<svg xmlns="http://www.w3.org/2000/svg" viewBox="0 0 24.1 29.77"><defs><style>.cls-1{fill:none;stroke:#5157d8;stroke-linejoin:round;stroke-width:2px;}</style></defs><title>FIC</title><g id="Calque_2" data-name="Calque 2"><g id="Line"><path id="FIC" class="cls-1" d="M22.38,1H1.72A.72.72,0,0,0,1,1.72V28a.73.73,0,0,0,.72.73H8.5A.73.73,0,0,0,9.23,28V21.16a.72.72,0,0,1,.72-.72h9.18a.72.72,0,0,0,.72-.72v-5.5a.72.72,0,0,0-.72-.72H9.26l0,.05V8.66A.72.72,0,0,1,10,7.94h9.44A.72.72,0,0,0,20,7.56l3-5.49A.72.72,0,0,0,22.38,1Z"/></g></g></svg>