<svg xmlns="http://www.w3.org/2000/svg" viewBox="0 0 32.49 31.18"><defs><style>.cls-1{fill:#075651;}</style></defs><title>IOta</title><g id="Calque_2" data-name="Calque 2"><g id="Line"><g id="IOta"><circle class="cls-1" cx="23.54" cy="1.86" r="1.86"/><circle class="cls-1" cx="24.07" cy="6.81" r="1.62"/><circle class="cls-1" cx="28.26" cy="7.42" r="1.62"/><circle class="cls-1" cx="23.62" cy="11.03" r="1.39"/><path class="cls-1" d="M29.14,11.62a1.4,1.4,0,1,1-2.79,0,1.4,1.4,0,0,1,2.79,0Z"/><circle class="cls-1" cx="31.09" cy="12.91" r="1.39"/><circle class="cls-1" cx="22.31" cy="14.41" r="1.18"/><circle class="cls-1" cx="26.52" cy="15.01" r="1.18"/><circle class="cls-1" cx="29.85" cy="16.29" r="1.18"/><circle class="cls-1" cx="20.67" cy="16.96" r="1.02"/><path class="cls-1" d="M25.84,17.56a1,1,0,1,1-2,0,1,1,0,0,1,2,0Z"/><circle class="cls-1" cx="28.21" cy="18.81" r="1.01"/><circle class="cls-1" cx="18.77" cy="18.76" r="0.9"/><circle class="cls-1" cx="22.98" cy="19.39" r="0.9"/><path class="cls-1" d="M27.24,20.66a.9.9,0,1,1-.9-.9A.9.9,0,0,1,27.24,20.66Z"/><circle class="cls-1" cx="21.08" cy="20.5" r="0.75"/><path class="cls-1" d="M25.18,21.8a.75.75,0,1,1-.75-.75A.76.76,0,0,1,25.18,21.8Z"/><circle class="cls-1" cx="22.65" cy="22.37" r="0.66"/><circle class="cls-1" cx="1.87" cy="16.95" r="1.86"/><circle class="cls-1" cx="5.87" cy="13.99" r="1.62"/><circle class="cls-1" cx="4.27" cy="10.07" r="1.62"/><circle class="cls-1" cx="9.73" cy="12.24" r="1.39"/><circle class="cls-1" cx="8.15" cy="8.39" r="1.39"/><circle class="cls-1" cx="7.57" cy="4.85" r="1.39"/><circle class="cls-1" cx="13.31" cy="11.66" r="1.18"/><circle class="cls-1" cx="11.69" cy="7.73" r="1.18"/><circle class="cls-1" cx="11.11" cy="4.2" r="1.18"/><circle class="cls-1" cx="16.33" cy="11.78" r="1.02"/><circle class="cls-1" cx="14.75" cy="7.9" r="1.01"/><circle class="cls-1" cx="14.12" cy="4.35" r="1.01"/><circle class="cls-1" cx="18.86" cy="12.51" r="0.9"/><circle class="cls-1" cx="17.27" cy="8.56" r="0.9"/><circle class="cls-1" cx="16.66" cy="5.02" r="0.9"/><circle class="cls-1" cx="19.18" cy="9.64" r="0.75"/><circle class="cls-1" cx="18.61" cy="6.09" r="0.75"/><circle class="cls-1" cx="20" cy="7.33" r="0.66"/><circle class="cls-1" cx="25.76" cy="28.22" r="1.86"/><circle class="cls-1" cx="21.2" cy="26.23" r="1.62"/><circle class="cls-1" cx="18.6" cy="29.57" r="1.62"/><circle class="cls-1" cx="17.77" cy="23.75" r="1.39"/><circle class="cls-1" cx="15.21" cy="27.04" r="1.39"/><circle class="cls-1" cx="12.43" cy="29.31" r="1.39"/><circle class="cls-1" cx="15.47" cy="20.94" r="1.18"/><circle class="cls-1" cx="12.87" cy="24.3" r="1.18"/><circle class="cls-1" cx="10.11" cy="26.56" r="1.18"/><circle class="cls-1" cx="14.07" cy="18.25" r="1.02"/><circle class="cls-1" cx="11.49" cy="21.56" r="1.01"/><circle class="cls-1" cx="8.73" cy="23.88" r="1.01"/><circle class="cls-1" cx="13.44" cy="15.7" r="0.9"/><circle class="cls-1" cx="10.82" cy="19.05" r="0.9"/><circle class="cls-1" cx="8.05" cy="21.34" r="0.9"/><circle class="cls-1" cx="10.8" cy="16.85" r="0.75"/><circle class="cls-1" cx="8.01" cy="19.12" r="0.75"/><circle class="cls-1" cx="8.39" cy="17.3" r="0.66"/></g></g></g></svg>