<?xml version="1.0" encoding="utf-8"?>
<!-- Generator: Adobe Illustrator 25.2.1, SVG Export Plug-In . SVG Version: 6.00 Build 0)  -->
<svg version="1.1" id="Calque_1" xmlns="http://www.w3.org/2000/svg" xmlns:xlink="http://www.w3.org/1999/xlink" x="0px" y="0px"
	 viewBox="0 0 113 113" style="enable-background:new 0 0 113 113;" xml:space="preserve">
<style type="text/css">
	.st0{fill:#8875AD;}
</style>
<path class="st0" d="M21.5,55.7"/>
<g>
	<path class="st0" d="M94.1,90.3L65.4,20.5c-1.5-3.5-4.9-5.8-8.7-5.8c0,0,0,0,0,0c-3.8,0-7.2,2.3-8.7,5.8L35.6,50.3H25.6
		c-2.9,0-5.2,2.3-5.2,5.2c0,2.9,2.3,5.2,5.2,5.2h5.7L19,90.3c-1.1,2.7,0.2,5.7,2.8,6.8c2.7,1.1,5.7-0.2,6.8-2.8l14-33.6h9.1
		c2.9,0,5.2-2.3,5.2-5.2c0-2.9-2.3-5.2-5.2-5.2h-4.8l9.8-23.6l27.7,67.6c0.8,2,2.8,3.2,4.8,3.2c0.7,0,1.3-0.1,2-0.4
		C93.9,96,95.2,93,94.1,90.3z"/>
</g>
</svg>
