<?xml version="1.0" encoding="utf-8"?>
<!-- Generator: Adobe Illustrator 23.0.4, SVG Export Plug-In . SVG Version: 6.00 Build 0)  -->
<svg version="1.1" id="Calque_1" xmlns="http://www.w3.org/2000/svg" xmlns:xlink="http://www.w3.org/1999/xlink" x="0px" y="0px"
	 viewBox="0 0 240 240" style="enable-background:new 0 0 240 240;" xml:space="preserve">
<style type="text/css">
	.st0{fill-rule:evenodd;clip-rule:evenodd;fill:#3EB59C;}
	.st1{fill:#50B797;}
	.st2{fill:#343434;}
	.st3{fill:#044B6A;}
	.st4{fill:#020203;}
	.st5{fill:#077997;}
</style>
<g id="airswap">
	<path class="st4" d="M180,179.7L119.7,240l-30.2-30.2C122.4,208.5,153.3,197.5,180,179.7z"/>
	<path class="st4" d="M237.6,117.9l-7.5-7.5L119.7,0L9.9,110.4l-9.6,8.9l3.4,2.7c4.1,3.4,7.5,6.2,11.7,8.9
		c30.2,21.3,65.1,32.2,102.2,32.9c36.3,0.7,72-10.3,102.9-30.2c4.1-2.7,8.2-6.2,12.3-9.6c4.1-3.4,4.1-3.4,6.9-5.5L237.6,117.9z
		 M149.1,145.4c-32.9-19.9-70.6-30.9-109-30.9c50.1-21.9,111.8-24.7,168.7,7.5C190.3,133.7,170.4,141.3,149.1,145.4z"/>
</g>
</svg>
