<svg xmlns="http://www.w3.org/2000/svg" viewBox="0 0 30 28.67"><title>DEXON</title><g id="Calque_2" data-name="Calque 2"><g id="Back"><path d="M18.36,5.82,15,0,11.64,5.82,8.28,0,0,14.34,8.28,28.67l3.36-5.82L15,28.67l3.36-5.82,3.36,5.82L30,14.34,21.72,0ZM15,5.38l1.81,3.13L15,11.65,13.19,8.51ZM8.28,23.29,3.11,14.34l5.17-9,1.81,3.13L6.72,14.34l3.37,5.82Zm1.55-8.95,1.81-3.14,1.81,3.14-1.81,3.13Zm5.17,9-1.81-3.13L15,17l1.81,3.14Zm1.55-8.95,1.81-3.14,1.81,3.14-1.81,3.13Zm5.17,9-1.81-3.13,3.37-5.82L19.91,8.51l1.81-3.13,5.17,9Z"/></g></g></svg>