<?xml version="1.0" encoding="utf-8"?>
<svg xmlns="http://www.w3.org/2000/svg" viewBox="0 0 34 29.85"><defs><style>.ad7cd58c-3121-4997-9514-896f448a4334{fill:none;stroke:#ac0065;stroke-miterlimit:10;stroke-width:2px;}</style></defs><title>bat</title><g id="afd9ee11-d373-425f-8b46-19b19e634f6b" data-name="Calque 2"><g id="b3fd4e78-7ba5-47a7-975e-5aea209785de" data-name="Back"><g id="b5e237fb-4fa8-4b11-9d6c-46f5859b66c9" data-name="bat"><polygon class="ad7cd58c-3121-4997-9514-896f448a4334" points="23.57 23.06 17 11.7 10.43 23.06 23.57 23.06"/><path class="ad7cd58c-3121-4997-9514-896f448a4334" d="M1.1,28.48h0a.75.75,0,0,1,0-.74L16.36,1.37A.75.75,0,0,1,17,1a.74.74,0,0,1,.64.37L32.9,27.74a.75.75,0,0,1,0,.74h0a.73.73,0,0,1-.63.36H1.74A.76.76,0,0,1,1.1,28.48Z"/><line class="ad7cd58c-3121-4997-9514-896f448a4334" x1="10.43" y1="23.06" x2="1.1" y2="28.48"/><line class="ad7cd58c-3121-4997-9514-896f448a4334" x1="23.57" y1="23.06" x2="32.9" y2="28.48"/><line class="ad7cd58c-3121-4997-9514-896f448a4334" x1="17" y1="11.7" x2="17" y2="1"/></g></g></g></svg>