<?xml version="1.0" encoding="UTF-8"?>
<svg width="35px" height="41px" viewBox="0 0 35 41" version="1.1" xmlns="http://www.w3.org/2000/svg" xmlns:xlink="http://www.w3.org/1999/xlink">
    <!-- Generator: Sketch 59.1 (86144) - https://sketch.com -->
    <title>Group 11</title>
    <desc>Created with Sketch.</desc>
    <g id="Page-1" stroke="none" stroke-width="1" fill="none" fill-rule="evenodd">
        <g id="ThirdPartyWallet-Copy-3" transform="translate(-544.000000, -4515.000000)" fill="#F0B90B">
            <g id="Stacked-Group-3" transform="translate(175.000000, 4359.000000)">
                <g transform="translate(0.000000, 129.000000)" id="Padding-Group-10">
                    <g transform="translate(232.000000, 0.000000)">
                        <g id="Stacked-Group-9" transform="translate(86.000000, 27.000000)">
                            <g id="Group-11" transform="translate(51.000000, 0.000000)">
                                <polygon id="Fill-1" points="0 30.6848244 11 37 11 32.3316582 4.05800415 28.3335659 4.04490086 20.3336531 4.04490086 20.3346887 0 18"></polygon>
                                <polygon id="Fill-2" points="0 10.2468043 0 14.7472037 3.99926864 17 3.99926864 12.4982024 8 10.2468043 3.99926864 8"></polygon>
                                <polygon id="Fill-3" points="13 10.4974468 17.0032389 8 21 10.4974468 16.9994776 13"></polygon>
                                <polygon id="Fill-4" points="7 26.6659074 7 22 11 24.3328502 11 29"></polygon>
                                <polygon id="Fill-5" points="16.9994776 36.3342306 13 34 13 38.6659765 16.9994776 41 21 38.6659765 21 34"></polygon>
                                <polygon id="Fill-6" points="27 10.2468043 27 10.2478029 30.9992686 12.497004 30.9992686 17 35 14.7498003 35 10.2468043 30.9992686 8"></polygon>
                                <polygon id="Fill-7" points="30.9522216 20.3347431 30.9471458 28.3353754 30.9471458 28.3341327 24 32.3319635 24 37 35 30.6852375 35 18"></polygon>
                                <polygon id="Fill-8" points="28 26.6659074 24 29 24 24.3316078 28 22 28 26.6671498"></polygon>
                                <polygon id="Fill-9" points="27.992729 14.2960603 28 18.8869588 21.365636 22.8171264 21.365636 30.7051618 17.499899 33 13.6331522 30.703736 13.6331522 22.8171264 7 18.8869588 7 14.2948382 10.8667468 12 17.4889925 15.9352595 24.1284059 12 27.9939409 14.2960603"></polygon>
                                <polygon id="Fill-10" points="17.4921209 0 7.00262636 6.57762595 7 6.57633597 10.8680276 9 17.4921209 4.84603808 24.1331845 9 28 6.57762595"></polygon>
                            </g>
                        </g>
                    </g>
                </g>
            </g>
        </g>
    </g>
</svg>