<svg xmlns="http://www.w3.org/2000/svg" viewBox="0 0 29.06 29.16"><defs><style>.cls-1{fill:none;stroke:#3b3be2;stroke-linejoin:bevel;stroke-width:2px;}</style></defs><title>HPB (2)</title><g id="Calque_2" data-name="Calque 2"><g id="Line"><g id="HPB"><path class="cls-1" d="M28.06,14.38a7.39,7.39,0,0,1-.38,1.73L25.1,22.78A7.33,7.33,0,0,1,24,24.56a4.16,4.16,0,0,1-.41.47,6.16,6.16,0,0,1-.55.51l-.06.05-.08,0a6.76,6.76,0,0,1-2.91.25A6.61,6.61,0,0,1,17.2,24.8a7.1,7.1,0,0,1-1.55-1.41,9,9,0,0,1-1.57-2.84,6.6,6.6,0,0,1-.35-2.65A6.54,6.54,0,0,1,14,16.53c.06-.22.17-.54.2-.62a.54.54,0,0,1,.23-.22.47.47,0,0,1,.4,0,.63.63,0,0,1,.26.23,6.64,6.64,0,0,0,1.27,1.27,7.22,7.22,0,0,0,3.85,1.46,6.75,6.75,0,0,0,.81,0c.33,0,.57,0,.86,0a7.63,7.63,0,0,0,3.62-1.3,6.51,6.51,0,0,0,1.14-1,7.81,7.81,0,0,0,1.11-1.49l.09-.17c.1-.19.1-.33.18-.35S28.05,14.38,28.06,14.38Z"/><path class="cls-1" d="M11.69,28.15h-.11a7,7,0,0,1-2-.45l-.09,0,0,0a7.2,7.2,0,0,1-2.18-5.48,8,8,0,0,1,1.07-3.61,8.19,8.19,0,0,1,1.29-1.74,7.1,7.1,0,0,1,1-.84,6.3,6.3,0,0,1,2.21-1,1.32,1.32,0,0,1,.4-.06h.14a.5.5,0,0,1,.35.48.68.68,0,0,1-.09.34c-.06.16-.13.38-.18.56a7.36,7.36,0,0,0-.18,3.2,8.57,8.57,0,0,0,1,2.84A8,8,0,0,0,18,25.86a7.39,7.39,0,0,0,2.58.62,6.54,6.54,0,0,0,1,0h.16l0,0a2.54,2.54,0,0,1-.29.13,6.57,6.57,0,0,1-1.6.49l-6.81,1-.4,0A6.07,6.07,0,0,1,11.69,28.15Z"/><path class="cls-1" d="M1.06,14.39s0-.09,0-.19A7.45,7.45,0,0,1,1.41,13L3.29,8.12C3.66,7.17,4,6.34,4,6.28L4.13,6a7.21,7.21,0,0,1,1.63-2.2l.29-.25a3.45,3.45,0,0,1,.46-.14,6.77,6.77,0,0,1,2.58-.14,6.85,6.85,0,0,1,1.23.29,6.78,6.78,0,0,1,1.59.8A7.94,7.94,0,0,1,14.4,7.23c.09.17.25.51.32.67A7.4,7.4,0,0,1,15.3,10a6.2,6.2,0,0,1,0,1.36A6.81,6.81,0,0,1,15,13.1a.55.55,0,0,1-.23.32.42.42,0,0,1-.28.08.32.32,0,0,1-.21-.06c-.07,0-.11-.07-.2-.19a7.69,7.69,0,0,0-1-1.05,7.26,7.26,0,0,0-4.19-1.71,10.58,10.58,0,0,0-1.38,0A7.62,7.62,0,0,0,3.3,12a7.14,7.14,0,0,0-.78.7,7.21,7.21,0,0,0-.53.61,7.93,7.93,0,0,0-.91,1.49L1,15v0Z"/><path class="cls-1" d="M17.42,1a7,7,0,0,1,2,.45l.12,0,.09.1A7.16,7.16,0,0,1,21.78,6.2c0,.25,0,.71,0,.93a7.54,7.54,0,0,1-.42,2.07,9,9,0,0,1-1.51,2.69,7.09,7.09,0,0,1-.85.88,6.45,6.45,0,0,1-1.86,1.12,6,6,0,0,1-1.16.33l-.19,0-.11,0a.49.49,0,0,1-.35-.48.69.69,0,0,1,.06-.27,9,9,0,0,0,.29-.92,7.35,7.35,0,0,0,0-3.3,8.3,8.3,0,0,0-.65-1.89,9.48,9.48,0,0,0-1.14-1.84,7.75,7.75,0,0,0-1-1.09A7.1,7.1,0,0,0,10.24,3,7.24,7.24,0,0,0,7.5,2.69c-.06,0-.08,0-.07,0h0l.06,0a7.31,7.31,0,0,1,1.75-.57,33.9,33.9,0,0,1,6.85-1Z"/><path class="cls-1" d="M21,2.31c.14.1.33.25.49.39a4.37,4.37,0,0,1,.46.43c.18.19.27.29.41.46s4,5.21,4.24,5.55A7.39,7.39,0,0,1,28,12.41c0,.12,0,.09,0,.29a7.15,7.15,0,0,1-2.44,3.89,6.69,6.69,0,0,1-2.08,1.14,7.4,7.4,0,0,1-2,.38c-.15,0-.83,0-1,0A7.58,7.58,0,0,1,19,17.88a6.49,6.49,0,0,1-2.61-1.37,7.77,7.77,0,0,1-.8-.83.5.5,0,0,1-.1-.16.52.52,0,0,1,.22-.66.67.67,0,0,1,.24-.06,7,7,0,0,0,2.52-.93,8.16,8.16,0,0,0,2.82-3.07A9.16,9.16,0,0,0,22,8.87a7.82,7.82,0,0,0,0-4.21,7.94,7.94,0,0,0-1-2.29C20.92,2.24,20.92,2.23,21,2.31Z"/><path class="cls-1" d="M8.52,11a8.54,8.54,0,0,1,1,.11,6.41,6.41,0,0,1,4,2.31.71.71,0,0,1,.13.19.38.38,0,0,1,0,.19.43.43,0,0,1-.05.23.48.48,0,0,1-.39.28,6.79,6.79,0,0,0-3.4,1.53,7.44,7.44,0,0,0-.61.56,6.86,6.86,0,0,0-.62.73A9.44,9.44,0,0,0,7,20.4,8.33,8.33,0,0,0,6.74,22c0,.14,0,.72,0,.86A8.44,8.44,0,0,0,7,24.26,7.64,7.64,0,0,0,8,26.74c0,.05.07.1.07.11v0l-.27-.19a7.36,7.36,0,0,1-1.16-1.14L2.42,20A7.52,7.52,0,0,1,1.1,17a3.05,3.05,0,0,1-.05-.35,4.1,4.1,0,0,1,.1-.43,7.1,7.1,0,0,1,2.69-3.89,7.07,7.07,0,0,1,2.92-1.18,7.19,7.19,0,0,1,.92-.1Z"/></g></g></g></svg>