<?xml version="1.0" encoding="utf-8"?><svg width="24" height="24" viewBox="0 0 24 24" fill="none" xmlns="http://www.w3.org/2000/svg">
<path d="M0.081583 10.6052C0.081583 10.5827 0.081583 10.5603 0.0889996 10.5379C0.177998 10.4631 0.163165 10.3883 0.111249 10.2985C0.111249 10.2611 0.118666 10.2312 0.118666 10.1938C0.215081 10.149 0.207665 10.0592 0.215081 9.97694C0.244747 9.71517 0.30408 9.45341 0.363412 9.19165C0.511744 8.60081 0.689741 8.02493 0.927071 7.464C1.09765 7.06014 1.27565 6.65628 1.4759 6.25989C1.54265 6.13275 1.69839 6.03552 1.66131 5.85603C1.67614 5.83359 1.68356 5.81115 1.69839 5.7962C1.75773 5.80367 1.77256 5.77376 1.75031 5.72141L1.75773 5.71393C1.90606 5.63166 1.95797 5.48956 1.98764 5.33998C2.01731 5.2951 2.04697 5.25023 2.07664 5.20536C2.1508 5.19788 2.18789 5.16796 2.16564 5.09317C2.17305 5.08569 2.18047 5.07074 2.18047 5.06326C2.25464 5.06326 2.29172 5.03334 2.26205 4.95107L2.26947 4.94359C2.38813 4.89124 2.4623 4.80897 2.4623 4.67435C2.5068 4.61452 2.5513 4.55469 2.5958 4.50233C2.67738 4.51729 2.66996 4.45746 2.66996 4.40511C2.69221 4.38267 2.71446 4.35276 2.73671 4.33032C2.92954 4.23309 3.04079 4.06108 3.12979 3.8741C3.13721 3.86662 3.14462 3.85166 3.14462 3.84419C3.18912 3.85166 3.21137 3.82923 3.24104 3.80679C3.43387 3.61982 3.61928 3.42536 3.81211 3.23091C3.83436 3.20847 3.8492 3.18604 3.83436 3.14116C3.8492 3.1262 3.86403 3.11873 3.87145 3.10377C3.93078 3.1262 3.96786 3.10377 3.99753 3.06637C4.16811 2.90184 4.36094 2.76721 4.53894 2.61764C5.17676 2.09411 5.8665 1.66033 6.59333 1.2789C6.9419 1.09941 7.30532 0.949826 7.67614 0.807725C8.07664 0.650667 8.48455 0.48613 8.89988 0.396382C9.4042 0.276719 9.90111 0.149576 10.4203 0.104703C10.8134 0.0673078 11.2064 0.022434 11.5995 0.00747609C12.1483 -0.0149608 12.6897 0.0149551 13.2386 0.0673078C13.7948 0.12714 14.3362 0.246803 14.8776 0.351508C15.1891 0.41134 15.471 0.56092 15.7676 0.650667C16.0198 0.725457 16.2794 0.792767 16.5241 0.904952C16.8653 1.06201 17.199 1.23403 17.5328 1.40604C17.9852 1.63789 18.4227 1.89965 18.8307 2.21377C19.068 2.39327 19.3053 2.57276 19.5501 2.74478C19.7651 2.89436 19.9728 3.08133 20.0989 3.3057C20.2695 3.59738 20.2546 3.93393 20.0766 4.24805C19.8171 4.68931 19.1125 4.77906 18.7565 4.40511C18.6527 4.29292 18.5488 4.18822 18.4302 4.09847C17.9333 3.69461 17.4067 3.31318 16.8356 3.00654C16.2349 2.67747 15.6045 2.4157 14.9518 2.19881C14.2101 1.95949 13.4462 1.83234 12.6749 1.75755C12.2299 1.71268 11.7849 1.71268 11.3325 1.75007C10.8356 1.78747 10.3387 1.85478 9.8492 1.95201C9.33004 2.07167 8.79605 2.24369 8.27689 2.44562C7.5204 2.74478 6.80841 3.11873 6.14092 3.5899C5.27318 4.20318 4.50927 4.93611 3.86403 5.78872C3.44129 6.34216 3.08529 6.933 2.78121 7.55375C2.65513 7.81552 2.5513 8.08476 2.44747 8.34652C2.34363 8.61577 2.2398 8.88501 2.16564 9.16173C2.06922 9.51324 2.00247 9.87223 1.93572 10.2237C1.86156 10.6201 1.83189 11.024 1.77998 11.4204C1.72806 11.8168 1.74289 12.2057 1.77998 12.6021C1.80964 12.8937 1.81706 13.1929 1.87639 13.4771C1.93572 13.7613 1.98764 14.053 2.04697 14.3372C2.15822 14.8682 2.33622 15.3693 2.53647 15.8704C2.7738 16.4612 3.07046 17.0146 3.41904 17.5531C3.81953 18.1739 4.27194 18.7348 4.78368 19.2583C5.17676 19.6622 5.61434 20.0062 6.05933 20.3428C6.44499 20.627 6.86032 20.8738 7.28307 21.0982C7.70581 21.315 8.14339 21.4945 8.58838 21.6666C8.98888 21.8236 9.4042 21.9433 9.81953 22.0256C10.5167 22.1677 11.2287 22.205 11.9407 22.2275C12.3708 22.235 12.7862 22.1527 13.2163 22.1602C13.4388 22.1602 13.6465 22.1003 13.8541 22.0629C14.1211 22.0106 14.3881 21.9508 14.6551 21.8909C15.0556 21.7937 15.4265 21.6366 15.7973 21.4871C16.1384 21.3524 16.4499 21.158 16.7689 20.9785C17.0507 20.814 17.3473 20.6719 17.5921 20.4475C17.5995 20.4475 17.6143 20.44 17.6218 20.4325C17.6588 20.44 17.6885 20.4176 17.7108 20.3951C18.0445 20.1409 18.3931 19.9015 18.6972 19.6098C19.1273 19.206 19.6761 19.2209 20.0618 19.6472C20.3807 19.9988 20.3436 20.5522 19.9654 20.8962C19.9135 20.9411 19.8541 20.9785 19.8022 21.0234C19.4091 21.3824 18.9716 21.689 18.534 21.9956C18.2077 22.22 17.8591 22.4145 17.5179 22.6089C17.0433 22.8782 16.5464 23.095 16.0346 23.2745C15.5674 23.4391 15.1001 23.6036 14.6106 23.6934C14.1656 23.7682 13.7281 23.8654 13.2831 23.9252C12.5488 24.0224 11.8146 24.0299 11.0803 23.9776C10.7837 23.9551 10.487 23.9327 10.1904 23.8729C9.81211 23.7981 9.42645 23.7382 9.04821 23.641C8.7293 23.5587 8.41038 23.469 8.09889 23.3568C7.71323 23.2222 7.3424 23.0576 6.96415 22.8931C6.36341 22.6313 5.80717 22.2948 5.27318 21.9358C4.93202 21.689 4.6131 21.4347 4.29419 21.1655C3.87145 20.814 3.48579 20.4325 3.11496 20.0212C2.91471 19.7968 2.72188 19.5575 2.49197 19.363C2.51422 19.2882 2.45488 19.2509 2.42522 19.1985C2.23239 18.8246 1.92089 18.5404 1.72064 18.1664C1.34982 17.4559 0.978987 16.7529 0.719407 15.9975C0.548827 15.4964 0.393079 14.9953 0.28183 14.4718C0.259581 14.3746 0.274414 14.2549 0.177998 14.1726C0.177998 14.1502 0.170582 14.1278 0.170582 14.1053C0.222498 13.9782 0.200248 13.8735 0.103833 13.7763C0.103833 13.7389 0.0964161 13.7089 0.0964161 13.6715C0.133499 13.6566 0.133499 13.6192 0.133499 13.5818C0.111249 13.3126 0.081583 13.0433 0.0593333 12.7815C0.0593333 12.7516 0.0370836 12.7292 7.9209e-07 12.7292C7.9209e-07 12.6619 -0.00741577 12.5871 -0.00741577 12.5198C0.029667 12.5048 0.029667 12.4674 0.029667 12.43C0.029667 12.1309 0.029667 11.8317 0.029667 11.5251C0.029667 11.4877 0.029667 11.4578 -0.00741577 11.4353C-0.00741577 11.368 7.9209e-07 11.2932 7.9209e-07 11.2259C0.111249 11.039 0.118666 10.8221 0.081583 10.6052Z" fill="#142533"/>
<path d="M22.3016 5.4746C23.2509 5.4372 24.0297 6.22997 24 7.20224C23.9703 8.12963 23.288 8.86257 22.3165 8.86257C21.3301 8.86257 20.6477 8.12215 20.6181 7.19476C20.581 6.2898 21.382 5.42972 22.3016 5.4746ZM21.4561 7.16484C21.4561 7.63602 21.8344 8.01745 22.309 8.01745C22.754 8.01745 23.1471 7.62854 23.1545 7.19476C23.1619 6.64132 22.7689 6.31224 22.3387 6.30476C21.7899 6.29728 21.4413 6.71611 21.4561 7.16484Z" fill="#142533"/>
</svg>
