<?xml version="1.0" encoding="utf-8"?><svg xmlns="http://www.w3.org/2000/svg" xmlns:xlink="http://www.w3.org/1999/xlink" viewBox="0 0 36.083 40.339"><defs><clipPath id="f7f03136-8dcc-4c74-90be-e82832361ea9" transform="translate(3.67 3.736)"><path d="M6.372,21.057V11.81l8-4.624,8,4.624v9.247l-8,4.624Zm8-20.624L11.436,2.122l-8,4.623L.5,8.433v16l2.936,1.689,8.073,4.623,2.936,1.688,2.936-1.688,7.926-4.623,2.936-1.689v-16L25.307,6.745l-8-4.623Z" style="fill:none;stroke:#d8d8d8;stroke-linejoin:bevel"/></clipPath></defs><title>Fichier 488</title><g id="a7573726-ec51-4a84-96e3-6bde32a35e7d" data-name="Calque 2"><g id="fa789200-27e9-4e78-b879-13f297a55a8f" data-name="Back"><g style="clip-path:url(#f7f03136-8dcc-4c74-90be-e82832361ea9)"><rect x="0.5" y="0.5" width="35.083" height="39.339" style="fill:none;stroke:#d8d8d8;stroke-linejoin:bevel"/></g><path d="M6.372,21.057V11.81l8-4.624,8,4.624v9.247l-8,4.624Zm8-20.624L11.436,2.122l-8,4.623L.5,8.433v16l2.936,1.689,8.073,4.623,2.936,1.688,2.936-1.688,7.926-4.623,2.936-1.689v-16L25.307,6.745l-8-4.623Z" transform="translate(3.67 3.736)" style="fill:none;stroke:#d8d8d8;stroke-linejoin:bevel"/></g></g></svg>