<?xml version="1.0" encoding="utf-8"?><svg width="34" height="31" viewBox="0 0 34 31" fill="none" xmlns="http://www.w3.org/2000/svg">
<path d="M16.1288 25.6779C15.8908 25.9159 15.6311 26.1323 15.3498 26.3271C14.8089 26.7382 14.2463 27.0844 13.6404 27.409C12.4503 28.0148 11.1953 28.4692 9.87536 28.7289C9.55078 28.7938 9.22621 28.8587 8.90164 28.902L8.40396 28.9669L8.16594 28.9886L7.92792 29.0102L7.43024 29.0535L6.93256 29.0751C6.60798 29.0967 6.26177 29.0967 5.9372 29.1184C4.96348 29.1184 3.98976 29.0751 3.01604 28.9886C3.12423 28.8371 3.23242 28.664 3.34061 28.4909C3.64355 28.0148 3.92484 27.4955 4.1845 26.9762C4.66054 25.9376 5.02839 24.8557 5.33133 23.7738C5.61262 22.7135 5.95884 21.6965 6.34832 20.6579C6.73781 19.6192 7.19222 18.6239 7.71153 17.6501C7.34368 18.0613 7.01911 18.5157 6.71617 18.9917C6.41324 19.4461 6.1103 19.9438 5.85065 20.4198C5.30969 21.3936 4.83365 22.4322 4.4658 23.4708C4.07631 24.4878 3.66518 25.5048 3.1675 26.4353C2.66983 27.3657 2.06396 28.2312 1.37153 29.0535L0.657471 29.919L1.78266 30.0705C3.16751 30.2652 4.57399 30.3734 5.98047 30.3301C6.32669 30.3085 6.69454 30.3085 7.04075 30.2652L7.56007 30.2219L8.07938 30.157C8.42559 30.1137 8.77181 30.0272 9.11802 29.9839C9.46423 29.8974 9.81044 29.8324 10.1567 29.7243C10.5029 29.6377 10.8274 29.5079 11.1736 29.3997C11.4982 29.2699 11.8444 29.14 12.169 28.9886C12.8182 28.7073 13.4457 28.3394 14.0299 27.9499C14.6141 27.5604 15.1551 27.106 15.6528 26.5867C16.1288 26.0674 16.5616 25.5264 16.8645 24.8989C16.6265 25.2019 16.3885 25.4615 16.1288 25.6779ZM23.8753 7.00416C24.2648 6.61467 24.7841 6.39829 25.3467 6.39829C25.8876 6.39829 26.407 6.59303 26.8181 7.00416C27.6187 7.82641 27.6187 9.1247 26.8181 9.94695C26.0175 10.7476 24.6975 10.7476 23.8753 9.94695C23.4858 9.55747 23.2694 9.03815 23.2694 8.47556C23.2694 7.91297 23.4858 7.39365 23.8753 7.00416ZM25.3467 11.8078C26.2122 11.8078 27.0561 11.4833 27.7053 10.8341C29.0035 9.51419 29.0035 7.41529 27.7053 6.09536C26.407 4.79707 24.2864 4.79707 22.9881 6.09536C22.3606 6.72287 22.0144 7.56675 22.0144 8.45392C22.0144 9.34109 22.3606 10.185 22.9881 10.8125C23.6156 11.4616 24.4595 11.8078 25.3467 11.8078ZM26.3204 16.6115C21.5384 20.831 19.5476 21.2204 17.5569 20.3116L19.7207 17.5852C20.0453 17.1957 20.2617 16.7197 20.3915 16.222L21.2571 12.5652L17.6218 13.4307C17.1242 13.5605 16.6481 13.7769 16.2586 14.1015L13.5322 16.2653C12.6018 14.2746 13.0129 12.2839 17.2107 7.50184C21.1921 2.97946 29.5878 1.94082 32.0762 1.72444C31.8814 4.21283 30.8428 12.6301 26.3204 16.6115ZM23.1396 23.1462C23.0963 23.341 22.9881 23.5357 22.815 23.6439C22.3173 23.9901 21.5384 24.4662 20.8459 24.8989L20.8892 24.7691C21.2138 23.4492 21.2138 22.4322 20.8892 21.7398C21.798 21.4585 22.7717 20.9608 23.8753 20.2035C23.594 21.2204 23.2911 22.4322 23.1396 23.1462ZM15.5878 20.7877C15.3066 21.1555 14.8521 21.3503 14.3977 21.3286H14.3761H13.2942L17.0592 16.7846L12.5152 20.5497V19.4894V19.4461C12.4936 18.9917 12.6883 18.5373 13.0562 18.256L17.0376 15.0968C17.2973 14.9021 17.6002 14.7506 17.9031 14.6641L19.526 14.2746L19.1365 15.8975C19.05 16.222 18.9201 16.525 18.7038 16.7846L15.5878 20.7877ZM9.09638 12.9547L8.96655 12.9979C9.37768 12.3055 9.85372 11.5265 10.1999 11.0289C10.3081 10.8558 10.5029 10.7476 10.6976 10.7043C11.4117 10.5528 12.6234 10.2499 13.6404 9.99023C12.8831 11.0938 12.3854 12.0891 12.1041 12.9979C11.4333 12.6085 10.4163 12.6084 9.09638 12.9547ZM32.747 0.404512C32.2926 0.42615 21.3003 0.923827 16.2586 6.65795C15.7826 7.1989 15.3282 7.7615 14.8738 8.32409C14.1381 8.51883 11.5848 9.21126 10.4596 9.44928C9.94027 9.55747 9.46423 9.8604 9.16129 10.3148C8.38232 11.44 7.04075 13.7553 6.99747 13.8418L6.02375 15.508L7.79809 14.729C8.96655 14.2313 10.914 13.712 11.6064 14.1231C11.7146 14.188 11.8444 14.3179 11.8661 14.6424C11.8877 15.4647 12.1041 16.2653 12.5152 17.0659L12.2772 17.2607C11.6064 17.8016 11.2169 18.6239 11.2602 19.4894V22.5837H14.3545C15.22 22.6269 16.0423 22.2374 16.5832 21.5667L16.778 21.3286C17.5786 21.7398 18.3792 21.9778 19.2014 21.9778C19.526 21.9994 19.6342 22.1076 19.7207 22.2374C20.1535 22.9299 19.6342 24.8989 19.1149 26.0674L18.3359 27.8417L20.002 26.868C20.1102 26.8031 22.4039 25.4615 23.5291 24.6826C23.9618 24.3796 24.2648 23.9252 24.373 23.3843C24.611 22.2591 25.3034 19.6841 25.4982 18.9484C26.0175 18.5373 26.5584 18.0613 27.1427 17.542C32.8552 12.5003 33.3745 1.48642 33.3961 1.03202L33.4177 0.3396L32.747 0.404512Z" fill="#10D078"/>
</svg>
