<?xml version="1.0" encoding="utf-8"?><svg width="31" height="31" viewBox="0 0 31 31" fill="none" xmlns="http://www.w3.org/2000/svg">
<path d="M21.5034 24.3862C21.5434 24.3862 21.5334 24.4262 21.4734 24.4962L21.4334 24.5462L15.8334 30.1462C15.6834 30.2962 15.4534 30.3162 15.2934 30.2062L15.2234 30.1462L9.6234 24.5462C9.5234 24.4462 9.5034 24.3862 9.5434 24.3862C11.1334 25.4262 13.0134 26.0562 15.0334 26.1462L15.2834 26.1662L15.5234 26.1762L15.7634 26.1662L16.0134 26.1462C18.0334 26.0562 19.9134 25.4262 21.5034 24.3862ZM6.1534 9.27624C6.3034 9.12624 6.3634 9.13624 6.3034 9.29624L6.2434 9.40624C5.3534 10.8262 4.7734 12.4562 4.6134 14.2062C4.5634 14.5462 4.5234 14.8762 4.5234 15.1762C4.5234 15.4762 4.5534 15.7962 4.6034 16.1262C4.7534 17.9662 5.3634 19.6662 6.3134 21.1362C6.3234 21.1962 6.2834 21.1962 6.1934 21.1262L0.563401 15.4962C0.413401 15.3462 0.393401 15.1162 0.503401 14.9562L0.563401 14.8862L6.1534 9.27624ZM24.7734 9.37624L24.7634 9.35624C24.6734 9.16624 24.7034 9.11624 24.8234 9.22624L24.8734 9.27624L30.4734 14.8862C30.6234 15.0362 30.6434 15.2662 30.5334 15.4262L30.4734 15.4962L24.8734 21.0962C24.7534 21.2162 24.7034 21.2262 24.7134 21.1562C25.4134 20.0662 25.9334 18.8462 26.2134 17.5362L26.2934 17.1362L18.9634 16.5762C18.4134 17.9362 17.0834 18.9062 15.5234 18.9062C13.4734 18.9062 11.8134 17.2462 11.8134 15.1962C11.8134 13.1362 13.4734 11.4862 15.5234 11.4862C17.0134 11.4862 18.2934 12.3662 18.8834 13.6362L18.9634 13.8162L26.2834 13.2562C26.0534 12.0062 25.6134 10.8362 25.0034 9.76624L24.7734 9.37624ZM15.2134 0.226243C15.3634 0.0762432 15.5934 0.0562432 15.7534 0.166243L15.8234 0.226243L21.4234 5.82624C21.5734 5.97624 21.5634 6.03624 21.4034 5.96624L21.2034 5.86624C19.9434 5.09624 18.5234 4.57624 16.9934 4.37624C16.4734 4.26624 15.9734 4.19624 15.5134 4.19624C15.0534 4.19624 14.5534 4.26624 14.0334 4.37624C12.5034 4.58624 11.0834 5.10624 9.8234 5.86624L9.6934 5.93624C9.5034 6.02624 9.4534 5.99624 9.5634 5.87624L9.6134 5.82624L15.2134 0.226243Z" fill="#F4C567"/>
</svg>
