<?xml version="1.0" encoding="utf-8"?><svg width="18" height="24" viewBox="0 0 18 24" fill="none" xmlns="http://www.w3.org/2000/svg">
<g clip-path="url(#clip0)">
<path d="M15.9004 20.2561C15.9004 19.7766 15.9004 19.3832 15.9004 18.9898C15.9004 16.6598 15.8886 14.3299 15.9063 12C15.9122 11.2561 15.5878 10.7521 15.0098 10.3893C12.6153 8.8832 10.2149 7.3832 7.81456 5.89549C7.60224 5.7664 7.54326 5.63115 7.54326 5.3914C7.54916 3.92213 7.54326 2.44672 7.54916 0.977461C7.54916 0.147543 8.16842 -0.239753 8.87026 0.172133C10.1029 0.897542 11.3178 1.64754 12.5387 2.3914C14.019 3.28894 15.4994 4.18648 16.9797 5.07787C17.6343 5.47131 18.0059 6.00615 18.0059 6.82377C17.9941 10.6783 18 14.5266 18.0059 18.3811C18.0059 18.8545 17.8997 19.1865 17.4397 19.3893C16.9325 19.6045 16.4725 19.9242 15.9004 20.2561Z" fill="#142533"/>
<path d="M14.2844 16.7766C14.2844 18.1352 14.2785 19.4877 14.2903 20.8463C14.2903 21.1721 14.2136 21.3996 13.9128 21.5656C13.3584 21.8668 12.8276 22.2295 12.2792 22.5492C11.9666 22.7336 12.0196 22.457 12.0196 22.2971C12.0138 20.9385 11.9961 19.5861 12.0255 18.2275C12.0432 17.4836 11.7484 16.9734 11.1586 16.6045C8.82896 15.1475 6.50523 13.6783 4.16382 12.2275C3.90432 12.0676 3.82175 11.8955 3.82175 11.6004C3.83354 10.1127 3.85124 8.625 3.81585 7.13729C3.79816 6.33811 4.43512 5.7418 5.23721 6.2459C7.02424 7.3709 8.84075 8.45287 10.6396 9.54713C11.5065 10.0758 12.3794 10.5984 13.2464 11.1209C13.9128 11.5205 14.308 12.0492 14.2785 12.9098C14.2549 14.1947 14.2844 15.4857 14.2844 16.7766Z" fill="#142533"/>
<path d="M10.4567 20.8771C10.4567 21.5225 10.4626 22.168 10.4567 22.8074C10.4509 23.834 9.68414 24.3074 8.84666 23.7725C6.83552 22.5 4.83617 21.2029 2.83093 19.918C2.20577 19.5184 1.56291 19.1373 0.943644 18.7131C0.336173 18.3012 0.00589777 17.7049 0.00589777 16.9365C0 15.7193 0.00589777 14.4959 0 13.2725C0 12.8852 0.0884666 12.541 0.42464 12.3443C0.778506 12.1352 1.10878 12.2705 1.43906 12.4734C3.20839 13.5615 4.98362 14.6496 6.75885 15.7316C7.73198 16.3279 8.7287 16.8934 9.68414 17.5143C10.1855 17.8402 10.4862 18.3381 10.4626 19.0021C10.4391 19.623 10.4567 20.25 10.4567 20.8771Z" fill="#142533"/>
</g>
<defs>
<clipPath id="clip0">
<rect width="18" height="24" fill="white"/>
</clipPath>
</defs>
</svg>
