<?xml version="1.0" encoding="utf-8"?><svg width="29" height="24" viewBox="0 0 29 24" fill="none" xmlns="http://www.w3.org/2000/svg">
<path d="M14.355 13.4246H22.5137C22.7202 13.4246 22.7202 13.4246 22.8235 13.2181C22.9267 12.3919 22.9267 11.5657 22.8235 10.7395C22.8235 10.5329 22.7202 10.5329 22.6169 10.5329H6.29969C6.09314 10.5329 6.09314 10.6362 6.09314 10.7395V13.1148C6.09314 13.4246 6.09314 13.4246 6.40297 13.4246H14.355ZM21.894 7.64127C21.894 7.538 21.894 7.538 21.894 7.43473C21.7907 7.1249 21.5842 6.81508 21.3776 6.60854C21.0678 6.19544 20.758 5.78235 20.3449 5.36925C20.1384 5.16271 19.9318 4.95616 19.7253 4.74961C18.5893 3.71687 17.1434 3.09723 15.6976 2.68414C14.9747 2.47759 14.1485 2.47759 13.4256 2.47759H6.19642C5.98987 2.47759 5.98987 2.58086 5.98987 2.68414V7.43473C5.98987 7.64127 5.98987 7.64127 6.19642 7.64127H21.6875C21.7907 7.74455 21.894 7.74455 21.894 7.64127ZM21.894 16.213C21.6875 16.213 21.4809 16.213 21.1711 16.213H6.29969C6.09314 16.213 5.98987 16.213 5.98987 16.5228V21.1701C5.98987 21.3767 5.98987 21.4799 6.29969 21.4799H13.219C13.5288 21.4799 13.8387 21.4799 14.1485 21.3767C15.1812 21.2734 16.1107 21.0668 17.0401 20.757C17.35 20.6537 17.6598 20.4472 17.9696 20.3439H18.0729C19.7253 19.5177 20.9645 18.1752 21.7907 16.5228C21.894 16.4195 21.9973 16.213 21.894 16.213ZM3.30476 23.8552V20.6538V19.621V16.4195C3.30476 16.213 3.30476 16.213 3.09821 16.213H0.206548C2.9239e-07 16.213 0 16.213 0 16.0064V13.4246H3.09821C3.30476 13.4246 3.30476 13.4246 3.30476 13.2181V10.7395C3.30476 10.5329 3.30476 10.5329 3.09821 10.5329H0.206548C2.9239e-07 10.5329 0 10.5329 0 10.3264V7.95109C0 7.84782 2.9239e-07 7.74455 0.206548 7.74455H3.09821C3.30476 7.74455 3.30476 7.74455 3.30476 7.538V0.308845C3.30476 0.102297 3.30476 -0.000976562 3.61458 -0.000976562H13.7354C14.4583 -0.000976562 15.1812 0.102297 15.9041 0.205571C17.35 0.515391 18.7958 1.03176 20.1384 1.75468C20.9645 2.27104 21.7907 2.89069 22.5137 3.6136C23.03 4.12997 23.5464 4.74961 23.9595 5.36925C24.3726 5.98889 24.6824 6.71181 24.9922 7.43473C24.9922 7.64127 25.1988 7.74455 25.4053 7.74455H27.7806C28.0904 7.74455 28.0904 7.74455 28.0904 8.05437V10.2231C28.0904 10.4297 27.9872 10.5329 27.7806 10.5329H25.9217C25.7151 10.5329 25.7151 10.5329 25.7151 10.7395C25.8184 11.5657 25.8184 12.3919 25.7151 13.2181C25.7151 13.4246 25.7151 13.4246 25.9217 13.4246H28.0904C28.1937 13.5279 28.0904 13.6311 28.0904 13.8377C28.0904 14.0442 28.0904 14.1475 28.0904 14.3541V16.0064C28.0904 16.213 27.9872 16.3163 27.7806 16.3163H25.1988C24.9922 16.3163 24.8889 16.4195 24.7857 16.5228C24.166 18.0719 23.2366 19.5177 21.9973 20.6538C21.5842 21.0668 21.0678 21.4799 20.5515 21.7898C20.0351 22.0996 19.5187 22.4094 18.8991 22.7192C17.8663 23.1323 16.8336 23.5454 15.6976 23.752C14.6649 23.9585 13.6321 24.0618 12.5994 23.9585L3.30476 23.8552Z" fill="#EDA437"/>
</svg>
