<svg width="128" height="129" viewBox="0 0 128 129" fill="none" xmlns="http://www.w3.org/2000/svg">
<path fill-rule="evenodd" clip-rule="evenodd" d="M28.3894 9.06797C40.3746 5.49054 52.5378 3.79795 65.0128 4.04866C67.8963 4.11107 71.7751 4.37764 75.1434 4.70921C75.3481 4.72936 75.5507 4.74972 75.7507 4.77027C66.751 9.92946 60.4598 18.7513 58.4594 29.1627L58.4556 29.1824L58.4522 29.2021C58.12 31.1397 57.9203 33.0794 57.8537 35.0208L57.8533 35.0324L57.853 35.0441C57.7914 37.7702 57.5458 40.3733 56.7953 42.8691L56.7905 42.8853L56.7859 42.9016C54.1911 52.0922 46.6952 59.2662 37.4536 61.3968C25.3194 64.1794 13.0644 58.1499 7.74706 46.8187C7.46985 46.2038 7.28676 45.6714 7.20044 45.194L7.19212 45.1481L7.18167 45.1025C6.24758 41.0327 5.56114 36.9568 5.06109 32.8088L5.0606 32.8048C4.51327 28.3412 4.20402 23.8878 4.18799 19.4431C11.8918 15.0562 19.9395 11.5987 28.3894 9.06797Z" fill="#54C2AF"/>
<path fill-rule="evenodd" clip-rule="evenodd" d="M50.402 69.3963C53.4848 67.6679 56.7937 66.5401 60.2756 66.0639C72.5946 64.5283 84.8439 71.8763 88.6771 84.6809C90.622 91.2625 90.0429 97.6348 87.0212 103.895C86.8524 104.235 86.702 104.545 86.5594 104.839L86.5594 104.84C86.2972 105.381 86.0613 105.867 85.7855 106.382L85.7712 106.409L85.7578 106.436C85.551 106.852 85.3765 107.087 85.2279 107.215L85.1917 107.246L85.1572 107.279C78.5549 113.541 71.3374 119.049 63.5049 123.681C63.1019 123.456 62.574 123.147 61.9331 122.755C60.7262 122.016 59.2455 121.06 57.7122 120.022L57.7079 120.019C50.9082 115.44 44.6067 110.171 38.8656 104.273C33.1243 98.375 28.0108 91.916 23.6479 84.9599L23.6441 84.9537L23.6402 84.9477C20.5428 80.0875 17.835 75.0517 15.5159 69.8127C16.3996 70.3005 17.3083 70.7478 18.2445 71.1481C21.6372 72.619 25.2035 73.6396 28.9986 73.9813C36.5839 74.7221 43.7144 73.1614 50.402 69.3963Z" fill="#54C2AF"/>
<path fill-rule="evenodd" clip-rule="evenodd" d="M70.4428 41.0408C67.9075 27.2836 76.5163 14.0157 90.0019 10.7563ZM90.0019 10.7563C94.8042 9.62455 99.4451 9.74821 104.093 11.227L104.101 11.2295L104.108 11.2318C108.096 12.4656 111.929 14.1403 115.838 15.9786L115.842 15.9805C118.495 17.2213 121.038 18.5919 123.612 20.0429C123.619 20.0471 123.626 20.0513 123.633 20.0555C123.616 23.2123 123.436 26.4363 123.196 29.6321C122.76 34.5175 122.012 39.4083 121.013 44.178C117.955 58.3558 112.529 71.4598 104.669 83.6289L104.668 83.6305C103.428 85.5538 102.126 87.4386 100.774 89.2849C100.658 83.584 99.2333 78.1365 96.5013 73.0518L96.4999 73.0491C93.4859 67.4597 89.2611 63.0047 83.8575 59.639C83.5884 59.45 83.3166 59.286 83.1086 59.1606L83.085 59.1463C82.8348 58.9954 82.6667 58.8927 82.5207 58.7879L82.4738 58.7542L82.4251 58.7233C75.8483 54.5531 71.863 48.7156 70.4428 41.0408" fill="#54C2AF"/>
</svg>
