<svg width="132" height="132" viewBox="0 0 132 132" fill="none" xmlns="http://www.w3.org/2000/svg">
<path fill-rule="evenodd" clip-rule="evenodd" d="M105.706 26.2371C105.164 25.6961 104.893 25.1552 104.893 24.479C104.893 23.8027 105.164 23.2618 105.706 22.7208C106.79 21.7741 108.416 21.7741 109.5 22.7208C110.042 23.2618 110.313 23.8027 110.313 24.479C110.313 25.1552 110.042 25.6961 109.5 26.2371C108.958 26.6428 108.281 26.9133 107.603 26.9133C106.925 27.0486 106.248 26.7781 105.706 26.2371Z" fill="black"/>
<path fill-rule="evenodd" clip-rule="evenodd" d="M99.0653 33.2698C98.6587 32.7288 98.3877 32.1878 98.3877 31.5116C98.3877 30.8354 98.6587 30.2944 99.0653 29.7534C100.014 28.8067 101.64 28.8067 102.589 29.7534C102.995 30.2944 103.266 30.8354 103.266 31.5116C103.266 32.1878 102.995 32.7288 102.589 33.2698C102.047 33.6755 101.505 33.946 100.827 33.946C100.149 33.946 99.6074 33.6755 99.0653 33.2698Z" fill="black"/>
<path fill-rule="evenodd" clip-rule="evenodd" d="M91.8822 40.1671C91.4756 39.7614 91.2046 39.0852 91.2046 38.409C91.2046 37.7327 91.4756 37.1918 91.8822 36.6508C92.8308 35.7041 94.4571 35.7041 95.4057 36.6508C95.8123 37.0565 96.0833 37.7327 96.0833 38.409C96.0833 39.0852 95.8123 39.6261 95.4057 40.1671C94.8636 40.7081 94.3216 40.8433 93.644 40.8433C92.9664 40.8433 92.2888 40.5728 91.8822 40.1671Z" fill="black"/>
<path fill-rule="evenodd" clip-rule="evenodd" d="M84.9713 47.0645C84.4292 46.6588 84.1582 45.9826 84.1582 45.3063C84.1582 44.6301 84.4292 44.0892 84.9713 43.5482C86.0555 42.6015 87.6817 42.6015 88.7659 43.5482C89.308 43.9539 89.579 44.6301 89.579 45.3063C89.579 45.9826 89.308 46.6588 88.7659 47.0645C88.2238 47.6055 87.5462 47.7407 86.8686 47.7407C86.191 47.7407 85.5134 47.6055 84.9713 47.0645Z" fill="black"/>
<path fill-rule="evenodd" clip-rule="evenodd" d="M78.3304 53.9619C77.7884 53.5562 77.6528 52.8799 77.6528 52.2037C77.6528 51.5275 77.9239 50.9865 78.3304 50.4456C79.2791 49.4989 80.9053 49.4989 81.854 50.4456C82.396 50.8513 82.5316 51.5275 82.5316 52.2037C82.5316 52.8799 82.2605 53.5562 81.854 53.9619C81.4474 54.5029 80.7698 54.6381 80.0922 54.6381C79.4146 54.7733 78.737 54.5029 78.3304 53.9619Z" fill="black"/>
<path fill-rule="evenodd" clip-rule="evenodd" d="M70.335 59.1011C70.335 58.4249 70.606 57.8839 71.0126 57.343C71.9612 56.3963 73.5874 56.3963 74.5361 57.343C75.0782 57.8839 75.2137 58.4249 75.2137 59.1011C75.2137 59.7773 74.9427 60.3183 74.5361 60.8593C74.1295 61.265 73.4519 61.5355 72.7743 61.5355C72.0967 61.5355 71.5546 61.265 71.0126 60.8593C70.606 60.4535 70.335 59.7773 70.335 59.1011Z" fill="black"/>
<path fill-rule="evenodd" clip-rule="evenodd" d="M57.4603 74.3836C57.0538 73.9778 56.7827 73.3016 56.7827 72.6254C56.7827 71.9492 57.0538 71.4082 57.4603 70.8673C58.409 69.9206 60.0352 69.9206 60.9838 70.8673C61.5259 71.4082 61.6614 71.9492 61.6614 72.6254C61.6614 73.3016 61.3904 73.8426 60.9838 74.3836C60.5773 74.9245 59.8997 75.0598 59.2221 75.0598C58.5445 75.195 58.0024 74.9245 57.4603 74.3836Z" fill="black"/>
<path fill-rule="evenodd" clip-rule="evenodd" d="M50.278 81.281C49.7359 80.8752 49.4648 80.199 49.4648 79.5228C49.4648 78.8466 49.7359 78.3056 50.278 77.7647C51.3621 76.818 52.9884 76.818 54.0725 77.7647C54.6146 78.3056 54.8857 78.8466 54.8857 79.5228C54.8857 80.199 54.6146 80.74 54.0725 81.281C53.5304 81.8219 52.8528 81.9572 52.1752 81.9572C51.4976 82.0924 50.82 81.8219 50.278 81.281Z" fill="black"/>
<path fill-rule="evenodd" clip-rule="evenodd" d="M43.6376 88.3136C43.231 87.9079 42.96 87.2316 42.96 86.5554C42.96 85.8792 43.231 85.203 43.6376 84.7973C44.5862 83.8506 46.2124 83.8506 47.1611 84.7973C47.5676 85.203 47.8387 85.8792 47.8387 86.5554C47.8387 87.2316 47.5676 87.7726 47.1611 88.3136C46.619 88.8546 46.0769 88.9898 45.3993 88.9898C44.7217 88.9898 44.1796 88.7193 43.6376 88.3136Z" fill="black"/>
<path fill-rule="evenodd" clip-rule="evenodd" d="M36.7259 95.211C36.1839 94.8052 36.0483 94.129 36.0483 93.4528C36.0483 92.7766 36.3194 92.2356 36.7259 91.6946C37.6746 90.7479 39.3008 90.7479 40.2495 91.6946C40.656 92.2356 40.9271 92.7766 40.9271 93.4528C40.9271 94.129 40.656 94.8052 40.2495 95.211C39.7074 95.7519 39.1653 95.8872 38.4877 95.8872C37.8101 95.8872 37.1325 95.7519 36.7259 95.211Z" fill="black"/>
<path fill-rule="evenodd" clip-rule="evenodd" d="M29.5436 102.108C29.0015 101.703 28.7305 101.026 28.7305 100.35C28.7305 99.674 29.0015 99.133 29.5436 98.592C30.6278 97.6453 32.254 97.6453 33.2026 98.592C33.7447 99.133 34.0158 99.674 34.0158 100.35C34.0158 101.026 33.7447 101.703 33.2026 102.108C32.6606 102.514 31.983 102.785 31.3054 102.785C30.6278 102.785 29.9502 102.649 29.5436 102.108Z" fill="black"/>
<path fill-rule="evenodd" clip-rule="evenodd" d="M22.7674 109.006C22.2254 108.465 22.0898 107.924 22.0898 107.248C22.0898 106.571 22.3609 106.03 22.7674 105.489C23.7161 104.543 25.3423 104.543 26.291 105.489C26.8331 106.03 26.9686 106.571 26.9686 107.248C26.9686 107.924 26.6975 108.465 26.291 109.006C25.8844 109.411 25.2068 109.682 24.5292 109.682C23.9871 109.817 23.3095 109.547 22.7674 109.006Z" fill="black"/>
<path fill-rule="evenodd" clip-rule="evenodd" d="M26.291 26.2371C26.6975 25.6961 26.9686 25.1552 26.9686 24.479C26.9686 23.8027 26.6975 23.2618 26.291 22.7208C25.3423 21.7741 23.7161 21.7741 22.7674 22.7208C22.2254 23.2618 22.0898 23.8027 22.0898 24.479C22.0898 25.1552 22.3609 25.6961 22.7674 26.2371C23.174 26.6428 23.8516 26.9133 24.5292 26.9133C25.2068 27.0486 25.8844 26.7781 26.291 26.2371Z" fill="black"/>
<path fill-rule="evenodd" clip-rule="evenodd" d="M33.2029 33.2698C33.745 32.7288 34.016 32.1878 34.016 31.5116C34.016 30.8354 33.745 30.2944 33.2029 29.7534C32.1187 28.8067 30.4925 28.8067 29.4083 29.7534C28.8663 30.2944 28.5952 30.8354 28.5952 31.5116C28.5952 32.1878 28.8663 32.7288 29.4083 33.2698C29.9504 33.6755 30.628 33.946 31.3056 33.946C31.9832 33.946 32.6608 33.6755 33.2029 33.2698Z" fill="black"/>
<path fill-rule="evenodd" clip-rule="evenodd" d="M40.2495 40.1671C40.656 39.7614 40.9271 39.0852 40.9271 38.409C40.9271 37.7327 40.656 37.1918 40.2495 36.6508C39.3008 35.7041 37.6746 35.7041 36.7259 36.6508C36.3194 37.0565 36.0483 37.7327 36.0483 38.409C36.0483 39.0852 36.3194 39.6261 36.7259 40.1671C37.268 40.7081 37.8101 40.8433 38.4877 40.8433C39.0298 40.8433 39.7074 40.5728 40.2495 40.1671Z" fill="black"/>
<path fill-rule="evenodd" clip-rule="evenodd" d="M47.1611 47.0645C47.5676 46.6588 47.8387 45.9826 47.8387 45.3063C47.8387 44.6301 47.5676 44.0892 47.1611 43.5482C46.2124 42.6015 44.5862 42.6015 43.6376 43.5482C43.231 43.9539 42.96 44.6301 42.96 45.3063C42.96 45.9826 43.231 46.6588 43.6376 47.0645C44.1796 47.6055 44.7217 47.7407 45.3993 47.7407C45.9414 47.7407 46.619 47.6055 47.1611 47.0645Z" fill="black"/>
<path fill-rule="evenodd" clip-rule="evenodd" d="M53.937 53.9619C54.4791 53.5562 54.7501 52.8799 54.7501 52.2037C54.7501 51.5275 54.4791 50.9865 53.937 50.4456C52.9884 49.4989 51.2266 49.4989 50.278 50.4456C49.7359 50.8513 49.4648 51.5275 49.4648 52.2037C49.4648 52.8799 49.7359 53.5562 50.278 53.9619C50.82 54.5029 51.4976 54.6381 52.1752 54.6381C52.8528 54.7733 53.5304 54.5029 53.937 53.9619Z" fill="black"/>
<path fill-rule="evenodd" clip-rule="evenodd" d="M61.6614 59.1011C61.6614 58.4249 61.3904 57.8839 60.9838 57.343C60.0352 56.3963 58.409 56.3963 57.4603 57.343C56.9182 57.8839 56.7827 58.4249 56.7827 59.1011C56.7827 59.7773 57.0538 60.3183 57.4603 60.8593C57.8669 61.265 58.5445 61.5355 59.2221 61.5355C59.8997 61.5355 60.4418 61.265 60.9838 60.8593C61.5259 60.4535 61.6614 59.7773 61.6614 59.1011Z" fill="black"/>
<path fill-rule="evenodd" clip-rule="evenodd" d="M67.8955 67.8919C68.4375 67.3509 68.5731 66.81 68.5731 66.1338C68.5731 65.4575 68.302 64.9166 67.8955 64.3756C66.9468 63.4289 65.3206 63.4289 64.3719 64.3756C63.8299 64.9166 63.6943 65.4575 63.6943 66.1338C63.6943 66.81 63.9654 67.3509 64.3719 67.8919C64.7785 68.2976 65.4561 68.5681 66.1337 68.5681C66.8113 68.5681 67.4889 68.2976 67.8955 67.8919Z" fill="black"/>
<path fill-rule="evenodd" clip-rule="evenodd" d="M74.8071 74.3836C75.3492 73.9778 75.6203 73.3016 75.6203 72.6254C75.6203 71.9492 75.3492 71.4082 74.8071 70.8673C73.723 69.9206 72.0967 69.9206 71.1481 70.8673C70.606 71.4082 70.335 71.9492 70.335 72.6254C70.335 73.3016 70.606 73.8426 71.1481 74.3836C71.6902 74.9245 72.3678 75.0598 73.0454 75.0598C73.5874 75.195 74.2651 74.9245 74.8071 74.3836Z" fill="black"/>
<path fill-rule="evenodd" clip-rule="evenodd" d="M81.854 81.281C82.2605 80.8752 82.5316 80.199 82.5316 79.5228C82.5316 78.8466 82.2605 78.3056 81.854 77.7647C80.9053 76.818 79.2791 76.818 78.3304 77.7647C77.9239 78.3056 77.6528 78.8466 77.6528 79.5228C77.6528 80.199 77.9239 80.74 78.3304 81.281C78.8725 81.8219 79.4146 81.9572 80.0922 81.9572C80.6343 82.0924 81.3119 81.8219 81.854 81.281Z" fill="black"/>
<path fill-rule="evenodd" clip-rule="evenodd" d="M88.7656 88.3136C89.1721 87.9079 89.4432 87.2316 89.4432 86.5554C89.4432 85.8792 89.1721 85.203 88.7656 84.7973C87.8169 83.8506 86.1907 83.8506 85.2421 84.7973C84.8355 85.203 84.5645 85.8792 84.5645 86.5554C84.5645 87.2316 84.8355 87.7726 85.2421 88.3136C85.7841 88.8546 86.3262 88.9898 87.0038 88.9898C87.6814 88.9898 88.2235 88.7193 88.7656 88.3136Z" fill="black"/>
<path fill-rule="evenodd" clip-rule="evenodd" d="M95.2709 95.211C95.813 94.8052 95.9485 94.129 95.9485 93.4528C95.9485 92.7766 95.6775 92.2356 95.2709 91.6946C94.3223 90.7479 92.6961 90.7479 91.7474 91.6946C91.3409 92.2356 91.0698 92.7766 91.0698 93.4528C91.0698 94.129 91.3409 94.8052 91.7474 95.211C92.2895 95.7519 92.8316 95.8872 93.5092 95.8872C94.1868 95.8872 94.8644 95.7519 95.2709 95.211Z" fill="black"/>
<path fill-rule="evenodd" clip-rule="evenodd" d="M102.589 102.108C103.131 101.703 103.266 101.026 103.266 100.35C103.266 99.674 102.995 99.133 102.589 98.592C101.64 97.6453 100.014 97.6453 99.0653 98.592C98.5232 99.133 98.3877 99.674 98.3877 100.35C98.3877 101.026 98.6587 101.703 99.0653 102.108C99.4719 102.514 100.149 102.785 100.827 102.785C101.505 102.785 102.182 102.649 102.589 102.108Z" fill="black"/>
<path fill-rule="evenodd" clip-rule="evenodd" d="M109.5 109.006C110.042 108.465 110.313 107.924 110.313 107.248C110.313 106.571 110.042 106.03 109.5 105.489C108.416 104.543 106.79 104.543 105.841 105.489C105.299 106.03 105.028 106.571 105.028 107.248C105.028 107.924 105.299 108.465 105.841 109.006C106.383 109.411 107.061 109.682 107.738 109.682C108.28 109.817 108.958 109.547 109.5 109.006Z" fill="black"/>
<path fill-rule="evenodd" clip-rule="evenodd" d="M42.6887 28.1305C49.7357 23.5323 57.4604 21.3684 65.9982 21.2331C74.4004 21.2331 82.1251 23.5323 89.3076 28.1305L104.215 13.2538C92.5601 4.46301 79.9568 0 65.9982 0C52.0396 0 39.3007 4.46301 27.917 13.2538L42.6887 28.1305Z" fill="black"/>
<path fill-rule="evenodd" clip-rule="evenodd" d="M27.7816 89.125C23.0384 81.9572 20.7346 74.2483 20.7346 65.9985C20.7346 57.6135 23.0384 49.9046 27.7816 42.872L13.0099 28.1305C4.33665 39.4909 0 52.0685 0 66.1338C0 79.9285 4.33665 92.6414 13.1455 104.137L27.7816 89.125Z" fill="black"/>
<path fill-rule="evenodd" clip-rule="evenodd" d="M89.3079 103.867C82.2609 108.6 74.5362 111.034 66.134 111.17C57.5962 111.17 49.736 108.87 42.689 104.002L27.7817 118.743C39.301 127.669 52.0399 132.132 66.134 131.997C80.0925 131.862 92.6959 127.399 104.08 118.743L89.3079 103.867Z" fill="black"/>
<path fill-rule="evenodd" clip-rule="evenodd" d="M103.809 42.7367C108.552 49.9046 110.991 57.7487 110.856 66.269C110.72 74.5188 108.416 82.0924 103.809 88.9898L118.716 103.731C127.525 92.3709 131.997 79.7933 131.997 65.9985C132.132 51.9332 127.66 39.2204 118.716 27.7248L103.809 42.7367Z" fill="black"/>
<path fill-rule="evenodd" clip-rule="evenodd" d="M119.393 108.465C125.085 108.465 129.828 113.063 129.828 118.878C129.828 124.559 125.22 129.292 119.393 129.292C113.701 129.292 108.958 124.694 108.958 118.878C108.958 113.063 113.566 108.465 119.393 108.465Z" fill="black"/>
<path fill-rule="evenodd" clip-rule="evenodd" d="M12.8742 108.465C18.5661 108.465 23.1738 113.063 23.1738 118.878C23.1738 124.559 18.5661 129.292 12.8742 129.292C7.18239 129.292 2.57471 124.694 2.57471 118.878C2.57471 113.063 7.18239 108.465 12.8742 108.465Z" fill="black"/>
<path fill-rule="evenodd" clip-rule="evenodd" d="M119.529 2.29912C125.221 2.29912 129.829 6.89737 129.829 12.7128C129.829 18.5283 125.221 23.1265 119.529 23.1265C113.837 23.1265 109.229 18.5283 109.229 12.7128C109.229 6.89737 113.837 2.29912 119.529 2.29912Z" fill="black"/>
<path fill-rule="evenodd" clip-rule="evenodd" d="M12.7388 2.29912C18.4306 2.29912 23.1738 6.89737 23.1738 12.5776C23.1738 18.2578 18.5661 22.856 12.7388 22.856C7.04692 22.856 2.30371 18.2578 2.30371 12.5776C2.30371 6.89737 6.9114 2.29912 12.7388 2.29912Z" fill="black"/>
</svg>
