<svg id="Layer_1" data-name="Layer 1" xmlns="http://www.w3.org/2000/svg" xmlns:xlink="http://www.w3.org/1999/xlink" viewBox="0 0 500 500"><defs><style>.cls-1{fill:#231f20;}.cls-2{fill:url(#New_Gradient_Swatch_4);}.cls-3{fill:url(#New_Gradient_Swatch_4-2);}.cls-4{fill:url(#New_Gradient_Swatch_4-3);}</style><linearGradient id="New_Gradient_Swatch_4" x1="142" y1="77.32" x2="354.99" y2="417.87" gradientUnits="userSpaceOnUse"><stop offset="0" stop-color="#29b3eb"/><stop offset="1" stop-color="#21edba"/></linearGradient><linearGradient id="New_Gradient_Swatch_4-2" x1="156.23" y1="68.42" x2="369.21" y2="408.97" xlink:href="#New_Gradient_Swatch_4"/><linearGradient id="New_Gradient_Swatch_4-3" x1="126.76" y1="86.85" x2="339.74" y2="427.4" xlink:href="#New_Gradient_Swatch_4"/></defs><title>theta_logo_black-square</title><rect class="cls-1" width="500" height="500"/><path class="cls-2" d="M341.61,75H158.39L140.65,92.7V407.3L158.39,425H341.61l17.74-17.73V92.7Zm-17.73,314.6H176.12V110.43H323.88Z"/><polygon class="cls-3" points="304.13 200.62 267.73 200.62 267.73 164.23 232.27 164.23 232.27 200.62 195.87 200.62 195.87 236.08 304.13 236.08 304.13 200.62"/><polygon class="cls-4" points="232.27 338.03 267.73 338.03 267.73 301.64 304.13 301.64 304.13 266.18 195.87 266.18 195.87 301.64 232.27 301.64 232.27 338.03"/></svg>