<svg width="70" height="56" viewBox="0 0 70 56" fill="none" xmlns="http://www.w3.org/2000/svg">
<path d="M55.1181 0.83374C49.9938 0.83374 45.1809 2.38765 41.23 5.37407C37.734 7.99629 35.148 11.614 34.1184 15.3288C32.9451 19.5535 33.9029 23.3897 36.6565 25.9148C35.6987 27.5901 34.8367 29.3383 34.1423 31.0378C33.4958 29.4111 32.6577 27.9786 31.676 26.6918C33.0408 24.4823 33.2324 21.7872 32.1549 19.0436C31.1492 16.4457 29.0899 14.042 26.3841 12.2938C23.4629 10.4 20.0148 9.40452 16.4231 9.40452C11.8256 9.40452 7.10847 11.0798 2.77444 14.2605L0.451782 15.9601L3.22939 16.7127C7.80288 17.9753 11.4425 21.5444 14.6751 24.7008C17.9555 27.93 21.0684 30.965 24.6601 30.965C26.432 30.965 28.1321 30.2366 29.8083 28.7798C31.4365 31.1107 32.5859 33.9514 32.5859 37.4234V55.1234H35.3395C35.3395 55.1234 35.3395 38.0062 35.3395 37.0835C35.3395 34.8498 36.6326 31.572 38.9073 27.493C40.6074 28.4156 42.2117 28.8769 43.7442 28.8769C48.7966 28.8769 52.0771 23.9724 55.573 18.7765C58.6859 14.1391 62.2058 8.89464 67.4258 6.1753L69.9879 4.83991L67.3779 3.6502C63.2593 1.78065 59.1408 0.83374 55.1181 0.83374ZM24.6841 28.1971C22.1938 28.1971 19.6077 25.6477 16.6146 22.7099C13.7652 19.9177 10.6284 16.8341 6.67747 15.0374C9.88609 13.1436 13.1665 12.1967 16.4709 12.1967C23.1037 12.1967 28.1082 16.1543 29.6407 20.0634C30.0238 21.0831 30.4308 22.7584 29.7843 24.4337C27.318 21.8844 24.6122 20.1605 22.9121 19.0922C22.4093 18.7765 22.0022 18.5095 21.7149 18.2909L20.1106 20.5732C20.4697 20.816 20.9247 21.1074 21.4515 21.4473C23.1995 22.5642 25.8334 24.2395 28.1082 26.6675C26.887 27.6872 25.7855 28.1971 24.6841 28.1971ZM53.3461 17.2226C50.1615 21.9815 47.4078 26.0848 43.7921 26.0848C42.7385 26.0848 41.6131 25.7448 40.368 25.0893C40.4877 24.895 40.6074 24.6765 40.7511 24.4823C43.4808 20.1119 46.2345 16.5913 46.2584 16.5428L44.1034 14.8189C43.8639 15.1103 40.9666 18.8494 38.1411 23.4383C36.4889 21.6173 35.9861 19.0193 36.8002 16.0572C37.6622 12.9494 39.8891 9.86584 42.8822 7.60781C45.3006 5.78683 49.3952 3.62592 55.1181 3.62592C57.9196 3.62592 60.817 4.16008 63.7622 5.20411C59.2605 8.36049 56.1477 13.0222 53.3461 17.2226Z" fill="#41CCB4"/>
</svg>
