<?xml version="1.0" encoding="utf-8"?>
<svg xmlns="http://www.w3.org/2000/svg" viewBox="0 0 50 50"><defs><style>.b2a7cacb-b5b0-4f97-9f4b-2d2bf06d409e{fill:#fff;stroke:#fff;stroke-miterlimit:10;}</style></defs><title>EOS</title><g id="ba581401-399e-458c-97f5-95f616dd42a3" data-name="Calque 2"><g id="f9fafd00-99ee-4b4f-ae47-bf0fc6fb0b0c" data-name="Back"><g id="acedec98-04ce-4109-a191-600d90df4793" data-name="EOS"><rect id="ae77849e-3979-4c86-8d8e-2422e8946d7e" data-name="Your color" width="50" height="50" rx="19.67"/><path class="b2a7cacb-b5b0-4f97-9f4b-2d2bf06d409e" d="M25,42.1c-.3.1-.55-.1-.83-.23l-3.74-1.81-5-2.4-3.93-1.9-.68-.33a.2.2,0,0,1-.13-.28c.16-.52.32-1,.47-1.57s.34-1.16.5-1.74l.48-1.65.57-2,.41-1.43.57-2c.13-.47.26-.94.4-1.41l.48-1.67c.14-.46.27-.92.4-1.38s.34-1.2.52-1.8a.8.8,0,0,1,.21-.25l3.91-4.49c1.18-1.37,2.37-2.73,3.55-4.09.51-.58,1-1.16,1.51-1.73a.76.76,0,0,1,.18-.09h.05a.77.77,0,0,1,.77.31C26.74,9.45,27.86,10.71,29,12l3.81,4.32c.55.61,1.09,1.23,1.63,1.84a.78.78,0,0,1,.14.27c.13.47.27.94.4,1.41s.31,1.12.47,1.67.33,1.17.49,1.76.33,1.15.49,1.72l.48,1.7c.2.69.39,1.38.58,2.07s.45,1.56.67,2.34c.13.47.26.95.4,1.42.24.84.49,1.67.74,2.5l0,.1c0,.12,0,.2-.17.28-.78.36-1.54.75-2.31,1.13L33.7,38l-4.88,2.42-3,1.46c-.08,0-.15.11-.23.15a.26.26,0,0,1-.15,0ZM25,34.9h2.38c.11,0,.19,0,.22-.12.1-.27.21-.52.31-.79.3-.81.61-1.62.92-2.43l.84-2.2.93-2.45c.24-.65.5-1.3.75-2a.28.28,0,0,0,0-.22c-.25-.36-.52-.72-.78-1.08l-3-4.08-2.4-3.32c-.16-.22-.16-.22-.32,0-.78,1.06-1.55,2.13-2.32,3.2l-2.18,3-1.75,2.42a.17.17,0,0,0,0,.15,4.14,4.14,0,0,0,.19.49c.22.57.45,1.13.67,1.7s.37,1,.56,1.45.39.95.57,1.43.38,1,.58,1.47.45,1.14.68,1.71.39,1,.57,1.48c0,.11.11.14.25.14ZM24.79,8.65l-.06,0L24.44,9l-4.51,5.19q-1.87,2.17-3.76,4.33a.26.26,0,0,0-.05.3c.2.48.39,1,.58,1.44s.45,1.15.67,1.73.51,1.29.76,1.93c.07.16.14.32.21.51a1.29,1.29,0,0,0,.12-.12c.52-.72,1-1.44,1.55-2.15l1.84-2.55,2.7-3.72a.93.93,0,0,0,.25-.54c0-2.15,0-4.31,0-6.46Zm.52,0V8.9c0,2.15,0,4.3,0,6.45a.77.77,0,0,0,.12.38c1,1.34,1.94,2.67,2.9,4l2.79,3.83c.15.22.31.43.49.67.05-.09.08-.16.11-.22l.3-.83c.2-.51.4-1,.59-1.54s.37-1,.56-1.46.46-1.18.67-1.77a.24.24,0,0,0-.05-.23c-.88-1-1.76-2-2.65-3L28.32,12c-1-1.09-1.92-2.18-2.89-3.28Zm2.83,26.24H38.63l0,0-6.87-9.48,0,0Zm-9.92-9.36h-.06l-6.78,9.36H21.9Zm6.27,16c0-.08,0-.12,0-.15-.14-.34-.28-.67-.41-1l-.59-1.5c-.18-.48-.37-1-.56-1.43-.26-.65-.52-1.29-.76-1.94-.05-.15-.15-.17-.32-.17H11.75l0,0Zm1.14-.07.05,0,12.38-6.12,0,0h-10c-.05,0-.12,0-.13.09-.13.32-.25.64-.37,1-.19.49-.37,1-.56,1.48s-.39,1-.59,1.52l-.72,1.91C25.68,41.34,25.65,41.39,25.63,41.45ZM34.21,19.1h-.07l-.12.33c-.18.49-.37,1-.56,1.48s-.39,1-.58,1.51c-.25.67-.5,1.33-.76,2-.13.34-.15.34.08.65h0l2.17,3,1.71,2.36L38,33.08c0,.06.09.11.13.16l.06,0ZM11.72,33.47l0,0,.11-.09,1.37-1.92,2.33-3.21c.77-1.07,1.55-2.15,2.33-3.21a.28.28,0,0,0,0-.3c-.14-.35-.28-.69-.41-1s-.31-.8-.47-1.21-.39-1-.59-1.47-.39-1-.59-1.51a.6.6,0,0,0-.06-.11h0ZM25,41.4h0l.29-.72c.24-.65.48-1.3.73-2l.58-1.5c.23-.59.45-1.19.68-1.78,0-.11,0-.13-.12-.13H22.81c-.13,0-.18,0-.13.14.2.46.38.93.56,1.4.31.78.61,1.57.92,2.35l.68,1.73Z"/></g></g></g></svg>