<?xml version="1.0" encoding="UTF-8"?>
<svg width="36px" height="32px" viewBox="0 0 36 32" version="1.1" xmlns="http://www.w3.org/2000/svg" xmlns:xlink="http://www.w3.org/1999/xlink">
    <!-- Generator: Sketch 59.1 (86144) - https://sketch.com -->
    <title>Group 19</title>
    <desc>Created with Sketch.</desc>
    <g id="Page-1" stroke="none" stroke-width="1" fill="none" fill-rule="evenodd">
        <g id="ThirdPartyWallet-Copy-3" transform="translate(-537.000000, -4520.000000)">
            <g id="Stacked-Group-3" transform="translate(175.000000, 4359.000000)">
                <g transform="translate(0.000000, 129.000000)" id="Padding-Group-10">
                    <g transform="translate(232.000000, 0.000000)">
                        <g id="Stacked-Group-9" transform="translate(86.000000, 32.000000)">
                            <g id="Group-19" transform="translate(44.000000, 0.000000)">
                                <polygon id="Fill-1" fill="#2F3030" points="23.3334 24.1742 19.7194 31.3162 34.8964 23.4172"></polygon>
                                <polygon id="Fill-2" fill="#828384" points="19.7199 31.3166 23.3339 24.1746 17.3169 14.5326"></polygon>
                                <polygon id="Fill-3" fill="#3399FF" points="24.0505 22.9356 34.1405 3.2936 17.9665 13.2936"></polygon>
                                <polygon id="Fill-4" fill="#343535" points="17.9666 13.294 28.7166 13.843 24.0506 22.936"></polygon>
                                <polygon id="Fill-5" fill="#0066CC" points="24.0507 22.9358 35.4057 22.2468 35.4057 22.2328 34.1457 3.2938"></polygon>
                                <polygon id="Fill-6" fill="#131313" points="24.0507 22.9358 35.4057 22.2468 35.4057 22.2448 28.7167 13.8428"></polygon>
                                <polygon id="Fill-7" fill="#828384" points="18.9693 30.9413 15.7653 18.8573 12.4423 15.6863"></polygon>
                                <polygon id="Fill-8" fill="#3399FF" points="12.717 14.1455 15.272 16.5655 14.684 14.6665 24.694 4.2465 25.529 0.4935"></polygon>
                                <polygon id="Fill-9" fill="#343535" points="15.2717 16.5659 12.7167 14.1459 15.8767 13.4339 14.6837 14.6669"></polygon>
                                <polygon id="Fill-10" fill="#828384" points="18.252 31.1096 12.017 20.2746 7.978 18.0906"></polygon>
                                <polygon id="Fill-11" fill="#3399FF" points="16.6896 0.0002 7.8426 16.5202 10.9466 18.1962 9.8886 16.5102 16.8406 3.8322"></polygon>
                                <polygon id="Fill-12" fill="#343535" points="10.947 18.1963 7.843 16.5213 10.712 14.9973 9.888 16.5093"></polygon>
                                <polygon id="Fill-13" fill="#828384" points="17.4843 31.2608 8.6953 22.3748 4.2303 21.2888"></polygon>
                                <polygon id="Fill-14" fill="#3399FF" points="7.1262 20.6445 3.6912 19.8205 8.0222 1.5905 9.1602 5.2605 5.6692 19.2835"></polygon>
                                <polygon id="Fill-15" fill="#343535" points="7.1262 20.6445 3.6912 19.8155 6.0842 17.6195 5.6692 19.2835"></polygon>
                                <polygon id="Fill-16" fill="#828384" points="1.4175 25.3946 16.7675 31.6136 6.0005 25.2826"></polygon>
                                <polygon id="Fill-17" fill="#3399FF" points="0.5103 24.1013 4.0393 24.0223 2.2793 23.0753 2.0453 8.6273 0.0003 5.3843"></polygon>
                                <polygon id="Fill-18" fill="#343535" points="0.5103 24.1013 4.0393 24.0223 2.2793 23.0753 2.2523 21.3723"></polygon>
                            </g>
                        </g>
                    </g>
                </g>
            </g>
        </g>
    </g>
</svg>