<svg width="132" height="118" viewBox="0 0 132 118" fill="none" xmlns="http://www.w3.org/2000/svg">
<path d="M130.636 105.939L109.94 71.1696C108.698 68.893 106.215 67.8582 103.938 67.8582C101.662 67.8582 99.3851 68.893 98.1434 71.1696L78.068 105.939C75.1706 110.906 78.6889 117.322 84.2769 117.322H103.938H124.014C130.016 117.322 133.534 111.113 130.636 105.939Z" fill="#E84142"/>
<path d="M85.7257 29.9841L71.2383 3.286C68.9617 -1.06021 62.9598 -1.06021 60.4763 3.07903C56.1301 10.5297 17.8421 77.5854 2.11296 105.318C1.69904 105.939 1.28511 106.56 1.07815 107.181C1.07815 107.181 1.07815 107.388 0.871191 107.388C-1.61235 111.734 1.49208 117.322 6.66613 117.322H31.0877C40.8149 117.322 49.7142 112.148 54.4744 103.663L85.3117 49.4386C88.8301 43.4367 88.8301 36.193 85.7257 29.9841Z" fill="#E84142"/>
</svg>
