<svg xmlns="http://www.w3.org/2000/svg" viewBox="0 0 18.22 26.89"><defs><style>.cls-1{fill:none;stroke:#282e60;stroke-miterlimit:10;stroke-width:2px;}</style></defs><title>Bitcoin Private</title><g id="Calque_2" data-name="Calque 2"><g id="Line"><g id="Bitcoin_Private" data-name="Bitcoin Private"><line class="cls-1" x1="13.83" y1="1.21" x2="12.8" y2="6.07"/><line class="cls-1" x1="6.43" y1="20.41" x2="5.03" y2="26.67"/><line class="cls-1" x1="9.11" y1="0.21" x2="8.08" y2="5.07"/><path class="cls-1" d="M3.86,12.32,5.61,4.11,14.55,6a3.73,3.73,0,0,1,2.58,4.55l-.12.56a3.73,3.73,0,0,1-4.21,3.1L3.86,12.32,2.11,20.54l-.1.4L1,25.8"/><path class="cls-1" d="M5.44,21.21l6.18,1.35a3.83,3.83,0,0,0,4.46-3L16.2,19a4,4,0,0,0-.29-2.56"/></g></g></g></svg>