<?xml version="1.0" encoding="utf-8"?><svg width="170" height="145" viewBox="0 0 170 145" fill="none" xmlns="http://www.w3.org/2000/svg">
<path d="M126.429 44.3681C136.188 54.1268 151.988 54.1268 161.746 44.3681C171.505 34.6093 171.505 18.8094 161.746 9.05059C151.988 -0.708187 136.188 -0.708187 126.429 9.05059C116.67 18.8094 116.67 34.6093 126.429 44.3681Z" fill="#108CFF"/>
<path d="M71.594 54.1268C54.4 49.015 35.8118 54.1268 23.2648 67.1385L11.1826 79.6855C-9.7291 101.062 0.959075 136.844 30.2354 143.815C43.2471 147.067 57.1882 142.885 66.4823 133.126L123.176 75.0384C125.035 73.1796 124.105 69.462 121.317 68.5326L71.594 54.1268Z" fill="#FFCA62"/>
<path d="M72.5233 90.3737C55.3292 95.4854 36.7411 90.8384 23.7294 78.2914L11.1824 65.7444C-9.72926 44.8327 0.0295111 8.58587 29.3058 1.15061C42.3175 -2.10231 56.2586 1.61532 65.5527 11.3741L123.176 68.5326C125.035 70.3914 124.57 74.1091 121.782 75.0385L72.5233 90.3737Z" fill="#108CFF"/>
<path fill-rule="evenodd" clip-rule="evenodd" d="M23.7295 78.2914C36.2765 90.8384 55.3294 95.4854 72.5234 90.3737L121.782 75.0384C122.711 74.5737 123.641 74.109 124.105 73.1796C124.57 71.3208 123.641 68.9973 121.317 68.5326L71.594 54.1268C54.3999 49.015 35.8118 54.1268 23.2648 67.1385L18.1531 72.7149L23.7295 78.2914Z" fill="#0066FF"/>
</svg>
