<?xml version="1.0" encoding="utf-8"?><svg width="288" height="359" viewBox="0 0 288 359" fill="none" xmlns="http://www.w3.org/2000/svg">
<path d="M37.3666 199.575L33.4172 197.9L33.3874 197.895H33.3824C33.2235 197.816 33.0297 197.767 32.8012 197.762C32.5926 197.752 32.3939 197.747 32.1852 197.742H32.1753C27.7093 197.599 23.2334 197.442 18.7674 197.269C18.2358 197.25 17.7142 197.235 17.1827 197.215C16.5865 197.19 16.0749 197.427 15.5433 197.969C15.4241 198.092 15.3049 198.215 15.1856 198.334C10.8091 202.808 6.42754 207.277 2.02613 211.741C1.98639 211.785 1.94665 211.829 1.90194 211.874C1.85723 211.918 1.81749 211.962 1.77278 212.002C1.20646 212.578 0.938199 213.135 0.953103 213.795C0.953103 213.889 0.963038 213.983 0.977941 214.081C1.06239 214.722 1.14684 215.372 1.22633 216.017C1.42504 217.643 1.61381 219.279 1.86716 220.881C2.61232 225.734 4.54477 229.656 7.60986 232.632C9.78076 234.761 12.3093 236.204 15.1807 237.003C16.8747 237.471 18.6879 237.712 20.6203 237.737C21.0724 237.742 21.4847 237.549 21.8821 237.145C29.7013 229.242 34.0481 220.201 34.8032 210.001C34.982 207.474 34.7287 205.099 34.4505 203.221C34.366 202.546 34.2915 201.93 34.217 201.364C34.1276 200.674 34.0531 200.043 33.9835 199.423C34.9771 199.467 35.9805 199.496 36.9791 199.526C37.1231 199.526 37.2473 199.541 37.3666 199.575ZM26.7207 214.308C25.6427 216.175 24.5498 218.038 23.4519 219.905C23.1887 220.353 22.9303 220.802 22.6621 221.255C22.2448 221.97 21.7927 222.344 21.2959 222.388C21.0575 222.418 20.8041 222.364 20.5359 222.236C18.5389 221.299 16.5468 220.363 14.5597 219.422C12.9253 218.658 11.2909 217.88 9.6516 217.116C9.24921 216.929 8.99089 216.614 9.02069 216.052C9.0505 215.505 9.27405 215.012 9.73605 214.618C10.2378 214.199 10.7048 214.111 11.1518 214.322C12.3342 214.879 13.5165 215.431 14.6988 215.988C15.9457 216.579 17.1876 217.166 18.4345 217.752C19.3635 218.195 20.3024 218.629 21.2512 219.067C21.286 219.018 21.3208 218.969 21.3506 218.915C21.4052 218.826 21.4549 218.747 21.5046 218.668C22.21 217.446 22.9303 216.224 23.6357 215.007C23.9835 214.421 24.3213 213.82 24.6839 213.234C25.0515 212.637 25.5285 212.278 26.0997 212.292C27.0088 212.292 27.3218 213.278 26.7207 214.308Z" fill="#F9F9F9" stroke="#41CCB4" stroke-miterlimit="10"/>
<path d="M34.5897 227.335C32.4834 231.43 29.6369 235.283 26.0601 238.894C25.6577 239.298 25.2454 239.491 24.7983 239.491C21.1768 239.456 17.9677 238.628 15.1758 236.993C13.9687 236.278 12.836 235.411 11.7878 234.386C8.72275 231.405 6.79527 227.498 6.04514 222.635C5.77689 220.91 5.58315 219.156 5.36457 217.412C5.30495 216.884 5.2354 216.357 5.16586 215.83C5.12115 215.5 5.14102 215.199 5.21553 214.909C5.33476 214.505 5.57321 214.13 5.95572 213.751C6.05508 213.647 6.15443 213.549 6.24882 213.445H6.25379C10.5509 209.085 14.843 204.709 19.1301 200.324L19.7263 199.713C20.2528 199.171 20.7695 198.935 21.3656 198.954C21.614 198.964 21.8525 198.974 22.1008 198.984C26.0601 199.137 30.0194 199.279 33.9836 199.408C34.9772 199.452 35.9856 199.477 36.9792 199.506C37.1183 199.516 37.2474 199.526 37.3667 199.56L37.5952 199.659C37.8932 199.826 38.0572 200.137 38.1069 200.615C38.246 201.916 38.4248 203.206 38.6334 204.956C38.9116 206.838 39.165 209.218 38.9712 211.74C38.5689 217.289 37.0984 222.477 34.5897 227.335Z" fill="#F9F9F9" stroke="#41CCB4" stroke-miterlimit="10"/>
<path d="M24.3014 225.941C24.2318 225.912 24.1623 225.877 24.0927 225.838L18.5189 222.438C17.8731 222.044 17.6695 221.206 18.0669 220.565C18.4643 219.925 19.3088 219.728 19.9546 220.117L24.2169 222.719L29.2393 212.096C29.5622 211.416 30.3769 211.11 31.0674 211.44C31.753 211.76 32.051 212.569 31.7281 213.253L26.0599 225.256C25.896 225.606 25.583 225.872 25.2105 225.98C24.9074 226.069 24.5895 226.054 24.3014 225.941Z" fill="#F9F9F9" stroke="#41CCB4" stroke-miterlimit="10"/>
<path d="M179.796 27.6008L175.653 29.7955C161.155 26.1377 153.661 21.0169 151.042 19.0052C150.372 18.5175 150.067 18.1517 150.006 18.1517L153.661 17.603L153.418 18.5784V18.6394V18.7003V18.7613C153.296 19.249 154.21 19.8586 155.367 20.1025C155.489 20.1025 155.611 20.1634 155.672 20.1634C155.733 20.1634 155.855 20.1634 155.915 20.2244C155.976 20.2244 155.976 20.2244 156.037 20.2244C156.098 20.2244 156.159 20.2244 156.22 20.2244C156.342 20.2244 156.464 20.2244 156.525 20.2244C156.829 20.2244 157.073 20.1634 157.256 20.1025C157.499 20.0415 157.682 19.9196 157.682 19.7367L158.048 18.2736C162.921 19.9196 167.368 21.6875 170.962 23.2725L170.536 24.9185C170.536 24.9185 170.475 25.2843 170.414 25.4672C170.414 25.4672 170.414 25.5281 170.414 25.5891V25.6501V25.711V25.772C170.414 25.772 170.414 25.8329 170.475 25.8329L170.536 25.8939L170.597 25.9549L170.658 26.0158L170.719 26.0768C170.719 26.0768 170.78 26.1377 170.841 26.1377C170.841 26.1377 170.902 26.1378 170.902 26.1987C170.902 26.1987 170.902 26.1987 170.962 26.1987L171.023 26.2597C171.023 26.2597 171.084 26.2597 171.084 26.3206L171.145 26.3816C171.206 26.3816 171.267 26.4426 171.267 26.4426C171.389 26.5035 171.511 26.5645 171.633 26.6255C171.693 26.6255 171.693 26.6254 171.754 26.6864C171.754 26.6864 171.754 26.6864 171.815 26.6864C171.815 26.6864 171.876 26.6864 171.937 26.7474C172.059 26.8083 172.12 26.8083 172.242 26.8693C172.364 26.9303 172.485 26.9303 172.607 26.9912C172.668 26.9912 172.79 27.0522 172.851 27.0522C172.912 27.0522 173.034 27.1131 173.095 27.1131C173.156 27.1131 173.156 27.1131 173.216 27.1131C173.216 27.1131 173.216 27.1131 173.277 27.1131C173.338 27.1131 173.399 27.1131 173.46 27.1131C173.521 27.1131 173.521 27.1131 173.582 27.1131C173.704 27.1131 173.765 27.1131 173.887 27.1131C174.008 27.1131 174.13 27.1131 174.191 27.1131H174.252H174.313C174.374 27.1131 174.435 27.1131 174.496 27.1131C174.557 27.1131 174.618 27.1131 174.618 27.1131H174.678H174.739H174.8C174.8 27.1131 174.861 27.1131 174.861 27.0522C174.861 27.0522 174.922 27.0522 174.922 26.9912C174.922 26.9912 174.983 26.9912 174.983 26.9303C174.983 26.9303 175.044 26.9303 175.044 26.8693C175.044 26.8693 175.105 26.8693 175.105 26.8083C175.105 26.8083 175.105 26.7474 175.166 26.7474C175.166 26.7474 175.166 26.7474 175.166 26.6864C175.166 26.6864 175.166 26.6255 175.227 26.6255V26.5645C175.227 26.5645 175.41 26.1378 175.653 25.4062C178.334 26.8083 179.796 27.6008 179.796 27.6008Z" fill="#F9F9F9" stroke="#41CCB4" stroke-miterlimit="10" stroke-linecap="round" stroke-linejoin="round"/>
<path d="M175.653 29.7952L169.622 53.0828C169.561 53.0828 169.561 53.0828 169.5 53.0218C151.346 48.4496 144.584 41.8657 144.584 41.8657L150.006 18.1514C150.189 18.3952 150.555 18.7 151.042 19.0048C151.834 19.6754 153.174 20.5899 155.063 21.6872C159.083 24.1257 165.723 27.2957 175.653 29.7952Z" fill="#F9F9F9" stroke="#41CCB4" stroke-miterlimit="10" stroke-linecap="round" stroke-linejoin="round"/>
<path d="M179.796 27.6011L173.765 50.6448L169.622 53.0833L175.653 29.7957L179.796 27.6011Z" fill="#F9F9F9" stroke="#41CCB4" stroke-miterlimit="10" stroke-linecap="round" stroke-linejoin="round"/>
<path d="M175.531 26.9912C175.409 27.5399 174.13 27.6618 172.729 27.296C171.328 26.9303 170.231 26.2597 170.353 25.711C170.414 25.5281 170.475 25.5891 170.475 25.5891C170.475 25.5891 170.475 25.6501 170.475 25.711V25.772V25.8329V25.8939C170.475 25.8939 170.475 25.9549 170.536 25.9549L170.597 26.0158L170.658 26.0768L170.719 26.1378L170.779 26.1987C170.84 26.1987 170.84 26.2597 170.901 26.2597C170.901 26.2597 170.962 26.2597 170.962 26.3206C170.962 26.3206 170.962 26.3206 171.023 26.3206L171.084 26.3816C171.084 26.3816 171.145 26.3816 171.145 26.4426L171.206 26.5035C171.267 26.5035 171.328 26.5645 171.328 26.5645C171.45 26.6255 171.571 26.6864 171.693 26.7474C171.754 26.7474 171.754 26.7474 171.815 26.8083C171.815 26.8083 171.815 26.8083 171.876 26.8083C171.876 26.8083 171.937 26.8083 171.998 26.8693C172.12 26.9303 172.181 26.9303 172.302 26.9912C172.424 27.0522 172.546 27.0522 172.668 27.1132C172.729 27.1132 172.851 27.1741 172.912 27.1741C172.973 27.1741 173.094 27.2351 173.155 27.2351C173.216 27.2351 173.216 27.2351 173.277 27.2351C173.277 27.2351 173.277 27.2351 173.338 27.2351C173.399 27.2351 173.46 27.2351 173.521 27.2351C173.582 27.2351 173.582 27.2351 173.643 27.2351C173.886 27.2351 174.069 27.2351 174.252 27.2351H174.313H174.374C174.435 27.2351 174.496 27.2351 174.556 27.2351C174.617 27.2351 174.678 27.2351 174.678 27.2351H174.739H174.8H174.861C174.861 27.2351 174.922 27.2351 174.922 27.1741C174.922 27.1741 174.983 27.1741 174.983 27.1132C174.983 27.1132 175.044 27.1132 175.044 27.0522C175.044 27.0522 175.105 27.0522 175.105 26.9912C175.105 26.9912 175.166 26.9912 175.166 26.9303C175.166 26.9303 175.166 26.8693 175.227 26.8693C175.227 26.8693 175.227 26.8693 175.227 26.8083C175.227 26.8083 175.227 26.7474 175.287 26.7474C175.531 26.9303 175.531 26.9912 175.531 26.9912Z" fill="#F9F9F9" stroke="#41CCB4" stroke-miterlimit="10" stroke-linecap="round" stroke-linejoin="round"/>
<path d="M157.865 19.9804C157.804 20.1633 157.682 20.2852 157.438 20.3462C156.951 20.4681 156.22 20.4681 155.428 20.2852C154.149 19.9804 153.235 19.3708 153.357 18.8831C153.357 18.8831 153.418 18.7612 153.478 18.7002V18.7612V18.8221C153.357 19.3098 154.27 19.9194 155.428 20.1633C155.55 20.1633 155.672 20.2243 155.732 20.2243C155.793 20.2243 155.915 20.2243 155.976 20.2852C156.037 20.2852 156.037 20.2852 156.098 20.2852C156.159 20.2852 156.22 20.2852 156.281 20.2852C156.403 20.2852 156.524 20.2852 156.585 20.2852C156.89 20.2852 157.134 20.2243 157.316 20.1633C157.56 20.1023 157.743 19.9804 157.743 19.7975C157.804 19.8585 157.865 19.9194 157.865 19.9804Z" fill="#F9F9F9" stroke="#41CCB4" stroke-miterlimit="10" stroke-linecap="round" stroke-linejoin="round"/>
<path d="M161.033 34.8557C160.789 35.7701 160.18 36.4407 159.51 36.6845L159.388 37.2942L158.596 40.708L158.474 41.1957L156.525 40.2203L157.56 36.1359C157.134 35.5872 156.951 34.7337 157.134 33.9412C157.256 33.5145 157.438 33.1487 157.682 32.8439C158.169 32.2343 158.961 31.8685 159.692 32.0514C160.18 32.1733 160.545 32.4781 160.789 32.9049C160.911 33.1487 161.033 33.3926 161.094 33.6974C161.154 34.0631 161.154 34.4289 161.033 34.8557Z" fill="#F9F9F9" stroke="#41CCB4" stroke-miterlimit="10" stroke-linecap="round" stroke-linejoin="round"/>
<path d="M161.033 34.8552C160.789 35.7697 160.18 36.4402 159.51 36.6841L159.388 37.2937L158.413 41.0734L158.048 40.8295L159.205 36.6231C158.718 36.1354 158.535 35.221 158.779 34.3066C158.84 34.0627 158.9 33.8798 159.022 33.6969C159.388 32.9654 159.997 32.5387 160.545 32.7825C160.667 32.8435 160.728 32.9044 160.85 32.9654C160.972 33.2092 161.094 33.4531 161.154 33.7579C161.154 34.0627 161.154 34.4285 161.033 34.8552Z" fill="#F9F9F9" stroke="#41CCB4" stroke-miterlimit="10" stroke-linecap="round" stroke-linejoin="round"/>
<path d="M157.865 19.8585L160.119 10.6532C160.119 10.6532 162.068 3.33767 168.952 5.16654C175.897 6.99541 172.729 16.8103 172.729 16.8103L170.536 25.7718C170.536 25.7718 170.475 26.6862 172.729 27.2959C174.983 27.9055 175.531 26.8691 175.531 26.8691L178.821 13.5184C178.821 13.5184 180.283 5.28847 171.632 1.63073C162.982 -2.02701 157.56 4.19114 156.829 6.14194C156.098 8.09273 153.479 18.8221 153.479 18.8221C153.479 18.8221 153.174 19.6146 155.428 20.2242C157.438 20.7119 157.865 19.8585 157.865 19.8585Z" fill="#F9F9F9" stroke="#41CCB4" stroke-miterlimit="10" stroke-linecap="round" stroke-linejoin="round"/>
<path d="M75.2937 162.364C75.4477 165.773 75.2662 168.479 75.0792 170.855C74.5017 178.478 71.3998 182.306 86.3979 198.057C86.6343 198.305 86.7993 198.613 86.8763 198.943C88.8673 207.413 76.3387 312.026 75.0792 314.825" fill="#F9F9F9"/>
<path d="M75.2937 162.364C75.4477 165.773 75.2662 168.479 75.0792 170.855C74.5017 178.478 71.3998 182.306 86.3979 198.057C86.6343 198.305 86.7993 198.613 86.8763 198.943C88.8673 207.413 76.3387 312.026 75.0792 314.825" stroke="#142533" stroke-miterlimit="10"/>
<path d="M131.541 118.833C131.541 118.833 143.145 117.513 154.689 109.329C166.233 101.145 202.433 74.1303 231.461 69.0264C260.49 63.9226 262.31 66.172 263.668 67.9759C265.269 70.0934 264.713 76.0112 229.993 82.5505C229.993 82.5505 236.323 81.2635 244.188 79.4651C251.233 77.8536 259.791 75.5217 261.392 78.4916C263.344 82.1215 248.632 96.4706 216.991 95.7006C216.991 95.7006 225.241 95.8216 234.118 94.6721C242.995 93.5227 252.504 91.0972 252.96 95.2386C253.45 99.6825 241.735 110.864 205.453 107.069C205.453 107.069 241.433 110.583 237.489 116.71C232.754 124.069 198.451 117.276 198.451 117.276L199.216 117.458C199.216 117.458 219.703 122.424 221.721 127.99C223.74 133.556 201.135 130.746 189.734 126.901L191.181 127.33C191.181 127.33 205.585 132.918 206.173 137.136C206.762 141.355 191.027 140.849 178.179 134.26C178.179 134.26 192.886 141.861 189.003 145.92C185.12 149.978 167.075 139.842 167.075 139.842C167.075 139.842 173.834 145.43 174.439 148.95C175.044 152.47 163.99 153.163 151.917 145.045C151.917 145.045 158.418 150.754 154.535 152.591C150.652 154.428 139.323 150.314 132.245 143.588L131.541 118.833Z" fill="#F9F9F9" stroke="#41CCB4" stroke-miterlimit="10" stroke-linecap="round" stroke-linejoin="round"/>
<path d="M191.676 85.0252C191.676 85.0252 223.272 76.517 228.794 80.5429C233.463 83.9473 220.968 87.8301 200.233 90.7945C200.233 90.7945 217.745 88.0391 217.442 93.8304C217.057 101.2 193.931 97.2898 193.639 97.4658C193.348 97.6418 208.373 101.591 205.024 106.849C201.674 112.106 184.487 104.489 184.487 104.489C184.487 104.489 203.396 112.139 198.132 117.232C192.869 122.325 177.712 114.092 177.712 114.092C177.712 114.092 193.26 121.863 189.256 126.972C185.252 132.082 168.208 120.879 168.208 120.879C168.208 120.879 181.589 130.25 177.305 134.221C173.02 138.192 155.69 126.862 155.69 126.862C155.69 126.862 169.033 135.145 166.701 139.837C164.369 144.528 144.581 133.105 144.581 133.105C144.581 133.105 153.798 142.152 151.939 144.566C150.075 146.981 138.074 139.012 138.074 139.012" stroke="#41CCB4" stroke-miterlimit="10" stroke-linecap="round" stroke-linejoin="round"/>
<path d="M84.9734 106.793C84.9734 106.793 78.4011 102.289 74.9967 91.7897C71.5923 81.296 61.5276 47.2026 45.9136 34.3549C30.2996 21.5073 28.1436 22.9593 26.4827 24.1418C24.5303 25.5332 22.1763 30.8736 40.6558 46.6141C40.6558 46.6141 37.3284 43.6607 33.286 39.8218C29.6671 36.3789 25.4377 31.8635 23.0948 34.0085C20.2349 36.6209 22.7868 53.4284 42.6907 61.8871C42.6907 61.8871 37.5374 59.6157 32.5765 56.0463C27.6157 52.4769 22.8418 47.615 20.6749 51.1074C18.3485 54.8528 20.4879 68.0249 44.6486 75.1692C44.6486 75.1692 20.8069 67.8654 20.4549 74.3607C20.0314 82.165 44.3242 86.1249 44.3242 86.1249L43.7687 86.0644C43.7687 86.0644 28.8421 84.5024 25.0582 88.7923C21.2744 93.0821 36.5254 97.1465 45.3251 97.0695L44.2362 97.0255C44.2362 97.0255 32.7855 97.757 30.5031 101.282C28.2207 104.808 38.1698 108.905 49.12 106.843C49.12 106.843 36.5639 109.252 37.1194 113.927C37.6694 118.601 53.4429 114.933 53.4429 114.933C53.4429 114.933 46.7166 117.875 44.7366 120.779C42.7567 123.683 49.274 127.484 60.4332 123.859C60.4332 123.859 53.8114 126.983 55.3788 129.706C56.9463 132.428 65.8175 132.103 73.2588 128.259L84.9734 106.793Z" fill="#F9F9F9" stroke="#41CCB4" stroke-miterlimit="10" stroke-linecap="round" stroke-linejoin="round"/>
<path d="M63.2105 59.8472C63.2105 59.8472 47.558 43.2817 42.3112 45.2177C37.8728 46.8511 43.8291 53.8579 55.2908 62.4321C55.2908 62.4321 45.721 54.9689 43.2681 60.1277C40.1497 66.689 56.2202 69.9394 56.3247 70.1759C56.4237 70.4124 45.3361 69.5324 45.0116 75.1038C44.6871 80.6751 58.7776 78.9646 58.7776 78.9646C58.7776 78.9646 43.6036 80.2076 44.5331 86.1804C45.4626 92.1532 58.5851 89.3263 58.5851 89.3263C58.5851 89.3263 45.4351 91.6417 45.5781 97.2736C45.7265 102.9 61.3681 98.0105 61.3681 98.0105C61.3681 98.0105 48.8284 102.35 49.6644 107.063C50.5004 111.777 66.3784 106.86 66.3784 106.86C66.3784 106.86 54.3558 110.259 53.6573 115.038C52.9588 119.817 70.3988 115.533 70.3988 115.533C70.3988 115.533 60.5761 120.796 60.6256 123.442C60.6751 126.093 71.7298 122.578 71.7298 122.578" stroke="#41CCB4" stroke-miterlimit="10" stroke-linecap="round" stroke-linejoin="round"/>
<path opacity="0.5" d="M130.969 155.633C131.101 155.54 131.222 155.435 131.349 155.319C131.448 155.242 131.541 155.171 131.64 155.094C131.42 155.275 131.2 155.457 130.969 155.633Z" fill="#F9F9F9" stroke="#142533" stroke-miterlimit="10" stroke-linecap="round" stroke-linejoin="round"/>
<path d="M132.608 165.983C153.441 147.316 166.454 119.465 143.761 99.8694C153.589 108.356 141.781 147.888 125.183 160.769C122.295 163.117 119.358 165.119 116.334 166.885C101.242 176.262 75.6733 179.562 61.6818 165.433C64.3107 170.295 70.432 175.899 73.1709 178.06C80.7112 184.011 106.472 189.396 132.608 165.983Z" fill="#F9F9F9" stroke="#142533" stroke-miterlimit="10" stroke-linecap="round" stroke-linejoin="round"/>
<path d="M125.717 160.328C148.046 141.75 156.176 114.705 143.877 99.9228C131.577 85.1406 103.505 88.2182 81.1764 106.797C58.8477 125.376 50.7175 152.42 63.0172 167.202C75.3169 181.984 103.389 178.907 125.717 160.328Z" fill="#F9F9F9" stroke="#142533" stroke-miterlimit="10" stroke-linecap="round" stroke-linejoin="round"/>
<path d="M118.792 151.447C134.504 138.374 140.224 119.344 131.569 108.942C122.914 98.5396 103.161 100.705 87.4497 113.778C71.7381 126.851 66.0176 145.881 74.6727 156.283C83.3277 166.685 103.081 164.52 118.792 151.447Z" fill="#F9F9F9" stroke="#142533" stroke-miterlimit="10" stroke-linecap="round" stroke-linejoin="round"/>
<path d="M73.798 174.619L77.9613 180.668" stroke="#142533" stroke-miterlimit="10" stroke-linecap="round" stroke-linejoin="round"/>
<path d="M85.5237 176.801L89.1976 183.087" stroke="#142533" stroke-miterlimit="10" stroke-linecap="round" stroke-linejoin="round"/>
<path d="M79.7598 176.114L83.2412 182.109" stroke="#142533" stroke-miterlimit="10" stroke-linecap="round" stroke-linejoin="round"/>
<path d="M98.844 175.184L103.123 181.938" stroke="#142533" stroke-miterlimit="10" stroke-linecap="round" stroke-linejoin="round"/>
<path d="M91.8704 176.295L95.8632 183.038" stroke="#142533" stroke-miterlimit="10" stroke-linecap="round" stroke-linejoin="round"/>
<path d="M111.543 169.728L116.427 177.06" stroke="#142533" stroke-miterlimit="10" stroke-linecap="round" stroke-linejoin="round"/>
<path d="M105.659 172.588L110.669 179.678" stroke="#142533" stroke-miterlimit="10" stroke-linecap="round" stroke-linejoin="round"/>
<path d="M123.082 162.562L127.949 169.861" stroke="#142533" stroke-miterlimit="10" stroke-linecap="round" stroke-linejoin="round"/>
<path d="M117.076 166.693L121.971 174.035" stroke="#142533" stroke-miterlimit="10" stroke-linecap="round" stroke-linejoin="round"/>
<path d="M135.138 151.432L139.901 158.576" stroke="#142533" stroke-miterlimit="10" stroke-linecap="round" stroke-linejoin="round"/>
<path d="M139.757 145.051L144.823 152.657" stroke="#142533" stroke-miterlimit="10" stroke-linecap="round" stroke-linejoin="round"/>
<path d="M143.486 139.424L148.573 147.047" stroke="#142533" stroke-miterlimit="10" stroke-linecap="round" stroke-linejoin="round"/>
<path d="M128.956 157.488L133.862 164.846" stroke="#142533" stroke-miterlimit="10" stroke-linecap="round" stroke-linejoin="round"/>
<path d="M146.704 131.9L152.055 139.929" stroke="#142533" stroke-miterlimit="10" stroke-linecap="round" stroke-linejoin="round"/>
<path d="M149.206 123.392L154.92 131.504" stroke="#142533" stroke-miterlimit="10" stroke-linecap="round" stroke-linejoin="round"/>
<path d="M149.52 114.472L155.432 122.666" stroke="#142533" stroke-miterlimit="10" stroke-linecap="round" stroke-linejoin="round"/>
<path d="M107.859 139.039C109.8 139.193 111.95 138.528 113.694 137.054L114.321 136.576C117.714 134.205 119.029 129.893 117.208 126.89L116.664 126.137L121.218 122.667L119.667 120.511L115.113 123.981L112.924 120.94L117.478 117.469L115.927 115.313L111.373 118.784L109.349 115.968L85.2433 134.343L86.0188 135.421L87.4927 137.472L82.7959 141.052L84.3469 143.208L89.0437 139.628L91.2326 142.669L86.5358 146.25L88.0867 148.406L92.7836 144.825L93.5811 145.936C95.726 148.714 100.203 148.824 103.53 146.206L104.234 145.667C106.539 143.978 107.842 141.426 107.859 139.039ZM108.337 120.082L114.596 128.777C115.619 130.465 114.86 132.957 112.836 134.37L112.071 134.959C110.224 136.51 107.677 136.543 106.451 135.096L100.142 126.329L108.337 120.082ZM101.957 144.066C99.9939 145.612 97.3649 145.546 96.1275 143.951L89.3627 134.546L97.5739 128.287L104.317 137.665C105.466 139.386 104.757 141.987 102.711 143.494L101.957 144.066Z" fill="#41CCB4"/>
<path d="M83.9778 124.886C80.4194 126.327 76.3441 124.908 74.4356 121.559L69.1998 112.363C67.3353 107.765 69.5353 102.524 74.1221 100.665C78.709 98.8062 83.9338 101.028 85.8038 105.626L88.4932 115.817C89.4777 119.552 87.5472 123.434 83.9778 124.886Z" fill="#F9F9F9" stroke="#142533" stroke-miterlimit="10"/>
<path d="M97.4688 112.272C94.0864 113.526 90.286 112.123 88.5151 108.967L83.4882 99.9908C83.1802 99.4409 82.9272 98.8579 82.7788 98.2419C81.7448 93.886 84.0877 89.3542 88.3721 87.7592C92.6619 86.1698 97.3918 88.0782 99.4487 92.0546C99.7402 92.6156 99.9272 93.2205 100.054 93.842L102.094 103.923C102.82 107.476 100.857 111.018 97.4688 112.272Z" fill="#F9F9F9" stroke="#142533" stroke-miterlimit="10"/>
<path d="M127.152 108.855C123.709 107.766 121.575 104.329 122.119 100.743L123.665 90.5735C123.758 89.952 123.918 89.3305 124.182 88.7585C126.041 84.6886 130.672 82.5437 135.033 83.9242C139.394 85.3046 141.957 89.721 141.132 94.1154C141.017 94.7368 140.791 95.3308 140.511 95.8973L135.929 105.11C134.318 108.354 130.589 109.944 127.152 108.855Z" fill="#F9F9F9" stroke="#142533" stroke-miterlimit="10"/>
<path d="M112.373 107.689C108.765 107.815 105.603 105.286 104.916 101.727L102.974 91.6239C102.853 91.0025 102.798 90.37 102.853 89.743C103.244 85.2881 106.896 81.7187 111.466 81.5592C116.036 81.3998 119.925 84.7052 120.623 89.127C120.722 89.7485 120.711 90.3865 120.634 91.0135L119.397 101.227C118.962 104.824 115.981 107.568 112.373 107.689Z" fill="#F9F9F9" stroke="#142533" stroke-miterlimit="10"/>
<path d="M152.198 311.182C150.938 308.377 136.754 206.033 138.75 197.564C138.827 197.228 138.992 196.926 139.229 196.678C151.037 184.276 153.358 179.266 153.534 173.969L153.606 174.002C153.991 169.575 155.09 165.208 156.614 160.979C156.735 160.643 156.856 160.308 156.977 159.978C157.34 159.021 157.736 158.075 158.132 157.129C160.854 150.688 164.325 144.628 167.41 139.282C169.214 136.163 170.919 133.216 172.123 130.741C172.833 129.289 172.547 128.211 171.238 127.342C168.015 125.197 158.891 125.208 152.198 132.853C149.129 136.361 146.984 140.86 144.916 145.205C142.93 149.374 140.879 153.587 138.003 157.129C137.816 157.36 137.623 157.591 137.425 157.822C136.089 159.373 134.494 160.676 132.761 161.76C130.226 163.349 123.516 167.43 122.427 174.69" fill="#F9F9F9"/>
<path d="M152.198 311.182C150.938 308.377 136.754 206.033 138.75 197.564C138.827 197.228 138.992 196.926 139.229 196.678C151.037 184.276 153.358 179.266 153.534 173.969L153.606 174.002C153.991 169.575 155.09 165.208 156.614 160.979C156.735 160.643 156.856 160.308 156.977 159.978C157.34 159.021 157.736 158.075 158.132 157.129C160.854 150.688 164.325 144.628 167.41 139.282C169.214 136.163 170.919 133.216 172.123 130.741C172.833 129.289 172.547 128.211 171.238 127.342C168.015 125.197 158.891 125.208 152.198 132.853C149.129 136.361 146.984 140.86 144.916 145.205C142.93 149.374 140.879 153.587 138.003 157.129C137.816 157.36 137.623 157.591 137.425 157.822C136.089 159.373 134.494 160.676 132.761 161.76C130.226 163.349 123.516 167.43 122.427 174.69" stroke="#142533" stroke-miterlimit="10"/>
<path d="M202.771 342.357L180.101 348.113C179.438 348.287 178.612 348.146 178.188 347.95C178.003 347.831 177.492 347.526 177.492 347.526L169.165 341.355L195.008 331.099L202.771 342.357Z" fill="#F9F9F9" stroke="#142533" stroke-miterlimit="10" stroke-linecap="round" stroke-linejoin="round"/>
<path d="M194.998 335.207L192.473 244.521L193.864 244.922C193.395 239.771 193.503 236.565 193.601 236.576C197.22 237.868 200.188 240.573 201.667 244.203C201.83 244.518 201.896 244.822 202.004 245.181L203.485 330.999C203.485 330.999 203.42 330.694 203.431 330.151L203.532 340.856C203.532 342.639 202.38 342.759 201.326 341.998L196.586 338.75C196.64 338.706 194.901 337.424 194.998 335.207Z" fill="#F9F9F9" stroke="#142533" stroke-miterlimit="10" stroke-linecap="round" stroke-linejoin="round"/>
<path d="M193.585 261.28L200.139 263.343L200.781 263.81L199.307 164.526C199.328 163.439 198.741 162.483 197.904 161.994L197.578 161.81L197.534 161.755L190.414 157.649C191.197 158.181 191.741 159.083 191.719 160.17L191.752 162.55L193.585 261.28Z" fill="#142533" stroke="#142533" stroke-miterlimit="10" stroke-linecap="round" stroke-linejoin="round"/>
<path d="M200.738 263.756L169.211 274.372L168.219 262.776L192.465 258.433L200.738 263.756Z" fill="#142533" stroke="#142533" stroke-miterlimit="10" stroke-linecap="round" stroke-linejoin="round"/>
<path d="M193.019 258.344L201.379 264.222" stroke="#F9F9F9" stroke-miterlimit="10" stroke-linecap="round" stroke-linejoin="round"/>
<path d="M193.455 259.779L191.721 162.397L191.687 160.017C191.655 158.974 191.165 158.028 190.383 157.496L190.013 157.257C189.404 156.942 188.719 156.866 187.959 157.029L168.668 161.774C167.245 162.111 166.31 163.394 166.354 164.785L166.567 187.435L166.996 242.984L167.341 269.807L193.455 259.779Z" fill="#142533" stroke="#142533" stroke-miterlimit="10" stroke-linecap="round" stroke-linejoin="round"/>
<path d="M197.589 161.711L197.916 161.896C197.774 161.83 197.687 161.722 197.589 161.711Z" fill="#41CCB4"/>
<path d="M175.933 179.76C179.162 181.009 183.237 178.638 185.127 174.54C187.017 170.442 185.961 166.117 182.733 164.868C179.505 163.619 175.429 165.989 173.54 170.087C171.65 174.185 172.749 178.565 175.933 179.76Z" fill="#142533"/>
<path d="M183.915 173.542C184.667 169.655 182.555 165.977 179.196 165.327C175.838 164.677 172.506 167.301 171.753 171.187C171.001 175.074 173.113 178.752 176.472 179.402C179.83 180.052 183.163 177.428 183.915 173.542Z" fill="#142533" stroke="#F9F9F9" stroke-miterlimit="10" stroke-linecap="round" stroke-linejoin="round"/>
<path d="M194.91 329.752L192.483 244.423C192.375 244.065 192.255 243.804 192.146 243.445C189.569 237.218 182.546 233.568 175.58 235.668C174.711 235.918 173.928 236.277 173.2 236.593C170.418 238.017 167.626 241.768 167.084 245.322L168.121 339.161C168.111 340.595 169.122 341.747 170.372 342.084C170.665 342.116 171.698 342.181 171.904 342.105L194.966 335.947L194.91 329.752Z" fill="#F9F9F9" stroke="#142533" stroke-miterlimit="10" stroke-linecap="round" stroke-linejoin="round"/>
<path d="M184.87 251.421C185.78 247.529 183.818 243.742 180.488 242.963C177.157 242.184 173.719 244.707 172.808 248.599C171.898 252.491 173.86 256.278 177.19 257.057C180.521 257.836 183.959 255.313 184.87 251.421Z" fill="#F9F9F9" stroke="#142533" stroke-miterlimit="10" stroke-linecap="round" stroke-linejoin="round"/>
<path d="M176.419 324.135C176.485 325.776 176.539 326.624 176.605 328.265C178.691 327.754 179.713 327.471 181.8 326.959C181.701 324.72 181.668 323.677 181.57 321.438C180.038 321.863 179.277 322.026 177.701 322.396C176.994 322.516 176.408 323.342 176.419 324.135Z" fill="#142533"/>
<path d="M176.672 329.461C176.693 329.711 176.672 329.907 176.694 330.157C176.705 330.95 177.346 331.417 178.107 331.254C178.411 331.189 178.465 331.145 178.77 331.08C178.715 330.232 178.715 329.787 178.66 328.939C177.845 329.146 177.487 329.254 176.672 329.461Z" fill="#142533"/>
<path d="M179.943 330.763C179.889 329.916 179.888 329.47 179.834 328.622C180.649 328.415 181.008 328.307 181.823 328.1C181.877 328.948 181.877 329.393 181.932 330.241C181.215 330.459 180.758 330.557 179.943 330.763Z" fill="#142533"/>
<path d="M184.854 322.645C184.833 322.395 184.854 322.199 184.832 321.949C184.821 321.156 184.18 320.689 183.419 320.852C183.169 320.874 183.061 320.961 182.756 321.026C182.811 321.874 182.811 322.319 182.866 323.167C183.681 322.96 184.094 322.808 184.854 322.645Z" fill="#142533"/>
<path d="M182.986 326.547C182.931 325.699 182.931 325.254 182.877 324.406C183.692 324.199 184.05 324.091 184.865 323.884C184.92 324.732 184.92 325.177 184.975 326.025C184.257 326.243 183.801 326.34 182.986 326.547Z" fill="#142533"/>
<path d="M183.203 329.937C183.507 329.871 183.562 329.828 183.866 329.762C184.627 329.599 185.213 328.773 185.148 328.023C185.126 327.773 185.148 327.577 185.126 327.327C184.311 327.534 183.952 327.643 183.137 327.85C183.148 328.643 183.148 329.089 183.203 329.937Z" fill="#142533"/>
<path d="M176.766 317.886C176.755 317.538 176.766 317.44 176.701 317.136C179.353 316.44 180.678 316.092 183.33 315.395C183.243 313.95 183.221 313.254 183.133 311.809C183.383 311.787 183.492 311.7 183.796 311.635C183.851 313.373 183.906 314.221 183.961 315.96C181.102 316.733 179.624 317.113 176.766 317.886Z" fill="#142533"/>
<path d="M178.34 310.386C178.263 308.842 179.317 307.82 180.643 307.472C180.795 307.44 181.002 307.363 181.002 307.363C181.111 309.059 181.122 309.852 181.177 311.591C182.503 311.243 183.176 310.08 183.154 308.939C183.121 308.341 182.839 307.765 182.48 307.428C182.697 307.254 182.806 307.167 182.98 306.939C183.425 307.384 183.752 308.015 183.817 308.765C183.948 310.264 182.829 311.873 181.394 312.308C181.34 312.352 181.242 312.341 181.242 312.341C179.503 312.842 178.427 311.831 178.34 310.386ZM180.459 308.244C179.383 308.57 178.894 309.407 178.948 310.255C178.992 311.201 179.568 311.809 180.612 311.776C180.524 310.331 180.502 309.635 180.459 308.244Z" fill="#142533"/>
<path d="M178.099 304.962C178.033 304.212 178.37 303.408 179.022 302.886C178.87 302.918 178.761 303.005 178.609 303.038C177.587 303.321 177.077 303.462 176.109 303.702C176.142 303.408 176.109 303.256 176.044 302.952C178.946 302.234 180.424 301.853 183.282 301.08C183.304 301.33 183.282 301.526 183.304 301.776C183.097 301.852 183 301.841 182.793 301.917C182.641 301.95 182.543 301.939 182.391 301.972C182.391 301.972 183.413 302.134 183.5 303.58C183.533 305.069 182.457 306.287 180.882 306.657C179.338 307.179 178.186 306.407 178.099 304.962ZM182.946 303.667C182.902 302.722 182.239 302.004 180.761 302.385C179.739 302.668 178.707 303.494 178.773 304.69C178.816 305.635 179.588 306.266 180.914 305.917C182.186 305.613 182.979 304.71 182.946 303.667Z" fill="#142533"/>
<path d="M184.694 297.722C184.661 296.678 184.15 295.929 182.976 296.244C182.77 296.32 182.672 296.31 182.52 296.342C182.368 296.375 182.27 296.364 182.118 296.397C182.694 296.559 183.085 297.048 183.086 297.94C183.119 299.429 182.086 300.701 180.511 301.071C178.935 301.441 177.815 300.821 177.782 299.332C177.749 297.843 178.553 297.289 178.553 297.289C178.499 297.332 178.401 297.322 178.401 297.322C178.195 297.398 178.042 297.43 177.836 297.506C177.814 297.256 177.836 297.061 177.814 296.811C179.803 296.289 180.868 296.06 182.911 295.494C184.541 295.081 185.259 296.2 185.357 297.548C185.39 298.146 185.26 298.874 185.042 299.493C184.803 299.417 184.705 299.406 184.466 299.33C184.629 298.754 184.738 298.222 184.694 297.722ZM180.433 296.854C178.901 297.278 178.51 298.126 178.499 299.115C178.532 300.158 179.326 300.593 180.543 300.332C181.815 300.027 182.564 299.07 182.488 297.972C182.488 297.081 181.911 296.473 180.433 296.854Z" fill="#142533"/>
<path d="M177.596 293.419C177.519 291.876 178.573 290.854 179.899 290.506C180.051 290.473 180.257 290.397 180.257 290.397C180.367 292.093 180.421 292.94 180.433 294.625C181.758 294.277 182.432 293.114 182.41 291.972C182.377 291.375 182.094 290.799 181.736 290.462C181.953 290.288 182.062 290.201 182.235 289.973C182.681 290.418 183.007 291.048 183.073 291.798C183.204 293.298 182.085 294.907 180.65 295.342C180.596 295.386 180.498 295.375 180.444 295.418C178.759 295.875 177.629 294.908 177.596 293.419ZM179.703 291.375C178.628 291.702 178.139 292.539 178.193 293.387C178.237 294.332 178.813 294.941 179.857 294.908C179.824 293.419 179.802 292.723 179.703 291.375Z" fill="#142533"/>
<path d="M177.529 290.442C177.508 290.192 177.529 289.997 177.464 289.692C177.823 289.583 177.975 289.551 178.377 289.496C178.583 289.42 178.779 289.442 178.779 289.442C177.996 289.355 177.355 288.888 177.3 288.04C177.311 287.942 177.322 287.845 177.333 287.747C177.637 287.682 177.789 287.649 177.996 287.573C177.985 287.671 177.974 287.768 177.963 287.866C177.974 288.66 178.572 289.072 179.409 289.116C179.757 289.105 180.105 289.094 180.409 289.028C181.279 288.778 181.735 288.68 182.604 288.43C182.572 288.724 182.605 288.876 182.67 289.18C180.692 289.604 179.67 289.887 177.529 290.442Z" fill="#142533"/>
</svg>
