<?xml version="1.0" encoding="utf-8"?><svg width="389" height="456" viewBox="0 0 389 456" fill="none" xmlns="http://www.w3.org/2000/svg">
<g clip-path="url(#clip0)">
<path d="M134.11 288.73C134.11 288.73 146.26 284.97 156.96 273.89C167.66 262.8 200.94 226.59 230.97 215.27C261 203.95 263.4 205.99 265.22 207.64C267.36 209.58 267.96 216.03 232.13 230.03C232.13 230.03 238.64 227.37 246.7 223.86C253.91 220.71 262.6 216.49 264.91 219.35C267.73 222.84 254.89 241.16 220.88 246.73C220.88 246.73 229.73 245.19 239 242.17C248.27 239.15 257.95 234.63 259.27 238.97C260.69 243.63 250.41 257.96 210.83 261.22C210.83 261.22 250.04 257.72 247.05 265.07C243.47 273.9 205.4 273.56 205.4 273.56L206.25 273.6C206.25 273.6 229.17 274.78 232.46 280.33C235.74 285.88 210.99 287.44 198.01 285.62L199.64 285.79C199.64 285.79 216.18 288.86 217.66 293.26C219.14 297.65 202.2 300.29 187.13 295.83C187.13 295.83 204.4 300.99 201.07 306.12C197.73 311.25 176.38 304.04 176.38 304.04C176.38 304.04 184.74 308.65 186.1 312.3C187.46 315.94 175.77 318.92 161.21 312.67C161.21 312.67 169.32 317.47 165.53 320.21C161.75 322.96 148.79 320.85 139.86 315.08L134.11 288.73Z" fill="#F9F9F9" stroke="#41CCB4" stroke-width="0.8295" stroke-miterlimit="10" stroke-linecap="round" stroke-linejoin="round"/>
<path d="M191.63 240.42C191.63 240.42 223.72 224.94 230.44 228.13C236.12 230.83 223.54 237.51 201.95 244.87C201.95 244.87 220.13 238.39 220.98 244.64C222.06 252.6 196.52 253.09 196.24 253.34C195.96 253.59 212.84 254.78 210.32 261.08C207.8 267.38 187.87 262.7 187.87 262.7C187.87 262.7 209.65 267.07 205.04 273.58C200.44 280.09 182.55 274.34 182.55 274.34C182.55 274.34 200.76 279.52 197.5 285.79C194.25 292.06 173.75 283.52 173.75 283.52C173.75 283.52 189.96 290.85 186.18 295.96C182.4 301.07 161.57 292.45 161.57 292.45C161.57 292.45 177.52 298.62 175.97 304.11C174.42 309.6 150.94 301.37 150.94 301.37C150.94 301.37 162.63 309.19 161.13 312.15C159.62 315.11 145.17 309.01 145.17 309.01" stroke="#41CCB4" stroke-width="0.8295" stroke-miterlimit="10" stroke-linecap="round" stroke-linejoin="round"/>
<path d="M81.85 285.25C81.85 285.25 73.91 281.76 68.15 271.21C62.39 260.67 44.74 226.22 25.44 215.63C6.14005 205.03 4.13005 207.02 2.59005 208.63C0.780046 210.51 -0.659954 216.7 22.29 229.81C22.29 229.81 18.13 227.32 13.03 224.03C8.46004 221.08 3.03005 217.1 0.950046 219.87C-1.57995 223.24 4.54004 240.71 27.55 245.74C27.55 245.74 21.58 244.35 15.55 241.53C9.52005 238.71 3.43005 234.47 1.82005 238.65C0.0900457 243.13 5.04005 256.79 32.33 259.56C32.33 259.56 5.34005 256.56 6.28005 263.58C7.40005 272.02 34.19 271.35 34.19 271.35L33.58 271.4C33.58 271.4 17.29 272.74 14.11 278.1C10.93 283.45 28.07 284.72 37.47 282.86L36.3 283.03C36.3 283.03 24.2 286.13 22.47 290.36C20.74 294.59 32.21 296.97 43.51 292.55C43.51 292.55 30.56 297.66 32.1 302.55C33.63 307.44 49.77 300.33 49.77 300.33C49.77 300.33 43.17 304.84 41.63 308.34C40.1 311.85 47.84 314.6 59.05 308.47C59.05 308.47 52.6 313.15 54.82 315.75C57.05 318.35 66.47 316.21 73.66 310.59L81.85 285.25Z" fill="#F9F9F9" stroke="#41CCB4" stroke-width="0.8295" stroke-miterlimit="10" stroke-linecap="round" stroke-linejoin="round"/>
<path d="M49.09 239.42C49.09 239.42 29 224.86 23.77 227.99C19.35 230.63 27.14 236.93 41.13 243.79C41.13 243.79 29.38 237.74 27.8 243.75C25.79 251.4 43.64 251.63 43.8 251.86C43.95 252.09 31.91 253.39 32.69 259.42C33.47 265.45 48.2 260.77 48.2 260.77C48.2 260.77 32.21 265.16 34.42 271.37C36.62 277.57 50.09 271.9 50.09 271.9C50.09 271.9 36.49 277.03 37.78 283.03C39.07 289.02 54.82 280.63 54.82 280.63C54.82 280.63 42.28 287.8 44.12 292.68C45.97 297.55 61.96 289.09 61.96 289.09C61.96 289.09 49.78 295.15 50 300.41C50.22 305.67 68.01 297.56 68.01 297.56C68.01 297.56 58.56 305.18 59.15 308C59.74 310.83 70.86 304.83 70.86 304.83" stroke="#41CCB4" stroke-width="0.8295" stroke-miterlimit="10" stroke-linecap="round" stroke-linejoin="round"/>
<path d="M191.34 347.99C190.85 348.17 214.8 340.65 209.85 328.63C205.71 318.53 194.79 328.59 202.6 335.1C208.09 339.67 223.25 334.18 221.76 324.13C220.83 317.84 212.51 319.65 214.49 325.4C216.69 331.77 230.31 331.54 230.51 322.18" stroke="#142533" stroke-width="0.8295" stroke-miterlimit="10" stroke-linecap="round" stroke-linejoin="round"/>
<path d="M76.58 404.75L72.25 397.87C70.57 395.19 67.7 393.47 64.54 393.26L58.82 392.87C54.24 392.55 50.04 395.42 48.67 399.8L40.96 424.53C40.13 427.19 40.45 430.08 41.86 432.49C43.3 434.95 45.71 436.66 48.5 437.21L53.38 438.17C57.23 438.93 61.17 437.34 63.42 434.12L76.29 415.71C78.59 412.43 78.7 408.12 76.58 404.75Z" fill="#F9F9F9" stroke="#142533" stroke-width="0.8295" stroke-miterlimit="10" stroke-linecap="round" stroke-linejoin="round"/>
<path d="M111.28 427.88C157.88 428.89 196.38 396.4 197.26 355.32C198.15 314.24 161.09 280.12 114.49 279.11C67.89 278.1 29.39 310.59 28.51 351.67C27.62 392.76 64.68 426.88 111.28 427.88Z" fill="#F9F9F9" stroke="#142533" stroke-width="0.8295" stroke-miterlimit="10" stroke-linecap="round" stroke-linejoin="round"/>
<path d="M113.48 326.31L122.47 319.54C122.47 319.54 123.83 300.04 112.4 290.95C112.4 290.95 95.68 290.12 85.98 308.05C85.98 308.02 108.2 312.71 113.48 326.31Z" fill="#F9F9F9" stroke="#142533" stroke-width="0.8295" stroke-miterlimit="10" stroke-linecap="round" stroke-linejoin="round"/>
<path d="M86.51 308.02C86.51 308.02 91.92 297.07 110.03 293.48C110.03 293.48 119.53 301.7 113.64 325.52C113.64 325.51 109.22 313.2 86.51 308.02Z" fill="#142533" stroke="#142533" stroke-width="0.8295" stroke-miterlimit="10" stroke-linecap="round" stroke-linejoin="round"/>
<path d="M53.29 304.78C53.29 304.78 48.09 293.86 34.76 295.68C34.76 295.68 32.72 305.8 39.5 316.48C39.5 316.49 44.17 308.86 53.29 304.78Z" fill="#142533" stroke="#142533" stroke-width="0.8295" stroke-miterlimit="10" stroke-linecap="round" stroke-linejoin="round"/>
<path d="M34.76 295.69C34.76 295.69 47.77 291.57 57.13 296.96C57.13 296.96 57.24 301.31 53.28 304.78C53.29 304.78 46.44 295.02 34.76 295.69Z" fill="#F9F9F9" stroke="#142533" stroke-width="0.8295" stroke-miterlimit="10" stroke-linecap="round" stroke-linejoin="round"/>
<path d="M87.57 291.7C87.57 291.7 95.78 287.83 105.47 285.42C113.33 283.47 121.14 282.92 126.62 282.55L113.33 281.15C113.33 281.15 104.01 281.91 94.4 284.07C88.32 285.44 81.21 288.12 74.26 291.41L87.57 291.7Z" fill="#142533" stroke="#142533" stroke-width="0.8295" stroke-miterlimit="10" stroke-linecap="round" stroke-linejoin="round"/>
<path d="M55.95 392.95C67.89 393.21 77.76 384.47 78 373.43C78.24 362.39 68.75 353.23 56.82 352.98C44.88 352.72 35.01 361.46 34.77 372.5C34.52 383.53 44.01 392.69 55.95 392.95Z" fill="#F9F9F9" stroke="#142533" stroke-width="0.8295" stroke-miterlimit="10" stroke-linecap="round" stroke-linejoin="round"/>
<path d="M49.47 392.8C61.41 393.06 71.28 384.32 71.52 373.28C71.76 362.24 62.27 353.08 50.34 352.83C38.4 352.57 28.53 361.31 28.29 372.35C28.05 383.38 37.53 392.54 49.47 392.8Z" fill="#F9F9F9" stroke="#142533" stroke-width="0.8295" stroke-miterlimit="10" stroke-linecap="round" stroke-linejoin="round"/>
<path d="M37.61 378.13C39.39 378.17 40.9 375.08 40.98 371.23C41.06 367.38 39.69 364.22 37.91 364.19C36.13 364.15 34.62 367.24 34.54 371.09C34.46 374.94 35.83 378.09 37.61 378.13Z" fill="#142533" stroke="#F9F9F9" stroke-width="0.8295" stroke-miterlimit="10" stroke-linecap="round" stroke-linejoin="round"/>
<path d="M56.26 378.53C58.04 378.57 59.55 375.48 59.63 371.63C59.71 367.78 58.34 364.62 56.56 364.59C54.78 364.55 53.27 367.64 53.19 371.49C53.1 375.34 54.48 378.5 56.26 378.53Z" fill="#142533" stroke="#F9F9F9" stroke-width="0.8295" stroke-miterlimit="10" stroke-linecap="round" stroke-linejoin="round"/>
<path d="M89.95 411.19L97.78 404.82C100.24 402.83 103.5 402.12 106.57 402.92L113.91 404.85C118.35 406.02 121.41 410.08 121.3 414.68L120.59 444.38C120.52 447.17 119.28 449.8 117.18 451.63L116.51 452.21C114.37 454.07 111.52 454.92 108.71 454.55L102.2 453.68C98.31 453.17 95.08 450.4 93.98 446.62L86.7 421.64C85.58 417.82 86.86 413.71 89.95 411.19Z" fill="#F9F9F9" stroke="#142533" stroke-width="0.8295" stroke-miterlimit="10" stroke-linecap="round" stroke-linejoin="round"/>
<path d="M154.98 399.06L160.89 390.88C162.75 388.31 165.72 386.78 168.88 386.77L176.47 386.73C181.06 386.71 185.07 389.85 186.15 394.31L193.15 423.19C193.81 425.9 193.29 428.76 191.73 431.07L191.23 431.8C189.64 434.15 187.12 435.71 184.3 436.08L177.79 436.93C173.89 437.44 170.06 435.6 168.02 432.25L154.52 410.01C152.48 406.6 152.65 402.28 154.98 399.06Z" fill="#F9F9F9" stroke="#142533" stroke-width="0.8295" stroke-miterlimit="10" stroke-linecap="round" stroke-linejoin="round"/>
<path d="M39.21 335.93C38.48 332.11 40.97 328.42 44.79 327.69C48.61 326.96 52.3 329.45 53.03 333.27" stroke="#142533" stroke-width="0.8295" stroke-miterlimit="10" stroke-linecap="round" stroke-linejoin="round"/>
<path d="M69.46 336.33C70.37 332.55 74.17 330.22 77.95 331.13C81.73 332.03 84.06 335.84 83.15 339.62" stroke="#142533" stroke-width="0.8295" stroke-miterlimit="10" stroke-linecap="round" stroke-linejoin="round"/>
<path fill-rule="evenodd" clip-rule="evenodd" d="M115.45 192.84L153.28 211.15C158.18 206.2 155.91 197.45 149.68 194.25C141.36 189.97 138.05 187.68 129.73 183.4L138.12 163.13L110.53 147.63L115.45 192.84Z" fill="#F9F9F9" stroke="#142533" stroke-width="0.8295" stroke-linecap="round" stroke-linejoin="round"/>
<path fill-rule="evenodd" clip-rule="evenodd" d="M108.06 190.24L140.5 223C147.64 220.56 146.42 209.97 141.24 204.57C134.31 197.33 132.66 192.82 125.72 185.59L118.69 150L98.53 152.38L108.06 190.24Z" fill="#F9F9F9" stroke="#142533" stroke-width="0.8295" stroke-linecap="round" stroke-linejoin="round"/>
<path fill-rule="evenodd" clip-rule="evenodd" d="M96.77 194.69L127.91 231.83C134.31 228.63 135.57 220.63 130.61 214.48C123.98 206.26 120.93 200.72 114.3 192.49L111.71 156.06L96.03 153.74L96.77 194.69Z" fill="#F9F9F9" stroke="#142533" stroke-width="0.8295" stroke-linecap="round" stroke-linejoin="round"/>
<path fill-rule="evenodd" clip-rule="evenodd" d="M134.95 128.77L109.09 131.89C106.59 132.16 66.67 173.02 65.16 175.84C64.83 180.49 76.53 197.68 81.84 202.93C83.91 207.03 89.03 216.49 92.12 222.13C102.19 218.05 98.93 206.71 94.68 197.99C93.48 193.68 89.62 183.77 85.16 180.56C92.46 175.07 106.27 165.97 114.27 162.12L133.68 174.82L134.95 128.77Z" fill="#F9F9F9" stroke="#142533" stroke-width="0.8295" stroke-linecap="round" stroke-linejoin="round"/>
<path d="M72.2 238.99C69.37 220.99 74.28 201.58 93.8 201.03C85.34 201.27 75.02 226.09 78.1 239.42C78.59 241.79 79.25 244.01 80.04 246.15C83.79 257.1 95.34 269.3 108.22 267.93C104.89 269.3 99.49 269.61 97.22 269.57C90.97 269.48 75.75 261.58 72.2 238.99Z" fill="#F9F9F9" stroke="#142533" stroke-width="0.8295" stroke-miterlimit="10" stroke-linecap="round" stroke-linejoin="round"/>
<path d="M106.83 268.29C119.13 265.89 126.16 248.89 122.55 230.32C118.93 211.74 106.03 198.63 93.73 201.02C81.43 203.42 74.39 220.42 78.01 238.99C81.62 257.57 94.53 270.68 106.83 268.29Z" fill="#F9F9F9" stroke="#142533" stroke-width="0.8295" stroke-miterlimit="10" stroke-linecap="round" stroke-linejoin="round"/>
<path d="M105.44 257.97C114.09 256.28 119.04 244.32 116.49 231.25C113.94 218.18 104.87 208.95 96.22 210.64C87.57 212.32 82.62 224.29 85.17 237.35C87.72 250.43 96.79 259.65 105.44 257.97Z" fill="#F9F9F9" stroke="#142533" stroke-width="0.8295" stroke-miterlimit="10" stroke-linecap="round" stroke-linejoin="round"/>
<path d="M98.33 267.58L93.74 268.92" stroke="#142533" stroke-width="0.8295" stroke-miterlimit="10" stroke-linecap="round" stroke-linejoin="round"/>
<path d="M91.5199 263.86L87.0699 265.51" stroke="#142533" stroke-width="0.8295" stroke-miterlimit="10" stroke-linecap="round" stroke-linejoin="round"/>
<path d="M94.71 265.88L90.48 267.47" stroke="#142533" stroke-width="0.8295" stroke-miterlimit="10" stroke-linecap="round" stroke-linejoin="round"/>
<path d="M85.46 257.55L80.52 259.2" stroke="#142533" stroke-width="0.8295" stroke-miterlimit="10" stroke-linecap="round" stroke-linejoin="round"/>
<path d="M88.52 260.98L83.73 262.75" stroke="#142533" stroke-width="0.8295" stroke-miterlimit="10" stroke-linecap="round" stroke-linejoin="round"/>
<path d="M81.2901 249.56L75.8101 251.25" stroke="#142533" stroke-width="0.8295" stroke-miterlimit="10" stroke-linecap="round" stroke-linejoin="round"/>
<path d="M83.08 253.43L77.64 254.95" stroke="#142533" stroke-width="0.8295" stroke-miterlimit="10" stroke-linecap="round" stroke-linejoin="round"/>
<path d="M78.42 241.19L72.95 242.87" stroke="#142533" stroke-width="0.8295" stroke-miterlimit="10" stroke-linecap="round" stroke-linejoin="round"/>
<path d="M79.75 245.76L74.26 247.45" stroke="#142533" stroke-width="0.8295" stroke-miterlimit="10" stroke-linecap="round" stroke-linejoin="round"/>
<path d="M76.9199 230.61L71.5699 232.25" stroke="#142533" stroke-width="0.8295" stroke-miterlimit="10" stroke-linecap="round" stroke-linejoin="round"/>
<path d="M77.21 225.49L71.52 227.24" stroke="#142533" stroke-width="0.8295" stroke-miterlimit="10" stroke-linecap="round" stroke-linejoin="round"/>
<path d="M77.6499 221.12L71.9399 222.87" stroke="#142533" stroke-width="0.8295" stroke-miterlimit="10" stroke-linecap="round" stroke-linejoin="round"/>
<path d="M77.55 236.21L72.04 237.9" stroke="#142533" stroke-width="0.8295" stroke-miterlimit="10" stroke-linecap="round" stroke-linejoin="round"/>
<path d="M79.12 215.99L73.12 217.84" stroke="#142533" stroke-width="0.8295" stroke-miterlimit="10" stroke-linecap="round" stroke-linejoin="round"/>
<path d="M81.37 210.67L75.14 212.41" stroke="#142533" stroke-width="0.8295" stroke-miterlimit="10" stroke-linecap="round" stroke-linejoin="round"/>
<path d="M84.88 206.04L78.52 207.74" stroke="#142533" stroke-width="0.8295" stroke-miterlimit="10" stroke-linecap="round" stroke-linejoin="round"/>
<path d="M107.02 234.82C107.93 234.09 108.45 232.9 108.35 231.51V231.04C108.43 228.56 106.54 226.08 104.06 225.48L103.4 225.36L103.35 221.9L101.47 221.57L101.52 225.03L98.87 224.57L98.82 221.11L96.94 220.78L96.99 224.24L94.54 223.81L94.83 242.08L95.77 242.24L97.56 242.56L97.62 246.12L99.5 246.45L99.44 242.89L102.09 243.35L102.15 246.91L104.03 247.24L103.97 243.68L104.94 243.85C107.43 244.22 109.37 242.41 109.29 239.85L109.28 239.32C109.27 237.6 108.37 235.91 107.02 234.82ZM96.44 226.08L104.02 227.41C105.41 227.75 106.51 229.19 106.46 230.66L106.47 231.25C106.57 232.71 105.52 233.79 104.18 233.64L96.54 232.3L96.44 226.08ZM107.39 239.53C107.45 241.05 106.29 242.1 104.87 241.89L96.67 240.45L96.57 234.23L104.74 235.66C106.21 235.96 107.39 237.42 107.38 238.95L107.39 239.53Z" fill="#41CCB4"/>
<path fill-rule="evenodd" clip-rule="evenodd" d="M388.51 78.9099L202.02 149.22C189.43 164.79 186.97 167.06 171.11 180.22C151.03 190.12 140.49 192.71 133.44 199.43C129.67 203.02 122.26 209.53 114.34 216.66C104.83 225.22 94.86 227.56 90.83 223.18C86.8 218.8 86.01 212.91 98.54 201.53C115.39 186.22 120.59 185.64 126.25 178.33C131.91 171.02 132.49 160.61 132.49 160.61L129.24 129.41L170.15 121.91C182.91 113.24 313.55 1.35986 313.55 1.35986" fill="#F9F9F9"/>
<path d="M388.51 78.9099L202.02 149.22C189.43 164.79 186.97 167.06 171.11 180.22C151.03 190.12 140.49 192.71 133.44 199.43C129.67 203.02 122.26 209.53 114.34 216.66C104.83 225.22 94.86 227.56 90.83 223.18C86.8 218.8 86.01 212.91 98.54 201.53C115.39 186.22 120.59 185.64 126.25 178.33C131.91 171.02 132.49 160.61 132.49 160.61L129.24 129.41L170.15 121.91C182.91 113.24 313.55 1.35986 313.55 1.35986" stroke="#142533" stroke-width="0.8295" stroke-linecap="round" stroke-linejoin="round"/>
<path d="M133.04 129.36L123.77 130.72L128.53 169.91L133.02 176.73L133.04 129.36Z" fill="#F9F9F9"/>
</g>
<defs>
<clipPath id="clip0">
<rect width="388.92" height="454.1" fill="white" transform="translate(0 0.949951)"/>
</clipPath>
</defs>
</svg>
