<?xml version="1.0" encoding="utf-8"?><svg width="435" height="360" viewBox="0 0 435 360" fill="none" xmlns="http://www.w3.org/2000/svg">
<path d="M176.354 136.32C176.354 124.803 185.683 115.476 197.202 115.476C208.721 115.476 218.05 124.803 218.05 136.32" stroke="#41CCB4" stroke-miterlimit="10"/>
<path d="M264.365 20.5918C275.883 20.5918 285.213 29.9196 285.213 41.4361C285.213 52.9526 275.883 62.2805 264.365 62.2805" stroke="#41CCB4" stroke-miterlimit="10"/>
<path d="M176.218 251.797C176.218 240.28 185.547 230.953 197.066 230.953C208.585 230.953 217.914 240.28 217.914 251.797" stroke="#41CCB4" stroke-miterlimit="10"/>
<path d="M129.726 316.603C141.245 316.603 150.574 325.931 150.574 337.447C150.574 348.964 141.245 358.292 129.726 358.292" stroke="#41CCB4" stroke-miterlimit="10"/>
<path d="M433.768 175.424V166.93C433.768 160.333 431.913 153.871 428.42 148.285L411.877 121.823C407.113 114.204 398.753 109.566 389.768 109.566H354.194M233.248 175.424V166.93C233.248 160.333 235.104 153.881 238.596 148.285L255.139 121.823C259.903 114.194 268.263 109.566 277.249 109.566H312.591" stroke="#142533" stroke-miterlimit="10"/>
<path d="M415.171 351.403H251.845C241.577 351.403 233.248 343.075 233.248 332.81V169.515C233.248 159.249 241.577 150.922 251.845 150.922H415.171C425.439 150.922 433.768 159.249 433.768 169.515V332.81C433.768 343.075 425.439 351.403 415.171 351.403Z" fill="#F9F9F9" stroke="#142533" stroke-miterlimit="10"/>
<path d="M410.731 338.875H256.275C250.469 338.875 245.768 334.174 245.768 328.369V173.954C245.768 168.149 250.469 163.449 256.275 163.449H410.731C416.537 163.449 421.238 168.149 421.238 173.954V328.38C421.238 334.174 416.537 338.875 410.731 338.875Z" fill="#F9F9F9" stroke="#142533" stroke-miterlimit="10"/>
<path d="M333.508 309.87C365.938 309.87 392.228 283.585 392.228 251.162C392.228 218.738 365.938 192.454 333.508 192.454C301.078 192.454 274.789 218.738 274.789 251.162C274.789 283.585 301.078 309.87 333.508 309.87Z" fill="#F9F9F9" stroke="#142533" stroke-miterlimit="10"/>
<path d="M333.508 289.307C354.579 289.307 371.661 272.229 371.661 251.162C371.661 230.095 354.579 213.017 333.508 213.017C312.437 213.017 295.355 230.095 295.355 251.162C295.355 272.229 312.437 289.307 333.508 289.307Z" fill="#F9F9F9" stroke="#142533" stroke-miterlimit="10"/>
<path d="M333.508 278.77C348.759 278.77 361.122 266.41 361.122 251.162C361.122 235.914 348.759 223.554 333.508 223.554C318.258 223.554 305.895 235.914 305.895 251.162C305.895 266.41 318.258 278.77 333.508 278.77Z" fill="#F9F9F9" stroke="#142533" stroke-miterlimit="10"/>
<path d="M333.508 206.42C335.713 206.42 337.501 204.633 337.501 202.428C337.501 200.224 335.713 198.437 333.508 198.437C331.303 198.437 329.516 200.224 329.516 202.428C329.516 204.633 331.303 206.42 333.508 206.42Z" fill="#F9F9F9" stroke="#41CCB4" stroke-miterlimit="10"/>
<path d="M284.754 255.154C286.959 255.154 288.747 253.367 288.747 251.163C288.747 248.958 286.959 247.171 284.754 247.171C282.549 247.171 280.762 248.958 280.762 251.163C280.762 253.367 282.549 255.154 284.754 255.154Z" fill="#F9F9F9" stroke="#41CCB4" stroke-miterlimit="10"/>
<path d="M333.508 303.898C335.713 303.898 337.501 302.111 337.501 299.906C337.501 297.702 335.713 295.915 333.508 295.915C331.303 295.915 329.516 297.702 329.516 299.906C329.516 302.111 331.303 303.898 333.508 303.898Z" fill="#F9F9F9" stroke="#41CCB4" stroke-miterlimit="10"/>
<path d="M382.252 255.154C384.457 255.154 386.244 253.367 386.244 251.163C386.244 248.958 384.457 247.171 382.252 247.171C380.047 247.171 378.259 248.958 378.259 251.163C378.259 253.367 380.047 255.154 382.252 255.154Z" fill="#F9F9F9" stroke="#41CCB4" stroke-miterlimit="10"/>
<path d="M299.035 220.687C301.24 220.687 303.028 218.9 303.028 216.695C303.028 214.491 301.24 212.704 299.035 212.704C296.83 212.704 295.043 214.491 295.043 216.695C295.043 218.9 296.83 220.687 299.035 220.687Z" fill="#F9F9F9" stroke="#41CCB4" stroke-miterlimit="10"/>
<path d="M299.035 289.619C301.24 289.619 303.028 287.832 303.028 285.627C303.028 283.423 301.24 281.636 299.035 281.636C296.83 281.636 295.043 283.423 295.043 285.627C295.043 287.832 296.83 289.619 299.035 289.619Z" fill="#F9F9F9" stroke="#41CCB4" stroke-miterlimit="10"/>
<path d="M367.981 289.619C370.186 289.619 371.973 287.832 371.973 285.627C371.973 283.423 370.186 281.636 367.981 281.636C365.776 281.636 363.989 283.423 363.989 285.627C363.989 287.832 365.776 289.619 367.981 289.619Z" fill="#F9F9F9" stroke="#41CCB4" stroke-miterlimit="10"/>
<path d="M367.981 220.687C370.186 220.687 371.973 218.9 371.973 216.695C371.973 214.491 370.186 212.704 367.981 212.704C365.776 212.704 363.989 214.491 363.989 216.695C363.989 218.9 365.776 220.687 367.981 220.687Z" fill="#F9F9F9" stroke="#41CCB4" stroke-miterlimit="10"/>
<path d="M280.762 351.403V352.82C280.762 356.238 277.989 359 274.58 359H264.01C260.591 359 257.828 356.228 257.828 352.82V351.403" stroke="#142533" stroke-miterlimit="10"/>
<path d="M409.177 351.402V352.82C409.177 356.238 406.405 359 402.996 359H392.426C389.007 359 386.244 356.228 386.244 352.82V351.402" stroke="#142533" stroke-miterlimit="10"/>
<path d="M357.88 226.795C356.327 225.242 353.814 225.242 352.261 226.795L330.694 248.358L336.312 253.976L357.88 232.412C359.433 230.859 359.433 228.347 357.88 226.795Z" fill="#F9F9F9" stroke="#142533" stroke-miterlimit="10"/>
<path d="M309.126 275.529C307.573 273.976 307.573 271.464 309.126 269.911L330.694 248.348L336.312 253.965L314.745 275.529C313.202 277.082 310.679 277.082 309.126 275.529Z" fill="#F9F9F9" stroke="#142533" stroke-miterlimit="10"/>
<path d="M309.126 226.795C307.573 228.348 307.573 230.86 309.126 232.413L330.694 253.976L336.312 248.358L314.745 226.795C313.202 225.242 310.679 225.242 309.126 226.795Z" fill="#F9F9F9" stroke="#142533" stroke-miterlimit="10"/>
<path d="M357.88 275.529C356.327 277.082 353.814 277.082 352.261 275.529L330.694 253.965L336.312 248.348L357.88 269.911C359.433 271.464 359.433 273.986 357.88 275.529Z" fill="#F9F9F9" stroke="#142533" stroke-miterlimit="10"/>
<path d="M333.508 259.311C338.01 259.311 341.66 255.663 341.66 251.161C341.66 246.66 338.01 243.011 333.508 243.011C329.006 243.011 325.356 246.66 325.356 251.161C325.356 255.663 329.006 259.311 333.508 259.311Z" fill="#F9F9F9" stroke="#142533" stroke-miterlimit="10"/>
<path d="M245.778 230.317C242.453 230.317 239.763 227.629 239.763 224.304V205.992C239.763 202.667 242.453 199.979 245.778 199.979C249.104 199.979 251.793 202.667 251.793 205.992V224.304C251.793 227.629 249.093 230.317 245.778 230.317Z" fill="#F9F9F9" stroke="#142533" stroke-miterlimit="10"/>
<path d="M245.778 302.345C242.453 302.345 239.763 299.656 239.763 296.331V278.019C239.763 274.695 242.453 272.006 245.778 272.006C249.104 272.006 251.793 274.695 251.793 278.019V296.331C251.793 299.656 249.093 302.345 245.778 302.345Z" fill="#F9F9F9" stroke="#142533" stroke-miterlimit="10"/>
<path d="M333.508 132.483C347.025 132.483 357.984 130.724 357.984 128.554C357.984 126.384 347.025 124.625 333.508 124.625C319.99 124.625 309.032 126.384 309.032 128.554C309.032 130.724 319.99 132.483 333.508 132.483Z" stroke="#142533" stroke-miterlimit="10"/>
<path d="M312.66 130.556V109.535C312.66 83.4792 291.457 62.2805 265.397 62.2805H265.209C239.149 62.2805 217.946 83.4792 217.946 109.535V269.348C217.946 318.364 178.073 358.249 129.059 358.291C129.048 358.291 129.038 358.291 129.027 358.291C129.017 358.291 129.007 358.291 128.996 358.291C128.986 358.291 128.975 358.291 128.965 358.291C85.202 358.254 48.7375 326.48 41.4017 284.805M354.346 130.608V109.535C354.346 60.4879 314.443 20.5918 265.386 20.5918H265.199C216.142 20.5918 176.239 60.4879 176.239 109.535V269.348C176.239 295.393 155.046 316.592 128.996 316.602C108.357 316.594 90.7675 303.286 84.3505 284.805" stroke="#142533" stroke-miterlimit="10"/>
<path d="M357.984 128.555C357.984 130.722 347.028 132.484 333.508 132.484C319.988 132.484 309.032 130.722 309.032 128.555" stroke="#142533" stroke-miterlimit="10"/>
<path d="M354.627 124.625C358.703 125.751 361.153 127.21 361.153 128.794C361.153 132.358 348.769 135.256 333.498 135.256C318.226 135.256 305.842 132.369 305.842 128.794C305.842 127.168 308.407 125.688 312.628 124.552" stroke="#142533" stroke-miterlimit="10"/>
<path d="M98.6537 275.611V290.362C98.6537 295.904 83.2882 300.403 64.3273 300.403C45.3663 300.403 30.0009 295.904 30.0009 290.362V275.611" fill="#F9F9F9"/>
<path d="M98.6537 275.611V290.362C98.6537 295.904 83.2882 300.403 64.3273 300.403C45.3663 300.403 30.0009 295.904 30.0009 290.362V275.611" stroke="#142533" stroke-miterlimit="10"/>
<path d="M110.096 266.076V275.83C110.096 283.077 89.6085 288.96 64.3273 288.96C39.046 288.96 18.5587 283.077 18.5587 275.83L18.5587 266.076" fill="#F9F9F9"/>
<path d="M110.096 266.076V275.83C110.096 283.077 89.6085 288.96 64.3273 288.96C39.046 288.96 18.5587 283.077 18.5587 275.83L18.5587 266.076" stroke="#142533" stroke-miterlimit="10"/>
<path d="M64.0051 250.044C96.5972 250.044 123.018 246.102 123.018 241.239C123.018 236.376 96.5972 232.433 64.0051 232.433C31.413 232.433 4.99182 236.376 4.99182 241.239C4.99182 246.102 31.413 250.044 64.0051 250.044Z" stroke="#142533" stroke-miterlimit="10"/>
<path d="M123.018 241.324C123.018 246.179 96.6016 250.13 64.0051 250.13C31.4085 250.13 4.99182 246.191 4.99182 241.324" stroke="#142533" stroke-miterlimit="10"/>
<path d="M64.005 42.6123C96.5971 42.6123 123.018 38.6699 123.018 33.8066C123.018 28.9434 96.5971 25.001 64.005 25.001C31.4128 25.001 4.9917 28.9434 4.9917 33.8066C4.9917 38.6699 31.4128 42.6123 64.005 42.6123Z" stroke="#142533" stroke-miterlimit="10"/>
<path d="M64.0053 69.2183C95.1583 69.2183 120.413 68.1741 120.413 66.886C120.413 65.5979 95.1583 64.5537 64.0053 64.5537C32.8524 64.5537 7.5979 65.5979 7.5979 66.886C7.5979 68.1741 32.8524 69.2183 64.0053 69.2183Z" stroke="#142533" stroke-miterlimit="10"/>
<path d="M123.018 29.6768V51.0007C123.018 59.6874 121.679 68.3146 119.05 76.5966C114.842 89.817 107.443 101.812 97.498 111.534L83.9669 124.754C81.0623 127.586 79.4366 131.465 79.4366 135.511C79.4366 139.557 81.0742 143.436 83.9669 146.268L97.498 159.489C107.443 169.199 114.842 181.194 119.05 194.426C121.679 202.708 123.018 211.335 123.018 220.022V241.346" stroke="#41CCB4" stroke-miterlimit="10"/>
<path d="M4.9917 29.6782V51.0022C4.9917 59.6889 6.33046 68.316 8.96018 76.5981C13.1677 89.8185 20.5668 101.813 30.5119 111.535L44.043 124.756C46.9477 127.588 48.5733 131.467 48.5733 135.513C48.5733 139.559 46.9357 143.438 44.043 146.27L30.5119 159.49C20.5668 169.2 13.1677 181.195 8.96018 194.427C6.33046 202.709 4.9917 211.337 4.9917 220.023V241.347" stroke="#41CCB4" stroke-miterlimit="10"/>
<path d="M123.019 32.9734C125.589 31.7358 126.999 30.4031 126.999 28.999C126.999 22.7398 98.8013 17.6587 64.0053 17.6587C29.2094 17.6587 1.0116 22.7398 1.0116 28.999C1.0116 30.4031 2.42208 31.7358 4.99204 32.9734" stroke="#142533" stroke-miterlimit="10"/>
<path d="M126.987 28.9996V12.3403C126.987 6.0811 98.7897 1 63.9937 1C29.1977 1 1 6.0811 1 12.3403V28.9996" stroke="#142533" stroke-miterlimit="10"/>
<path d="M123.018 29.6758C123.018 24.8208 96.6015 20.8701 64.005 20.8701C31.4084 20.8701 4.9917 24.8089 4.9917 29.6758" stroke="#41CCB4" stroke-miterlimit="10"/>
<path d="M84.2543 179.243C85.6767 178.16 91.0916 182.825 96.3391 189.667C101.587 196.509 104.694 202.923 103.272 204.006L99.9728 206.517C101.395 205.434 98.2874 199.02 93.04 192.178C87.7925 185.336 82.3776 180.671 80.9552 181.754L84.2543 179.243Z" fill="#F9F9F9" stroke="#142533"/>
<path d="M80.9552 181.753C82.3777 180.67 87.7925 185.335 93.04 192.177C98.2875 199.02 101.395 205.433 99.9729 206.516C98.5505 207.599 93.1356 202.934 87.8881 196.104C82.6407 189.274 79.5448 182.824 80.9552 181.753Z" fill="#F9F9F9" stroke="#142533"/>
<path d="M80.9552 181.753C82.3777 180.67 87.7925 185.335 93.04 192.177C98.2875 199.02 101.395 205.433 99.9729 206.516C98.5505 207.599 93.1356 202.934 87.8881 196.104C82.6407 189.274 79.5448 182.824 80.9552 181.753Z" stroke="#142533" stroke-miterlimit="10"/>
<path d="M80.9552 181.754L84.2543 179.243C85.6767 178.16 91.0916 182.825 96.3391 189.667C101.587 196.509 104.694 202.923 103.272 204.006L99.9728 206.517" stroke="#142533" stroke-miterlimit="10"/>
<path d="M69.1216 122.579C70.819 121.996 74.4886 128.112 77.3215 136.252C80.1545 144.391 81.0868 151.447 79.3895 152.03L75.4688 153.387C77.1661 152.804 76.2338 145.735 73.4009 137.608C70.5679 129.481 66.8983 123.352 65.2009 123.936L69.1216 122.579Z" fill="#F9F9F9" stroke="#142533"/>
<path d="M65.201 123.925C66.8984 123.342 70.568 129.458 73.4009 137.597C76.2339 145.737 77.1662 152.793 75.4688 153.376C73.7834 153.959 70.1138 147.843 67.2689 139.715C64.424 131.588 63.5156 124.508 65.201 123.925Z" fill="#F9F9F9" stroke="#142533"/>
<path d="M65.2008 123.922C66.8981 123.339 70.5678 129.455 73.4007 137.594C76.2336 145.734 77.166 152.79 75.4686 153.373C73.7832 153.956 70.1135 147.84 67.2687 139.712C64.4238 131.585 63.5153 124.505 65.2008 123.922Z" stroke="#142533" stroke-miterlimit="10"/>
<path d="M65.2007 123.923L69.1214 122.567C70.8187 121.984 74.4884 128.1 77.3213 136.239C80.1542 144.379 81.0866 151.435 79.3892 152.018L75.4685 153.375" stroke="#142533" stroke-miterlimit="10"/>
<path d="M74.0341 159.407C79.951 159.407 84.7682 166.38 84.7682 174.995C84.7682 183.598 79.963 190.572 74.0341 190.572H69.8864C75.8032 190.572 80.6204 183.598 80.6204 174.995C80.6204 166.38 75.8152 159.407 69.8864 159.407H74.0341Z" fill="#F9F9F9" stroke="#142533"/>
<path d="M69.8863 159.407C75.8031 159.407 80.6203 166.38 80.6203 174.996C80.6203 183.599 75.8151 190.572 69.8863 190.572C63.9574 190.572 59.1522 183.599 59.1522 174.996C59.1522 166.38 63.9574 159.407 69.8863 159.407Z" fill="#F9F9F9" stroke="#142533"/>
<path d="M69.8863 159.407C75.8031 159.407 80.6203 166.38 80.6203 174.996C80.6203 183.599 75.8151 190.572 69.8863 190.572C63.9574 190.572 59.1522 183.599 59.1522 174.996C59.1522 166.38 63.9574 159.407 69.8863 159.407Z" stroke="#142533" stroke-miterlimit="10"/>
<path d="M69.8864 159.407H74.0341C79.951 159.407 84.7682 166.38 84.7682 174.995C84.7682 183.598 79.963 190.572 74.0341 190.572H69.8864" stroke="#142533" stroke-miterlimit="10"/>
<path d="M63.9575 223.201C59.7739 227.365 51.4186 225.819 45.2985 219.738C39.1904 213.657 37.6365 205.339 41.8201 201.163L44.7606 198.235C40.577 202.4 42.1309 210.718 48.239 216.811C54.3591 222.903 62.7144 224.45 66.898 220.273L63.9575 223.201Z" fill="#F9F9F9" stroke="#142533"/>
<path d="M66.8857 220.274C62.7021 224.439 54.3468 222.892 48.2267 216.811C42.1186 210.731 40.5647 202.413 44.7483 198.236C48.9439 194.059 57.2873 195.618 63.4073 201.699C69.5274 207.791 71.0813 216.109 66.8857 220.274Z" fill="#F9F9F9" stroke="#142533"/>
<path d="M66.8861 220.274C62.7025 224.439 54.3471 222.892 48.2271 216.811C42.119 210.731 40.565 202.413 44.7487 198.236C48.9443 194.059 57.2876 195.618 63.4077 201.699C69.5278 207.791 71.0817 216.109 66.8861 220.274Z" stroke="#142533" stroke-miterlimit="10"/>
<path d="M66.8861 220.273L63.9456 223.201C59.7619 227.365 51.4066 225.819 45.2865 219.738C39.1784 213.657 37.6245 205.339 41.8081 201.163L44.7486 198.235" stroke="#142533" stroke-miterlimit="10"/>
<path d="M52.4943 217.071C52.4943 224.413 45.4897 230.363 36.8475 230.363C28.2053 230.363 21.1887 224.413 21.1887 217.071V212.942C21.1887 220.284 28.2053 226.234 36.8475 226.234C45.4897 226.234 52.4943 220.284 52.4943 212.942V217.071Z" fill="#F9F9F9" stroke="#142533"/>
<path d="M52.4942 212.943C52.4942 220.285 45.4896 226.234 36.8474 226.234C28.2052 226.234 21.1886 220.285 21.1886 212.943C21.1886 205.601 28.2052 199.651 36.8474 199.651C45.4896 199.651 52.4942 205.601 52.4942 212.943Z" fill="#F9F9F9" stroke="#142533"/>
<path d="M52.4942 212.943C52.4942 220.285 45.4896 226.234 36.8474 226.234C28.2052 226.234 21.1886 220.285 21.1886 212.943C21.1886 205.601 28.2052 199.651 36.8474 199.651C45.4896 199.651 52.4942 205.601 52.4942 212.943Z" stroke="#142533" stroke-miterlimit="10"/>
<path d="M52.4943 212.942V217.071C52.4943 224.413 45.4897 230.363 36.8475 230.363C28.2053 230.363 21.1887 224.413 21.1887 217.071V212.942" stroke="#142533" stroke-miterlimit="10"/>
<path d="M57.8383 178.078C53.5591 185.562 47.5466 190.18 44.4148 188.406L40.8049 186.36C43.9367 188.133 49.9492 183.504 54.2285 176.031C58.5077 168.558 59.4401 161.049 56.3083 159.276L59.9182 161.323C63.05 163.096 62.1176 170.593 57.8383 178.078Z" fill="#F9F9F9" stroke="#142533"/>
<path d="M54.2277 176.03C49.9484 183.514 43.9359 188.132 40.8042 186.358C37.6724 184.574 38.6048 177.077 42.884 169.592C47.1633 162.107 53.1758 157.49 56.3076 159.263C59.4393 161.048 58.507 168.557 54.2277 176.03Z" fill="#F9F9F9" stroke="#142533"/>
<path d="M56.3076 159.276C59.4393 161.049 58.507 168.558 54.2277 176.031C49.9484 183.516 43.9359 188.133 40.8042 186.36C37.6724 184.575 38.6048 177.078 42.884 169.593C47.1753 162.12 53.1758 157.503 56.3076 159.276Z" stroke="#142533" stroke-miterlimit="10"/>
<path d="M56.3082 159.277L59.9181 161.324C63.0499 163.109 62.1175 170.606 57.8382 178.091C53.559 185.575 47.5465 190.192 44.4147 188.419L40.8048 186.373" stroke="#142533" stroke-miterlimit="10"/>
<path d="M49.0874 141.689C44.7006 149.115 43.6726 156.599 46.7685 158.42L50.3425 160.514C47.2467 158.694 48.2746 151.209 52.6615 143.784C57.0483 136.37 63.1206 131.825 66.2284 133.645L62.6544 131.551C59.5466 129.742 53.4743 134.276 49.0874 141.689Z" fill="#F9F9F9" stroke="#142533"/>
<path d="M52.6619 143.785C48.2751 151.211 47.2471 158.695 50.343 160.516C53.4508 162.337 59.5231 157.791 63.9099 150.378C68.2968 142.952 69.3248 135.468 66.2289 133.647C63.121 131.826 57.0488 136.372 52.6619 143.785Z" fill="#F9F9F9" stroke="#142533"/>
<path d="M66.2289 133.658C63.121 131.838 57.0488 136.383 52.6619 143.797C48.2751 151.222 47.2471 158.707 50.343 160.527C53.4508 162.348 59.5231 157.802 63.9099 150.389C68.2968 142.964 69.3367 135.467 66.2289 133.658Z" stroke="#142533" stroke-miterlimit="10"/>
<path d="M66.2284 133.657L62.6544 131.563C59.5466 129.742 53.4743 134.288 49.0874 141.701C44.7006 149.127 43.6726 156.612 46.7685 158.432L50.3425 160.526" stroke="#142533" stroke-miterlimit="10"/>
<path d="M81.7083 240.489C73.365 242.762 65.8344 241.798 64.8901 238.347L63.7904 234.361C64.7467 237.812 72.2772 238.775 80.6206 236.503C88.952 234.23 94.9526 229.577 93.9963 226.114L95.096 230.101C96.0403 233.563 90.0517 238.216 81.7083 240.489Z" fill="#F9F9F9" stroke="#142533"/>
<path d="M80.6087 236.504C72.2654 238.776 64.7348 237.812 63.7785 234.362C62.8342 230.899 68.8109 226.246 77.1542 223.973C85.4976 221.7 93.0282 222.664 93.9725 226.115C94.9407 229.578 88.9521 234.231 80.6087 236.504Z" fill="#F9F9F9" stroke="#142533"/>
<path d="M93.9844 226.115C94.9407 229.578 88.9521 234.231 80.6087 236.504C72.2654 238.776 64.7348 237.812 63.7785 234.362C62.8342 230.899 68.8109 226.246 77.1542 223.973C85.4976 221.7 93.0401 222.664 93.9844 226.115Z" stroke="#142533" stroke-miterlimit="10"/>
<path d="M93.9843 226.114L95.084 230.101C96.0284 233.563 90.0517 238.216 81.7083 240.489C73.365 242.762 65.8344 241.798 64.8901 238.347L63.7904 234.361" stroke="#142533" stroke-miterlimit="10"/>
<path d="M59.8577 193.965C61.2801 195.048 66.695 190.383 71.9425 183.541C77.1899 176.699 80.2978 170.285 78.8753 169.202L75.5762 166.691C76.9987 167.774 73.8908 174.188 68.6433 181.03C63.3959 187.873 57.981 192.537 56.5586 191.454L59.8577 193.965Z" fill="#F9F9F9" stroke="#142533"/>
<path d="M56.5588 191.454C57.9812 192.537 63.396 187.872 68.6435 181.03C73.891 174.188 76.9988 167.774 75.5764 166.691C74.154 165.608 68.7391 170.273 63.4917 177.103C58.2442 183.933 55.1483 190.371 56.5588 191.454Z" fill="#F9F9F9" stroke="#142533"/>
<path d="M56.5588 191.454C57.9812 192.537 63.396 187.872 68.6435 181.03C73.891 174.188 76.9988 167.774 75.5764 166.691C74.154 165.608 68.7391 170.273 63.4917 177.103C58.2442 183.933 55.1483 190.371 56.5588 191.454Z" stroke="#142533" stroke-miterlimit="10"/>
<path d="M56.5586 191.454L59.8577 193.965C61.2801 195.048 66.695 190.383 71.9425 183.541C77.1899 176.699 80.2978 170.285 78.8753 169.202L75.5762 166.691" stroke="#142533" stroke-miterlimit="10"/>
<path d="M56.8575 238.194C57.515 239.86 64.5674 238.634 72.6119 235.469C80.6565 232.303 86.6331 228.4 85.9757 226.746L84.4576 222.903C85.1151 224.569 79.1265 228.472 71.0939 231.625C63.0493 234.79 55.9969 236.004 55.3395 234.35L56.8575 238.194Z" fill="#F9F9F9" stroke="#142533"/>
<path d="M55.3276 234.351C55.985 236.017 63.0374 234.792 71.082 231.626C79.1265 228.461 85.1031 224.558 84.4457 222.904C83.7883 221.25 76.7358 222.464 68.6913 225.617C60.6707 228.782 54.6821 232.697 55.3276 234.351Z" fill="#F9F9F9" stroke="#142533"/>
<path d="M55.3276 234.351C55.985 236.017 63.0374 234.792 71.082 231.626C79.1265 228.461 85.1031 224.558 84.4457 222.904C83.7883 221.25 76.7358 222.464 68.6913 225.617C60.6707 228.782 54.6821 232.697 55.3276 234.351Z" stroke="#142533" stroke-miterlimit="10"/>
<path d="M55.3271 234.35L56.8452 238.194C57.5026 239.86 64.5551 238.634 72.5996 235.469C80.6442 232.303 86.6208 228.4 85.9634 226.746L84.4453 222.903" stroke="#142533" stroke-miterlimit="10"/>
<mask id="mask0" mask-type="alpha" maskUnits="userSpaceOnUse" x="4" y="202" width="120" height="49">
<path d="M64.0051 250.045C96.5972 250.045 123.018 246.102 123.018 241.239C123.018 236.376 96.5972 203.26 64.0051 203.26C31.413 203.26 4.99182 236.376 4.99182 241.239C4.99182 246.102 31.413 250.045 64.0051 250.045Z" fill="#C4C4C4" stroke="#142533" stroke-miterlimit="10"/>
</mask>
<g mask="url(#mask0)">
<path d="M44.9157 242.192C44.2224 248.047 36.7038 251.986 28.1094 250.986C19.527 249.986 13.12 244.417 13.8133 238.563L14.2915 234.458C13.5982 240.312 20.0051 245.881 28.5876 246.881C37.182 247.88 44.7006 243.941 45.3939 238.087L44.9157 242.192Z" fill="#F9F9F9" stroke="#142533"/>
<path d="M45.3937 238.087C44.7005 243.941 37.1819 247.88 28.5875 246.881C20.005 245.881 13.5981 240.312 14.2913 234.457C14.9846 228.591 22.5032 224.664 31.0857 225.664C39.692 226.663 46.087 232.232 45.3937 238.087Z" fill="#F9F9F9" stroke="#142533"/>
<path d="M45.3937 238.087C44.7005 243.941 37.1819 247.88 28.5875 246.881C20.005 245.881 13.5981 240.312 14.2913 234.457C14.9846 228.591 22.5032 224.664 31.0857 225.664C39.692 226.663 46.087 232.232 45.3937 238.087Z" stroke="#142533" stroke-miterlimit="10"/>
<path d="M45.3939 238.087L44.9157 242.192C44.2224 248.047 36.7038 251.986 28.1094 250.986C19.527 249.986 13.12 244.417 13.8133 238.563L14.2915 234.458" stroke="#142533" stroke-miterlimit="10"/>
<path d="M98.4209 244.214C92.2302 238.181 89.2374 231.207 91.7337 228.643L94.6148 225.685C92.1185 228.249 95.1113 235.223 101.302 241.256C107.5 247.28 114.55 250.086 117.054 247.513L114.173 250.471C111.669 253.044 104.619 250.238 98.4209 244.214Z" fill="#F9F9F9" stroke="#142533"/>
<path d="M101.302 241.256C95.1115 235.223 92.1186 228.249 94.615 225.685C97.128 223.119 104.178 225.925 110.376 231.949C116.567 237.982 119.56 244.956 117.064 247.52C114.56 250.093 107.5 247.28 101.302 241.256Z" fill="#F9F9F9" stroke="#142533"/>
<path d="M117.064 247.52C114.56 250.093 107.5 247.28 101.312 241.263C95.1209 235.23 92.128 228.256 94.6244 225.692C97.1374 223.126 104.188 225.932 110.386 231.956C116.567 237.982 119.56 244.956 117.064 247.52Z" stroke="#142533" stroke-miterlimit="10"/>
<path d="M117.063 247.52L114.182 250.478C111.669 253.044 104.619 250.238 98.4208 244.214C92.2301 238.181 89.2373 231.207 91.7336 228.643L94.6147 225.685" stroke="#142533" stroke-miterlimit="10"/>
<path d="M75.4213 257.718C76.6065 259.053 82.8136 255.482 89.29 249.758C95.7665 244.034 100.052 238.3 98.8669 236.965L96.1336 233.87C97.3189 235.205 93.0255 240.929 86.5567 246.662C80.0803 252.386 73.8732 255.958 72.688 254.622L75.4213 257.718Z" fill="#F9F9F9" stroke="#142533"/>
<path d="M72.6878 254.622C73.873 255.957 80.0801 252.386 86.5565 246.662C93.033 240.938 97.3187 235.205 96.1335 233.87C94.9559 232.543 88.7503 236.098 82.2738 241.822C75.7973 247.546 71.5103 253.296 72.6878 254.622Z" fill="#F9F9F9" stroke="#142533"/>
<path d="M72.6878 254.622C73.873 255.957 80.0801 252.386 86.5565 246.662C93.033 240.938 97.3187 235.205 96.1335 233.87C94.9559 232.543 88.7503 236.098 82.2738 241.822C75.7973 247.546 71.5103 253.296 72.6878 254.622Z" stroke="#142533" stroke-miterlimit="10"/>
<path d="M72.688 254.622L75.4213 257.718C76.6065 259.053 82.8136 255.482 89.29 249.758C95.7665 244.034 100.052 238.3 98.8669 236.965L96.1336 233.87" stroke="#142533" stroke-miterlimit="10"/>
<path d="M61.5583 256.126C60.3891 257.477 54.1505 253.96 47.6329 248.273C41.1153 242.586 36.783 236.907 37.9522 235.556L40.6586 232.431C39.4894 233.783 43.8135 239.47 50.3394 245.148C56.857 250.836 63.0955 254.353 64.2647 253.002L61.5583 256.126Z" fill="#F9F9F9" stroke="#142533"/>
<path d="M64.2635 253.004C63.0943 254.355 56.8558 250.838 50.3382 245.151C43.8206 239.463 39.4882 233.785 40.6574 232.434C41.8184 231.091 48.0651 234.6 54.5741 240.279C61.0917 245.966 65.4331 251.669 64.2635 253.004Z" fill="#F9F9F9" stroke="#142533"/>
<path d="M64.2635 253.004C63.0943 254.355 56.8558 250.838 50.3382 245.151C43.8206 239.463 39.4882 233.785 40.6574 232.434C41.8184 231.091 48.0651 234.6 54.5741 240.279C61.0917 245.966 65.4331 251.669 64.2635 253.004Z" stroke="#142533" stroke-miterlimit="10"/>
<path d="M64.2647 253.002L61.5496 256.118C60.3804 257.469 54.1419 253.952 47.6243 248.265C41.1067 242.577 36.7743 236.899 37.9435 235.548L40.6586 232.431" stroke="#142533" stroke-miterlimit="10"/>
</g>
<path d="M123.018 241.239C123.018 246.102 96.5972 250.045 64.0051 250.045C31.413 250.045 4.99182 246.102 4.99182 241.239" stroke="#41CCB4" stroke-miterlimit="10"/>
<path d="M123.066 237.644C125.624 238.952 127.028 240.36 127.028 241.843C127.028 248.456 98.9614 253.825 64.3273 253.825C29.6933 253.825 1.62671 248.456 1.62671 241.843C1.62671 240.36 3.03063 238.952 5.58863 237.644" stroke="#142533" stroke-miterlimit="10"/>
<path d="M127.027 241.689V258.537C127.027 264.867 98.9609 270.005 64.3268 270.005C29.6928 270.005 1.62622 264.867 1.62622 258.537V241.689" stroke="#142533" stroke-miterlimit="10"/>
</svg>
