<?xml version="1.0" encoding="UTF-8"?>
<svg width="34px" height="38px" viewBox="0 0 34 38" version="1.1" xmlns="http://www.w3.org/2000/svg" xmlns:xlink="http://www.w3.org/1999/xlink">
    <!-- Generator: Sketch 59.1 (86144) - https://sketch.com -->
    <title>Group 8</title>
    <desc>Created with Sketch.</desc>
    <defs>
        <polygon id="path-1" points="0 0.4042 33.099 0.4042 33.099 37.99995 0 37.99995"></polygon>
    </defs>
    <g id="Page-1" stroke="none" stroke-width="1" fill="none" fill-rule="evenodd">
        <g id="ThirdPartyWallet-Copy-3" transform="translate(-534.000000, -4517.000000)">
            <g id="Stacked-Group-3" transform="translate(175.000000, 4359.000000)">
                <g transform="translate(0.000000, 129.000000)" id="Padding-Group-10">
                    <g transform="translate(232.000000, 0.000000)">
                        <g id="Stacked-Group-9" transform="translate(86.000000, 28.000000)">
                            <g id="Group-8" transform="translate(41.000000, 0.000000)">
                                <g id="Group-3" transform="translate(0.000000, 0.595700)">
                                    <mask id="mask-2" fill="white">
                                        <use xlink:href="#path-1"></use>
                                    </mask>
                                    <g id="Clip-2"></g>
                                    <path d="M33.0284,4.5937 C33.0194,4.4807 32.9394,4.3857 32.8284,4.3587 L16.6114,0.4117 C16.5704,0.4017 16.5284,0.4017 16.4874,0.4117 L0.2704,4.3587 C0.1604,4.3857 0.0794,4.4807 0.0704,4.5937 C0.0494,4.8647 -1.9186,31.7287 16.4644,37.9857 C16.5194,38.0047 16.5794,38.0047 16.6344,37.9857 C35.0184,31.7287 33.0504,4.8647 33.0284,4.5937" id="Fill-1" fill="#798CE5" mask="url(#mask-2)"></path>
                                </g>
                                <path d="M30.0328,8.0302 C30.0248,7.9382 29.9598,7.8622 29.8698,7.8402 L16.5998,4.6152 C16.5668,4.6072 16.5318,4.6072 16.4978,4.6152 L3.2298,7.8402 C3.1398,7.8612 3.0748,7.9382 3.0678,8.0302 C3.0498,8.2512 1.4398,30.1832 16.4828,35.2902 C16.5268,35.3072 16.5748,35.3072 16.6198,35.2902 C31.6618,30.1832 30.0528,8.2512 30.0348,8.0302" id="Fill-4" fill="#FFFFFF"></path>
                                <path d="M16.3615,9.4286 L7.5145,11.5776 C7.4545,11.5926 7.4115,11.6436 7.4055,11.7056 C7.3945,11.8526 6.3215,26.4746 16.3485,29.8806 C16.3795,29.8896 16.4115,29.8896 16.4415,29.8806 C26.4685,26.4736 25.3965,11.8526 25.3845,11.7046 C25.3795,11.6436 25.3355,11.5916 25.2755,11.5776 L16.4285,9.4286 C16.4065,9.4226 16.3835,9.4226 16.3615,9.4286" id="Fill-6" fill="#798CE5"></path>
                            </g>
                        </g>
                    </g>
                </g>
            </g>
        </g>
    </g>
</svg>