<?xml version="1.0" encoding="UTF-8"?>
<svg width="11px" height="11px" viewBox="0 0 11 11" version="1.1" xmlns="http://www.w3.org/2000/svg" xmlns:xlink="http://www.w3.org/1999/xlink">
    <!-- Generator: Sketch 51.2 (57519) - http://www.bohemiancoding.com/sketch -->
    <title>a</title>
    <desc>Created with Sketch.</desc>
    <defs></defs>
    <g id="Page-1" stroke="none" stroke-width="1" fill="none" fill-rule="evenodd">
        <path d="M5.991,5.195 L10.279,0.907 C10.3495313,0.836646803 10.3891703,0.741120446 10.3891703,0.6415 C10.3891703,0.541879554 10.3495313,0.446353197 10.279,0.376 L10.013,0.11 C9.9426468,0.0394687245 9.84712045,-0.000170337764 9.7475,-0.000170337764 C9.64787955,-0.000170337764 9.5523532,0.0394687245 9.482,0.11 L5.195,4.398 L0.907,0.113 C0.836646803,0.0424687245 0.741120446,0.00282966224 0.6415,0.00282966224 C0.541879554,0.00282966224 0.446353197,0.0424687245 0.376,0.113 L0.11,0.379 C0.0394687245,0.449353197 -0.000170337764,0.544879554 -0.000170337764,0.6445 C-0.000170337764,0.744120446 0.0394687245,0.839646803 0.11,0.91 L4.398,5.195 L0.113,9.482 C0.0424687245,9.5523532 0.00282966224,9.64787955 0.00282966224,9.7475 C0.00282966224,9.84712045 0.0424687245,9.9426468 0.113,10.013 L0.379,10.279 C0.449353197,10.3495313 0.544879554,10.3891703 0.6445,10.3891703 C0.744120446,10.3891703 0.839646803,10.3495313 0.91,10.279 L5.195,5.99 L9.482,10.278 C9.5523532,10.3485313 9.64787955,10.3881703 9.7475,10.3881703 C9.84712045,10.3881703 9.9426468,10.3485313 10.013,10.278 L10.279,10.012 C10.3495313,9.9416468 10.3891703,9.84612045 10.3891703,9.7465 C10.3891703,9.64687955 10.3495313,9.5513532 10.279,9.481 L5.99,5.195 L5.991,5.195 Z" id="a" fill="#FFFFFF" fill-rule="nonzero"></path>
    </g>
</svg>