<?xml version="1.0" encoding="utf-8"?>
<!-- Generator: Adobe Illustrator 23.0.4, SVG Export Plug-In . SVG Version: 6.00 Build 0)  -->
<svg version="1.1" id="Calque_1" xmlns="http://www.w3.org/2000/svg" xmlns:xlink="http://www.w3.org/1999/xlink" x="0px" y="0px"
	 viewBox="0 0 240 240" style="enable-background:new 0 0 240 240;" xml:space="preserve">
<style type="text/css">
	.st0{fill-rule:evenodd;clip-rule:evenodd;fill:#3EB59C;}
	.st1{fill:#50B797;}
	.st2{fill:#343434;}
	.st3{fill:#044B6A;}
	.st4{fill:#020203;}
	.st5{fill:#077997;}
</style>
<g id="kyber">
	<path class="st1" d="M107.7,119.8l89.7,51.3c3.1,1.8,7.1-0.5,7.1-4.1V72.5c0-3.6-3.9-5.8-7.1-4.1L107.7,119.8z"/>
	<path class="st1" d="M195.4,45.7l-61.2-45c-2.8-2.1-6.9-0.6-7.6,2.7l-22.4,100.2l90.7-50.2C197.8,51.8,198.1,47.8,195.4,45.7"/>
	<path class="st1" d="M134.1,238.8l61.3-45c2.7-2,2.5-6.1-0.5-7.7l-90.7-50.2l22.4,100.2C127.2,239.4,131.3,240.9,134.1,238.8"/>
	<path class="st1" d="M84.4,118L107.6,9c0.9-4.3-3.9-7.4-7.4-4.7L40.9,50.1c-3.1,2.3-4.8,6-4.8,9.9V176c0,3.8,1.8,7.5,4.8,9.9
		l59.3,45.7c3.4,2.7,8.3-0.4,7.4-4.7L84.4,118z"/>
</g>
</svg>
