<?xml version="1.0" encoding="utf-8"?>
<!-- Generator: Adobe Illustrator 23.0.4, SVG Export Plug-In . SVG Version: 6.00 Build 0)  -->
<svg version="1.1" id="Calque_1" xmlns="http://www.w3.org/2000/svg" xmlns:xlink="http://www.w3.org/1999/xlink" x="0px" y="0px"
	 viewBox="0 0 800 800" style="enable-background:new 0 0 800 800;" xml:space="preserve">
<style type="text/css">
	.st0{fill:#E17726;stroke:#E17726;stroke-linecap:round;stroke-linejoin:round;}
	.st1{fill:#E27625;stroke:#E27625;stroke-linecap:round;stroke-linejoin:round;}
	.st2{fill:#D5BFB2;stroke:#D5BFB2;stroke-linecap:round;stroke-linejoin:round;}
	.st3{fill:#233447;stroke:#233447;stroke-linecap:round;stroke-linejoin:round;}
	.st4{fill:#CC6228;stroke:#CC6228;stroke-linecap:round;stroke-linejoin:round;}
	.st5{fill:#E27525;stroke:#E27525;stroke-linecap:round;stroke-linejoin:round;}
	.st6{fill:#F5841F;stroke:#F5841F;stroke-linecap:round;stroke-linejoin:round;}
	.st7{fill:#C0AC9D;stroke:#C0AC9D;stroke-linecap:round;stroke-linejoin:round;}
	.st8{fill:#161616;stroke:#161616;stroke-linecap:round;stroke-linejoin:round;}
	.st9{fill:#763E1A;stroke:#763E1A;stroke-linecap:round;stroke-linejoin:round;}
</style>
<g>
	<polygon class="st0" points="746,38.9 446.1,261.4 501.9,130.3 	"/>
	<g>
		<polygon class="st1" points="54.3,38.9 351.5,263.5 298.4,130.3 		"/>
		<polygon class="st1" points="638.1,554.8 558.3,677 729.1,724.1 778.1,557.4 		"/>
		<polygon class="st1" points="22.5,557.4 71.2,724.1 241.7,677 162.2,554.8 		"/>
		<polygon class="st1" points="232.5,348.3 185.1,420.1 354.2,427.8 348.5,245.4 		"/>
		<polygon class="st1" points="567.8,348.3 450,243.3 446.1,427.8 615.2,420.1 		"/>
		<polygon class="st1" points="241.7,677 344.1,627.4 256,558.6 		"/>
		<polygon class="st1" points="456.2,627.4 558.3,677 544.3,558.6 		"/>
	</g>
	<g>
		<polygon class="st2" points="558.3,677 456.2,627.4 464.5,693.9 463.6,722.1 		"/>
		<polygon class="st2" points="241.7,677 336.7,722.1 336.1,693.9 344.1,627.4 		"/>
	</g>
	<polygon class="st3" points="338.4,514.7 253.6,489.8 313.5,462.2 	"/>
	<polygon class="st3" points="461.9,514.7 486.8,462.2 547,489.8 	"/>
	<g>
		<polygon class="st4" points="241.7,677 256.6,554.8 162.2,557.4 		"/>
		<polygon class="st4" points="543.7,554.8 558.3,677 638.1,557.4 		"/>
		<polygon class="st4" points="615.2,420.1 446.1,427.8 461.9,514.7 486.8,462.2 547,489.8 		"/>
		<polygon class="st4" points="253.6,489.8 313.5,462.2 338.4,514.7 354.2,427.8 185.1,420.1 		"/>
	</g>
	<g>
		<polygon class="st5" points="185.1,420.1 256,558.6 253.6,489.8 		"/>
		<polygon class="st5" points="547,489.8 544.3,558.6 615.2,420.1 		"/>
		<polygon class="st5" points="354.2,427.8 338.4,514.7 358.3,617.3 362.8,482.1 		"/>
		<polygon class="st5" points="446.1,427.8 437.8,481.8 442,617.3 461.9,514.7 		"/>
	</g>
	<polygon class="st6" points="461.9,514.7 442,617.3 456.2,627.4 544.3,558.6 547,489.8 	"/>
	<polygon class="st6" points="253.6,489.8 256,558.6 344.1,627.4 358.3,617.3 338.4,514.7 	"/>
	<polygon class="st7" points="463.6,722.1 464.5,693.9 456.8,687.4 343.5,687.4 336.1,693.9 336.7,722.1 241.7,677 275,704.3 
		342.3,750.8 457.7,750.8 525.3,704.3 558.3,677 	"/>
	<polygon class="st8" points="456.2,627.4 442,617.3 358.3,617.3 344.1,627.4 336.1,693.9 343.5,687.4 456.8,687.4 464.5,693.9 	"/>
	<g>
		<polygon class="st9" points="758.8,275.9 784,153.1 746,38.9 456.2,254 567.8,348.3 725.3,394.3 760,353.6 744.8,342.7 
			768.9,320.7 750.5,306.5 774.5,288.1 		"/>
		<polygon class="st9" points="16.3,153.1 41.8,275.9 25.5,288.1 49.8,306.5 31.4,320.7 55.5,342.7 40.3,353.6 75,394.3 
			232.5,348.3 344.1,254 54.3,38.9 		"/>
	</g>
	<polygon class="st6" points="725.3,394.3 567.8,348.3 615.2,420.1 544.3,558.6 638.1,557.4 778.1,557.4 	"/>
	<polygon class="st6" points="232.5,348.3 75,394.3 22.5,557.4 162.2,557.4 256,558.6 185.1,420.1 	"/>
	<polygon class="st6" points="446.1,427.8 456.2,254 501.9,130.3 298.4,130.3 344.1,254 354.2,427.8 358,482.4 358.3,617.3 
		442,617.3 442.3,482.4 	"/>
</g>
</svg>
