<?xml version="1.0" encoding="UTF-8"?>
<svg width="35px" height="35px" viewBox="0 0 35 35" version="1.1" xmlns="http://www.w3.org/2000/svg" xmlns:xlink="http://www.w3.org/1999/xlink">
    <!-- Generator: Sketch 59.1 (86144) - https://sketch.com -->
    <title>Group 5</title>
    <desc>Created with Sketch.</desc>
    <g id="Page-1" stroke="none" stroke-width="1" fill="none" fill-rule="evenodd">
        <g id="ThirdPartyWallet-Copy-3" transform="translate(-536.000000, -4519.000000)">
            <g id="Stacked-Group-3" transform="translate(175.000000, 4359.000000)">
                <g transform="translate(0.000000, 129.000000)" id="Padding-Group-10">
                    <g transform="translate(232.000000, 0.000000)">
                        <g id="Stacked-Group-9" transform="translate(86.000000, 31.000000)">
                            <g id="Group-5" transform="translate(43.000000, 0.000000)">
                                <path d="M17.4997978,0 C7.83666991,0 -0.0122351391,7.8375075 0,17.4795158 C0.00275089936,19.4085683 0.310420784,21.2643474 0.88862124,23 L6.12461275,23 L6.12461275,8.29523772 L17.4997978,19.655589 L28.8744616,8.29523772 L28.8744616,23 L34.111235,23 C34.6904779,21.2643474 34.996975,19.4085683 35,17.4795158 C35.0170433,7.82735596 27.1637076,0.00234266249 17.4997978,0.00234266249 L17.4997978,0 Z" id="Fill-1" fill="#F16822"></path>
                                <path d="M15.3763036,22.0553344 L10.3981285,17 L10.3981285,26.434448 L8.49465485,26.434448 L6.59157322,26.434448 L3,26.4349788 C6.08084372,31.5667463 11.6485533,35 17.9997386,35 C24.350924,35 29.9187642,31.5660828 33,26.4341826 L29.4068585,26.434448 L26.0023001,26.434448 L25.6003032,26.434448 L25.6003032,17 L20.6214747,22.0553344 L17.9990852,24.7181529 L15.376565,22.0553344 L15.3763036,22.0553344 Z" id="Fill-3" fill="#4D4D4D"></path>
                            </g>
                        </g>
                    </g>
                </g>
            </g>
        </g>
    </g>
</svg>