<?xml version="1.0" encoding="utf-8"?>
<!-- Generator: Adobe Illustrator 23.0.4, SVG Export Plug-In . SVG Version: 6.00 Build 0)  -->
<svg version="1.1" id="Calque_1" xmlns="http://www.w3.org/2000/svg" xmlns:xlink="http://www.w3.org/1999/xlink" x="0px" y="0px"
	 viewBox="0 0 240 240" style="enable-background:new 0 0 240 240;" xml:space="preserve">
<style type="text/css">
	.st0{fill-rule:evenodd;clip-rule:evenodd;fill:#3EB59C;}
	.st1{fill:#50B797;}
	.st2{fill:#343434;}
	.st3{fill:#044B6A;}
	.st4{fill:#020203;}
	.st5{fill:#077997;}
</style>
<path id="mycrypto" class="st5" d="M120,0C53.7,0,0,53.7,0,120s53.7,120,120,120s120-53.7,120-120S186.3,0,120,0z M163.4,159.2
	l-30.8,31.2c-0.1,0.1-0.1,0.1-0.2,0.2c-6.8,6.7-17.7,6.6-24.4-0.2l-30.9-31.2c-6.8-6.9-6.8-18,0-24.9l0.1-0.1
	c4.2-4.2,11-4.1,15.2,0.1l15.7,15.8c0.1,0.1,0.1,0.1,0.2,0.2c6.8,6.7,17.7,6.6,24.4-0.2l15.7-15.9l0.1-0.1c4.2-4.2,11-4.1,15.2,0.1
	C170.2,141.3,170.2,152.3,163.4,159.2z M195.9,109.2L195.9,109.2c-4.1,4.1-10.7,4.2-14.7,0.1l-14.9-15.1c-0.1-0.1-0.1-0.1-0.2-0.2
	c-6.6-6.4-17.1-6.2-23.5,0.4l-15.2,15.4l-0.1,0.1c-2.6,2.6-6.2,3.5-9.5,2.8c-2-0.4-3.9-1.3-5.4-2.8l-15.1-15
	c-0.1-0.1-0.1-0.1-0.2-0.2c-6.6-6.4-17.1-6.2-23.5,0.4l-15.2,15.4l-0.1,0.1c-4,4-10.6,4.1-14.6,0c-6.5-6.7-6.4-17.4,0.2-24l30-30.4
	c0.1-0.1,0.1-0.1,0.2-0.2c6.5-6.5,17-6.5,23.5,0l22.4,22.6L143,55.5c0.1-0.1,0.1-0.1,0.2-0.2c6.5-6.5,17-6.5,23.5,0l29.5,29.9
	C202.6,91.9,202.5,102.6,195.9,109.2z"/>
</svg>
