<?xml version="1.0" encoding="UTF-8"?>
<svg width="34px" height="35px" viewBox="0 0 34 35" version="1.1" xmlns="http://www.w3.org/2000/svg" xmlns:xlink="http://www.w3.org/1999/xlink">
    <!-- Generator: Sketch 59.1 (86144) - https://sketch.com -->
    <title>Group 3</title>
    <desc>Created with Sketch.</desc>
    <defs>
        <path d="M11.3803641,0.317855384 L0.315231788,11.4881348 C0.307526503,11.4971331 0.300334903,11.5049429 0.293314532,11.5127528 L0.293314532,11.5127528 L0.267801476,11.5411059 C0.241261048,11.570987 0.21591922,11.6027357 0.194344421,11.6336355 L0.194344421,11.6336355 L0.173283308,11.6621584 C0.157701508,11.6854182 0.135441795,11.7241278 0.113182081,11.76861 L0.113182081,11.76861 L0.103422053,11.789323 C0.080306197,11.8395776 0.0655805404,11.8770988 0.0534233123,11.9134316 L0.0534233123,11.9134316 L0.0438345126,11.9405962 C0.0335607987,11.9760801 0.0243144562,12.0171666 0.0160954851,12.0647048 L0.0160954851,12.0647048 L0.0114723139,12.0986606 C0.00359579986,12.1555366 0,12.2006979 0,12.2404262 L0,12.2404262 L0,33.5935495 C0,34.0015288 0.21352202,34.3935489 0.580122378,34.5789477 L0.580122378,34.5789477 C1.01059099,34.7964348 1.51879737,34.7057727 1.84481656,34.3645167 L1.84481656,34.3645167 L8.64413164,27.4483933 C7.78336565,26.6407539 6.4301463,26.6635043 5.59780425,27.4993271 L5.59780425,27.4993271 L2.13710372,30.9741969 L2.13710372,14.8947534 L21.0825171,34.6730054 C21.2830257,34.8823431 21.5684637,34.9976231 21.8562989,35 L21.8562989,35 L21.8730793,35 C22.0023569,34.9991511 22.1316345,34.975382 22.2535492,34.9271647 L22.2535492,34.9271647 C22.3860801,34.874703 22.5043991,34.7981326 22.6059376,34.6993211 L22.6059376,34.6993211 L23.0074686,34.3078104 L23.0333241,34.3322586 L33.7061718,23.1862576 C33.8955506,22.9884649 34,22.7292121 34,22.4562073 L34,22.4562073 L34,1.06063915 C34,0.628381444 33.7393901,0.243152559 33.3361469,0.079485461 L33.3361469,0.079485461 C32.9327324,-0.0840118577 32.4746959,0.00919689411 32.1692242,0.317855384 L32.1692242,0.317855384 L21.0950167,11.4973029 C20.8987888,11.6956049 20.7886888,11.9624977 20.7886888,12.2404262 L20.7886888,12.2404262 L20.7886888,31.2881185 L2.55438773,12.2526503 L12.145927,2.56946643 L16.5197895,7.13618593 C17.3300431,7.98202564 18.6765845,8.01852816 19.5318712,7.21818926 L19.5318712,7.21818926 L12.9897414,0.405800982 L12.8941959,0.312422451 C12.789404,0.208857171 12.6726261,0.130419205 12.5472868,0.079485461 L12.5472868,0.079485461 C12.4154408,0.0260050297 12.277773,0 12.1414751,0 L12.1414751,0 C11.8610027,0 11.5861808,0.110215487 11.3803641,0.317855384 L11.3803641,0.317855384 Z M22.9256213,12.6742119 L31.8628963,3.65214805 L31.8628963,22.0327781 L22.9256213,31.3660471 L22.9256213,12.6742119 Z" id="path-1"></path>
        <linearGradient x1="102.423512%" y1="-4.35587905%" x2="-0.132217094%" y2="102.168834%" id="linearGradient-3">
            <stop stop-color="#69D8FF" offset="0%"></stop>
            <stop stop-color="#66ED87" offset="100%"></stop>
        </linearGradient>
    </defs>
    <g id="Page-1" stroke="none" stroke-width="1" fill="none" fill-rule="evenodd">
        <g id="ThirdPartyWallet-Copy-3" transform="translate(-537.000000, -4520.000000)">
            <g id="Stacked-Group-3" transform="translate(175.000000, 4359.000000)">
                <g transform="translate(0.000000, 129.000000)" id="Padding-Group-10">
                    <g transform="translate(232.000000, 0.000000)">
                        <g id="Stacked-Group-9" transform="translate(86.000000, 32.000000)">
                            <g id="Group-3" transform="translate(44.000000, 0.000000)">
                                <mask id="mask-2" fill="white">
                                    <use xlink:href="#path-1"></use>
                                </mask>
                                <g id="Clip-2"></g>
                                <path d="M11.3803641,0.317855384 L0.315231788,11.4881348 C0.307526503,11.4971331 0.300334903,11.5049429 0.293314532,11.5127528 L0.293314532,11.5127528 L0.267801476,11.5411059 C0.241261048,11.570987 0.21591922,11.6027357 0.194344421,11.6336355 L0.194344421,11.6336355 L0.173283308,11.6621584 C0.157701508,11.6854182 0.135441795,11.7241278 0.113182081,11.76861 L0.113182081,11.76861 L0.103422053,11.789323 C0.080306197,11.8395776 0.0655805404,11.8770988 0.0534233123,11.9134316 L0.0534233123,11.9134316 L0.0438345126,11.9405962 C0.0335607987,11.9760801 0.0243144562,12.0171666 0.0160954851,12.0647048 L0.0160954851,12.0647048 L0.0114723139,12.0986606 C0.00359579986,12.1555366 0,12.2006979 0,12.2404262 L0,12.2404262 L0,33.5935495 C0,34.0015288 0.21352202,34.3935489 0.580122378,34.5789477 L0.580122378,34.5789477 C1.01059099,34.7964348 1.51879737,34.7057727 1.84481656,34.3645167 L1.84481656,34.3645167 L8.64413164,27.4483933 C7.78336565,26.6407539 6.4301463,26.6635043 5.59780425,27.4993271 L5.59780425,27.4993271 L2.13710372,30.9741969 L2.13710372,14.8947534 L21.0825171,34.6730054 C21.2830257,34.8823431 21.5684637,34.9976231 21.8562989,35 L21.8562989,35 L21.8730793,35 C22.0023569,34.9991511 22.1316345,34.975382 22.2535492,34.9271647 L22.2535492,34.9271647 C22.3860801,34.874703 22.5043991,34.7981326 22.6059376,34.6993211 L22.6059376,34.6993211 L23.0074686,34.3078104 L23.0333241,34.3322586 L33.7061718,23.1862576 C33.8955506,22.9884649 34,22.7292121 34,22.4562073 L34,22.4562073 L34,1.06063915 C34,0.628381444 33.7393901,0.243152559 33.3361469,0.079485461 L33.3361469,0.079485461 C32.9327324,-0.0840118577 32.4746959,0.00919689411 32.1692242,0.317855384 L32.1692242,0.317855384 L21.0950167,11.4973029 C20.8987888,11.6956049 20.7886888,11.9624977 20.7886888,12.2404262 L20.7886888,12.2404262 L20.7886888,31.2881185 L2.55438773,12.2526503 L12.145927,2.56946643 L16.5197895,7.13618593 C17.3300431,7.98202564 18.6765845,8.01852816 19.5318712,7.21818926 L19.5318712,7.21818926 L12.9897414,0.405800982 L12.8941959,0.312422451 C12.789404,0.208857171 12.6726261,0.130419205 12.5472868,0.079485461 L12.5472868,0.079485461 C12.4154408,0.0260050297 12.277773,0 12.1414751,0 L12.1414751,0 C11.8610027,0 11.5861808,0.110215487 11.3803641,0.317855384 L11.3803641,0.317855384 Z M22.9256213,12.6742119 L31.8628963,3.65214805 L31.8628963,22.0327781 L22.9256213,31.3660471 L22.9256213,12.6742119 Z" id="Fill-1" fill="url(#linearGradient-3)" mask="url(#mask-2)"></path>
                            </g>
                        </g>
                    </g>
                </g>
            </g>
        </g>
    </g>
</svg>