<?xml version="1.0" encoding="utf-8"?>
<svg xmlns="http://www.w3.org/2000/svg" xmlns:xlink="http://www.w3.org/1999/xlink" viewBox="0 0 36.78 37.01"><defs><style>.ae9a18ca-df90-4fe5-aa8b-b0a70802a78c{fill:#1a53f0;}.b9c2b5ce-3d35-43ef-9594-119aef2ac57c{clip-path:url(#a881e9c1-8ef6-4206-8176-66f3a16cf449);}</style><clipPath id="a881e9c1-8ef6-4206-8176-66f3a16cf449"><path class="ae9a18ca-df90-4fe5-aa8b-b0a70802a78c" d="M15.89,11.22A4.72,4.72,0,1,0,11.17,16,4.77,4.77,0,0,0,15.89,11.22ZM11.16,4.39h6.77V6.45H16a6.9,6.9,0,0,1,.75,8.63,6.74,6.74,0,0,1-8.23,2.44A6.84,6.84,0,0,1,11.16,4.39ZM25.62,16a4.76,4.76,0,1,0-4.72-4.76A4.74,4.74,0,0,0,25.62,16Zm0-11.59a6.84,6.84,0,0,1,2.59,13.14,6.71,6.71,0,0,1-7.37-1.48,6.86,6.86,0,0,1-1.47-7.44A6.76,6.76,0,0,1,25.62,4.39ZM11.16,30.56h0a4.77,4.77,0,1,0-4.72-4.77A4.77,4.77,0,0,0,11.16,30.56Zm0-11.6A6.83,6.83,0,1,1,4.4,25.79,6.8,6.8,0,0,1,11.16,19Z"/></clipPath></defs><title>omg</title><g id="a17820dd-af4b-41fb-985b-eec5d6f00e4c" data-name="Calque 2"><g id="b6211fcf-7caa-48fd-8f86-7b6d854410eb" data-name="Back"><path class="ae9a18ca-df90-4fe5-aa8b-b0a70802a78c" d="M15.89,11.22A4.72,4.72,0,1,0,11.17,16,4.77,4.77,0,0,0,15.89,11.22ZM11.16,4.39h6.77V6.45H16a6.9,6.9,0,0,1,.75,8.63,6.74,6.74,0,0,1-8.23,2.44A6.84,6.84,0,0,1,11.16,4.39ZM25.62,16a4.76,4.76,0,1,0-4.72-4.76A4.74,4.74,0,0,0,25.62,16Zm0-11.59a6.84,6.84,0,0,1,2.59,13.14,6.71,6.71,0,0,1-7.37-1.48,6.86,6.86,0,0,1-1.47-7.44A6.76,6.76,0,0,1,25.62,4.39ZM11.16,30.56h0a4.77,4.77,0,1,0-4.72-4.77A4.77,4.77,0,0,0,11.16,30.56Zm0-11.6A6.83,6.83,0,1,1,4.4,25.79,6.8,6.8,0,0,1,11.16,19Z"/><g class="b9c2b5ce-3d35-43ef-9594-119aef2ac57c"><rect class="ae9a18ca-df90-4fe5-aa8b-b0a70802a78c" width="36.78" height="37.01"/></g></g></g></svg>