<?xml version="1.0" encoding="utf-8"?>
<!-- Generator: Adobe Illustrator 24.3.0, SVG Export Plug-In . SVG Version: 6.00 Build 0)  -->
<svg version="1.1" id="Calque_1" xmlns="http://www.w3.org/2000/svg" xmlns:xlink="http://www.w3.org/1999/xlink" x="0px" y="0px"
	 viewBox="0 0 36.3 36.1" style="enable-background:new 0 0 36.3 36.1;" xml:space="preserve">
<style type="text/css">
	.st0{fill:#E6007A;}
</style>
<g>
	<path class="st0" d="M18.7,0C11.2,0,5.1,6.1,5,13.7c0,1.5,0.2,3,0.7,4.4c0.4,1,1.4,1.5,2.4,1.2c1-0.4,1.5-1.4,1.2-2.4
		c-0.4-1.1-0.6-2.3-0.5-3.5C9,8,13.5,3.7,19,3.8s9.6,4.7,9.5,10.2c-0.2,5.1-4.2,9.2-9.3,9.5c0,0-1.9,0.1-2.9,0.2
		c-0.4,0.1-0.7,0.1-1,0.2c0,0.1-0.1,0.1-0.2,0l0,0c0,0,0-0.1,0-0.2l0.3-1.6l1.8-8.1c0.2-1-0.4-2-1.4-2.2s-2,0.4-2.2,1.4
		c0,0-4.3,19.8-4.3,20c-0.2,1,0.3,1.9,1.3,2.2l0,0h0.1c1,0.2,1.9-0.3,2.2-1.3l0,0V34c0.1-0.2,0.6-2.9,0.6-2.9c0.4-2,2-3.5,4-3.8
		c0.4-0.1,2.2-0.2,2.2-0.2c7.5-0.7,13-7.4,12.2-14.9C31.2,5.4,25.6,0.1,18.7,0z"/>
	<path class="st0" d="M19.5,31.5c-1.2-0.3-2.4,0.5-2.7,1.8l0,0c-0.3,1.2,0.5,2.4,1.7,2.7l0,0h0.1c1.2,0.3,2.4-0.4,2.7-1.6l0,0v-0.1
		C21.5,32.9,20.7,31.8,19.5,31.5z"/>
</g>
</svg>
