<?xml version="1.0" encoding="utf-8"?><svg width="34" height="30" viewBox="0 0 34 30" fill="none" xmlns="http://www.w3.org/2000/svg">
<path d="M25.4858 9.48901C24.8707 9.1296 24.0712 9.1296 23.3948 9.48901L18.5977 12.2445L15.3381 14.0416L10.5411 16.797C9.92612 17.1564 9.12661 17.1564 8.45011 16.797L4.63707 14.6405C4.02206 14.2811 3.59156 13.6222 3.59156 12.9034V8.65038C3.59156 7.93156 3.96057 7.27265 4.63707 6.91324L8.3886 4.8167C9.00361 4.45729 9.80312 4.45729 10.4796 4.8167L14.2312 6.91324C14.8461 7.27265 15.2767 7.93156 15.2767 8.65038V11.4059L18.5362 9.54891V6.79345C18.5362 6.07462 18.1672 5.41571 17.4907 5.0563L10.5411 1.10281C9.92612 0.7434 9.12661 0.7434 8.45011 1.10281L1.37754 5.0563C0.701035 5.41571 0.332031 6.07462 0.332031 6.79345V14.7603C0.332031 15.4791 0.701035 16.1381 1.37754 16.4975L8.45011 20.451C9.0651 20.8104 9.86462 20.8104 10.5411 20.451L15.3381 17.7554L18.5977 15.8985L23.3948 13.2029C24.0097 12.8435 24.8092 12.8435 25.4858 13.2029L29.2373 15.2994C29.8522 15.6588 30.2828 16.3178 30.2828 17.0366V21.2895C30.2828 22.0085 29.9138 22.6673 29.2373 23.0267L25.4858 25.1832C24.8707 25.5426 24.0712 25.5426 23.3948 25.1832L19.6433 23.0866C19.0282 22.7272 18.5977 22.0683 18.5977 21.3495V18.5941L15.3381 20.451V23.2064C15.3381 23.9252 15.7072 24.5842 16.3836 24.9436L23.4563 28.897C24.0712 29.2564 24.8707 29.2564 25.5472 28.897L32.6199 24.9436C33.2348 24.5842 33.6654 23.9252 33.6654 23.2064V15.2395C33.6654 14.5207 33.2963 13.8619 32.6199 13.5025L25.4858 9.48901Z" fill="#949494"/>
</svg>
