<svg width="110" height="566" viewBox="0 0 110 566" fill="none" xmlns="http://www.w3.org/2000/svg">
<mask id="path-1-outside-1" maskUnits="userSpaceOnUse" x="0" y="-0.000244141" width="110" height="566" fill="black">
<rect fill="white" y="-0.000244141" width="110" height="566"/>
<path d="M106.9 564.298V549.748H75.85C71.2 549.748 66.55 549.298 62.2 547.948C50.95 544.498 44.35 535.948 44.35 526.648C44.35 524.398 44.8 522.448 44.8 522.448H30.4C30.4 522.448 30.1 524.248 30.1 526.198C30.1 537.898 38.8 546.748 49.9 550.198V550.498C49.9 550.498 47.35 550.198 44.2 550.198H31L31 564.298H106.9ZM68.95 513.737C91.45 513.737 108.7 497.387 108.7 473.537C108.7 455.387 97.9 444.137 97.9 444.137L87.25 450.137C87.25 450.137 96.1 459.587 96.1 472.637C96.1 486.137 87.7 497.987 71.05 498.737V443.387C71.05 443.387 66.7 442.937 64.75 442.937C45.1 442.937 29.2 454.337 29.2 475.787C29.2 497.387 44.8 513.737 68.95 513.737ZM60.1 498.287C47.65 496.187 40.75 487.187 40.75 476.087C40.75 466.337 47.05 458.237 60.1 457.787L60.1 498.287ZM97.6 431.434C97.6 431.434 108.7 421.234 108.7 402.634C108.7 385.984 99.25 375.184 86.65 375.184C61.75 375.184 64.75 414.184 51.1 414.184C44.5 414.184 41.8 408.034 41.8 401.734C41.8 389.734 48.55 382.984 48.55 382.984L37.6 377.134C37.6 377.134 29.2 384.934 29.2 401.584C29.2 416.734 37 429.034 50.8 429.034C75.55 429.034 72.7 390.034 86.65 390.034C92.8 390.034 96.1 396.334 96.1 402.634C96.1 415.834 87.25 424.384 87.25 424.384L97.6 431.434ZM15.85 358.198L15.85 343.498H1L1 358.198H15.85ZM106.9 358.048V343.498H31V358.048L106.9 358.048ZM86.2 321.594C105.25 321.594 107.5 309.444 107.5 301.194C107.5 298.644 107.2 296.394 107.2 296.394H94.3C94.3 296.394 94.45 297.594 94.45 298.944C94.45 303.444 92.8 307.044 83.65 307.044H1L1 321.594H86.2ZM15.85 281.147L15.85 266.447H1L1 281.147H15.85ZM106.9 280.997V266.447H31V280.997L106.9 280.997ZM68.95 248.894C91.45 248.894 108.7 232.544 108.7 208.693C108.7 190.544 97.9 179.294 97.9 179.294L87.25 185.294C87.25 185.294 96.1 194.743 96.1 207.794C96.1 221.294 87.7 233.144 71.05 233.894V178.544C71.05 178.544 66.7 178.094 64.75 178.094C45.1 178.094 29.2 189.494 29.2 210.944C29.2 232.544 44.8 248.894 68.95 248.894ZM60.1 233.444C47.65 231.344 40.75 222.344 40.75 211.243C40.75 201.493 47.05 193.393 60.1 192.943L60.1 233.444ZM106.9 160.44V145.89H71.35C67.6 145.89 64.15 145.59 61.15 144.69C50.2 141.54 42.55 132.24 42.55 120.69C42.55 108.54 50.95 106.29 61.6 106.29H106.9V91.7404L58.3 91.7404C38.95 91.7404 29.2 99.9904 29.2 117.84C29.2 134.34 40 143.34 46.6 146.34V146.64C46.6 146.64 44.05 146.34 41.05 146.34H31L31 160.44H106.9ZM79.15 66.9095C104.5 66.9095 107.5 47.5595 107.5 37.8095C107.5 34.8095 107.2 32.7095 107.2 32.7095L94.3 32.7095C94.3 32.7095 94.6 34.0595 94.6 36.1595C94.6 41.7095 92.65 52.3595 77.5 52.3595H43.75V34.0595L32.05 34.0595L32.05 52.3595H10.15L10.15 66.4595H32.05V76.8095H43.75V66.9095H79.15ZM106.9 16.2998V0.999756L91.45 0.999757V16.2998L106.9 16.2998Z"/>
</mask>
<path d="M106.9 564.298V549.748H75.85C71.2 549.748 66.55 549.298 62.2 547.948C50.95 544.498 44.35 535.948 44.35 526.648C44.35 524.398 44.8 522.448 44.8 522.448H30.4C30.4 522.448 30.1 524.248 30.1 526.198C30.1 537.898 38.8 546.748 49.9 550.198V550.498C49.9 550.498 47.35 550.198 44.2 550.198H31L31 564.298H106.9ZM68.95 513.737C91.45 513.737 108.7 497.387 108.7 473.537C108.7 455.387 97.9 444.137 97.9 444.137L87.25 450.137C87.25 450.137 96.1 459.587 96.1 472.637C96.1 486.137 87.7 497.987 71.05 498.737V443.387C71.05 443.387 66.7 442.937 64.75 442.937C45.1 442.937 29.2 454.337 29.2 475.787C29.2 497.387 44.8 513.737 68.95 513.737ZM60.1 498.287C47.65 496.187 40.75 487.187 40.75 476.087C40.75 466.337 47.05 458.237 60.1 457.787L60.1 498.287ZM97.6 431.434C97.6 431.434 108.7 421.234 108.7 402.634C108.7 385.984 99.25 375.184 86.65 375.184C61.75 375.184 64.75 414.184 51.1 414.184C44.5 414.184 41.8 408.034 41.8 401.734C41.8 389.734 48.55 382.984 48.55 382.984L37.6 377.134C37.6 377.134 29.2 384.934 29.2 401.584C29.2 416.734 37 429.034 50.8 429.034C75.55 429.034 72.7 390.034 86.65 390.034C92.8 390.034 96.1 396.334 96.1 402.634C96.1 415.834 87.25 424.384 87.25 424.384L97.6 431.434ZM15.85 358.198L15.85 343.498H1L1 358.198H15.85ZM106.9 358.048V343.498H31V358.048L106.9 358.048ZM86.2 321.594C105.25 321.594 107.5 309.444 107.5 301.194C107.5 298.644 107.2 296.394 107.2 296.394H94.3C94.3 296.394 94.45 297.594 94.45 298.944C94.45 303.444 92.8 307.044 83.65 307.044H1L1 321.594H86.2ZM15.85 281.147L15.85 266.447H1L1 281.147H15.85ZM106.9 280.997V266.447H31V280.997L106.9 280.997ZM68.95 248.894C91.45 248.894 108.7 232.544 108.7 208.693C108.7 190.544 97.9 179.294 97.9 179.294L87.25 185.294C87.25 185.294 96.1 194.743 96.1 207.794C96.1 221.294 87.7 233.144 71.05 233.894V178.544C71.05 178.544 66.7 178.094 64.75 178.094C45.1 178.094 29.2 189.494 29.2 210.944C29.2 232.544 44.8 248.894 68.95 248.894ZM60.1 233.444C47.65 231.344 40.75 222.344 40.75 211.243C40.75 201.493 47.05 193.393 60.1 192.943L60.1 233.444ZM106.9 160.44V145.89H71.35C67.6 145.89 64.15 145.59 61.15 144.69C50.2 141.54 42.55 132.24 42.55 120.69C42.55 108.54 50.95 106.29 61.6 106.29H106.9V91.7404L58.3 91.7404C38.95 91.7404 29.2 99.9904 29.2 117.84C29.2 134.34 40 143.34 46.6 146.34V146.64C46.6 146.64 44.05 146.34 41.05 146.34H31L31 160.44H106.9ZM79.15 66.9095C104.5 66.9095 107.5 47.5595 107.5 37.8095C107.5 34.8095 107.2 32.7095 107.2 32.7095L94.3 32.7095C94.3 32.7095 94.6 34.0595 94.6 36.1595C94.6 41.7095 92.65 52.3595 77.5 52.3595H43.75V34.0595L32.05 34.0595L32.05 52.3595H10.15L10.15 66.4595H32.05V76.8095H43.75V66.9095H79.15ZM106.9 16.2998V0.999756L91.45 0.999757V16.2998L106.9 16.2998Z" stroke="#41CCB4" stroke-width="2" mask="url(#path-1-outside-1)"/>
</svg>
