<?xml version="1.0" encoding="utf-8"?><svg width="34" height="30" viewBox="0 0 34 30" fill="none" xmlns="http://www.w3.org/2000/svg">
<path fill-rule="evenodd" clip-rule="evenodd" d="M6.05815 22.8747C6.16468 22.7593 6.2934 22.6666 6.43659 22.6022C6.57977 22.5378 6.73449 22.5029 6.89149 22.4997H33.0743C33.1853 22.5012 33.2931 22.5348 33.3853 22.5962C33.4774 22.6577 33.5499 22.7445 33.594 22.8462C33.6381 22.9479 33.6518 23.0601 33.6334 23.1693C33.6153 23.2786 33.5659 23.3803 33.4912 23.4622L27.9412 29.6246C27.8347 29.7399 27.706 29.8326 27.5627 29.8971C27.4196 29.9615 27.2648 29.9963 27.1078 29.9996H0.908235C0.797455 29.998 0.689482 29.9645 0.597305 29.903C0.505131 29.8415 0.432679 29.7547 0.388664 29.6531C0.344649 29.5514 0.330946 29.4392 0.349202 29.3299C0.367458 29.2206 0.416898 29.1189 0.491575 29.0371L6.05815 22.8747ZM33.5162 17.7664C33.5909 17.8482 33.6403 17.9499 33.6584 18.0592C33.6768 18.1685 33.6631 18.2807 33.619 18.3824C33.5749 18.4841 33.5024 18.5709 33.4103 18.6323C33.3181 18.6938 33.2103 18.7273 33.0993 18.7289L6.90814 18.7497C6.75118 18.7465 6.59643 18.7117 6.45324 18.6472C6.31006 18.5828 6.18134 18.4901 6.07484 18.3747L0.483241 12.2332C0.408567 12.1513 0.359127 12.0496 0.340868 11.9404C0.322612 11.8311 0.336315 11.7189 0.38033 11.6172C0.424345 11.5155 0.496797 11.4287 0.588974 11.3672C0.681147 11.3058 0.789121 11.2722 0.899904 11.2707L27.0912 11.2498C27.2482 11.2531 27.4029 11.2879 27.5461 11.3523C27.6893 11.4168 27.818 11.5095 27.9245 11.6248L33.5162 17.7664ZM6.05815 0.374995C6.16468 0.259627 6.2934 0.166949 6.43659 0.102513C6.57977 0.0380773 6.73449 0.00320977 6.89149 0L33.0912 0.020833C33.2018 0.0223933 33.3099 0.0559264 33.4021 0.117399C33.4943 0.178871 33.5668 0.265664 33.6106 0.367338C33.6546 0.469015 33.6684 0.581242 33.6503 0.690518C33.6318 0.799798 33.5824 0.901474 33.5078 0.98332L27.9412 7.1249C27.8347 7.24027 27.706 7.33296 27.5627 7.39739C27.4196 7.46183 27.2648 7.49667 27.1078 7.49989H0.908235C0.797455 7.49833 0.689482 7.4648 0.597305 7.40333C0.505131 7.34186 0.432679 7.25505 0.388664 7.1534C0.344649 7.05171 0.330946 6.93949 0.349202 6.83021C0.367458 6.72093 0.416898 6.61925 0.491575 6.5374L6.05815 0.374995Z" fill="#949494"/>
</svg>
