<?xml version="1.0" encoding="utf-8"?><svg width="310" height="300" viewBox="0 0 310 300" fill="none" xmlns="http://www.w3.org/2000/svg">
<mask id="mask0" mask-type="alpha" maskUnits="userSpaceOnUse" x="0" y="0" width="310" height="300">
<rect width="310" height="300" rx="4" fill="#999999"/>
</mask>
<g mask="url(#mask0)">
<path d="M160.763 208.773L162.51 208.284C163.279 199.268 174.042 73.2546 174.811 67.4536C175.58 61.3731 180.332 59.556 180.332 59.556C180.332 59.556 293.556 9.51403 301.453 5.87971C301.523 5.87971 301.523 5.80981 301.593 5.80981C300.894 5.9496 300.125 6.15927 299.287 6.57861C291.459 10.2129 178.655 60.1151 178.655 60.1151C178.655 60.1151 173.902 61.9322 173.133 68.0128C172.295 73.9535 160.763 208.773 160.763 208.773Z" fill="#F9F9F9" stroke="#142533" stroke-miterlimit="10" stroke-linecap="round" stroke-linejoin="round"/>
<path d="M162.51 207.795L292.228 170.263C292.228 170.263 292.647 170.193 293.276 170.473C294.115 170.822 295.233 171.801 296.072 174.387C296.072 174.387 296.491 173.758 297.12 171.801C298.029 168.865 299.287 162.995 299.846 151.882C300.824 133.361 306.975 11.8903 306.975 11.8903C306.975 11.8903 307.115 4.76147 301.663 5.73994C301.593 5.73994 301.593 5.80983 301.523 5.80983C293.556 9.51406 180.402 59.556 180.402 59.556C180.402 59.556 175.65 61.3731 174.881 67.4537C174.112 73.3245 163.279 198.779 162.51 207.795Z" fill="#F9F9F9" stroke="#142533" stroke-miterlimit="10" stroke-linecap="round" stroke-linejoin="round"/>
<path d="M295.512 175.924C295.722 176.344 297.749 174.876 298.168 174.247C298.168 174.247 301.034 170.263 302.012 151.672C302.921 133.151 309.211 11.2614 309.211 11.2614C309.211 11.2614 309.421 2.31531 301.663 5.80986C307.184 4.83138 306.974 11.9603 306.974 11.9603C306.974 11.9603 300.754 133.431 299.846 151.952C299.286 163.064 298.028 168.935 297.12 171.871C297.26 172.011 296.561 173.408 296.071 174.527C295.652 175.226 295.442 175.785 295.512 175.924Z" fill="#F9F9F9" stroke="#142533" stroke-miterlimit="10" stroke-linecap="round" stroke-linejoin="round"/>
<path d="M163.209 200.177L299.217 160.199C299.496 157.823 299.706 155.027 299.846 151.882C300.824 133.361 306.975 11.8903 306.975 11.8903C306.975 11.8903 307.114 4.76147 301.663 5.73994C301.593 5.73994 301.593 5.80983 301.523 5.80983C293.556 9.51406 180.402 59.556 180.402 59.556C180.402 59.556 175.65 61.3731 174.881 67.4537C174.182 72.6256 165.725 171.032 163.209 200.177Z" fill="#F9F9F9" stroke="#142533" stroke-miterlimit="10" stroke-linecap="round" stroke-linejoin="round"/>
<path d="M159.155 261.611L159.645 264.616L160.134 267.482C160.344 267.412 160.553 267.342 160.763 267.272C160.903 267.202 161.043 267.202 161.112 267.132C170.687 264.336 176.069 262.24 180.472 259.304C181.171 258.815 181.87 258.326 182.639 257.837L179.144 252.245C179.074 252.315 179.004 252.315 178.935 252.385C174.671 255.74 170.687 258.046 159.155 261.611ZM91.8505 277.965C92.1999 281.25 95.1354 280.621 95.1354 280.621C95.1354 280.621 111.21 276.987 114.565 276.218C117.92 275.449 116.941 272.094 116.941 272.094L112.538 273.143L109.882 273.772L107.226 274.401L100.587 275.938L91.8505 277.965ZM79.6895 278.594L130.36 267.202L171.806 237.079L120.086 249.939L79.6895 278.594Z" fill="#F9F9F9" stroke="#142533" stroke-miterlimit="10" stroke-linecap="round" stroke-linejoin="round"/>
<path d="M39.5718 290.056C39.7815 289.986 39.9212 289.986 40.061 289.917C40.1309 289.917 40.2008 289.847 40.2707 289.847L40.5502 289.777C46.2114 288.519 68.2271 283.417 91.8502 277.965L100.656 275.938L107.296 274.401L109.952 273.772L112.608 273.143L117.011 272.094C136.441 267.482 153.354 263.358 158.876 261.751C158.946 261.681 159.085 261.681 159.155 261.681C170.687 258.116 174.671 255.81 179.004 252.525C179.074 252.455 179.144 252.455 179.214 252.385C179.424 252.175 179.703 252.036 179.983 251.826C179.983 251.826 179.983 251.826 180.053 251.826C180.262 251.616 180.542 251.477 180.752 251.267C181.101 251.057 181.381 250.778 181.73 250.498C198.224 237.988 228.557 216.461 252.949 199.408C252.949 199.408 253.019 199.408 253.019 199.338C269.653 187.596 285.029 176.763 294.464 170.193L293.276 170.543L162.51 208.354C153.424 211.01 148.462 214.784 148.462 214.784L39.5718 290.056ZM79.6892 278.594L120.016 249.939L171.736 237.079L130.29 267.202L79.6892 278.594Z" fill="#F9F9F9" stroke="#142533" stroke-miterlimit="10" stroke-linecap="round" stroke-linejoin="round"/>
<path d="M297.05 171.801C295.792 169.914 294.394 170.123 294.394 170.123C284.959 176.693 269.583 187.526 252.949 199.268C252.949 199.268 252.879 199.268 252.879 199.338C228.487 216.391 198.154 237.918 181.66 250.428C181.311 250.708 180.961 250.917 180.682 251.197C180.472 251.407 180.192 251.546 179.983 251.756C179.983 251.756 179.983 251.756 179.913 251.756C179.633 251.966 179.424 252.175 179.144 252.315C179.074 252.385 179.004 252.385 178.934 252.455C174.601 255.74 170.617 258.046 159.085 261.611C159.015 261.611 158.876 261.681 158.806 261.681C153.214 263.358 136.371 267.412 116.941 272.024C116.941 272.024 117.92 275.379 114.565 276.148C111.21 276.917 95.1351 280.551 95.1351 280.551C95.1351 280.551 92.1997 281.18 91.8502 277.895C68.2271 283.417 46.2114 288.449 40.5502 289.707L40.2707 289.777C40.2008 289.777 40.1309 289.847 40.061 289.847C39.9212 289.916 39.7116 289.916 39.6417 289.986H39.5718C41.7384 297.535 48.2383 294.32 48.2383 294.32C48.2383 294.32 147.344 271.046 160.204 267.481C160.413 267.412 160.623 267.342 160.833 267.272C160.972 267.202 161.112 267.202 161.182 267.132C170.757 264.336 176.139 262.24 180.542 259.304C181.241 258.815 181.94 258.326 182.708 257.837C182.778 257.767 182.848 257.767 182.918 257.697C211.993 237.848 288.384 181.376 292.297 178.93C294.115 177.741 295.023 176.693 295.512 175.854C295.443 175.715 295.652 175.086 296.002 174.387C296.491 173.338 297.19 171.941 297.05 171.801Z" fill="#F9F9F9" stroke="#142533" stroke-miterlimit="10" stroke-linecap="round" stroke-linejoin="round"/>
<path d="M159.155 261.611C159.225 261.611 159.225 261.611 159.295 261.541L159.155 261.611Z" fill="#F9F9F9" stroke="#142533" stroke-miterlimit="10" stroke-linecap="round" stroke-linejoin="round"/>
<path d="M279.787 185.29L284.19 182.215C284.26 182.145 284.33 182.005 284.26 181.935L283.561 180.887C283.491 180.817 283.351 180.747 283.281 180.817L278.878 183.892C278.808 183.962 278.738 184.102 278.808 184.172L279.507 185.22C279.507 185.36 279.647 185.36 279.787 185.29Z" fill="#F9F9F9" stroke="#142533" stroke-miterlimit="10" stroke-linecap="round" stroke-linejoin="round"/>
<path d="M270.771 191.86L275.174 188.784C275.244 188.715 275.314 188.575 275.244 188.505L274.545 187.457C274.475 187.387 274.336 187.317 274.266 187.387L269.863 190.462C269.793 190.532 269.723 190.671 269.793 190.741L270.492 191.79C270.492 191.93 270.701 191.93 270.771 191.86Z" fill="#F9F9F9" stroke="#142533" stroke-miterlimit="10" stroke-linecap="round" stroke-linejoin="round"/>
<path d="M264.691 185.709L211.783 224.988L99.8179 253.154L152.865 216.601L264.691 185.709Z" fill="#F9F9F9" stroke="#142533" stroke-miterlimit="10" stroke-linecap="round" stroke-linejoin="round"/>
<path d="M300.475 16.7827L295.093 150.973L166.983 189.204L176.768 70.3891L300.475 16.7827Z" fill="#F9F9F9" stroke="#142533" stroke-miterlimit="10" stroke-linecap="round" stroke-linejoin="round"/>
<path d="M79.6895 278.594L130.36 267.202L171.806 237.079L120.086 249.939L79.6895 278.594Z" fill="#F9F9F9" stroke="#142533" stroke-miterlimit="10" stroke-linecap="round" stroke-linejoin="round"/>
<path d="M162.51 208.284L166.843 207.026L167.473 207.795L276.013 176.064L278.669 174.736L293.346 170.473L294.534 170.123C294.534 170.123 295.932 169.914 297.19 171.801C297.819 169.704 298.658 166.14 299.287 160.269L163.279 200.246C162.93 204.16 162.72 206.816 162.65 207.865C162.51 208.144 162.51 208.284 162.51 208.284Z" fill="#F9F9F9" stroke="#142533" stroke-miterlimit="10" stroke-linecap="round" stroke-linejoin="round"/>
<path d="M298.658 273.282L298.937 273.492" stroke="#142533" stroke-miterlimit="10" stroke-linecap="round" stroke-linejoin="round"/>
<path d="M300.265 276.497C300.458 276.497 300.614 276.247 300.614 275.938C300.614 275.629 300.458 275.379 300.265 275.379C300.072 275.379 299.916 275.629 299.916 275.938C299.916 276.247 300.072 276.497 300.265 276.497Z" fill="#F9F9F9" stroke="#142533" stroke-miterlimit="10" stroke-linecap="round" stroke-linejoin="round"/>
<path d="M300.265 276.218C300.342 276.218 300.405 276.093 300.405 275.938C300.405 275.784 300.342 275.659 300.265 275.659C300.188 275.659 300.125 275.784 300.125 275.938C300.125 276.093 300.188 276.218 300.265 276.218Z" fill="#F9F9F9" stroke="#142533" stroke-miterlimit="10" stroke-linecap="round" stroke-linejoin="round"/>
<path d="M117.99 189.483C117.78 190.811 117.081 191.93 116.242 192.698C115.893 193.048 115.474 193.327 115.124 193.537C106.947 197.171 88.2859 203.531 81.6463 205.558C75.0766 207.655 70.1842 201.085 70.1842 201.085C70.1842 201.085 18.5348 135.038 10.2177 123.436C9.72851 122.738 9.37905 122.248 9.16938 121.969C7.35221 118.963 8.81992 116.447 10.1479 114.98C10.2177 114.84 10.3575 114.77 10.4973 114.63C11.336 113.861 12.3844 113.372 12.8736 113.232C12.8037 113.232 12.7338 113.232 12.594 113.302C16.2983 112.533 32.3033 109.039 40.9698 107.152C41.3192 107.082 41.5988 107.012 41.8783 106.942C42.5074 106.802 43.0665 106.663 43.5557 106.593C43.9751 106.523 44.3245 106.453 44.674 106.383C51.9426 104.706 54.8082 110.017 54.8082 110.017L55.9264 111.415L112.957 181.306L116.871 186.129C117.92 187.107 118.129 188.295 117.99 189.483Z" fill="#F9F9F9" stroke="#142533" stroke-miterlimit="10" stroke-linecap="round" stroke-linejoin="round"/>
<path d="M117.99 189.483C117.64 189.833 117.221 190.112 116.941 190.252C108.764 193.886 90.1032 200.177 83.5334 202.273C76.9637 204.37 72.0713 197.8 72.0713 197.8C72.0713 197.8 69.695 194.725 65.851 189.833C50.7546 170.543 13.4328 122.598 11.0565 118.614C10.2178 117.286 10.0781 116.028 10.2877 114.91C10.3576 114.77 10.4974 114.7 10.6372 114.56C11.4759 113.791 12.5242 113.302 13.0135 113.162C15.6693 112.603 18.0456 112.184 21.6101 111.345C28.3196 109.878 35.7979 108.27 41.1096 107.012C41.4591 106.942 41.7387 106.872 42.0182 106.802C43.0666 106.593 43.9752 106.383 44.8139 106.173C52.0825 104.496 54.9481 109.808 54.9481 109.808L56.0663 111.205L113.097 181.096L117.011 185.919C117.92 187.107 118.129 188.295 117.99 189.483Z" fill="#F9F9F9" stroke="#142533" stroke-miterlimit="10" stroke-linecap="round" stroke-linejoin="round"/>
<path d="M56.6255 113.582L17.207 122.807L71.2327 191.999L110.372 179.279L56.6255 113.582Z" fill="#F9F9F9" stroke="#142533" stroke-miterlimit="10" stroke-linecap="round" stroke-linejoin="round"/>
<path d="M99.6781 193.537C99.1189 194.236 98.2802 194.655 97.3018 194.655C96.1835 194.725 94.8556 194.306 93.6674 193.397C91.7105 191.93 90.8019 189.693 91.5707 188.155C91.6406 188.016 91.7105 187.806 91.8503 187.666C92.9685 186.129 95.6943 186.129 97.8609 187.736C100.028 189.344 100.796 191.93 99.6781 193.537Z" fill="#F9F9F9" stroke="#142533" stroke-miterlimit="10" stroke-linecap="round" stroke-linejoin="round"/>
<path d="M38.2439 113.023L31.6742 114.7C31.3946 114.77 31.0452 114.63 30.8355 114.42C30.6258 114.211 30.6258 114.001 30.9054 113.931L37.4751 112.254C37.7547 112.184 38.1042 112.324 38.3138 112.533C38.5235 112.743 38.4536 112.953 38.2439 113.023Z" fill="#F9F9F9" stroke="#142533" stroke-miterlimit="10" stroke-linecap="round" stroke-linejoin="round"/>
<path d="M28.2084 115.676C28.2738 115.256 27.7084 114.82 26.9456 114.701C26.1828 114.582 25.5114 114.826 25.446 115.245C25.3806 115.665 25.946 116.101 26.7088 116.22C27.4716 116.339 28.143 116.095 28.2084 115.676Z" fill="#F9F9F9" stroke="#142533" stroke-miterlimit="10" stroke-linecap="round" stroke-linejoin="round"/>
<path d="M15.7391 128.469C15.5295 128.399 15.3897 128.259 15.2499 128.119L13.1532 125.184C12.9435 124.904 13.0134 124.625 13.2929 124.625C13.5026 124.694 13.6424 124.834 13.7822 124.974L15.8789 127.909C16.0886 128.189 16.0187 128.399 15.7391 128.469Z" fill="#F9F9F9" stroke="#142533" stroke-miterlimit="10" stroke-linecap="round" stroke-linejoin="round"/>
<path d="M24.6852 140.28C24.3358 140.21 24.0562 139.931 23.8466 139.651L20.2122 134.689C19.8628 134.2 20.0025 133.78 20.4219 133.71C20.7713 133.78 21.0509 134.06 21.2606 134.339L24.8949 139.302C25.2444 139.721 25.1745 140.21 24.6852 140.28Z" fill="#F9F9F9" stroke="#142533" stroke-miterlimit="10" stroke-linecap="round" stroke-linejoin="round"/>
<path d="M30.486 147.968C30.1366 147.898 29.857 147.619 29.6473 147.339L26.013 142.377C25.6635 141.888 25.8033 141.468 26.2227 141.398C26.5721 141.468 26.8517 141.748 27.0614 142.027L30.6957 146.99C31.0452 147.479 30.9753 147.898 30.486 147.968Z" fill="#F9F9F9" stroke="#142533" stroke-miterlimit="10" stroke-linecap="round" stroke-linejoin="round"/>
<path d="M107.001 196.135C107.161 196.026 107.237 195.861 107.172 195.765C107.107 195.669 106.925 195.68 106.765 195.788C106.606 195.897 106.529 196.063 106.595 196.158C106.66 196.254 106.842 196.244 107.001 196.135Z" fill="#F9F9F9" stroke="#142533" stroke-miterlimit="10" stroke-linecap="round" stroke-linejoin="round"/>
<path d="M108.456 195.581C108.616 195.473 108.692 195.307 108.627 195.211C108.562 195.116 108.38 195.126 108.22 195.235C108.061 195.343 107.984 195.509 108.05 195.605C108.115 195.7 108.297 195.69 108.456 195.581Z" fill="#F9F9F9" stroke="#142533" stroke-miterlimit="10" stroke-linecap="round" stroke-linejoin="round"/>
<path d="M109.912 195.027C110.071 194.919 110.148 194.753 110.082 194.657C110.017 194.562 109.835 194.572 109.676 194.681C109.516 194.789 109.44 194.955 109.505 195.051C109.57 195.146 109.752 195.136 109.912 195.027Z" fill="#F9F9F9" stroke="#142533" stroke-miterlimit="10" stroke-linecap="round" stroke-linejoin="round"/>
<path d="M111.406 194.531C111.565 194.423 111.642 194.257 111.577 194.162C111.511 194.066 111.329 194.076 111.17 194.185C111.01 194.293 110.934 194.459 110.999 194.555C111.064 194.65 111.246 194.64 111.406 194.531Z" fill="#F9F9F9" stroke="#142533" stroke-miterlimit="10" stroke-linecap="round" stroke-linejoin="round"/>
<path d="M112.861 193.978C113.02 193.869 113.097 193.704 113.032 193.608C112.966 193.512 112.784 193.523 112.625 193.631C112.465 193.74 112.389 193.905 112.454 194.001C112.519 194.097 112.701 194.086 112.861 193.978Z" fill="#F9F9F9" stroke="#142533" stroke-miterlimit="10" stroke-linecap="round" stroke-linejoin="round"/>
<path d="M83.7824 204.279C83.9451 204.175 84.0264 204.012 83.9641 203.914C83.9018 203.817 83.7194 203.822 83.5568 203.925C83.3941 204.029 83.3127 204.193 83.375 204.29C83.4373 204.388 83.6197 204.383 83.7824 204.279Z" fill="#F9F9F9" stroke="#142533" stroke-miterlimit="10" stroke-linecap="round" stroke-linejoin="round"/>
<path d="M85.2546 203.799C85.4173 203.695 85.4986 203.531 85.4363 203.434C85.374 203.336 85.1916 203.341 85.0289 203.445C84.8663 203.549 84.7849 203.712 84.8472 203.81C84.9095 203.908 85.0919 203.902 85.2546 203.799Z" fill="#F9F9F9" stroke="#142533" stroke-miterlimit="10" stroke-linecap="round" stroke-linejoin="round"/>
<path d="M86.7858 203.281C86.9485 203.177 87.0299 203.013 86.9676 202.916C86.9052 202.818 86.7229 202.823 86.5602 202.927C86.3975 203.031 86.3161 203.194 86.3784 203.292C86.4408 203.39 86.6231 203.384 86.7858 203.281Z" fill="#F9F9F9" stroke="#142533" stroke-miterlimit="10" stroke-linecap="round" stroke-linejoin="round"/>
<path d="M88.258 202.8C88.4207 202.696 88.502 202.533 88.4397 202.436C88.3774 202.338 88.195 202.343 88.0323 202.447C87.8697 202.551 87.7883 202.714 87.8506 202.812C87.9129 202.909 88.0953 202.904 88.258 202.8Z" fill="#F9F9F9" stroke="#142533" stroke-miterlimit="10" stroke-linecap="round" stroke-linejoin="round"/>
<path d="M89.7302 202.32C89.8928 202.216 89.9742 202.053 89.9119 201.955C89.8496 201.857 89.6672 201.863 89.5045 201.966C89.3418 202.07 89.2605 202.234 89.3228 202.331C89.3851 202.429 89.5675 202.424 89.7302 202.32Z" fill="#F9F9F9" stroke="#142533" stroke-miterlimit="10" stroke-linecap="round" stroke-linejoin="round"/>
<path d="M91.2023 201.84C91.365 201.736 91.4464 201.572 91.3841 201.475C91.3217 201.377 91.1394 201.382 90.9767 201.486C90.814 201.59 90.7326 201.753 90.7949 201.851C90.8573 201.948 91.0397 201.943 91.2023 201.84Z" fill="#F9F9F9" stroke="#142533" stroke-miterlimit="10" stroke-linecap="round" stroke-linejoin="round"/>
<path d="M138.677 74.0933C139.516 74.0234 141.543 73.8836 142.451 74.0933C142.801 74.1632 143.15 74.303 143.57 74.4428L148.951 76.3997L178.795 87.093C185.155 89.3994 189.837 97.5767 189.139 105.265L185.225 149.436C185.085 150.624 184.875 151.812 184.526 152.791C184.036 154.328 183.268 155.586 182.359 156.635C181.381 157.753 180.192 158.522 178.865 159.011L186.273 156.565C189.977 155.586 192.773 152.022 193.192 146.78L197.106 102.609C197.805 94.8509 193.122 86.6737 186.762 84.4372L151.537 71.7869C149.86 71.1579 147.833 71.2278 146.645 71.5073C144.618 71.8568 138.677 74.0933 138.677 74.0933Z" fill="#F9F9F9" stroke="#142533" stroke-miterlimit="10" stroke-linecap="round" stroke-linejoin="round"/>
<path d="M139.586 81.3619L135.881 123.576C135.252 130.984 139.516 138.952 145.456 141.468L157.268 146.361L164.047 149.156L176.768 154.468L180.472 156.005C181.101 156.285 181.73 156.495 182.359 156.634C183.267 155.586 184.036 154.328 184.525 152.79C184.875 151.742 185.085 150.624 185.224 149.436L189.138 105.265C189.837 97.5067 185.154 89.3295 178.794 87.093L148.951 76.3997L143.569 74.4427C143.22 74.3029 142.801 74.233 142.451 74.0933C141.892 74.7223 141.333 75.4911 140.914 76.3298C140.215 77.7975 139.795 79.4749 139.586 81.3619Z" fill="#F9F9F9" stroke="#142533" stroke-miterlimit="10" stroke-linecap="round" stroke-linejoin="round"/>
<path d="M131.618 83.9479L127.914 126.162C127.355 132.732 130.64 139.721 135.532 143.006C136.161 143.425 136.79 143.775 137.489 144.054L149.301 148.946L156.08 151.742L172.504 158.591C174.741 159.5 176.977 159.64 178.864 158.941H178.934C180.262 158.452 181.45 157.683 182.429 156.565C183.337 155.516 184.106 154.258 184.596 152.721C184.945 151.672 185.155 150.554 185.294 149.366L189.208 105.195C189.907 97.4368 185.225 89.2596 178.864 87.0231L173.343 85.0661L149.021 76.3298L143.639 74.3728C143.29 74.233 142.871 74.1631 142.521 74.0234C141.613 73.8137 140.704 73.7438 139.865 73.8137C135.532 74.3029 132.107 78.2168 131.618 83.9479Z" fill="#F9F9F9" stroke="#142533" stroke-miterlimit="10" stroke-linecap="round" stroke-linejoin="round"/>
<path d="M156.151 98.6249C155.592 105.684 155.033 112.254 154.474 118.963C160.974 121.899 167.334 124.834 173.834 127.769C174.253 122.598 174.742 117.705 175.022 112.743C175.231 109.528 173.414 106.593 170.339 105.125C165.726 102.888 161.044 100.861 156.151 98.6249ZM150.141 109.318C147.694 108.2 145.388 107.152 143.082 106.103C142.872 108.689 142.662 111.066 142.453 113.442C144.969 114.56 147.275 115.608 149.512 116.657C149.721 114.141 149.931 111.834 150.141 109.318ZM142.173 118.754C140.915 124.205 143.221 127.909 148.463 129.167C148.673 126.791 148.883 124.345 149.092 121.689C147.345 120.92 145.807 120.151 144.27 119.522C143.501 119.173 142.802 118.963 142.173 118.754ZM165.517 137.135C171.317 140.28 173.973 138.463 172.855 132.802C170.619 131.753 168.382 130.775 166.076 129.726C165.936 132.242 165.726 134.619 165.517 137.135ZM151.189 96.5282C145.528 93.6627 143.291 94.9207 143.641 100.722C145.947 101.77 148.253 102.818 150.63 103.867C150.839 101.351 150.979 99.0443 151.189 96.5282Z" fill="#142533"/>
<path d="M156.15 98.625C161.112 100.862 165.725 102.888 170.338 105.125C173.413 106.593 175.23 109.528 175.021 112.743C174.741 117.705 174.252 122.598 173.832 127.77C167.333 124.834 160.973 121.899 154.473 118.963C155.032 112.254 155.591 105.684 156.15 98.625Z" fill="#142533"/>
<path d="M150.139 109.318C149.93 111.764 149.72 114.071 149.51 116.657C147.274 115.608 144.967 114.56 142.451 113.442C142.661 111.066 142.871 108.689 143.08 106.103C145.387 107.152 147.693 108.2 150.139 109.318Z" fill="#142533"/>
<path d="M161.322 127.56C161.112 130.006 160.902 132.312 160.693 134.898C158.456 133.85 156.15 132.802 153.634 131.683C153.843 129.307 154.053 126.931 154.263 124.345C156.569 125.393 158.876 126.442 161.322 127.56Z" fill="#142533"/>
<path d="M142.172 118.754C142.871 118.963 143.57 119.243 144.268 119.522C145.806 120.221 147.344 120.92 149.091 121.689C148.881 124.345 148.672 126.791 148.462 129.167C143.15 127.909 140.914 124.205 142.172 118.754Z" fill="#142533"/>
<path d="M165.515 137.135C165.725 134.619 165.934 132.243 166.144 129.726C168.451 130.775 170.617 131.753 172.924 132.802C173.972 138.463 171.316 140.28 165.515 137.135Z" fill="#142533"/>
<path d="M151.188 96.5282C150.978 99.0443 150.768 101.351 150.559 103.937C148.182 102.818 145.876 101.77 143.57 100.792C143.29 94.9208 145.526 93.6627 151.188 96.5282Z" fill="#142533"/>
<path d="M113.307 154.748C113.237 154.957 113.027 155.097 112.678 155.167L108.973 156.006C108.344 156.145 107.436 155.866 107.017 155.377L104.64 152.581C104.5 152.441 104.431 152.301 104.431 152.162C104.361 151.812 104.57 151.533 105.06 151.393L108.764 150.554C109.393 150.414 110.301 150.694 110.721 151.183L113.097 153.979C113.377 154.328 113.447 154.538 113.307 154.748Z" fill="#F9F9F9" stroke="#142533" stroke-miterlimit="10" stroke-linecap="round" stroke-linejoin="round"/>
<path d="M6.44336 149.576C6.37347 149.715 6.23369 149.855 6.02401 149.925L3.29827 150.554C2.80903 150.694 2.18001 150.484 1.90045 150.065L0.153173 147.968C0.0832822 147.828 0.0133912 147.758 0.0133912 147.619C-0.0564997 147.339 0.153173 147.129 0.502628 147.059L3.22837 146.43C3.71761 146.291 4.34663 146.5 4.62619 146.92L6.37347 149.016C6.44336 149.226 6.51325 149.366 6.44336 149.576Z" fill="#F9F9F9" stroke="#142533" stroke-miterlimit="10" stroke-linecap="round" stroke-linejoin="round"/>
<path d="M103.662 125.463C103.592 125.673 103.382 125.813 103.103 125.813L99.8179 126.581C99.2588 126.721 98.49 126.442 98.0706 126.022L95.9739 123.506C95.8341 123.366 95.8341 123.227 95.7642 123.157C95.6943 122.877 95.904 122.598 96.3233 122.458L99.6082 121.689C100.167 121.549 101.006 121.829 101.355 122.248L103.452 124.764C103.732 125.044 103.732 125.254 103.662 125.463Z" fill="#F9F9F9" stroke="#142533" stroke-miterlimit="10" stroke-linecap="round" stroke-linejoin="round"/>
<path d="M89.5437 146.57L76.1945 149.855C73.8182 150.414 70.6731 149.436 69.1355 147.689L60.3992 137.554C59.5605 136.646 59.7003 134.549 59.6304 133.501C59.7003 133.99 59.9798 135.108 60.4691 135.597L69.2054 145.732C70.743 147.549 73.8881 148.527 76.2644 147.898L89.6136 144.613C90.7318 144.334 91.5705 143.146 91.92 142.377C91.9899 143.775 91.291 146.151 89.5437 146.57Z" fill="#F9F9F9" stroke="#142533" stroke-miterlimit="10" stroke-linecap="round" stroke-linejoin="round"/>
<path d="M91.85 143.076C91.5705 143.845 90.8017 144.404 89.6834 144.683L76.2643 147.968C75.4955 148.178 74.587 148.178 73.7483 148.038C72.001 147.758 70.2537 146.92 69.2054 145.732L60.469 135.597C60.0496 135.108 59.7701 134.549 59.7002 134.06C59.4905 132.802 60.3292 131.684 61.9367 131.334L63.1249 131.055L74.8665 128.189L75.2859 128.119C77.6622 127.56 80.8073 128.538 82.3449 130.286L91.0812 140.42C91.2909 140.63 91.4307 140.839 91.5006 141.049C91.9898 141.748 92.0597 142.447 91.85 143.076Z" fill="#F9F9F9" stroke="#142533" stroke-miterlimit="10" stroke-linecap="round" stroke-linejoin="round"/>
<path d="M72.3506 134.829C73.3989 136.087 74.3774 137.345 75.4258 138.533C77.3827 137.974 79.2698 137.484 81.2267 136.995C80.4579 136.017 79.759 135.108 78.9203 134.269C78.4311 133.71 77.5225 133.501 76.6139 133.71C75.2161 134.06 73.8183 134.479 72.3506 134.829ZM72.8398 137.624C72.071 137.834 71.442 137.974 70.7431 138.183C71.1624 138.673 71.5119 139.092 71.8613 139.511C72.6301 139.302 73.3291 139.092 73.9581 138.952C73.5387 138.533 73.1893 138.113 72.8398 137.624ZM72.6301 140.49C73.2592 141.608 74.4473 141.887 75.7752 141.258C75.4258 140.839 75.0763 140.35 74.657 139.861C74.0979 140 73.6785 140.14 73.1893 140.28C72.9796 140.35 72.8398 140.42 72.6301 140.49ZM80.9472 139.931C82.7643 139.581 83.0439 138.812 81.8557 138.043C81.1568 138.253 80.5278 138.393 79.8289 138.603C80.2483 139.022 80.5977 139.441 80.9472 139.931ZM70.8829 135.318C69.1356 135.737 68.856 136.296 69.9044 137.205C70.6033 136.995 71.3022 136.855 72.0011 136.646C71.6517 136.156 71.3022 135.737 70.8829 135.318Z" fill="#142533"/>
<path d="M72.3506 134.829C73.8183 134.409 75.2161 134.06 76.6139 133.71C77.5225 133.501 78.4311 133.71 78.9203 134.269C79.6891 135.178 80.388 136.087 81.2267 136.995C79.2698 137.554 77.3827 138.043 75.4258 138.533C74.3774 137.345 73.399 136.156 72.3506 134.829Z" fill="#142533"/>
<path d="M72.8399 137.624C73.1893 138.043 73.5388 138.533 73.9581 138.952C73.2592 139.162 72.5603 139.302 71.8614 139.511C71.512 139.092 71.1625 138.673 70.7432 138.183C71.3722 138.043 72.0711 137.834 72.8399 137.624Z" fill="#142533"/>
<path d="M78.4312 138.952C78.7807 139.371 79.1301 139.861 79.5495 140.28C78.8505 140.49 78.1516 140.63 77.4527 140.839C77.1033 140.42 76.7538 140.001 76.3345 139.511C76.9635 139.371 77.6624 139.162 78.4312 138.952Z" fill="#142533"/>
<path d="M72.6304 140.49C72.84 140.42 73.0497 140.35 73.2594 140.28C73.7486 140.14 74.168 140 74.7271 139.861C75.1464 140.35 75.4959 140.769 75.8454 141.258C74.3776 141.887 73.2594 141.608 72.6304 140.49Z" fill="#142533"/>
<path d="M80.9474 139.931C80.5979 139.441 80.1786 139.022 79.8291 138.603C80.528 138.393 81.157 138.253 81.8559 138.043C83.114 138.812 82.7645 139.511 80.9474 139.931Z" fill="#142533"/>
<path d="M70.8829 135.318C71.2323 135.807 71.5818 136.226 72.0011 136.646C71.3022 136.855 70.6033 136.995 69.9044 137.205C68.856 136.296 69.1356 135.667 70.8829 135.318Z" fill="#142533"/>
<path d="M101.006 88.351C101.006 88.351 109.043 83.8081 109.812 74.5126C109.812 74.5126 109.742 65.4268 104.99 62.9806L104.64 69.131H98.5596L99.3284 58.5775C99.3284 58.5775 99.8875 55.4324 102.124 54.384C104.43 53.3357 111.629 56.341 114.425 65.2171C117.22 74.0933 116.661 86.464 102.613 94.4315L101.006 88.351Z" fill="#41CCB4"/>
<path d="M91.2211 61.4429C91.2211 61.4429 83.1836 65.9859 82.4148 75.2813C82.4148 75.2813 82.4847 84.3672 87.2373 86.8134L87.5867 80.663H93.6673L92.8985 91.2165C92.8985 91.2165 92.3393 94.3616 90.1028 95.4099C87.7964 96.4583 80.5977 93.453 77.802 84.5768C75.0064 75.6308 75.5655 63.33 89.6136 55.3624L91.2211 61.4429Z" fill="#41CCB4"/>
<path d="M212.342 126.302C211.853 126.302 211.294 126.162 210.875 125.813C210.246 125.393 209.896 124.624 209.896 123.856L209.756 115.119C209.756 113.791 210.805 112.673 212.133 112.673C213.461 112.673 214.579 113.721 214.579 115.049L214.649 120.571L247.567 110.157L247.428 102.958C247.428 101.63 248.476 100.512 249.804 100.512C251.132 100.512 252.25 101.56 252.25 102.888L252.39 111.904C252.39 112.953 251.691 113.931 250.712 114.281L212.901 126.232C212.832 126.232 212.622 126.302 212.342 126.302Z" fill="#41CCB4"/>
<path d="M237.433 86.6039L234.498 87.5823V75.5611C234.498 74.9321 233.939 74.5826 233.31 74.7923L227.369 76.7492C226.74 76.9589 226.181 77.6578 226.181 78.2868V90.3081L223.245 91.2865C222.197 91.636 221.498 93.0338 222.057 93.7327L229.116 102.539C229.675 103.308 231.003 102.819 231.492 101.77L238.551 88.2812C239.18 87.2329 238.551 86.2544 237.433 86.6039Z" fill="#41CCB4"/>
<path opacity="0.4" d="M228.906 127.979L234.078 126.442V131.614L228.906 133.221V127.979Z" fill="#41CCB4"/>
<path opacity="0.4" d="M247.917 122.108L253.088 120.501V125.743L247.917 127.28V122.108Z" fill="#41CCB4"/>
<path opacity="0.4" d="M238.342 124.974L243.584 123.436V128.608L238.412 130.216L238.342 124.974Z" fill="#41CCB4"/>
<path d="M219.331 130.915L224.573 129.307V134.549L219.401 136.087L219.331 130.915Z" fill="#41CCB4"/>
<path d="M209.826 133.78L215.068 132.243V137.414L209.896 139.022L209.826 133.78Z" fill="#41CCB4"/>
</g>
</svg>
