<?xml version="1.0" encoding="UTF-8"?>
<svg width="38px" height="32px" viewBox="0 0 38 32" version="1.1" xmlns="http://www.w3.org/2000/svg" xmlns:xlink="http://www.w3.org/1999/xlink">
    <!-- Generator: Sketch 59.1 (86144) - https://sketch.com -->
    <title>Stellar_symbol_black_RGB</title>
    <desc>Created with Sketch.</desc>
    <g id="Page-1" stroke="none" stroke-width="1" fill="none" fill-rule="evenodd">
        <g id="ThirdPartyWallet-Copy-3" transform="translate(-544.000000, -4520.000000)" fill="#000000" fill-rule="nonzero">
            <g id="Stacked-Group-3" transform="translate(175.000000, 4359.000000)">
                <g transform="translate(0.000000, 129.000000)" id="Padding-Group-10">
                    <g transform="translate(232.000000, 0.000000)">
                        <g id="Stacked-Group-9" transform="translate(86.000000, 32.000000)">
                            <g id="Stellar_symbol_black_RGB" transform="translate(51.000000, 0.000000)">
                                <path d="M32.6366559,4.18776504 L28.0610932,6.50801133 L5.96623794,17.7092003 C5.89152499,17.1420358 5.85393234,16.5706373 5.85369775,15.9986187 C5.85984496,11.3546596 8.33568749,7.06100012 12.361269,4.71304844 C16.3868504,2.36509676 21.3604772,2.31379537 25.4340836,4.57820649 L28.0530547,3.25006551 L28.4437299,3.05164445 C23.5518849,-0.482264104 17.0819177,-0.986590331 11.696968,1.74625432 C6.31201826,4.47909897 2.9222055,9.98723177 2.92282958,16.0034192 C2.92282958,16.4109291 2.93837085,16.8168389 2.96945338,17.2211485 C3.05846745,18.3918832 2.43207623,19.5012216 1.38102894,20.0342471 L0,20.7351215 L0,24.0042685 L4.0659164,21.9416495 L5.38263666,21.2727785 L6.68006431,20.6151087 L29.9726688,8.80265489 L32.5900322,7.47611408 L38,4.73182279 L38,1.46427596 L32.6366559,4.18776504 Z M38,8.00256996 L8.00321543,23.2041835 L5.38585209,24.5339247 L0,27.2654146 L0,30.5313613 L5.3488746,27.8190734 L9.9244373,25.4988271 L32.0418006,14.2816365 C32.1165678,14.8525492 32.1541597,15.427677 32.1543408,16.0034192 C32.1514455,20.6529377 29.6727449,24.9525851 25.6411889,27.3013778 C21.6096328,29.6501704 16.6293128,29.6961635 12.5546624,27.4222313 L12.3938907,27.5070403 L9.55466238,28.9471931 C14.4453574,32.4811898 20.9141634,32.9867183 26.2990866,30.2557474 C31.6840097,27.5247765 35.0752115,22.0187319 35.0771704,16.0034192 C35.0771704,15.5921756 35.0610932,15.1809319 35.0305466,14.7744888 C34.9416802,13.6042166 35.5672532,12.4952047 36.6173633,11.9613902 L38,11.2605158 L38,8.00256996 Z" id="Shape"></path>
                            </g>
                        </g>
                    </g>
                </g>
            </g>
        </g>
    </g>
</svg>