<?xml version="1.0" encoding="utf-8"?><svg width="293" height="359" viewBox="0 0 293 359" fill="none" xmlns="http://www.w3.org/2000/svg">
<path d="M265.719 119.259L271.663 119.281L271.727 130.083L265.772 130.051L265.719 119.259Z" fill="#41CCB4"/>
<path d="M239.711 139.662L245.666 139.737L245.804 163.18L239.849 163.084L239.711 139.662Z" fill="#41CCB4"/>
<path d="M242.217 162.797L243.427 162.893L243.565 186.347L242.355 186.209L242.217 162.797Z" fill="#41CCB4"/>
<path d="M179.744 147.37V147.806L180.922 147.881V147.36L179.744 147.37Z" fill="#41CCB4"/>
<path d="M179.744 147.37L180.923 147.359L180.859 135.441L179.67 135.377L179.744 147.37Z" fill="#41CCB4"/>
<path d="M177.377 147.232L177.791 219.094L180.158 219.221L180.296 242.537L181.475 242.601L181.347 219.37L183.714 219.498L183.29 147.498L180.923 147.36V147.88L179.744 147.806V147.37L177.377 147.232Z" fill="#41CCB4"/>
<path d="M179.744 147.37V147.806L180.922 147.881V147.36L179.744 147.37Z" fill="#41CCB4"/>
<path d="M209.266 164.892L210.476 164.977L210.614 188.431L209.404 188.303L209.266 164.892Z" fill="#41CCB4"/>
<path d="M275.57 119.568L275.868 170.559L281.855 170.824L281.558 119.759L279.19 119.695L279.116 107.043L277.938 106.979L278.001 119.631L275.57 119.568Z" fill="#41CCB4"/>
<path d="M249.531 118.249L255.487 118.366L255.699 155.44L249.744 155.249L249.531 118.249Z" fill="#41CCB4"/>
<path d="M216.262 139.237L222.206 139.449L222.546 197.404L216.591 197.096L216.262 139.237Z" fill="#41CCB4"/>
<path d="M207.037 188.357L212.982 188.389L213.077 204.751L207.133 204.687L207.037 188.357Z" fill="#41CCB4"/>
<path d="M191.252 117.558L192.473 117.92L192.961 203.007L191.751 202.518L191.252 117.558Z" fill="#41CCB4"/>
<path d="M189.383 202.933L195.338 202.965L195.423 219.328L189.478 219.264L189.383 202.933Z" fill="#41CCB4"/>
<path d="M258.007 118.732L257.975 119.774L263.662 119.951L263.694 118.91L258.007 118.732Z" fill="#41CCB4"/>
<path d="M231.74 139.708L231.736 140.75L237.426 140.772L237.43 139.73L231.74 139.708Z" fill="#41CCB4"/>
<path d="M224.334 139.618L224.33 140.66L230.02 140.682L230.024 139.64L224.334 139.618Z" fill="#41CCB4"/>
<path d="M199.313 204.221L199.309 205.263L204.988 205.286L204.992 204.244L199.313 204.221Z" fill="#41CCB4"/>
<path d="M16.1471 302.661L10.2024 302.65L10.1387 291.848L16.0834 291.88L16.1471 302.661Z" fill="#41CCB4"/>
<path d="M42.1558 282.258L36.2005 282.194L36.0625 258.74L42.0178 258.847L42.1558 282.258Z" fill="#41CCB4"/>
<path d="M39.6509 259.123L38.4407 259.038L38.3027 235.584L39.5129 235.711L39.6509 259.123Z" fill="#41CCB4"/>
<path d="M102.123 274.561V274.114L100.934 274.05L100.944 274.571L102.123 274.561Z" fill="#41CCB4"/>
<path d="M102.124 274.561L100.945 274.571L101.009 286.479L102.187 286.554L102.124 274.561Z" fill="#41CCB4"/>
<path d="M104.49 274.699L104.065 202.837L101.698 202.699L101.571 179.394L100.382 179.319L100.52 202.561L98.1523 202.423L98.577 274.433L100.944 274.571L100.934 274.05L102.123 274.114V274.561L104.49 274.699Z" fill="#41CCB4"/>
<path d="M102.123 274.561V274.114L100.934 274.05L100.944 274.571L102.123 274.561Z" fill="#41CCB4"/>
<path d="M72.5895 257.039L71.3793 256.943L71.252 233.489L72.4515 233.627L72.5895 257.039Z" fill="#41CCB4"/>
<path d="M6.29613 302.353L5.99889 251.362L0.0117188 251.107L0.308954 302.172L2.67622 302.225L2.75053 314.888L3.92886 314.952L3.85455 302.3L6.29613 302.353Z" fill="#41CCB4"/>
<path d="M32.3356 303.682L26.3803 303.554L26.168 266.491L32.1127 266.672L32.3356 303.682Z" fill="#41CCB4"/>
<path d="M65.6047 282.694L59.66 282.481L59.3203 224.516L65.265 224.824L65.6047 282.694Z" fill="#41CCB4"/>
<path d="M74.8302 233.574L68.8748 233.543L68.7793 217.18L74.7346 217.244L74.8302 233.574Z" fill="#41CCB4"/>
<path d="M90.6056 304.362L89.3954 304.011L88.8965 218.913L90.1173 219.413L90.6056 304.362Z" fill="#41CCB4"/>
<path d="M92.4845 218.998L86.5291 218.955L86.4336 202.604L92.3889 202.657L92.4845 218.998Z" fill="#41CCB4"/>
<path d="M18.1868 301.966L18.1543 303.007L23.8414 303.185L23.8738 302.144L18.1868 301.966Z" fill="#41CCB4"/>
<path d="M44.4455 281.15L44.4414 282.192L50.1313 282.214L50.1354 281.172L44.4455 281.15Z" fill="#41CCB4"/>
<path d="M51.8517 281.24L51.8477 282.281L57.5376 282.304L57.5417 281.262L51.8517 281.24Z" fill="#41CCB4"/>
<path d="M76.8732 216.647L76.8691 217.689L82.5485 217.711L82.5526 216.669L76.8732 216.647Z" fill="#41CCB4"/>
<path d="M34.7042 94.7736C34.6086 94.7736 34.5131 94.7523 34.4282 94.6992L31.1161 92.7323C30.9569 92.6366 30.8613 92.4665 30.8613 92.2751C30.8613 92.0837 30.9569 91.9136 31.1267 91.8179L34.5662 89.7766C34.6511 89.7234 34.7466 89.7021 34.8315 89.7021C34.9271 89.7021 35.0226 89.7234 35.1076 89.7766L38.3878 91.7435C38.547 91.8392 38.6531 92.0093 38.6531 92.2007C38.6531 92.392 38.5682 92.5622 38.409 92.6578L34.9802 94.6992C34.8846 94.7417 34.7891 94.7736 34.7042 94.7736Z" fill="#F3F3F3"/>
<path d="M34.8205 90.2339L37.9202 92.0945L38.1007 92.2008L38.1113 92.2114L38.1007 92.222L34.6931 94.2528L31.381 92.2858L31.6783 92.1051L34.8205 90.2339ZM34.8205 89.1707C34.6294 89.1707 34.4489 89.2238 34.2791 89.3195L31.1475 91.1801L30.8502 91.3608C30.5318 91.5522 30.3301 91.9031 30.3301 92.2752C30.3301 92.6473 30.5318 92.9982 30.8502 93.1896L34.1623 95.1565C34.3321 95.2522 34.5126 95.3053 34.7037 95.3053C34.8948 95.3053 35.0752 95.2522 35.2451 95.1565L38.6527 93.1258C38.9711 92.9344 39.1728 92.5942 39.1728 92.222C39.1728 91.8499 38.9924 91.4991 38.6845 91.3077L38.4828 91.1801L35.3831 89.3195C35.2026 89.2132 35.0115 89.1707 34.8205 89.1707Z" fill="#142533"/>
<path d="M34.7042 99.0797C34.6086 99.0797 34.5131 99.0585 34.4282 99.0053L31.1161 97.0384C30.9569 96.9427 30.8613 96.7726 30.8613 96.5812V92.2753C30.8613 92.0839 30.9675 91.9031 31.1267 91.8181C31.2116 91.7755 31.2966 91.7437 31.3921 91.7437C31.4876 91.7437 31.5832 91.7649 31.6681 91.8181L34.9802 93.785C35.1394 93.8807 35.2349 94.0508 35.2349 94.2422V98.5481C35.2349 98.7395 35.1288 98.9203 34.9695 99.0053C34.8846 99.0585 34.7891 99.0797 34.7042 99.0797Z" fill="#F3F3F3"/>
<path d="M31.3916 92.2646L34.7037 94.2315V98.5375L31.3916 96.5706V92.2646ZM31.3916 91.2014C31.2112 91.2014 31.0307 91.2439 30.8715 91.3396C30.5424 91.531 30.3301 91.8819 30.3301 92.2646V96.5706C30.3301 96.9427 30.5318 97.2936 30.8502 97.4849L34.1623 99.4519C34.3321 99.5475 34.5126 99.6007 34.7037 99.6007C34.8842 99.6007 35.0646 99.5582 35.2238 99.4625C35.5529 99.2711 35.7652 98.9203 35.7652 98.5375V94.2315C35.7652 93.8594 35.5635 93.5086 35.2451 93.3172L31.933 91.3503C31.7632 91.2546 31.5721 91.2014 31.3916 91.2014Z" fill="#142533"/>
<path d="M34.7046 99.0798C34.6091 99.0798 34.5241 99.0585 34.4392 99.0054C34.2694 98.9097 34.1738 98.7396 34.1738 98.5482V94.2422C34.1738 94.0509 34.2694 93.8807 34.4286 93.7851L37.8362 91.7544C37.9211 91.7012 38.0167 91.6799 38.1122 91.6799C38.2077 91.6799 38.2927 91.7012 38.3776 91.7544C38.5474 91.85 38.643 92.0202 38.643 92.2115V96.5175C38.643 96.7089 38.5474 96.879 38.3882 96.9747L34.9806 99.0054C34.8851 99.0585 34.7895 99.0798 34.7046 99.0798Z" fill="#F3F3F3"/>
<path d="M38.1117 92.2114V96.5174L34.7041 98.5481V94.2421L38.1117 92.2114ZM38.1117 91.1482C37.9206 91.1482 37.7402 91.2014 37.5703 91.297L34.1627 93.3278C33.8443 93.5191 33.6426 93.87 33.6426 94.2421V98.5481C33.6426 98.9308 33.8443 99.2817 34.184 99.4731C34.3432 99.5687 34.5237 99.6113 34.7041 99.6113C34.8952 99.6113 35.0757 99.5581 35.2455 99.4624L38.6531 97.4317C38.9716 97.2403 39.1733 96.8895 39.1733 96.5174V92.2114C39.1733 91.8286 38.9716 91.4778 38.6319 91.2864C38.4727 91.1907 38.2922 91.1482 38.1117 91.1482Z" fill="#142533"/>
<path d="M216.187 42.3049C216.091 42.3049 215.995 42.2836 215.911 42.2304L212.599 40.2635C212.439 40.1678 212.344 39.9977 212.344 39.8063C212.344 39.615 212.439 39.4448 212.609 39.3492L216.049 37.3078C216.133 37.2547 216.229 37.2334 216.314 37.2334C216.409 37.2334 216.505 37.2547 216.59 37.3078L219.87 39.2747C220.029 39.3704 220.136 39.5512 220.136 39.7319C220.136 39.9233 220.04 40.0934 219.881 40.1891L216.463 42.2198C216.378 42.2836 216.282 42.3049 216.187 42.3049Z" fill="#F3F3F3"/>
<path d="M216.315 37.7756L219.414 39.6362L219.595 39.7425L219.605 39.7532L219.595 39.7638L216.187 41.7945L212.875 39.8276L213.172 39.6468L216.315 37.7756ZM216.315 36.7124C216.124 36.7124 215.943 36.7656 215.773 36.8612L212.642 38.7218L212.344 38.9026C212.026 39.094 211.824 39.4448 211.824 39.8169C211.824 40.1891 212.026 40.5399 212.344 40.7313L215.656 42.6982C215.826 42.7939 216.007 42.8471 216.198 42.8471C216.389 42.8471 216.569 42.7939 216.739 42.6982L220.147 40.6675C220.465 40.4761 220.667 40.1359 220.667 39.7638C220.667 39.3917 220.487 39.0408 220.179 38.8494L219.966 38.7218L216.867 36.8612C216.686 36.7549 216.506 36.7124 216.315 36.7124Z" fill="#142533"/>
<path d="M216.187 46.6215C216.091 46.6215 215.995 46.6002 215.911 46.547L212.599 44.5801C212.439 44.4844 212.344 44.3143 212.344 44.123V39.817C212.344 39.6256 212.45 39.4449 212.609 39.3598C212.694 39.3173 212.779 39.2854 212.875 39.2854C212.97 39.2854 213.066 39.3067 213.151 39.3598L216.463 41.3267C216.622 41.4224 216.717 41.5925 216.717 41.7839V46.0899C216.717 46.2812 216.611 46.462 216.452 46.547C216.367 46.6002 216.271 46.6215 216.187 46.6215Z" fill="#F3F3F3"/>
<path d="M212.874 39.8064L216.186 41.7733V46.0792L212.874 44.1123V39.8064ZM212.874 38.7432C212.694 38.7432 212.513 38.7857 212.354 38.8814C212.025 39.0728 211.812 39.4236 211.812 39.8064V44.1123C211.812 44.4844 212.014 44.8353 212.333 45.0267L215.645 46.9936C215.815 47.0893 215.995 47.1424 216.186 47.1424C216.367 47.1424 216.547 47.0999 216.706 47.0042C217.035 46.8128 217.248 46.462 217.248 46.0792V41.7733C217.248 41.4012 217.046 41.0503 216.728 40.8589L213.415 38.892C213.246 38.7963 213.065 38.7432 212.874 38.7432Z" fill="#142533"/>
<path d="M216.187 46.6213C216.091 46.6213 216.007 46.6 215.922 46.5469C215.752 46.4512 215.656 46.2811 215.656 46.0897V41.7837C215.656 41.5924 215.752 41.4223 215.911 41.3266L219.319 39.2959C219.404 39.2427 219.499 39.2214 219.595 39.2214C219.69 39.2214 219.775 39.2427 219.86 39.2959C220.03 39.3915 220.125 39.5617 220.125 39.753V44.059C220.125 44.2504 220.03 44.4205 219.871 44.5162L216.463 46.5469C216.378 46.5894 216.283 46.6213 216.187 46.6213Z" fill="#F3F3F3"/>
<path d="M219.594 39.7531V44.0591L216.187 46.0898V41.7839L219.594 39.7531ZM219.594 38.6899C219.403 38.6899 219.223 38.7431 219.053 38.8388L215.645 40.8695C215.327 41.0609 215.125 41.4117 215.125 41.7839V46.0898C215.125 46.4726 215.327 46.8234 215.666 47.0148C215.826 47.1105 216.006 47.153 216.187 47.153C216.378 47.153 216.558 47.0998 216.728 47.0042L220.136 44.9734C220.454 44.7821 220.656 44.4312 220.656 44.0591V39.7531C220.656 39.3704 220.454 39.0195 220.114 38.8282C219.955 38.7325 219.775 38.6899 219.594 38.6899Z" fill="#142533"/>
<path d="M142.101 332.165C142.005 332.165 141.91 332.143 141.825 332.09L138.513 330.123C138.353 330.028 138.258 329.858 138.258 329.666C138.258 329.475 138.353 329.305 138.523 329.209L141.963 327.168C142.048 327.115 142.143 327.093 142.228 327.093C142.324 327.093 142.419 327.115 142.504 327.168L145.784 329.135C145.943 329.23 146.05 329.4 146.05 329.592C146.05 329.783 145.965 329.953 145.805 330.049L142.377 332.09C142.292 332.143 142.196 332.165 142.101 332.165Z" fill="#F3F3F3"/>
<path d="M142.229 327.625L145.328 329.486L145.509 329.592L145.52 329.603L145.509 329.613L142.101 331.644L138.789 329.677L139.086 329.496L142.229 327.625ZM142.229 326.562C142.038 326.562 141.857 326.615 141.687 326.711L138.556 328.571L138.258 328.752C137.94 328.943 137.738 329.294 137.738 329.666C137.738 330.038 137.94 330.389 138.258 330.581L141.571 332.548C141.74 332.643 141.921 332.696 142.112 332.696C142.303 332.696 142.483 332.643 142.653 332.548L146.061 330.517C146.379 330.325 146.581 329.985 146.581 329.613C146.581 329.241 146.401 328.89 146.093 328.699L145.891 328.571L142.791 326.711C142.611 326.615 142.42 326.562 142.229 326.562Z" fill="#142533"/>
<path d="M142.101 336.481C142.005 336.481 141.91 336.46 141.825 336.407L138.513 334.44C138.353 334.344 138.258 334.174 138.258 333.983V329.677C138.258 329.485 138.364 329.305 138.523 329.22C138.608 329.177 138.693 329.145 138.789 329.145C138.884 329.145 138.98 329.167 139.065 329.22L142.377 331.187C142.536 331.282 142.631 331.452 142.631 331.644V335.95C142.631 336.141 142.525 336.322 142.366 336.407C142.281 336.449 142.196 336.481 142.101 336.481Z" fill="#F3F3F3"/>
<path d="M138.788 329.666L142.1 331.633V335.939L138.788 333.972V329.666ZM138.788 328.603C138.608 328.603 138.427 328.646 138.268 328.741C137.939 328.933 137.727 329.283 137.727 329.666V333.972C137.727 334.344 137.928 334.695 138.247 334.887L141.559 336.853C141.729 336.949 141.909 337.002 142.1 337.002C142.281 337.002 142.461 336.96 142.62 336.864C142.949 336.673 143.162 336.322 143.162 335.939V331.633C143.162 331.261 142.96 330.91 142.642 330.719L139.33 328.752C139.17 328.656 138.979 328.603 138.788 328.603Z" fill="#142533"/>
<path d="M142.101 336.482C142.006 336.482 141.921 336.46 141.836 336.407C141.666 336.312 141.57 336.141 141.57 335.95V331.644C141.57 331.453 141.666 331.283 141.825 331.187L145.233 329.156C145.318 329.103 145.413 329.082 145.509 329.082C145.604 329.082 145.689 329.103 145.774 329.156C145.944 329.252 146.039 329.422 146.039 329.613V333.919C146.039 334.111 145.944 334.281 145.785 334.377L142.377 336.407C142.292 336.45 142.197 336.482 142.101 336.482Z" fill="#F3F3F3"/>
<path d="M145.508 329.613V333.919L142.101 335.95V331.644L145.508 329.613ZM145.508 328.55C145.317 328.55 145.137 328.603 144.967 328.699L141.559 330.73C141.241 330.921 141.039 331.272 141.039 331.644V335.95C141.039 336.333 141.241 336.684 141.58 336.875C141.74 336.971 141.92 337.013 142.101 337.013C142.292 337.013 142.472 336.96 142.642 336.864L146.05 334.834C146.368 334.642 146.57 334.291 146.57 333.919V329.613C146.57 329.23 146.368 328.88 146.028 328.688C145.869 328.593 145.689 328.55 145.508 328.55Z" fill="#142533"/>
<path d="M157.165 8.6756C157.07 8.6756 156.974 8.65434 156.889 8.60118L151.04 5.12452C150.881 5.02883 150.785 4.85872 150.785 4.66734C150.785 4.47597 150.881 4.30585 151.051 4.21017L157.123 0.605918C157.208 0.552758 157.303 0.531494 157.388 0.531494C157.484 0.531494 157.579 0.552758 157.664 0.605918L163.46 4.08258C163.619 4.17827 163.726 4.34838 163.726 4.53976C163.726 4.7205 163.651 4.90125 163.492 4.99693L157.43 8.60118C157.346 8.65434 157.25 8.6756 157.165 8.6756Z" fill="#F3F3F3"/>
<path d="M157.388 1.0632L162.876 4.34849L163.184 4.53986L163.205 4.55049L163.184 4.56113L157.165 8.14411L151.315 4.66745L151.846 4.34849L157.388 1.0632ZM157.388 0C157.196 0 157.016 0.05316 156.846 0.148848L151.305 3.43413L150.774 3.75309C150.456 3.94447 150.254 4.29533 150.254 4.66745C150.254 5.03957 150.456 5.39042 150.774 5.5818L156.623 9.05846C156.793 9.15415 156.974 9.20731 157.165 9.20731C157.356 9.20731 157.536 9.15415 157.706 9.05846L163.725 5.47548C164.044 5.2841 164.245 4.94388 164.256 4.57176C164.256 4.19964 164.086 3.84878 163.767 3.64677L163.417 3.43413L157.929 0.148848C157.759 0.05316 157.579 0 157.388 0Z" fill="#142533"/>
<path d="M157.165 16.2881C157.07 16.2881 156.974 16.2668 156.889 16.2137L151.04 12.737C150.881 12.6413 150.785 12.4712 150.785 12.2799V4.66734C150.785 4.47597 150.891 4.29522 151.051 4.21017C151.135 4.16764 151.22 4.13574 151.316 4.13574C151.411 4.13574 151.507 4.15701 151.592 4.21017L157.441 7.68683C157.6 7.78252 157.696 7.95263 157.696 8.144V15.7565C157.696 15.9479 157.59 16.1286 157.431 16.2137C157.346 16.2668 157.25 16.2881 157.165 16.2881Z" fill="#F3F3F3"/>
<path d="M151.315 4.66745L157.165 8.14411V15.7566L151.315 12.28V4.66745ZM151.315 3.60425C151.135 3.60425 150.955 3.64678 150.795 3.74246C150.466 3.93384 150.254 4.2847 150.254 4.66745V12.28C150.254 12.6521 150.456 13.0029 150.774 13.1943L156.623 16.671C156.793 16.7667 156.974 16.8198 157.165 16.8198C157.345 16.8198 157.526 16.7773 157.685 16.6816C158.014 16.4902 158.226 16.1394 158.226 15.7566V8.14411C158.226 7.77199 158.024 7.42113 157.706 7.22976L151.857 3.7531C151.687 3.64678 151.496 3.60425 151.315 3.60425Z" fill="#142533"/>
<path d="M157.166 16.288C157.07 16.288 156.985 16.2667 156.9 16.2136C156.73 16.1179 156.635 15.9478 156.635 15.7564V8.14388C156.635 7.9525 156.73 7.78239 156.89 7.6867L162.909 4.10372C162.994 4.05056 163.089 4.0293 163.185 4.0293C163.28 4.0293 163.365 4.05056 163.45 4.10372C163.62 4.19941 163.715 4.36952 163.715 4.5609V12.1734C163.715 12.3648 163.62 12.5349 163.461 12.6306L157.442 16.2136C157.346 16.2667 157.25 16.288 157.166 16.288Z" fill="#F3F3F3"/>
<path d="M163.184 4.561V12.1735L157.165 15.7565V8.14399L163.184 4.561ZM163.184 3.4978C162.993 3.4978 162.813 3.55096 162.643 3.64665L156.624 7.22963C156.305 7.42101 156.104 7.77187 156.104 8.14399V15.7565C156.104 16.1392 156.305 16.4901 156.645 16.6815C156.804 16.7772 156.985 16.8197 157.165 16.8197C157.356 16.8197 157.537 16.7665 157.706 16.6708L163.725 13.0879C164.044 12.8965 164.246 12.5456 164.246 12.1735V4.561C164.246 4.17825 164.044 3.82739 163.704 3.63602C163.545 3.54033 163.365 3.4978 163.184 3.4978Z" fill="#142533"/>
<path d="M191.155 350.856C191.06 350.856 190.964 350.835 190.879 350.782L185.03 347.305C184.871 347.209 184.775 347.039 184.775 346.848C184.775 346.656 184.871 346.486 185.041 346.391L191.113 342.786C191.198 342.733 191.293 342.712 191.378 342.712C191.474 342.712 191.569 342.733 191.654 342.786L197.45 346.263C197.61 346.359 197.716 346.539 197.716 346.72C197.716 346.901 197.631 347.082 197.472 347.188L191.421 350.792C191.346 350.835 191.251 350.856 191.155 350.856Z" fill="#F3F3F3"/>
<path d="M191.378 343.243L196.866 346.529L197.174 346.72L197.195 346.731L197.174 346.741L191.155 350.324L185.306 346.848L185.836 346.529L191.378 343.243ZM191.378 342.18C191.187 342.18 191.006 342.233 190.836 342.329L185.295 345.614L184.764 345.933C184.446 346.125 184.244 346.476 184.244 346.848C184.244 347.22 184.446 347.571 184.764 347.762L190.613 351.239C190.783 351.334 190.964 351.387 191.155 351.387C191.346 351.387 191.526 351.334 191.696 351.239L197.715 347.656C198.034 347.464 198.246 347.113 198.246 346.741C198.246 346.369 198.066 346.018 197.758 345.816L197.407 345.604L191.919 342.318C191.76 342.233 191.569 342.18 191.378 342.18Z" fill="#142533"/>
<path d="M191.155 358.468C191.06 358.468 190.964 358.447 190.879 358.394L185.03 354.917C184.871 354.822 184.775 354.651 184.775 354.46V346.848C184.775 346.656 184.882 346.475 185.041 346.39C185.126 346.348 185.211 346.316 185.306 346.316C185.402 346.316 185.497 346.337 185.582 346.39L191.431 349.867C191.591 349.963 191.686 350.133 191.686 350.324V357.937C191.686 358.128 191.58 358.309 191.421 358.394C191.336 358.447 191.251 358.468 191.155 358.468Z" fill="#F3F3F3"/>
<path d="M185.306 346.848L191.155 350.324V357.937L185.306 354.46V346.848ZM185.306 345.784C185.125 345.784 184.945 345.827 184.786 345.923C184.456 346.114 184.244 346.465 184.244 346.848V354.46C184.244 354.832 184.446 355.183 184.764 355.374L190.613 358.851C190.783 358.947 190.964 359 191.155 359C191.335 359 191.516 358.957 191.675 358.862C192.004 358.67 192.216 358.32 192.216 357.937V350.324C192.216 349.952 192.015 349.601 191.696 349.41L185.847 345.933C185.677 345.827 185.497 345.784 185.306 345.784Z" fill="#142533"/>
<path d="M191.154 358.468C191.058 358.468 190.973 358.447 190.888 358.394C190.719 358.298 190.623 358.128 190.623 357.937V350.324C190.623 350.133 190.719 349.963 190.878 349.867L196.897 346.284C196.982 346.231 197.077 346.21 197.173 346.21C197.268 346.21 197.353 346.231 197.438 346.284C197.608 346.38 197.704 346.55 197.704 346.741V354.354C197.704 354.545 197.608 354.715 197.449 354.811L191.43 358.394C191.345 358.447 191.249 358.468 191.154 358.468Z" fill="#F3F3F3"/>
<path d="M197.184 346.741V354.354L191.165 357.937V350.324L197.184 346.741ZM197.184 345.678C196.993 345.678 196.813 345.731 196.643 345.827L190.624 349.41C190.305 349.601 190.104 349.952 190.104 350.324V357.937C190.104 358.32 190.305 358.67 190.645 358.862C190.804 358.958 190.985 359 191.165 359C191.356 359 191.537 358.947 191.706 358.851L197.725 355.268C198.044 355.077 198.246 354.726 198.246 354.354V346.741C198.246 346.359 198.044 346.008 197.704 345.816C197.545 345.721 197.365 345.678 197.184 345.678Z" fill="#142533"/>
<path d="M291.1 262.238C290.505 262.238 289.752 261.994 288.786 261.494C286.503 260.356 283.159 257.794 279.614 254.477C278.648 253.573 277.65 252.595 276.652 251.574C275.654 250.553 274.709 249.533 273.839 248.544C270.612 244.908 268.138 241.495 267.056 239.188C266.259 237.54 266.164 236.445 266.78 235.849C267.034 235.605 267.374 235.477 267.809 235.477C270.208 235.477 276.142 239.858 282.246 246.12C285.558 249.512 288.414 252.967 290.304 255.827C292.416 259.027 293.011 261.005 292.13 261.877C291.864 262.11 291.524 262.238 291.1 262.238Z" fill="#F3F3F3"/>
<path d="M267.798 236.009C269.985 236.009 275.845 240.326 281.853 246.492C288.647 253.467 293.074 260.186 291.736 261.494C291.588 261.643 291.365 261.717 291.089 261.717C290.579 261.717 289.878 261.483 289.019 261.037C286.789 259.92 283.509 257.422 279.974 254.105C278.997 253.201 278.021 252.233 277.034 251.213C276.057 250.203 275.102 249.182 274.231 248.204C271.004 244.578 268.584 241.229 267.533 238.975C266.875 237.625 266.715 236.658 267.14 236.243C267.299 236.083 267.522 236.009 267.798 236.009ZM267.798 234.946C267.087 234.946 266.641 235.233 266.397 235.467C265.218 236.615 266.238 238.731 266.577 239.422C267.671 241.772 270.176 245.227 273.435 248.895C274.316 249.884 275.261 250.915 276.269 251.936C277.267 252.956 278.276 253.945 279.252 254.86C282.83 258.219 286.227 260.803 288.551 261.972C289.581 262.504 290.409 262.759 291.089 262.759C291.8 262.759 292.235 262.472 292.479 262.238C295.568 259.219 283.944 247.109 282.607 245.737C277.384 240.368 270.77 234.946 267.798 234.946Z" fill="#142533"/>
<path d="M285.95 256.423C285.589 256.423 285.133 256.284 284.56 255.987C283.286 255.349 281.417 253.924 279.443 252.074C278.902 251.564 278.349 251.032 277.797 250.458C277.245 249.895 276.715 249.331 276.237 248.778C274.443 246.758 273.063 244.844 272.458 243.547C272.277 243.175 271.725 242.037 272.352 241.431C272.479 241.304 272.713 241.155 273.084 241.155C274.708 241.155 278.349 244.143 281.237 247.109C283.073 248.991 284.666 250.915 285.717 252.51C286.969 254.413 287.288 255.572 286.693 256.157C286.555 256.274 286.322 256.423 285.95 256.423Z" fill="#F3F3F3"/>
<path d="M273.074 241.697C274.284 241.697 277.522 244.079 280.845 247.492C284.603 251.34 287.044 255.062 286.312 255.785C286.227 255.87 286.11 255.902 285.951 255.902C285.675 255.902 285.282 255.774 284.804 255.529C283.573 254.913 281.758 253.531 279.804 251.702C279.263 251.202 278.722 250.671 278.18 250.107C277.639 249.554 277.119 248.991 276.63 248.449C274.847 246.439 273.509 244.6 272.925 243.345C272.565 242.601 272.469 242.069 272.713 241.835C272.798 241.729 272.925 241.697 273.074 241.697ZM273.085 240.634C272.533 240.634 272.182 240.868 271.981 241.059C271.078 241.931 271.758 243.335 271.981 243.792C272.607 245.142 273.987 247.045 275.845 249.14C276.333 249.692 276.864 250.256 277.426 250.841C277.978 251.415 278.541 251.957 279.093 252.467C281.131 254.381 283 255.806 284.348 256.476C284.985 256.805 285.505 256.965 285.961 256.965C286.513 256.965 286.864 256.731 287.065 256.539C288.116 255.519 287.129 253.701 286.163 252.223C285.091 250.607 283.477 248.661 281.62 246.747C278.86 243.919 274.974 240.634 273.085 240.634Z" fill="#142533"/>
<path d="M288.754 264.524C287.809 264.524 286.334 263.865 284.391 262.578C283.032 261.664 281.503 260.484 279.858 259.07C278.733 258.124 277.544 257.039 276.323 255.848C275.654 255.21 274.996 254.551 274.317 253.86C273.648 253.18 273 252.478 272.385 251.808C271.249 250.575 270.198 249.363 269.264 248.193C267.894 246.513 266.748 244.961 265.877 243.568C264.062 240.677 263.606 238.944 264.444 238.135L266.78 235.85L267.523 236.615C267.395 236.732 267.342 237.338 268.022 238.742C268.308 239.348 268.68 240.017 269.126 240.708C269.954 242.037 271.058 243.568 272.427 245.238C273.096 246.078 273.839 246.949 274.635 247.842L275.516 248.81C276.132 249.48 276.769 250.16 277.416 250.83C278.085 251.521 278.743 252.17 279.402 252.797L280.346 253.701C281.227 254.541 282.077 255.295 282.883 255.965C284.529 257.379 286.026 258.538 287.321 259.389C288 259.857 288.648 260.239 289.263 260.548C290.261 261.069 290.813 261.175 291.1 261.175C291.174 261.175 291.323 261.164 291.376 261.101C291.482 261.005 291.609 260.952 291.747 260.952C291.885 260.952 292.023 261.005 292.13 261.111C292.331 261.324 292.331 261.653 292.119 261.866L289.784 264.152C289.529 264.407 289.178 264.524 288.754 264.524Z" fill="#F3F3F3"/>
<path d="M267.151 236.232C266.727 236.647 266.886 237.614 267.544 238.965C267.831 239.571 268.213 240.262 268.68 240.995C269.518 242.356 270.654 243.909 272.013 245.578C272.693 246.439 273.446 247.321 274.232 248.204C274.518 248.523 274.816 248.852 275.113 249.171C275.729 249.852 276.366 250.532 277.034 251.213C277.703 251.904 278.372 252.563 279.03 253.19C279.348 253.499 279.667 253.807 279.975 254.094C280.845 254.923 281.705 255.689 282.533 256.38C284.168 257.783 285.686 258.953 287.024 259.835C287.756 260.335 288.414 260.728 289.019 261.026C289.879 261.473 290.58 261.707 291.089 261.707C291.365 261.707 291.588 261.632 291.737 261.483L289.401 263.769C289.253 263.918 289.03 263.992 288.743 263.992C287.883 263.992 286.461 263.323 284.678 262.132C283.351 261.239 281.833 260.069 280.198 258.666C279.072 257.709 277.894 256.635 276.684 255.466C276.026 254.828 275.357 254.179 274.688 253.488C274.03 252.808 273.372 252.116 272.767 251.447C271.631 250.213 270.601 249.012 269.667 247.853C268.308 246.184 267.172 244.632 266.313 243.281C264.805 240.868 264.179 239.114 264.795 238.508L267.151 236.232ZM266.408 235.467L264.073 237.753C263.011 238.784 263.436 240.666 265.431 243.855C266.313 245.259 267.47 246.832 268.86 248.534C269.805 249.703 270.867 250.936 272.003 252.18C272.608 252.85 273.266 253.541 273.945 254.243C274.625 254.945 275.293 255.604 275.973 256.252C277.194 257.443 278.393 258.528 279.529 259.495C281.185 260.92 282.724 262.111 284.104 263.036C286.174 264.407 287.692 265.077 288.765 265.077C289.476 265.077 289.922 264.79 290.166 264.556L292.48 262.302C292.692 262.111 292.83 261.823 292.83 261.515C292.83 260.93 292.353 260.452 291.769 260.452C291.758 260.452 291.758 260.452 291.747 260.452C291.62 260.452 291.493 260.484 291.376 260.526C291.291 260.558 291.195 260.611 291.121 260.675C290.909 260.665 290.452 260.59 289.529 260.112C288.924 259.814 288.287 259.431 287.65 258.995C286.344 258.145 284.879 257.007 283.255 255.614C282.448 254.934 281.599 254.179 280.729 253.36L280.219 252.871L279.784 252.457C279.126 251.819 278.478 251.181 277.82 250.5C277.162 249.831 276.525 249.15 275.93 248.491L275.049 247.523C274.264 246.652 273.531 245.78 272.873 244.951C271.504 243.281 270.41 241.772 269.603 240.474C269.158 239.783 268.797 239.145 268.531 238.561C267.926 237.306 268.011 236.902 268.011 236.902C268.011 236.923 267.979 236.977 267.926 237.04L267.183 236.275L266.408 235.467Z" fill="#142533"/>
<path d="M266.259 243.813C266.1 243.792 265.962 243.707 265.877 243.568C264.062 240.677 263.606 238.944 264.444 238.135L266.78 235.85L267.523 236.615C267.395 236.732 267.342 237.338 268.022 238.742C268.308 239.348 268.68 240.017 269.126 240.708C269.264 240.921 269.232 241.198 269.051 241.378L266.705 243.675C266.61 243.77 266.472 243.824 266.334 243.824C266.302 243.824 266.281 243.813 266.259 243.813Z" fill="#F3F3F3"/>
<path d="M267.151 236.232C266.727 236.647 266.886 237.614 267.544 238.965C267.831 239.571 268.213 240.262 268.68 240.995L266.334 243.292C264.826 240.878 264.2 239.124 264.816 238.518L267.151 236.232ZM266.408 235.467L264.073 237.753C263.011 238.784 263.436 240.666 265.432 243.855C265.601 244.132 265.888 244.313 266.206 244.344C266.249 244.344 266.291 244.355 266.334 244.355C266.61 244.355 266.875 244.249 267.077 244.057L269.423 241.761C269.784 241.41 269.848 240.847 269.572 240.421C269.136 239.741 268.775 239.103 268.51 238.518C267.905 237.264 267.99 236.86 267.99 236.86C267.99 236.881 267.958 236.934 267.905 236.998L267.162 236.232L266.408 235.467Z" fill="#142533"/>
<path d="M272.767 251.989C272.618 251.989 272.491 251.925 272.395 251.819C271.259 250.585 270.208 249.373 269.264 248.193C269.094 247.981 269.115 247.672 269.306 247.481L271.642 245.195C271.737 245.099 271.875 245.046 272.013 245.046C272.024 245.046 272.034 245.046 272.045 245.046C272.194 245.057 272.332 245.131 272.427 245.248C273.085 246.088 273.828 246.96 274.624 247.842L275.506 248.81C275.697 249.023 275.686 249.352 275.484 249.543L273.149 251.829C273.053 251.925 272.915 251.978 272.777 251.978C272.767 251.989 272.767 251.989 272.767 251.989Z" fill="#F3F3F3"/>
<path d="M272.013 245.567C272.692 246.428 273.446 247.311 274.231 248.193C274.518 248.512 274.815 248.842 275.112 249.161L272.777 251.447C271.641 250.213 270.611 249.012 269.677 247.853L272.013 245.567ZM272.013 244.504C271.737 244.504 271.471 244.61 271.27 244.802L268.934 247.088C268.541 247.47 268.509 248.087 268.849 248.512C269.794 249.692 270.856 250.915 272.002 252.159C272.193 252.372 272.469 252.489 272.756 252.499C272.766 252.499 272.777 252.499 272.788 252.499C273.064 252.499 273.329 252.393 273.531 252.202L275.866 249.916C276.28 249.512 276.291 248.863 275.909 248.438L275.027 247.47C274.242 246.599 273.509 245.727 272.851 244.897C272.66 244.664 272.384 244.515 272.087 244.493C272.055 244.515 272.034 244.504 272.013 244.504Z" fill="#142533"/>
<path d="M280.198 259.197C280.081 259.197 279.954 259.155 279.858 259.07C278.733 258.113 277.544 257.028 276.323 255.848C276.217 255.752 276.164 255.614 276.164 255.465C276.164 255.317 276.217 255.189 276.323 255.083L278.659 252.797C278.765 252.701 278.892 252.648 279.03 252.648C279.158 252.648 279.296 252.701 279.402 252.797L280.347 253.701C281.228 254.54 282.077 255.295 282.884 255.965C283 256.061 283.064 256.199 283.075 256.348C283.085 256.497 283.022 256.646 282.916 256.752L280.58 259.038C280.474 259.155 280.336 259.197 280.198 259.197Z" fill="#F3F3F3"/>
<path d="M279.03 253.19C279.348 253.498 279.667 253.807 279.975 254.094C280.845 254.923 281.705 255.689 282.533 256.38L280.197 258.666C279.072 257.709 277.894 256.635 276.684 255.465L279.03 253.19ZM279.03 252.127C278.764 252.127 278.499 252.223 278.287 252.425L275.951 254.711C275.75 254.913 275.633 255.189 275.633 255.476C275.633 255.763 275.75 256.04 275.951 256.242C277.183 257.432 278.382 258.527 279.518 259.484C279.72 259.654 279.964 259.739 280.208 259.739C280.474 259.739 280.739 259.633 280.951 259.442L283.287 257.156C283.499 256.943 283.616 256.656 283.605 256.358C283.594 256.061 283.456 255.774 283.223 255.582C282.427 254.913 281.578 254.158 280.707 253.339L280.197 252.85L279.762 252.435C279.561 252.223 279.295 252.127 279.03 252.127Z" fill="#142533"/>
<path d="M288.754 264.524C287.809 264.524 286.334 263.865 284.391 262.579C284.253 262.493 284.168 262.345 284.158 262.185C284.147 262.026 284.2 261.866 284.317 261.76L286.673 259.463C286.78 259.368 286.907 259.314 287.045 259.314C287.151 259.314 287.257 259.346 287.342 259.41C288.011 259.867 288.659 260.25 289.274 260.558C290.272 261.079 290.824 261.186 291.111 261.186C291.185 261.186 291.334 261.175 291.387 261.111C291.493 261.016 291.62 260.962 291.758 260.962C291.896 260.962 292.034 261.016 292.141 261.122C292.342 261.335 292.342 261.664 292.13 261.877L289.794 264.163C289.529 264.407 289.179 264.524 288.754 264.524Z" fill="#F3F3F3"/>
<path d="M287.035 259.846C287.767 260.346 288.425 260.739 289.03 261.037C289.89 261.483 290.591 261.717 291.1 261.717C291.377 261.717 291.599 261.643 291.748 261.494L289.413 263.78C289.264 263.929 289.041 264.003 288.754 264.003C287.895 264.003 286.472 263.333 284.689 262.142L287.035 259.846ZM287.035 258.783C286.769 258.783 286.493 258.889 286.292 259.08L283.935 261.377C283.701 261.6 283.585 261.919 283.616 262.238C283.648 262.557 283.818 262.844 284.084 263.025C286.143 264.396 287.672 265.056 288.744 265.056C289.455 265.056 289.901 264.769 290.145 264.535L292.459 262.281C292.672 262.089 292.81 261.802 292.81 261.494C292.81 260.909 292.332 260.431 291.748 260.431C291.737 260.431 291.737 260.431 291.727 260.431C291.599 260.431 291.472 260.463 291.366 260.505C291.281 260.537 291.185 260.59 291.111 260.654C290.899 260.643 290.442 260.569 289.519 260.09C288.914 259.793 288.277 259.41 287.64 258.974C287.449 258.836 287.247 258.783 287.035 258.783Z" fill="#142533"/>
<path d="M152.261 276.985L151.783 277.059C151.656 277.027 151.529 277.027 151.423 276.963C150.871 276.751 150.265 276.134 149.639 275.092C149.055 274.146 148.429 272.838 147.834 271.18C145.032 263.503 143.418 251.436 144.257 244.387C144.363 243.462 144.491 242.675 144.682 242.027C144.756 241.74 144.841 241.463 144.947 241.219C145.011 241.006 145.085 240.825 145.181 240.645C145.478 240.028 145.839 239.677 146.274 239.592L146.614 239.539C146.635 239.539 146.667 239.528 146.667 239.56C146.911 239.571 147.176 239.698 147.41 239.911L147.463 239.932C148.461 240.687 149.575 242.633 150.69 245.737C150.817 246.109 150.955 246.513 151.093 246.907C151.486 248.151 151.868 249.522 152.197 250.904C152.42 251.883 152.654 252.882 152.834 253.913C152.93 254.339 153.015 254.796 153.089 255.253C153.376 256.805 153.652 258.421 153.822 259.995C153.896 260.452 153.938 260.909 153.981 261.345C154.087 262.387 154.183 263.429 154.236 264.439C154.374 266.491 154.406 268.426 154.31 270.17C154.31 270.786 154.246 271.382 154.193 271.966C153.917 274.795 153.259 276.442 152.42 276.921C152.357 276.974 152.314 276.985 152.261 276.985Z" fill="#F3F3F3" stroke="#142533" stroke-miterlimit="10" stroke-linecap="round" stroke-linejoin="round"/>
<path d="M151.772 277.05L147.685 277.602C147.038 277.56 146.295 276.901 145.53 275.625C144.957 274.679 144.352 273.381 143.747 271.744C143.736 271.712 143.726 271.691 143.715 271.659C143.248 270.405 142.844 269.033 142.441 267.576C142.377 267.321 142.303 267.055 142.239 266.8C141.91 265.482 141.602 264.1 141.337 262.696C141.029 261.059 140.764 259.39 140.552 257.731C140.371 256.317 140.222 254.914 140.127 253.553C140 251.915 139.936 250.331 139.946 248.853C139.946 248.726 139.946 248.609 139.957 248.481C139.978 247.206 140.031 246.015 140.169 244.93C140.201 244.675 140.233 244.42 140.265 244.186C140.647 241.688 141.326 240.337 142.165 240.135L146.252 239.593C145.605 239.752 145.042 240.55 144.681 242.038C144.543 242.474 144.447 242.985 144.363 243.559C144.32 243.825 144.288 244.101 144.246 244.388C144.118 245.441 144.055 246.61 144.033 247.854C144.012 249.438 144.065 251.139 144.193 252.926C144.288 254.286 144.437 255.69 144.617 257.104C144.83 258.763 145.095 260.432 145.403 262.069C145.668 263.472 145.976 264.844 146.305 266.173C146.74 267.906 147.229 269.554 147.759 271.042C147.781 271.096 147.802 271.149 147.823 271.213C148.407 272.797 149.002 274.073 149.564 275.008C149.585 275.04 149.607 275.072 149.628 275.104C150.392 276.369 151.125 277.018 151.772 277.05Z" fill="#F3F3F3" stroke="#142533" stroke-miterlimit="10" stroke-linecap="round" stroke-linejoin="round"/>
<path d="M144.044 247.853L139.957 248.48C139.978 247.204 140.031 246.014 140.169 244.929C140.201 244.674 140.233 244.419 140.265 244.185L144.362 243.558C144.32 243.823 144.288 244.1 144.246 244.387C144.129 245.45 144.065 246.609 144.044 247.853Z" fill="#F3F3F3" stroke="#142533" stroke-miterlimit="10" stroke-linecap="round" stroke-linejoin="round"/>
<path d="M144.627 257.103L140.561 257.73C140.381 256.316 140.232 254.913 140.137 253.552L144.213 252.925C144.298 254.285 144.447 255.689 144.627 257.103Z" fill="#F3F3F3" stroke="#142533" stroke-miterlimit="10" stroke-linecap="round" stroke-linejoin="round"/>
<path d="M146.316 266.172L142.25 266.799C141.921 265.481 141.613 264.099 141.348 262.695L145.413 262.068C145.679 263.472 145.987 264.854 146.316 266.172Z" fill="#F3F3F3" stroke="#142533" stroke-miterlimit="10" stroke-linecap="round" stroke-linejoin="round"/>
<path d="M149.576 275.007L145.52 275.635C144.947 274.688 144.342 273.391 143.737 271.754C143.726 271.722 143.716 271.701 143.705 271.669L147.76 271.042C147.781 271.095 147.803 271.148 147.824 271.212C148.418 272.785 149.013 274.061 149.576 275.007Z" fill="#F3F3F3" stroke="#142533" stroke-miterlimit="10" stroke-linecap="round" stroke-linejoin="round"/>
<path d="M151.515 271.426C152.952 271.204 153.221 265.201 152.115 258.016C151.01 250.832 148.949 245.188 147.512 245.409C146.075 245.631 145.806 251.635 146.912 258.819C148.017 266.004 150.078 271.648 151.515 271.426Z" fill="#F3F3F3" stroke="#142533" stroke-miterlimit="10" stroke-linecap="round" stroke-linejoin="round"/>
<path d="M149.895 261.983C149.884 262.004 149.874 262.015 149.863 262.025C149.714 262.27 149.576 262.312 149.449 262.153C149.258 261.919 149.173 261.324 149.162 261.26L148.196 254.679L147.867 254.796C147.804 254.817 147.751 254.668 147.74 254.455C147.729 254.243 147.772 254.062 147.835 254.041L148.249 253.892C148.292 253.871 148.345 253.956 148.366 254.105L149.364 260.941C149.364 260.952 149.417 261.313 149.523 261.441C149.598 261.526 149.672 261.494 149.767 261.334C149.767 261.324 149.778 261.324 149.778 261.313C149.789 261.302 150.001 261.026 149.98 259.676C149.98 259.463 150.022 259.293 150.086 259.282C150.15 259.272 150.203 259.442 150.203 259.654C150.235 261.249 149.99 261.823 149.895 261.983Z" fill="#142533"/>
<path d="M150.754 264.8C150.478 265.258 150.16 265.258 149.873 264.79C149.82 264.694 149.799 264.471 149.82 264.279C149.841 264.088 149.915 264.014 149.969 264.109C150.191 264.481 150.436 264.481 150.659 264.12C151.041 263.482 151.2 261.866 150.998 260.516C150.881 259.686 150.69 259.102 150.499 258.9C150.329 258.719 150.138 258.836 149.947 259.229C149.905 259.304 149.884 259.431 149.873 259.548L149.852 259.867C149.841 260.058 149.788 260.175 149.724 260.144C149.671 260.112 149.629 259.931 149.629 259.729C149.629 259.718 149.629 259.538 149.661 259.314L150 254.583L147.888 258.102C147.835 258.198 147.771 258.113 147.739 257.921C147.707 257.73 147.729 257.507 147.792 257.411L150.117 253.541C150.16 253.477 150.202 253.499 150.234 253.594C150.266 253.69 150.287 253.839 150.276 253.988L149.969 258.347C150.17 258.038 150.372 257.975 150.563 258.177C150.818 258.442 151.051 259.155 151.2 260.197C151.444 261.898 151.242 263.971 150.754 264.8Z" fill="#142533"/>
<path d="M150.033 264.776C150.168 264.775 150.274 264.389 150.27 263.913C150.267 263.437 150.154 263.053 150.02 263.054C149.885 263.055 149.778 263.441 149.782 263.917C149.786 264.392 149.898 264.777 150.033 264.776Z" fill="#142533"/>
<path d="M40.9771 180.085C40.9771 180.106 41.8688 180.265 41.8581 180.287C41.476 181.626 40.1384 182.892 39.5333 184.284C39.5121 184.327 39.4909 184.369 39.4696 184.401C38.8115 185.72 39.1299 187.038 38.493 188.176C37.5588 189.877 36.5291 191.461 35.4145 192.886C34.9686 193.449 34.5122 193.991 34.0451 194.512C33.8328 194.778 33.5886 195.023 33.3445 195.278C32.2935 196.373 31.0833 197.415 29.7989 198.361C27.2299 200.243 24.3955 201.71 22.0283 202.21C21.2321 202.38 18.7587 201.987 18.6419 202.008C17.8988 201.923 15.6377 200.955 15.2449 200.796C12.7184 199.743 10.6696 197.798 9.26838 195.161C6.47649 189.898 6.12617 182.115 8.82253 174.301C9.09853 173.578 9.417 172.78 9.693 172.058C10.2875 170.526 11.0199 169.091 11.8267 167.709C13.6845 164.445 15.9562 161.681 18.4296 159.554C21.3489 157.045 24.5336 155.418 27.6545 154.897C28.6524 154.749 29.6184 154.674 30.5526 154.781C31.7203 154.844 32.8668 155.089 33.992 155.525C34.3954 155.684 34.9262 155.929 35.3508 156.205C36.0302 156.556 36.5504 156.992 37.1342 157.481C37.5058 157.821 37.8879 158.183 38.1427 158.544C38.493 158.948 39.735 159.522 40.0323 159.98C40.8815 161.223 41.5609 162.659 42.0598 164.232C42.442 165.391 42.718 166.625 42.8878 167.932C43.0895 169.325 42.2615 170.633 42.2085 172.143L43.1108 172.291C43.0789 173.599 42.9515 174.928 42.7286 176.3L41.8263 176.172C41.6352 177.469 41.3486 178.766 40.9771 180.085Z" fill="#F3F3F3" stroke="#142533" stroke-miterlimit="10"/>
<path d="M20.4896 193.864C19.927 193.8 19.4387 193.779 18.9716 193.577C18.7168 193.513 18.2709 193.417 18.0586 193.279C16.254 192.503 14.8633 191.078 13.9398 189.271C12.1564 185.688 11.9335 180.489 13.8018 175.173C13.961 174.769 14.099 174.258 14.2583 173.854C14.6935 172.727 15.2243 171.76 15.7551 170.803C18.4939 166.146 22.3898 162.957 26.1477 162.297C27.6657 161.978 29.1625 162.159 30.5425 162.659C30.8716 162.776 31.1476 162.957 31.4342 163.148C31.9013 163.35 32.2092 163.658 32.5807 164.009C32.793 164.147 32.9523 164.36 33.1221 164.562C35.9458 167.624 36.8163 173.238 35.224 179.043C34.948 180.074 34.6083 181.063 34.2261 182.115C33.8546 182.987 33.4724 183.731 33.0796 184.486C29.9905 190.419 24.98 194.076 20.4896 193.864Z" fill="#F3F3F3" stroke="#142533" stroke-miterlimit="10"/>
<path d="M46.7424 174.078C46.7318 175.375 46.6256 176.725 46.4239 178.075L46.4133 178.107C46.2222 179.394 45.9462 180.691 45.5747 181.988C45.5641 182.02 45.5535 182.073 45.5428 182.105C45.1713 183.423 43.2393 188.697 39.7574 193.8C38.855 195.033 37.9315 196.128 36.9867 197.128C35.9358 198.255 34.853 199.158 33.6959 199.998C32.1566 201.115 30.628 201.933 29.0675 202.614C27.4327 203.262 25.7342 203.539 24.0994 203.581C23.5368 203.581 22.9848 203.549 22.4222 203.454C21.7958 203.358 21.1695 203.209 20.5644 202.975C20.3097 202.911 18.3139 202.103 17.9848 201.987C17.9848 201.987 15.9042 201.104 15.9785 201.125C16.2545 201.21 16.5305 201.274 16.8065 201.317C17.539 201.593 18.2078 201.731 18.9615 201.721C20.5963 201.699 23.144 201.264 24.7151 200.658C24.747 200.647 24.7788 200.636 24.8 200.626C26.2968 200.009 27.7405 199.169 29.2055 198.159C29.2267 198.148 29.248 198.127 29.2692 198.116C29.3329 198.063 29.3966 198.021 29.4603 197.968C30.5324 197.16 31.5834 196.245 32.56 195.193C32.5706 195.182 32.5919 195.171 32.6025 195.161C33.5473 194.183 34.4496 193.088 35.2988 191.95C35.3094 191.939 35.3201 191.929 35.3413 191.918C36.1905 190.77 37.0185 189.494 37.7086 188.133C37.7086 188.122 37.7192 188.112 37.7192 188.101C38.2818 187.134 38.7807 186.124 39.216 185.007C39.2903 184.826 39.354 184.656 39.4177 184.476C39.4283 184.454 39.4389 184.422 39.4601 184.401C39.4601 184.38 39.4707 184.369 39.4814 184.337C40.1077 182.934 40.5323 181.509 40.9251 180.148C40.9463 179.968 41.0312 179.819 41.0525 179.627L41.1055 179.564C41.1374 179.479 41.148 179.404 41.1692 179.33C41.1905 179.255 41.2117 179.181 41.2223 179.096C41.2435 179.032 41.2542 178.99 41.2754 178.926C41.3497 178.681 41.3922 178.437 41.4452 178.192C41.5195 177.841 41.5939 177.49 41.6469 177.14C41.7 176.831 41.7531 176.512 41.838 176.193V176.183L41.8486 176.119C42.0397 174.79 42.1246 173.482 42.1989 172.164C42.1989 172.153 42.1989 172.153 42.1989 172.153V172.089C42.1989 172.057 42.1989 172.036 42.2096 172.015V171.93C42.252 170.792 42.1671 169.74 42.1034 168.623C42.0822 168.347 42.0503 168.092 42.0079 167.815C41.838 166.508 41.5726 165.264 41.2329 164.126C40.734 162.584 40.0652 161.149 39.2054 159.863L39.1947 159.852C38.8763 159.448 38.5578 159.055 38.2393 158.661C38.2287 158.64 38.2075 158.619 38.1969 158.597C38.0376 158.385 37.8572 158.193 37.6767 158.023C37.5918 157.928 37.4856 157.832 37.3901 157.747C37.3158 157.672 37.2415 157.598 37.1778 157.534C37.0292 157.417 36.8912 157.3 36.7425 157.183C36.7107 157.151 36.6682 157.13 36.6364 157.098C36.509 156.992 36.3816 156.896 36.2542 156.801C36.1375 156.705 36.0101 156.62 35.8933 156.545C35.7447 156.45 35.5748 156.354 35.405 156.258C35.3838 156.248 35.3519 156.226 35.3307 156.216C35.2245 156.141 35.0971 156.067 34.9697 156.003C34.9061 155.971 34.8424 155.939 34.7787 155.907L34.8636 155.939C34.8636 155.939 38.8657 157.385 40.0546 158.14C40.7234 158.565 41.6894 159.459 42.4006 160.288C43.0906 161.107 44.5131 163.084 45.1076 164.711C45.1288 164.764 45.1501 164.817 45.1607 164.87C45.7552 166.274 46.1373 167.837 46.4452 169.538C46.4452 169.57 46.4558 169.612 46.4558 169.655C46.477 170.048 46.5619 170.463 46.5832 170.856C46.7212 171.909 46.7636 172.972 46.7424 174.078Z" fill="#F3F3F3" stroke="#142533" stroke-miterlimit="10"/>
<path d="M39.2051 159.863L42.9205 160.936" stroke="#142533" stroke-miterlimit="10"/>
<path d="M41.1777 164.434L45.4877 165.678" stroke="#142533" stroke-miterlimit="10"/>
<path d="M42.293 170.76L46.5923 172.015" stroke="#142533" stroke-miterlimit="10"/>
<path d="M41.8262 177.246L46.5926 178.745" stroke="#142533" stroke-miterlimit="10"/>
<path d="M39.9258 183.306L44.6922 184.805" stroke="#142533" stroke-miterlimit="10"/>
<path d="M36.9219 189.345L41.6989 190.844" stroke="#142533" stroke-miterlimit="10"/>
<path d="M32.5059 195.299L37.2829 196.809" stroke="#142533" stroke-miterlimit="10"/>
<path d="M27.4961 199.382L31.8803 200.892" stroke="#142533" stroke-miterlimit="10" stroke-linecap="round"/>
<path d="M21.8691 201.487L26.9115 203.22" stroke="#142533" stroke-miterlimit="10" stroke-linecap="round"/>
<path opacity="0.5" d="M41.1777 179.33C41.199 179.255 41.2202 179.181 41.2308 179.096C41.2521 179.032 41.2627 178.99 41.2839 178.926C41.252 179.064 41.2202 179.202 41.1777 179.33Z" fill="#F3F3F3" stroke="#142533" stroke-miterlimit="10"/>
<path d="M19.5545 185.9L19.3104 185.73C19.2891 185.698 19.2573 185.677 19.2254 185.666L19.1936 185.645C18.9813 185.464 18.7902 185.262 18.6204 185.028C18.132 184.38 17.803 183.519 17.6437 182.498C17.6437 182.498 17.6119 182.477 17.6331 182.413L18.8008 182.222C18.8221 182.243 18.8327 182.243 18.8539 182.253C19.0874 183.083 19.4908 183.731 20.011 184.157C21.0089 185.007 22.4207 184.965 23.8751 184.061C25.3082 183.168 26.6351 181.499 27.5268 179.489C27.5693 179.393 27.6117 179.287 27.6542 179.191C27.6542 179.191 27.633 179.17 27.6223 179.17L25.4249 179.532L21.7626 180.148L18.2807 180.776L14.6608 181.36C14.6501 181.36 14.6395 181.35 14.6289 181.339C14.6289 181.339 14.6289 181.339 14.6395 181.307L15.4463 179.723C15.4782 179.67 15.4888 179.649 15.5312 179.649L18.9494 179.096L22.6012 178.49L26.9536 177.777L30.9556 177.097L30.0958 178.787L30.0215 178.798L29.5331 178.883C29.1191 178.968 28.6627 179.404 28.3867 179.999C28.1319 180.542 27.8665 181.073 27.5693 181.573C27.2508 182.115 26.9005 182.626 26.5289 183.093C24.3846 185.836 21.7732 186.995 19.873 186.049C19.8093 186.007 19.735 185.975 19.6713 185.943C19.6394 185.911 19.597 185.9 19.5545 185.9Z" fill="#142533"/>
<path d="M27.6753 169.155L28.0044 169.389C28.0256 169.421 28.0469 169.442 28.0787 169.442C28.291 169.633 28.4821 169.846 28.6519 170.091C29.119 170.739 29.4375 171.59 29.5967 172.589C29.6073 172.61 29.6073 172.642 29.6073 172.674L29.5649 172.685L28.4609 172.887C28.4184 172.897 28.3865 172.876 28.3759 172.823C28.1636 172.036 27.7921 171.409 27.3144 170.984C26.7093 170.431 25.9344 170.207 25.0745 170.346C24.0342 170.495 22.9195 171.164 21.8898 172.249C21.2954 172.897 20.754 173.673 20.2975 174.524C20.0852 174.896 19.8941 175.279 19.7136 175.683C19.6712 175.757 19.6393 175.821 19.5969 175.906L19.6712 175.896L21.6987 175.555L24.7454 175.045L27.9725 174.513L30.9449 174.024L32.6752 173.737L31.826 175.417L31.7304 175.438L29.1084 175.885L25.6371 176.459L22.2401 177.023L18.9918 177.565L17.909 177.746L16.3697 178.001C16.3697 178.001 16.3485 177.99 16.3379 177.979L17.1234 176.438C17.1447 176.406 17.1659 176.363 17.1871 176.321L17.7604 176.225C18.0045 176.183 18.2593 176.013 18.4928 175.757C18.6733 175.545 18.8325 175.29 18.9599 175.002C19.2253 174.428 19.5226 173.865 19.8516 173.344C20.1595 172.834 20.4992 172.344 20.8495 171.898C22.4206 169.931 24.2677 168.783 25.9131 168.74C26.3484 168.73 26.7624 168.804 27.1339 168.953C27.2931 169.006 27.4524 169.08 27.601 169.166C27.6116 169.155 27.6435 169.166 27.6753 169.155Z" fill="#142533"/>
<path opacity="0.5" d="M265.561 184.763C265.592 184.805 265.624 184.858 265.656 184.911L265.624 184.848C265.603 184.827 265.582 184.795 265.561 184.763Z" fill="#F3F3F3" stroke="#142533" stroke-miterlimit="10" stroke-linecap="round"/>
<path d="M248.013 191.036C254.499 181.828 265.008 175.322 273.893 183.487C270.051 179.957 254.807 186.528 250.433 193.768C249.626 195.033 248.968 196.298 248.405 197.596C245.369 204.07 245.242 214.447 251.537 219.391C249.478 218.562 246.951 216.382 245.953 215.383C243.236 212.64 239.881 202.582 248.013 191.036Z" fill="#F3F3F3" stroke="#142533" stroke-miterlimit="10" stroke-linecap="round"/>
<path d="M274.064 208.852C280.441 199.052 280.358 187.68 273.879 183.451C267.4 179.223 256.979 183.739 250.602 193.538C244.226 203.338 244.309 214.71 250.787 218.939C257.266 223.168 267.688 218.652 274.064 208.852Z" fill="#F3F3F3" stroke="#142533" stroke-miterlimit="10" stroke-linecap="round"/>
<path d="M270.981 206.668C275.468 199.771 275.412 191.768 270.853 188.793C266.295 185.818 258.962 188.997 254.474 195.894C249.986 202.791 250.043 210.794 254.601 213.769C259.159 216.745 266.493 213.565 270.981 206.668Z" fill="#F3F3F3" stroke="#142533" stroke-miterlimit="10" stroke-linecap="round"/>
<path d="M247.313 214.968L244.701 213.586" stroke="#142533" stroke-miterlimit="10" stroke-linecap="round"/>
<path d="M245.89 210.375L243.215 209.206" stroke="#142533" stroke-miterlimit="10" stroke-linecap="round"/>
<path d="M246.43 212.65L243.883 211.534" stroke="#142533" stroke-miterlimit="10" stroke-linecap="round"/>
<path d="M245.91 204.974L243.012 203.582" stroke="#142533" stroke-miterlimit="10" stroke-linecap="round"/>
<path d="M245.795 207.813L242.918 206.537" stroke="#142533" stroke-miterlimit="10" stroke-linecap="round"/>
<path d="M247.502 199.637L244.35 198.031" stroke="#142533" stroke-miterlimit="10" stroke-linecap="round"/>
<path d="M246.632 202.125L243.564 200.456" stroke="#142533" stroke-miterlimit="10" stroke-linecap="round"/>
<path d="M249.828 194.683L246.686 193.077" stroke="#142533" stroke-miterlimit="10" stroke-linecap="round"/>
<path d="M248.458 197.287L245.295 195.671" stroke="#142533" stroke-miterlimit="10" stroke-linecap="round"/>
<path d="M253.713 189.345L250.635 187.772" stroke="#142533" stroke-miterlimit="10" stroke-linecap="round"/>
<path d="M256.037 187.198L252.768 185.528" stroke="#142533" stroke-miterlimit="10" stroke-linecap="round"/>
<path d="M258.108 185.443L254.828 183.763" stroke="#142533" stroke-miterlimit="10" stroke-linecap="round"/>
<path d="M251.58 192.099L248.406 190.483" stroke="#142533" stroke-miterlimit="10" stroke-linecap="round"/>
<path d="M260.964 183.806L257.514 182.041" stroke="#142533" stroke-miterlimit="10" stroke-linecap="round"/>
<path d="M264.243 182.403L260.74 180.5" stroke="#142533" stroke-miterlimit="10" stroke-linecap="round"/>
<path d="M267.8 181.86L264.244 179.883" stroke="#142533" stroke-miterlimit="10" stroke-linecap="round"/>
<path d="M257.873 197.032C261.886 197.17 265.909 197.309 269.954 197.447C267.077 201.636 264.221 205.825 261.345 210.025C261.281 209.886 261.217 209.748 261.164 209.621C260.686 208.557 260.219 207.505 259.742 206.442C259.243 205.325 258.754 204.219 258.255 203.103C257.916 202.327 257.565 201.561 257.215 200.796C257.183 200.732 257.183 200.658 257.194 200.583C257.396 199.52 257.587 198.457 257.778 197.394C257.799 197.277 257.841 197.17 257.873 197.032ZM268.245 198.712C268.234 198.712 268.234 198.701 268.223 198.701C267.894 198.882 267.555 199.074 267.226 199.254C266.727 199.531 266.217 199.807 265.718 200.094C265.219 200.371 264.72 200.647 264.221 200.924C263.712 201.211 263.202 201.487 262.682 201.774C262.629 201.806 262.608 201.838 262.597 201.891C262.395 203.709 262.183 205.538 261.981 207.356C261.96 207.547 261.939 207.728 261.918 207.919C261.928 207.919 261.928 207.919 261.939 207.93C264.041 204.847 266.143 201.785 268.245 198.712ZM267.831 198.117C267.831 198.106 267.831 198.106 267.831 198.095C264.922 198 262.024 197.893 259.094 197.798C259.168 197.872 259.232 197.925 259.285 197.989C259.954 198.627 260.623 199.265 261.281 199.903C261.674 200.275 262.066 200.647 262.459 201.03C262.491 201.062 262.523 201.072 262.576 201.051C262.756 200.945 262.948 200.849 263.128 200.743C263.584 200.488 264.052 200.232 264.519 199.977C264.975 199.722 265.432 199.467 265.888 199.222C266.302 198.989 266.727 198.765 267.141 198.531C267.364 198.382 267.597 198.244 267.831 198.117ZM258.181 201.115C259.179 203.358 260.177 205.591 261.175 207.813C261.185 207.813 261.185 207.813 261.196 207.813C261.419 205.857 261.642 203.911 261.865 201.955C260.644 201.678 259.423 201.402 258.181 201.115ZM261.44 201.104C261.44 201.094 261.451 201.094 261.451 201.083C260.432 200.116 259.413 199.137 258.383 198.149C258.245 198.882 258.117 199.595 257.99 200.307C259.137 200.583 260.283 200.849 261.44 201.104Z" fill="#142533"/>
<path d="M103.024 128.105C103.81 132.762 109.638 151.878 111.368 155.971C113.852 162.053 116.718 167.783 119.935 173.004C121.219 175.066 122.557 177.065 123.926 179C124.552 179.968 125.264 180.903 125.975 181.839C129.096 185.911 132.769 189.909 136.739 193.577C144.648 200.891 153.628 206.93 161.41 209.503C164.042 210.375 166.505 210.928 169.063 211.396C169.838 211.523 171.314 209.461 171.686 209.61C178.267 209.408 183.363 207.749 184.775 207.356C193.692 204.772 201.324 199.01 207.035 190.674C218.458 174.046 222.598 147.965 216.515 120.631C215.867 118.079 215.082 115.283 214.434 112.731C213.033 107.351 211.09 102.248 208.925 97.2933C203.925 85.5981 197.333 75.4339 189.828 67.3323C180.964 57.7529 170.847 51.076 160.55 48.1309C157.238 47.2591 154.021 46.6318 150.837 46.6212C146.898 46.3873 142.949 46.7807 138.99 47.8226C137.578 48.216 135.678 48.8433 134.16 49.6088C131.75 50.5338 129.807 51.8096 127.663 53.2237C126.272 54.2337 124.86 55.2756 123.841 56.4345C122.493 57.6572 118.119 59.1244 116.93 60.5278C113.597 64.3979 110.763 68.9696 108.502 74.073C106.782 77.8261 105.37 81.8769 104.319 86.1935C103.12 90.7971 105.402 95.5177 104.988 100.621L101.899 100.759C101.495 105.182 101.411 109.711 101.644 114.39C101.633 114.411 103.024 128.041 103.024 128.105Z" fill="#F3F3F3" stroke="#142533" stroke-width="1.5" stroke-miterlimit="10" stroke-linecap="round" stroke-linejoin="round"/>
<path d="M169.776 181.988C171.687 181.977 173.343 182.105 174.999 181.584C175.89 181.456 177.419 181.318 178.183 180.935C184.553 179 189.765 174.769 193.576 169.006C200.933 157.609 203.682 140.236 199.414 121.598C199.032 120.195 198.767 118.408 198.374 117.005C197.344 113.05 195.922 109.605 194.51 106.16C187.058 89.4469 175.158 77.2307 162.78 73.5627C157.802 71.9147 152.695 71.936 147.855 73.0949C146.708 73.3501 145.689 73.871 144.67 74.3814C143.014 74.9023 141.868 75.7954 140.466 76.8267C139.702 77.2095 139.065 77.858 138.428 78.4959C127.749 87.7245 122.706 106.267 125.827 126.436C126.348 130.008 127.123 133.453 128.025 137.163C128.927 140.225 129.957 142.905 130.987 145.584C139.118 166.752 154.596 181.01 169.776 181.988Z" fill="#F3F3F3" stroke="#142533" stroke-width="1.5" stroke-miterlimit="10" stroke-linecap="round" stroke-linejoin="round"/>
<path d="M88.9906 105.352C88.5341 109.733 88.3855 114.294 88.5341 118.908L88.5447 119.036C88.6933 123.427 89.1286 127.913 89.8929 132.411C89.9353 132.538 89.9141 132.687 89.9566 132.825C90.7103 137.418 91.7824 142.352 93.1412 147.104C95.6677 155.961 101.92 168.963 104.956 174.396C107.483 178.915 110.222 182.923 113.024 186.655C116.113 190.865 119.425 194.31 123.013 197.574C127.759 201.912 132.599 205.251 137.578 208.164C142.822 210.949 148.448 212.565 153.926 213.331C155.826 213.554 157.705 213.639 159.605 213.565C161.76 213.49 163.926 213.235 166.049 212.65C166.919 212.533 173.936 210.588 175.104 210.311L182.991 208.068C182.705 208.121 182.45 208.111 182.174 208.196C176.93 209.801 168.31 208.546 168.257 208.557C163.172 207.653 158.002 205.931 152.928 203.284C152.833 203.22 152.737 203.188 152.641 203.135C147.843 200.487 143.289 197.106 138.756 193.141C138.682 193.088 138.618 193.024 138.544 192.971C138.332 192.779 138.151 192.609 137.939 192.407C134.648 189.271 131.442 185.805 128.576 181.871C128.534 181.818 128.48 181.786 128.459 181.733C125.667 178.086 123.013 174.046 120.604 169.899C120.561 169.846 120.54 169.814 120.487 169.761C118.056 165.561 115.434 160.532 113.502 156.003C111.984 152.548 110.19 146.977 109.171 143.064C107.918 138.705 106.018 128.977 105.551 125.255C105.084 121.385 104.648 116.707 104.638 114.379V114.326L104.627 114.124C104.5 109.563 104.712 105.129 104.946 100.685C104.946 100.664 104.946 100.664 104.946 100.632L104.967 100.43C104.978 100.334 104.988 100.26 104.967 100.174L104.988 99.898C105.275 96.0599 105.954 92.5301 106.602 88.7982C106.761 87.8732 106.995 87.0121 107.228 86.1296C108.29 81.7811 109.659 77.7091 111.262 73.9985C113.523 69.0014 116.347 64.4084 119.723 60.4321L119.754 60.4108C120.975 59.1881 122.207 57.9867 123.427 56.764C123.48 56.6896 123.544 56.6471 123.597 56.5726C124.213 55.9241 124.892 55.35 125.551 54.8396C125.88 54.5632 126.262 54.2761 126.612 53.9997C126.888 53.7764 127.153 53.5744 127.408 53.3618C127.95 53.0109 128.459 52.6813 128.99 52.3517C129.128 52.2667 129.255 52.2029 129.393 52.1072C129.85 51.7989 130.328 51.5118 130.816 51.2566C131.24 50.9908 131.697 50.7569 132.143 50.523C132.695 50.2466 133.279 50.0021 133.884 49.7469C133.969 49.7044 134.064 49.6618 134.149 49.6193C134.553 49.4067 134.998 49.2153 135.434 49.0558C135.646 48.9708 135.879 48.8963 136.113 48.8113L135.826 48.8857L124.181 52.3198C121.241 53.4894 113.406 57.7847 110.806 59.9217C107.292 62.8136 97.7484 68.5017 91.5701 90.6163C91.2092 91.9028 90.8907 93.3062 90.6678 94.6033C89.8929 98.0587 89.3302 101.642 88.9906 105.352Z" fill="#F3F3F3" stroke="#142533" stroke-width="1.5" stroke-miterlimit="10" stroke-linecap="round" stroke-linejoin="round"/>
<path d="M98.3965 160.745L113.938 156.003" stroke="#142533" stroke-width="1.5" stroke-miterlimit="10" stroke-linecap="round" stroke-linejoin="round"/>
<path d="M108.894 143.053L93.8945 147.349" stroke="#142533" stroke-width="1.5" stroke-miterlimit="10" stroke-linecap="round" stroke-linejoin="round"/>
<path d="M113.289 186.517L128.575 181.871" stroke="#142533" stroke-width="1.5" stroke-miterlimit="10" stroke-linecap="round" stroke-linejoin="round"/>
<path d="M120.594 169.91L105.201 174.269" stroke="#142533" stroke-width="1.5" stroke-miterlimit="10" stroke-linecap="round" stroke-linejoin="round"/>
<path d="M137.844 208.025L152.918 203.262" stroke="#142533" stroke-width="1.5" stroke-miterlimit="10" stroke-linecap="round" stroke-linejoin="round"/>
<path d="M138.735 193.141L123.289 197.478" stroke="#142533" stroke-width="1.5" stroke-miterlimit="10" stroke-linecap="round" stroke-linejoin="round"/>
<path d="M168.47 208.568C168.406 208.568 168.311 208.546 168.247 208.546L152.918 213.182" fill="#F3F3F3"/>
<path d="M168.47 208.568C168.406 208.568 168.311 208.546 168.247 208.546L152.918 213.182" stroke="#142533" stroke-width="1.5" stroke-miterlimit="10" stroke-linecap="round" stroke-linejoin="round"/>
<path d="M89.9668 132.825L106.113 127.988" stroke="#142533" stroke-width="1.5" stroke-miterlimit="10" stroke-linecap="round" stroke-linejoin="round"/>
<path d="M104.638 114.368L88.5449 118.919V119.036" fill="#F3F3F3"/>
<path d="M104.638 114.368L88.5449 118.919V119.036" stroke="#142533" stroke-width="1.5" stroke-miterlimit="10" stroke-linecap="round" stroke-linejoin="round"/>
<path d="M88.9805 105.342L104.946 100.674C104.936 100.515 104.967 100.334 104.957 100.175C105.222 96.2302 105.955 92.6365 106.592 88.7984C106.772 87.8947 106.995 87.0122 107.239 86.1404L91.5707 90.6377C91.3371 91.9455 90.8913 93.3276 90.6577 94.6141C89.8934 98.0482 89.3414 101.642 88.9805 105.342Z" fill="#F3F3F3" stroke="#142533" stroke-width="1.5" stroke-miterlimit="10" stroke-linecap="round" stroke-linejoin="round"/>
<path d="M119.734 60.4429L108.227 62.144" stroke="#142533" stroke-width="1.5" stroke-miterlimit="10" stroke-linecap="round" stroke-linejoin="round"/>
<path d="M96.8574 76.5822L111.528 73.4458" stroke="#142533" stroke-width="1.5" stroke-miterlimit="10" stroke-linecap="round" stroke-linejoin="round"/>
<path d="M178.926 123.703C180.699 120.992 181.442 117.335 180.699 113.613L180.497 112.316C179.754 105.48 174.531 100.111 168.714 100.366L167.185 100.557L165.774 91.1479L161.4 91.6795L162.812 101.089L156.634 101.844L155.222 92.4344L150.848 92.966L152.26 102.375L146.549 103.077L154.043 152.909L156.23 152.643L160.392 152.133L161.856 161.84L166.23 161.309L164.765 151.601L170.943 150.847L172.408 160.554L176.782 160.022L175.317 150.315L177.568 150.039C183.321 149.124 187.058 142.703 185.901 135.76L185.678 134.303C185.062 129.572 182.398 125.638 178.926 123.703ZM151.719 107.84L169.372 105.671C172.653 105.533 175.667 108.627 176.113 112.71L176.357 114.294C177.143 118.228 175.158 121.959 172.069 122.597L154.266 124.777L151.719 107.84ZM181.538 136.323C182.217 140.427 180.03 144.202 176.718 144.723L157.631 147.062L155.073 130.093L174.107 127.765C177.525 127.467 180.752 130.582 181.315 134.771L181.538 136.323Z" fill="#142533"/>
<path opacity="0.5" d="M203.216 300.45C203.195 300.365 203.174 300.279 203.152 300.184L203.163 300.29C203.184 300.343 203.205 300.397 203.216 300.45Z" fill="#F3F3F3" stroke="#142533" stroke-miterlimit="10" stroke-linecap="round"/>
<path d="M230.954 301.013C217.069 310.401 199.001 313.888 190.934 297.823C194.426 304.777 219.107 303.703 229.012 295.931C230.795 294.591 232.387 293.177 233.852 291.678C241.506 284.278 247.154 269.893 240.997 259.687C243.438 261.93 245.795 266.31 246.655 268.213C249.011 273.466 248.374 289.243 230.954 301.013Z" fill="#F3F3F3" stroke="#142533" stroke-miterlimit="10" stroke-linecap="round"/>
<path d="M228.678 296.174C242.727 285.911 248.615 270.038 241.829 260.721C235.043 251.404 218.154 252.171 204.105 262.434C190.057 272.698 184.169 288.571 190.954 297.888C197.74 307.205 214.629 306.437 228.678 296.174Z" fill="#F3F3F3" stroke="#142533" stroke-miterlimit="10" stroke-linecap="round"/>
<path d="M224.533 290.858C234.419 283.636 238.561 272.467 233.787 265.911C229.012 259.355 217.128 259.895 207.242 267.116C197.357 274.338 193.214 285.507 197.989 292.063C202.764 298.619 214.648 298.08 224.533 290.858Z" fill="#F3F3F3" stroke="#142533" stroke-miterlimit="10" stroke-linecap="round"/>
<path d="M244.562 268.075L247.471 271.382" stroke="#142533" stroke-miterlimit="10" stroke-linecap="round"/>
<path d="M244.117 275.209L247.228 278.271" stroke="#142533" stroke-miterlimit="10" stroke-linecap="round"/>
<path d="M244.562 271.754L247.535 274.667" stroke="#142533" stroke-miterlimit="10" stroke-linecap="round"/>
<path d="M241.23 282.726L244.532 286.203" stroke="#142533" stroke-miterlimit="10" stroke-linecap="round"/>
<path d="M242.896 278.835L246.23 282.141" stroke="#142533" stroke-miterlimit="10" stroke-linecap="round"/>
<path d="M236.209 289.307L239.755 293.22" stroke="#142533" stroke-miterlimit="10" stroke-linecap="round"/>
<path d="M238.734 286.309L242.11 290.254" stroke="#142533" stroke-miterlimit="10" stroke-linecap="round"/>
<path d="M230.359 294.974L233.884 298.865" stroke="#142533" stroke-miterlimit="10" stroke-linecap="round"/>
<path d="M233.641 292.082L237.186 296.005" stroke="#142533" stroke-miterlimit="10" stroke-linecap="round"/>
<path d="M222.133 300.354L225.594 304.171" stroke="#142533" stroke-miterlimit="10" stroke-linecap="round"/>
<path d="M217.76 302.108L221.433 306.159" stroke="#142533" stroke-miterlimit="10" stroke-linecap="round"/>
<path d="M213.947 303.448L217.631 307.52" stroke="#142533" stroke-miterlimit="10" stroke-linecap="round"/>
<path d="M226.559 297.643L230.104 301.566" stroke="#142533" stroke-miterlimit="10" stroke-linecap="round"/>
<path d="M209.107 304.213L212.982 308.498" stroke="#142533" stroke-miterlimit="10" stroke-linecap="round"/>
<path d="M203.799 304.426L207.673 308.934" stroke="#142533" stroke-miterlimit="10" stroke-linecap="round"/>
<path d="M198.576 303.299L202.472 307.945" stroke="#142533" stroke-miterlimit="10" stroke-linecap="round"/>
<path d="M221.304 271.903L207.111 274.688L209.553 283.013L212.196 276.634L221.304 271.903Z" fill="#142533"/>
<path d="M223.119 273.519L214.064 277.984L211.113 284.512L226.665 282.216L223.119 273.519Z" fill="#142533"/>
<path d="M99.2554 295.155L98.4805 295.867C98.2151 295.963 97.9816 296.101 97.7268 296.133C96.4848 296.409 94.6377 296.027 92.2704 294.91C90.0836 293.911 87.3979 292.305 84.3406 290.03C70.1157 279.568 52.7805 259.761 45.8592 246.056C44.9356 244.26 44.2244 242.697 43.8104 241.304C43.6193 240.698 43.4176 240.092 43.3327 239.528C43.2053 239.071 43.1098 238.656 43.0567 238.21C42.8656 236.743 43.0991 235.679 43.7573 234.999L44.2987 234.499C44.3412 234.467 44.373 234.425 44.4155 234.467C44.8719 234.191 45.5089 234.106 46.1777 234.212L46.2944 234.18C49.0014 234.34 53.3325 236.519 59.0543 240.772C59.7337 241.293 60.4556 241.846 61.1774 242.399C63.3642 244.174 65.689 246.184 67.9395 248.268C69.5107 249.756 71.1136 251.287 72.6741 252.925C73.3535 253.594 74.0647 254.296 74.7335 255.03C77.1114 257.486 79.5317 260.059 81.7185 262.695C82.3873 263.44 83.0242 264.205 83.6293 264.949C85.0731 266.693 86.4849 268.469 87.78 270.212C90.487 273.731 92.8543 277.197 94.7544 280.451C95.4869 281.567 96.1026 282.715 96.6865 283.821C99.5633 289.243 100.359 293.007 99.4147 294.868C99.4041 295.006 99.3297 295.08 99.2554 295.155Z" fill="#F3F3F3" stroke="#142533" stroke-miterlimit="10" stroke-linecap="round" stroke-linejoin="round"/>
<path d="M98.4488 295.857L91.7398 301.747C90.5084 302.448 88.4065 302.14 85.4978 300.779C83.3217 299.759 80.6996 298.153 77.6529 295.931C77.5999 295.889 77.5468 295.857 77.4937 295.814C75.1583 294.113 72.7698 292.125 70.3176 289.977C69.8824 289.594 69.4577 289.212 69.0225 288.818C66.8463 286.83 64.6595 284.714 62.4939 282.503C59.978 279.93 57.494 277.229 55.1267 274.497C53.1098 272.179 51.1671 269.819 49.3625 267.49C47.1863 264.684 45.18 261.909 43.4178 259.251C43.2692 259.027 43.1312 258.804 42.9932 258.581C41.4964 256.252 40.18 254.041 39.1397 251.936C38.8849 251.436 38.6514 250.947 38.4285 250.479C36.1249 245.525 35.7533 242.282 37.0166 240.9L43.7256 235.01C42.7596 236.073 42.6959 238.189 43.8212 241.304C44.1078 242.261 44.5218 243.292 45.0526 244.419C45.2967 244.94 45.5621 245.482 45.8381 246.046C46.8678 248.087 48.1417 250.277 49.596 252.542C51.4431 255.413 53.5875 258.432 55.9441 261.473C57.7488 263.812 59.6914 266.161 61.6978 268.501C64.065 271.233 66.5385 273.923 69.065 276.506C71.2199 278.707 73.4173 280.834 75.5935 282.811C78.4597 285.416 81.3047 287.798 84.0435 289.828C84.1391 289.903 84.2452 289.977 84.3514 290.052C87.3025 292.21 89.8821 293.794 92.037 294.804C92.1113 294.836 92.1856 294.879 92.26 294.91C95.1474 296.271 97.2387 296.558 98.4488 295.857Z" fill="#F3F3F3" stroke="#142533" stroke-miterlimit="10" stroke-linecap="round" stroke-linejoin="round"/>
<path d="M49.6176 252.531L43.0041 258.57C41.5073 256.242 40.191 254.03 39.1507 251.925C38.8959 251.426 38.6624 250.936 38.4395 250.469L45.0636 244.408C45.3077 244.929 45.5731 245.472 45.8491 246.035C46.8894 248.087 48.1633 250.267 49.6176 252.531Z" fill="#F3F3F3" stroke="#142533" stroke-miterlimit="10" stroke-linecap="round" stroke-linejoin="round"/>
<path d="M61.7189 268.49L55.1373 274.497C53.1203 272.179 51.1777 269.819 49.373 267.49L55.9653 261.473C57.77 263.801 59.702 266.161 61.7189 268.49Z" fill="#F3F3F3" stroke="#142533" stroke-miterlimit="10" stroke-linecap="round" stroke-linejoin="round"/>
<path d="M75.6044 282.801L69.0227 288.818C66.8465 286.83 64.6597 284.714 62.4941 282.503L69.0758 276.496C71.2414 278.697 73.4282 280.812 75.6044 282.801Z" fill="#F3F3F3" stroke="#142533" stroke-miterlimit="10" stroke-linecap="round" stroke-linejoin="round"/>
<path d="M92.0481 294.793L85.4983 300.779C83.3221 299.759 80.7 298.153 77.6534 295.931C77.6003 295.888 77.5472 295.857 77.4941 295.814L84.0546 289.818C84.1501 289.892 84.2562 289.966 84.3624 290.041C87.3029 292.199 89.8931 293.794 92.0481 294.793Z" fill="#F3F3F3" stroke="#142533" stroke-miterlimit="10" stroke-linecap="round" stroke-linejoin="round"/>
<path d="M91.252 286.055C93.5737 283.934 86.8785 272.796 76.2978 261.179C65.7172 249.561 55.2578 241.863 52.9362 243.984C50.6145 246.105 57.3097 257.242 67.8904 268.859C78.471 280.477 88.9304 288.176 91.252 286.055Z" fill="#F3F3F3" stroke="#142533" stroke-miterlimit="10" stroke-linecap="round" stroke-linejoin="round"/>
<path d="M70.8598 262.121L68.9065 259.75L71.8258 258.932L68.8428 255.317L61.3164 257.422L64.2994 261.037L67.2187 260.218L69.1719 262.589C67.1125 263.376 65.828 264.811 67.07 266.31C68.312 267.809 71.0296 268.128 73.3757 267.693L80.2333 276.017L81.9212 275.55L75.0635 267.225C77.123 266.427 78.4074 265.003 77.1548 263.493C75.9128 261.994 73.2058 261.685 70.8598 262.121ZM74.7981 266.597L74.692 266.629L74.5858 266.661C74.3098 266.736 74.0551 266.863 73.7684 266.938C73.4818 267.012 73.2058 267.097 72.9192 267.172L72.4203 267.257L72.3035 267.289C69.915 267.533 67.898 266.959 67.3142 266.247C66.7303 265.534 67.3142 264.035 69.5965 263.121L71.8789 265.896C72.1549 265.821 72.4627 265.779 72.76 265.704C73.0572 265.619 73.3332 265.545 73.6092 265.47L71.3162 262.685C73.9383 262.196 76.2843 262.812 76.9319 263.61C77.5794 264.386 76.9425 265.715 74.7981 266.597Z" fill="#142533"/>
</svg>
