<?xml version="1.0" encoding="utf-8"?><svg width="27" height="24" viewBox="0 0 27 24" fill="none" xmlns="http://www.w3.org/2000/svg">
<path d="M15.6842 12.9464C15.5789 12.9464 14.7368 12.9464 13.0526 12.9464C11.6842 12.9464 10.7368 12.9464 10.4211 12.8411C5.15789 12.6306 1.26316 11.6832 1.26316 10.6306C1.26316 9.57797 5.15789 8.6306 10.4211 8.42008V11.999C10.7368 11.999 11.7895 12.1043 13.0526 12.1043C14.6316 12.1043 15.4737 11.999 15.6842 11.999V8.42008C20.9474 8.6306 24.8421 9.57797 24.8421 10.6306C24.8421 11.6832 20.9474 12.6306 15.6842 12.9464ZM15.6842 8.10429V4.94639H22.9474V-0.000976562H3.05263V4.84113H10.3158V7.99902C4.42105 8.31481 0 9.47271 0 10.9464C0 12.4201 4.42105 13.578 10.4211 13.7885V23.999H15.6842V13.7885C21.5789 13.4727 26.1053 12.3148 26.1053 10.9464C26.1053 9.47271 21.5789 8.31481 15.6842 8.10429Z" fill="#26997B"/>
</svg>
