<?xml version="1.0" encoding="utf-8"?>
<!-- Generator: Adobe Illustrator 25.2.1, SVG Export Plug-In . SVG Version: 6.00 Build 0)  -->
<svg version="1.1" id="Calque_1" xmlns="http://www.w3.org/2000/svg" xmlns:xlink="http://www.w3.org/1999/xlink" x="0px" y="0px"
	 viewBox="0 0 113 113" style="enable-background:new 0 0 113 113;" xml:space="preserve">
<style type="text/css">
	.st0{fill:#FF007A;}
	.st1{fill:#CD0062;}
	.st2{fill:#CA0060;}
	.st3{fill:#AD0052;}
	.st4{fill:#AD0053;}
	.st5{fill:#C7005F;}
	.st6{fill:#62002F;}
	.st7{fill:#CB0061;}
	.st8{fill:#9D004B;}
</style>
<g id="Uniswap">
	<path class="st0" d="M67.1,51.32c0.16,0.03,0.24,0.12,0.32,0.19c1.3,1.15,2.84,1.8,4.5,2.21c1.6,0.39,3.21,0.64,4.83,0.89
		c2.14,0.33,4.29,0.62,6.38,1.25c2.01,0.61,3.89,1.48,5.54,2.81c2.41,1.94,3.86,4.45,4.38,7.49c0.19,1.12,0.13,2.26,0.06,3.4
		c-0.03,0.42-0.07,0.84-0.13,1.25c-0.19,1.34-0.73,2.55-1.33,3.74c-0.05,0.1-0.1,0.28-0.23,0.25c-0.16-0.03-0.12-0.22-0.13-0.34
		c-0.11-2.29-1.21-4.04-2.96-5.44c-1.11-0.88-2.34-1.56-3.6-2.17c-1.99-0.96-4.03-1.79-6.08-2.61c-1.83-0.74-3.63-1.54-5.35-2.52
		c-1.26-0.71-2.45-1.52-3.51-2.52c-1.82-1.72-2.72-3.83-2.74-6.33C67.05,52.35,67.05,51.85,67.1,51.32z"/>
	<path class="st0" d="M88.41,56.16c-0.18-0.25-0.35-0.51-0.53-0.76c-1.1-1.57-2.6-2.52-4.49-2.88c-0.98-0.19-1.98-0.29-2.97-0.36
		c-1.71-0.11-3.42-0.19-5.13-0.38c-1.78-0.2-3.52-0.58-5.21-1.2c-1.98-0.73-3.63-1.92-5.07-3.44c-1.41-1.49-2.66-3.12-3.89-4.75
		c-1.24-1.63-2.5-3.25-3.96-4.69c-1.47-1.45-3.1-2.68-5.01-3.49c-1.29-0.55-2.64-0.88-4.02-1.08c-0.1-0.01-0.19-0.03-0.29-0.05
		c-0.03-0.01-0.08-0.01-0.09-0.08c0.2-0.07,0.41-0.09,0.62-0.09c2.91-0.02,5.61,0.69,8.05,2.32c1.77,1.18,3.3,2.63,4.7,4.21
		c0.17,0.19,0.35,0.39,0.5,0.59c0.14,0.18,0.29,0.22,0.51,0.18c0.9-0.15,1.8-0.29,2.71-0.37c1.5-0.13,3.01-0.13,4.51,0
		c1.94,0.17,3.83,0.57,5.67,1.2c1.67,0.57,3.22,1.37,4.7,2.32c0.32,0.2,0.49,0.46,0.56,0.82c0.22,1.17,0.37,2.34,0.23,3.53
		c-0.07,0.66-0.24,1.28-0.55,1.87c-0.06,0.12-0.13,0.24-0.19,0.36c-0.24,0.54-0.1,1.18,0.34,1.54c0.48,0.39,1.06,0.41,1.57,0.05
		c0.37-0.26,0.64-0.61,0.88-0.99c0.51-0.82,0.81-1.71,1.03-2.64c0.07-0.31,0.15-0.62,0.22-0.92c0.08-0.02,0.11,0.01,0.14,0.05
		c1.83,2.01,3.25,4.28,4.11,6.87c0.22,0.66,0.38,1.33,0.42,2.02C88.52,56.02,88.6,56.14,88.41,56.16z"/>
	<path class="st0" d="M82.93,92.45c0.08-0.32,0.22-0.58,0.34-0.84c0.35-0.72,0.62-1.48,0.78-2.27c0.32-1.56,0.16-3.09-0.34-4.59
		c-0.32-0.97-0.77-1.87-1.27-2.75c-0.71-1.26-1.5-2.47-2.3-3.66c-0.8-1.17-1.6-2.34-2.37-3.54c-0.88-1.38-1.6-2.83-1.97-4.44
		c-0.34-1.46-0.38-2.93-0.03-4.4c0.05-0.2,0.11-0.4,0.21-0.59c0.06-0.12,0.15-0.16,0.28-0.1c0.1,0.04,0.2,0.09,0.3,0.15
		c1.54,0.97,3.15,1.8,4.73,2.68c1.58,0.87,3.13,1.78,4.56,2.88c0.7,0.54,1.36,1.14,1.95,1.81c1.56,1.74,2.4,3.8,2.68,6.1
		c0.1,0.87,0.06,1.75,0.01,2.63c-0.16,2.91-1.25,5.45-3.1,7.68c-1.12,1.35-2.5,2.37-4.08,3.13C83.2,92.37,83.1,92.43,82.93,92.45z"
		/>
	<path class="st0" d="M47.58,34.93c1.2,0.2,2.31,0.6,3.34,1.21c0.97,0.58,1.65,1.43,2.11,2.46c0.45,1.01,0.72,2.07,0.95,3.14
		c0.18,0.83,0.37,1.66,0.58,2.48c0.14,0.53,0.33,1.03,0.58,1.51c0.38,0.75,0.81,1.47,1.29,2.16c0.08,0.11,0.15,0.23,0.2,0.35
		c0.14,0.34,0.01,0.58-0.36,0.65c-0.37,0.07-0.74,0.05-1.1-0.03c-0.71-0.15-1.35-0.46-1.96-0.84c-1.73-1.08-3.03-2.54-3.97-4.35
		c-0.94-1.82-1.53-3.74-1.76-5.77C47.38,36.98,47.42,35.75,47.58,34.93z"/>
	<path class="st0" d="M72.21,63.48c0.9,0.96,1.42,2.12,1.78,3.37c0.06,0.22,0.08,0.44,0.09,0.66c0.04,0.92,0.11,1.86-0.08,2.77
		c-0.31,1.53-1.12,2.81-2.23,3.89c-1.26,1.22-2.79,1.93-4.47,2.35c-1,0.25-2.01,0.37-3.03,0.45c-1.65,0.14-3.3,0.19-4.94,0.38
		c-1.58,0.18-3.15,0.46-4.65,1c-0.17,0.06-0.34,0.14-0.55,0.13c0.01-0.15,0.14-0.19,0.23-0.25c1.29-0.81,2.63-1.5,4.11-1.92
		c1.61-0.46,3.27-0.75,4.92-1.04c1.35-0.23,2.71-0.42,4-0.89c1.36-0.5,2.59-1.22,3.57-2.31c1.41-1.57,1.96-3.42,1.8-5.5
		c-0.08-1.03-0.31-2.02-0.63-3C72.1,63.49,72.13,63.47,72.21,63.48z"/>
	<path class="st0" d="M87,46.24c-0.94-0.84-1.9-1.65-2.92-2.39c-0.23-0.17-0.46-0.33-0.71-0.46c-0.29-0.15-0.49-0.08-0.62,0.22
		c-0.09,0.19-0.1,0.41-0.1,0.62c-0.01,0.69-0.02,1.38-0.07,2.07c-0.09,1.14-0.34,2.24-0.88,3.26c-0.08,0.15-0.14,0.32-0.29,0.44
		c-0.03-0.19,0.06-0.33,0.12-0.47c0.2-0.47,0.29-0.97,0.3-1.48c0.01-1.12,0.05-2.25-0.06-3.37c-0.04-0.38-0.09-0.76-0.18-1.13
		c-0.21-0.89-0.69-1.6-1.41-2.16c-0.84-0.65-1.77-1.16-2.72-1.64c-0.68-0.35-1.37-0.67-2.06-1c0-0.14,0.08-0.11,0.16-0.08
		c1.09,0.24,2.14,0.58,3.17,0.98c0.54,0.21,1.07,0.44,1.63,0.6c0.39,0.11,0.45,0.07,0.54-0.31c0.09-0.42,0.1-0.86,0.13-1.29
		c0.04-0.88,0.14-1.74,0.37-2.59c0.15-0.56,0.39-1.09,0.65-1.61c0.03-0.07,0.06-0.14,0.14-0.17c0.03,0.14-0.04,0.27-0.08,0.39
		c-0.31,0.8-0.4,1.63-0.38,2.47c0.02,0.86,0.13,1.72,0.31,2.57c0.14,0.65,0.42,1.23,0.84,1.75c0.43,0.53,0.9,1.01,1.38,1.5
		c0.88,0.91,1.74,1.85,2.57,2.81c0.1,0.12,0.19,0.25,0.29,0.38C87.11,46.23,87.08,46.26,87,46.24z"/>
	<path class="st1" d="M31.4,33.79c-0.03,0.03-0.06,0.06-0.09,0.1c-0.11-0.11-0.16-0.24-0.21-0.38c-0.03-0.09,0.01-0.1,0.08-0.09
		C31.26,33.54,31.36,33.65,31.4,33.79z"/>
	<path class="st2" d="M87,46.24c0.03-0.03,0.06-0.06,0.09-0.09c0.13,0.1,0.22,0.24,0.3,0.38c-0.03,0.04-0.06,0.04-0.1,0.01
		C87.18,46.45,87.07,46.37,87,46.24z"/>
	<path class="st0" d="M77.2,96.65c-0.33,0.11-0.65,0.22-0.98,0.33c-1.33,0.45-2.68,0.66-4.08,0.42c-1.07-0.19-1.93-0.71-2.55-1.62
		c-0.44-0.65-0.75-1.36-0.94-2.12c-0.25-0.97-0.36-1.96-0.52-2.95c-0.2-1.24-0.41-2.48-0.83-3.67c-0.62-1.77-1.6-3.27-3.18-4.34
		c-0.47-0.32-0.96-0.6-1.47-0.85c-1.44-0.7-2.97-1.04-4.57-1.1c-1-0.04-2-0.05-2.99,0.11c-1.74,0.27-3.41,0.8-5.01,1.51
		c-2.47,1.11-4.75,2.51-6.71,4.4c-0.07,0.06-0.17,0.11-0.15,0.24c0.89,0.16,1.8,0.29,2.69,0.46c1.97,0.36,3.69,1.2,5.14,2.59
		c0.24,0.23,0.48,0.46,0.72,0.69c0.68,0.66,1.33,1.36,2.03,2c0.9,0.83,1.96,1.32,3.16,1.5c2.29,0.34,4.64-1.23,4.62-3.8
		c-0.01-0.64-0.05-1.28-0.4-1.85c-0.73-1.18-2.38-1.78-3.7-1.34c-0.66,0.22-1.13,0.64-1.37,1.3c-0.3,0.83,0,1.61,0.75,1.96
		c0.12,0.09,0.25,0.13,0.4,0.1c-0.09-0.1-0.19-0.17-0.32-0.19c-0.4-0.24-0.68-0.56-0.68-1.07c-0.01-0.78,0.38-1.35,1.12-1.6
		c0.95-0.32,2.27,0.11,2.84,0.94c0.13,0.18,0.21,0.39,0.27,0.6c0.08,0.29,0.09,0.59,0.07,0.88c-0.07,1.53-1.48,2.7-2.99,2.48
		c-0.85-0.12-1.6-0.49-2.25-1.05c-0.28-0.24-0.51-0.54-0.68-0.87c-0.87-1.66-0.12-3.74,1.65-4.53c1.29-0.57,2.6-0.53,3.89-0.03
		c1.56,0.6,2.76,1.66,3.63,3.08c0.43,0.69,0.79,1.42,1.13,2.16c0.42,0.92,0.82,1.85,1.26,2.76c0.43,0.88,0.95,1.7,1.61,2.43
		c1.65,1.82,3.7,2.41,6.07,1.88c1.2-0.27,2.22-0.92,3.2-1.64C77.14,96.82,77.21,96.78,77.2,96.65z"/>
	<path class="st3" d="M88.41,56.16c0.08-0.06,0.06-0.16,0.09-0.24c0.06,0.12,0.09,0.24,0.05,0.38
		C88.45,56.3,88.42,56.24,88.41,56.16z"/>
	<path class="st4" d="M31.17,33.42c-0.03,0.03-0.05,0.06-0.08,0.09c-0.08-0.07-0.09-0.16-0.13-0.28
		C31.11,33.25,31.14,33.34,31.17,33.42z"/>
	<path class="st5" d="M75.54,38.67c-0.05,0.03-0.1,0.05-0.16,0.08c-0.07,0-0.14-0.04-0.19-0.11C75.32,38.56,75.43,38.61,75.54,38.67
		z"/>
	<path class="st6" d="M87.46,46.59c0.03,0.02,0.05,0.05,0.08,0.07c0.02,0.03,0.05,0.08,0.01,0.09c-0.05,0.02-0.09-0.02-0.1-0.07
		C87.41,46.65,87.42,46.62,87.46,46.59z"/>
	<path class="st7" d="M72.21,63.48c-0.03,0.03-0.06,0.06-0.08,0.08c-0.01-0.01-0.02-0.02-0.02-0.03c-0.03-0.06-0.09-0.14,0-0.18
		C72.14,63.34,72.19,63.42,72.21,63.48z"/>
	<path class="st8" d="M87.46,46.59c0,0.03-0.01,0.07-0.01,0.1c-0.07-0.04-0.12-0.08-0.16-0.16c0.03,0,0.06-0.01,0.1-0.01
		C87.42,46.55,87.44,46.57,87.46,46.59z"/>
	<path class="st0" d="M50.61,47.97c-0.51-0.57-1.02-1.14-1.54-1.71C40.45,36.71,31.79,27.2,23.1,17.7
		c-0.83-0.91-1.68-1.81-2.51-2.71c-0.07-0.02-0.11,0.01-0.08,0.09c0.21,0.27,0.42,0.55,0.64,0.82c6.69,8.14,13.36,16.29,20.02,24.46
		c2.1,2.58,4.2,5.17,6.29,7.76c0.14,0.17,0.28,0.35,0.39,0.54c0.36,0.59,0.29,1.16-0.2,1.65c-0.26,0.27-0.58,0.46-0.92,0.61
		c-0.44,0.2-0.9,0.33-1.37,0.44c-1.37,0.32-2.45-0.13-3.27-1.24c-0.5-0.68-0.97-1.37-1.44-2.07c-2.39-3.56-4.67-7.2-7.01-10.8
		c-0.74-1.15-1.5-2.29-2.25-3.43c-0.07-0.01-0.11,0.02-0.09,0.1c0.06,0.12,0.11,0.25,0.18,0.36c2.27,4.08,4.55,8.16,6.82,12.25
		c0.75,1.35,1.48,2.7,2.16,4.09c0.25,0.51,0.18,0.95-0.11,1.39c-0.17,0.26-0.37,0.49-0.58,0.72c-0.66,0.72-1.12,1.56-1.42,2.49
		c-0.34,1.06-0.53,2.15-0.66,3.26c-0.24,2.02-0.81,3.93-1.82,5.7c-0.7,1.23-1.5,2.38-2.37,3.49c-0.81,1.04-1.64,2.07-2.45,3.11
		c-0.65,0.83-1.14,1.75-1.53,2.73c-0.16,0.4-0.27,0.82-0.34,1.25c-0.38,2.31-0.07,4.55,0.82,6.71c0.43,1.04,1.03,1.99,1.64,2.93
		c0.52,0.8,1.02,1.61,1.42,2.47c0.11,0.23,0.22,0.47,0.26,0.73c0.06,0.37,0.09,0.4,0.47,0.36c0.06-0.01,0.12-0.02,0.18-0.03
		c1.06-0.19,2.1-0.46,3.12-0.78c1.7-0.54,3.33-1.23,4.82-2.23c0.86-0.58,1.62-1.26,2.24-2.08c0.36-0.47,0.59-0.99,0.67-1.58
		c0.07-0.49,0.04-0.98,0.06-1.48c0.02-0.76-0.23-1.43-0.65-2.04c-0.34-0.49-0.77-0.89-1.23-1.27c-0.53-0.44-1.1-0.83-1.67-1.22
		c-0.74-0.52-1.45-1.07-2.06-1.74c-1.05-1.14-1.52-2.49-1.43-4.03c0.05-0.72,0.28-1.4,0.54-2.07c0.44-1.11,0.98-2.18,1.48-3.27
		c0.71-1.57,1.12-3.2,1.26-4.92c0.05-0.69,0.09-1.38,0.21-2.06c0.09-0.5,0.19-0.99,0.48-1.43c0.46-0.7,1.13-1.08,1.95-1.22
		c0.83-0.14,1.66-0.24,2.47-0.45c1.28-0.34,2.41-0.93,3.33-1.9c0.53-0.56,0.92-1.19,1.09-1.94c0.13-0.61,0.11-1.23,0.16-1.84
		C50.8,48.16,50.7,48.07,50.61,47.97z M33.91,78.56c-0.43,0.29-0.97,0.26-1.34-0.07c-0.26-0.22-0.35-0.49-0.24-0.83
		c0.06-0.19,0.18-0.35,0.26-0.53c0.19-0.37,0.14-0.56-0.22-0.76c-0.2-0.11-0.35-0.22-0.34-0.47c0.02-0.27,0.19-0.42,0.42-0.51
		c0.52-0.19,1.02-0.12,1.48,0.18c0.48,0.32,0.78,0.9,0.78,1.56C34.68,77.68,34.44,78.21,33.91,78.56z"/>
	<path class="st0" d="M56.88,57.81c-0.04-0.36-0.16-0.7-0.34-1.01c-0.76-1.31-1.9-1.95-3.41-1.97c-0.79-0.01-1.48,0.23-2.07,0.76
		c-1.13,1.01-1.54,2.25-1.24,3.74c0.14,0.7,0.59,1.09,1.25,1.26c0.36,0.1,0.73,0.09,0.94,0.09c1.21,0.01,2.23-0.17,3.19-0.61
		c0.44-0.2,0.85-0.46,1.19-0.81C56.78,58.86,56.95,58.38,56.88,57.81z M54.64,57.42c-0.39,0.25-0.82,0.39-1.28,0.42
		c-0.53-0.03-1.02-0.19-1.42-0.55c-0.44-0.39-0.48-0.88-0.09-1.34c0.29-0.35,0.69-0.52,1.12-0.59c0.62-0.1,1.2,0.01,1.72,0.39
		C55.35,56.24,55.33,56.98,54.64,57.42z"/>
</g>
</svg>
