<?xml version="1.0" encoding="utf-8"?>
<svg xmlns="http://www.w3.org/2000/svg" viewBox="0 0 32 30.67"><defs><style>.a813555b-0a4e-4125-b5b6-151bf3c871bb{fill:#2775ca;}</style></defs><title>usdcoin_1</title><g id="ebbd8e72-fae5-47b9-940f-29a327dada8e" data-name="Calque 2"><g id="ba3590d0-a080-418d-9784-6e63780be936" data-name="Back"><path class="a813555b-0a4e-4125-b5b6-151bf3c871bb" d="M20.8,30.62c-.53.18-.89-.17-.89-.71V28.67a1,1,0,0,1,.53-.89,13.24,13.24,0,0,0,0-24.89A1,1,0,0,1,19.91,2V.76c0-.54.36-.71.89-.71A16.28,16.28,0,0,1,32,15.34,16,16,0,0,1,20.8,30.62Zm-3.38-5.15a.76.76,0,0,1-.71.71H15.29a.76.76,0,0,1-.71-.71V23.34a5.14,5.14,0,0,1-4.8-4.27c0-.36.18-.71.53-.71h1.6c.36,0,.53.18.71.53C13,20.14,13.69,21.2,16,21.2c1.78,0,3-.89,3-2.31s-.71-1.95-3.2-2.31c-3.73-.53-5.51-1.6-5.51-4.62a4.61,4.61,0,0,1,4.27-4.45V5.38a.76.76,0,0,1,.71-.71h1.42a.76.76,0,0,1,.71.71V7.51a4.35,4.35,0,0,1,3.91,3.56c0,.35-.17.71-.53.71H19.38c-.36,0-.54-.18-.71-.53-.36-1.25-1.25-1.78-2.85-1.78-1.78,0-2.66.89-2.66,2.13s.53,2,3.2,2.31c3.73.54,5.51,1.6,5.51,4.63,0,2.31-1.78,4.26-4.45,4.8Zm-5.33,4.44c0,.54-.36.71-.89.71A16,16,0,0,1,11.2.05c.53-.18.89.17.89.71V2a1,1,0,0,1-.53.89,13.24,13.24,0,0,0,0,24.89,1,1,0,0,1,.53.89Z"/></g></g></svg>