<?xml version="1.0" encoding="UTF-8"?>
<svg xmlns="http://www.w3.org/2000/svg" viewBox="0 0 50 50"><title>vechain</title><g id="b706a018-62bd-4794-aa4c-1caefcb1851a" data-name="Calque 2"><g id="aa6e45c5-1c31-408d-a2bc-5efb26737cd2" data-name="Back"><rect id="b91c2408-2051-4318-9d26-a42c6e1dfe3a" data-name="Your color" width="50" height="50" rx="19.67" style="fill:#4b5ab0"/><path d="M21,14.22l-1.55,3.29.59-.28a5.73,5.73,0,0,1,1.16-1.09,7.15,7.15,0,0,1,2.29-1,9.6,9.6,0,0,1,2-.33L29,13.89,25,8.22Z" style="fill:#fff"/><polygon points="17.74 30.76 15.84 26.27 14.7 29.27 17.74 30.76" style="fill:#fff"/><polygon points="14.77 20.8 15.85 23.99 17.78 19.25 14.77 20.8" style="fill:#fff"/><path d="M22.25,34.92a10.69,10.69,0,0,1-1.18-.37,9,9,0,0,1-.94-.44l.57,1.25Z" style="fill:#fff"/><path d="M18.91,18.68l-2.65,6.49,2.61,6.14.31.15,1.4-1.31a4.93,4.93,0,0,0,1.91,1.57,5.13,5.13,0,0,0,3.6.43,3.27,3.27,0,0,0,1.14-.51,2.86,2.86,0,0,0,.83-.9,2.57,2.57,0,0,0,.32-1.33A2.15,2.15,0,0,0,28,28.13a3.07,3.07,0,0,0-1-.88,6.54,6.54,0,0,0-1.43-.65L23.88,26a16.51,16.51,0,0,1-1.76-.66,6,6,0,0,1-1.58-1,5,5,0,0,1-1.15-1.56,5.36,5.36,0,0,1-.44-2.3,5.43,5.43,0,0,1,.35-2Z" style="fill:#fff"/><path d="M29.11,36.24l-3.76-1-.56,0-.58,0-3.08.86L25,41.79Z" style="fill:#fff"/><polygon points="13.98 28.85 15.38 25.16 14.04 21.23 8.24 25 13.98 28.85" style="fill:#fff"/><polygon points="14.56 19.98 18.27 18.07 20.04 14.32 13.18 13.09 14.56 19.98" style="fill:#fff"/><path d="M9.09,17.71l4.61,2.17-1.39-6.94a17.42,17.42,0,0,0-3.38,5.11Z" style="fill:#fff"/><path d="M36.09,36.86,31.75,32l-.78.34a5.59,5.59,0,0,1-1.19,1.33,6.52,6.52,0,0,1-2.26,1.15l-.18,0,2.55.69Z" style="fill:#fff"/><path d="M42.5,24.49a17.65,17.65,0,0,0-1.19-5.88L37,20.52Z" style="fill:#fff"/><path d="M9,32.08A17.55,17.55,0,0,0,12.25,37l1.37-6.84Z" style="fill:#fff"/><path d="M29.82,14.55h0L28.07,15c.35.08.69.18,1,.29a7.49,7.49,0,0,1,2.53,1.46l4.08-3.49Z" style="fill:#fff"/><path d="M37,29.52l4.3,1.5L41,31.8l-4.89-1.71-3.59,1.6,5,5.54a17.43,17.43,0,0,0,5-11.71Z" style="fill:#fff"/><path d="M18.1,32.47l.27-.25-.14-.3-3.75-1.84-1.36,6.75,6.76-1.29-1.07-2.35A6.9,6.9,0,0,1,18.1,32.47Z" style="fill:#fff"/><polygon points="39.32 18.59 32.84 18.37 36.15 19.98 39.32 18.59" style="fill:#fff"/><polygon points="34.37 23.87 35.62 20.64 31.82 18.8 34.37 23.87" style="fill:#fff"/><path d="M29.62,13.28,31.37,8.7l.37.14A17.28,17.28,0,0,0,25.51,7.5Z" style="fill:#fff"/><path d="M19.79,36.4,13,37.7A17.21,17.21,0,0,0,17.86,41Z" style="fill:#fff"/><path d="M20.56,36.71l-1.94,4.6A17.65,17.65,0,0,0,24.5,42.5Z" style="fill:#fff"/><path d="M8.87,31.81h0Z" style="fill:#fff"/><path d="M13.31,29.39,7.5,25.5a17.58,17.58,0,0,0,1.17,5.82Z" style="fill:#fff"/><path d="M18.17,41.13h0Z" style="fill:#fff"/><path d="M31.79,41.14l.1,0Z" style="fill:#fff"/><path d="M29.7,36.82,25.52,42.5a17.28,17.28,0,0,0,6.07-1.28Z" style="fill:#fff"/><path d="M30.49,36.56l1.86,4.33a17.35,17.35,0,0,0,4.52-3Z" style="fill:#fff"/><path d="M30.39,13.58l6.49-1.44A17.4,17.4,0,0,0,32.13,9Z" style="fill:#fff"/><path d="M37.51,12.79,32,17.52l9,.29a17.67,17.67,0,0,0-3.44-5Z" style="fill:#fff"/><path d="M30.58,18.15,29.5,19.32A4.18,4.18,0,0,0,28,18.13a4.52,4.52,0,0,0-3.24-.33,3.71,3.71,0,0,0-1.1.46,2.67,2.67,0,0,0-.81.83,2.21,2.21,0,0,0-.32,1.23,2.25,2.25,0,0,0,.27,1.13,2.59,2.59,0,0,0,.76.79,4.56,4.56,0,0,0,1.17.58c.46.17,1,.33,1.52.5s1.27.43,1.94.69A7.73,7.73,0,0,1,30,25a4.74,4.74,0,0,1,1.91,4,6.49,6.49,0,0,1-.28,2L34,24.91Z" style="fill:#fff"/><path d="M13.42,20.66,8.75,18.47a17.49,17.49,0,0,0-1.25,6Z" style="fill:#fff"/><polygon points="34.41 26.08 32.6 30.76 35.59 29.43 34.41 26.08" style="fill:#fff"/><polygon points="41.8 25 36.34 21.08 34.86 24.9 36.32 28.99 41.8 25" style="fill:#fff"/><path d="M20.74,13.13,24.5,7.5A17.19,17.19,0,0,0,19,8.56Z" style="fill:#fff"/><path d="M18.59,8.7h0Z" style="fill:#fff"/><path d="M20,13.48,18.2,8.86A17.48,17.48,0,0,0,13,12.23Z" style="fill:#fff"/></g></g></svg>