<?xml version="1.0" encoding="utf-8"?>
<svg xmlns="http://www.w3.org/2000/svg" viewBox="0 0 50 50"><defs><style>.bc8b895c-fccb-448a-a946-a44518fcd604{fill:#27a2db;}.e3546f5f-0221-4514-8ef2-65e515eb80b3{fill:#fff;}</style></defs><title>XRP</title><g id="a683ac77-9d4e-45c6-96ce-e669391d334f" data-name="Calque 2"><g id="b302fc06-abe7-4650-a348-52e5e690e5df" data-name="Back"><g id="a15a52d8-6045-4489-ba25-8624da0ecb14" data-name="XRP"><rect class="bc8b895c-fccb-448a-a946-a44518fcd604" width="50" height="50" rx="19.67"/><path class="e3546f5f-0221-4514-8ef2-65e515eb80b3" d="M24.87,23.9a7.34,7.34,0,0,1-5.24-2.42l-7.07-7.57h2.83l5.67,6.18a5.41,5.41,0,0,0,3.82,1.81h.05a6.33,6.33,0,0,0,4-1.81l5.78-6.18h2.76l-7.08,7.54A8.27,8.27,0,0,1,25,23.9Z"/><path class="e3546f5f-0221-4514-8ef2-65e515eb80b3" d="M25.13,26.1a7.34,7.34,0,0,1,5.24,2.42l7.07,7.57H34.61l-5.67-6.18a5.41,5.41,0,0,0-3.82-1.81h-.05a6.33,6.33,0,0,0-4,1.81l-5.78,6.18H12.56l7.08-7.54A8.27,8.27,0,0,1,25,26.1Z"/></g></g></g></svg>