<?xml version="1.0" encoding="utf-8"?>
<svg xmlns="http://www.w3.org/2000/svg" viewBox="0 0 31 33.46"><defs><style>.e1dd5fe0-b8da-4ccc-acf1-86ccee1f960e{fill:#cf6031;}</style></defs><title>Zclassic</title><g id="e5cc4483-a8ef-4b1c-9dd3-9d77f71a384e" data-name="Calque 2"><g id="f9185417-8839-4c03-b619-ab16baae8fbe" data-name="Line"><path id="fefae08e-350b-427b-97b8-c36f352773a6" data-name="Zclassic" class="e1dd5fe0-b8da-4ccc-acf1-86ccee1f960e" d="M30.36,22.23H15.78L26.13,8.83h-3l-1.48,1.88-.39.53h0L10.87,24.63H28.68a14.9,14.9,0,0,1-1.82,2.23A14.32,14.32,0,0,1,2.41,16.74a14.13,14.13,0,0,1,1.23-5.81h15.2l1.88-2.41H5A14.81,14.81,0,0,1,6.6,6.6a14.34,14.34,0,0,1,20.26,0A14,14,0,0,1,29,9.34l.21.34L31,8l-.14-.23A17.52,17.52,0,0,0,28.57,4.9,16.74,16.74,0,0,0,4.9,4.9,16.73,16.73,0,0,0,16.74,33.46a16.65,16.65,0,0,0,11.83-4.89,17.53,17.53,0,0,0,2.21-2.75l.14-.21-2.24-1Z"/></g></g></svg>